<mxfile host="app.diagrams.net" modified="2023-06-05T03:23:19.288Z" agent="Mozilla/5.0 (Windows NT 10.0; Win64; x64) AppleWebKit/537.36 (KHTML, like Gecko) Chrome/114.0.0.0 Safari/537.36 Edg/114.0.1823.37" etag="Er5cF0U2L1Qc8Bw_vBg7" version="21.3.7" type="github">
  <diagram name="第 1 页" id="znQIPF284Wv-K-ile92C">
    <mxGraphModel dx="1566" dy="1106" grid="1" gridSize="10" guides="1" tooltips="1" connect="1" arrows="1" fold="1" page="1" pageScale="1" pageWidth="827" pageHeight="1169" math="0" shadow="0">
      <root>
        <mxCell id="0" />
        <mxCell id="1" parent="0" />
        <mxCell id="XL6QC_tOQ0aqBgQdsJjQ-2" value="" style="shape=image;verticalLabelPosition=bottom;labelBackgroundColor=default;verticalAlign=top;aspect=fixed;imageAspect=0;image=data:image/png,iVBORw0KGgoAAAANSUhEUgAAAw4AAADACAIAAAAiKqNDAAAABmJLR0QA/wD/AP+gvaeTAAAueElEQVR42u2dd5gVRbr/79+/ezevbtB1k5vMeYNrAAPmnAPmnNaciBIUBAUxAa6YETGAYF4FVMCIiAFBJCgzAzMwA0xi8u8rZ+/s3NPVVdXhnDlz5vN56vEB7K6uDqf7W2+94b/aAAAAACCE/+ISAAAAACCVAAAAAJBKAAAAAEglAAAAAKQSAAAAAFIJAAAAAKkEAAAAgFQCAAAAQCoBAAAAIJUAAAAAkEoAAAAAgFQCAAAAQCoBAAAAIJUAAAAAkEoAAAAASCUAAAAApBIAAAAAUgkAAAAAqQQAAACAVAIAAABAKgEAAAAAUgkAAAAAqQQAAACAVAIAAABAKgEAAAAglQAAAACQSgAAAABIJQAAAACkEgAAAABSCQAAAACpBAAAAABIJQAAAACkEgAAAABSCQAAAACpBAAAAIBUAgAAAEAqAQAAACCVAAAAAJBKAAAAAEglAAAAAKRSMdBQ37rg9bqpd1Tdd2H5rUeX9T+gRE1/0F/1jwveqNMGPAoAAADQ7aTS2pKm54ZXDehVcvM+Ky1NGzx3e5U25oEAAACAbiGVate3PH9nVd+eK+0iqWPTxtpFO/JYAAAAQNFKpZbmtveerxl6ZKm/SOrYBh9WOuvxDc2NLMkBAABA0Umlrz7ceNdZq+OJpI7tztNWLZpbz/MBAACAVCoS1qxsmth/bXKR1LE9eFXF6mU4MAEAACCVujKKX3t9wvr++5ekq5Myrd9+JdPvWldfgwMTAAAAUqmr0draNu/lWoX950IkdWxDDi+dM7m6Bb0EAACAVOoqLP+k4Z7zIrgl3XHqqtlPVZctadxY06qmP+iv+kf/HnQ4HZSHBgAAAKlU0Kxb3TzplrV99vWVOMOOLZv/am2rySakf9T/0gaeXemgOrQGwKMDAACAVCo4Gje2KpL/loN93ZL67f+tp9HGWkfkf+Mmb6cBB/p2q5SVr4xd31BHQgEAAACkUsGwcHb9iJMiuCU9csOaytII5p/15c2Th1RGMlbJU6oVvQQAAIBU6lxKFzeOv7zCXyTdfc7qZfM3xjvWN583qDac/7G08def4cAEAACAVOoMVGZEK2h9e+Q1VE0OTN8G1h3lm++7T4+VMkdVVxIgBwAAgFTKF81NrRI9gw4p7awESHJFipSuaWCvEm3fREUUAAAApFKuWfLBxtFnrI6YVrsxFyNZ8020JODKPvDJjDoeLAAAAKRSTqj4uumR69dEKtb2xZycF2tbotJyZ0aRbldWrFrayOMFAACAVEqN+uoWReD3817wGnRoqRIHNOdrwaulue2952uGHOG7INi358opI6pq1+HA1AV45513L7n0Mku7f+xYrhIAAFKp08i4UQ+N6EZd0xlu1HUZN/OevualwRk3czJWFjaPPfb4//vv71jasccdz1UCAEAqdQ5LP9o45uwIa1sPXFGhmiSdO+byFU0PXRthlXDU6asWv1vP04ZUAvDhqcmTe/U6OKtNnfp8Lo7V0tISPNaZZ53NXQAoCKmk8iAyDvkLjuHHf5vysXCunVJijjx5VaSUmGtLmnjmkEoAdu64487gQ3jf/TlZBW5ubg4ea7vtduAuAHSyVFIhkVfHr+9/gHcc/kElMx/d0NRQcHH4GpIGpuF5nohOWSeu0+fJQyoBIJUAkEpmln3ccMcpq/zL0z49tHJDRUE7+2h4GqR/RRSd/vIFJPhGKgEglQCQSgE+eKHW3yf63vPLV3zSZSRFyaLGcZf4VkRR/vF3nqvh+UMqASCVAJBK/0Gx/f6VaD96petVotWANWwN3vM0dUF4BJFKAEglAKTSt0hD+CxRyZvntQfWN7i8eeQSvmhu/Ycv1SrXUbAteL1u+ScNsX2bVFNlxacNn86sM3Yuw9gXc+stDtoavE7BxxNLF2T+q7U8hUglAKQSQHeXShIWKpGWPEZMZpvP3qy757zVns7gz91etb48gp+TcjVNG71OyS19+h99xqpvTV8h2Z10XMX3OdXhgF4lSlDOg4hUAkAqAXRrqTT+8gq7YlBqJSVYsneiSrTynvYPzs+0Ww4u+fxtr5xGMkTd6p0Gs709dM0a5RkP69Mna9T4y8p5EJFKAEglgO4rlRa9U2+vT/Le1JoWV+Zt2ZOeHLA2qo5p96HWGOz9yyl7QK+SeP2PvaS8Kby+ik5NJ2i3VDmHB0glQCohlQCKViqNuzQ0LkxLaZ5ZGd95tiaejsm0oUeW1teEyjEJnREnliXpX85J9vHrNO8+dzWGJaQSAFIJAKn0f6gsbQ7z17n9hDKVVPP6MTe2xlgay2pvPBQabqa4/YSdyxOr1nUuWqcLy+6tS1RZRqE4pBIAUgmg+0ml2U9Vh5W81ZqXZycqoJZQymS8sMP6l1Enef/zXnLHspUubtSJG3efPbmaxxGpBIBUAuh2UinMwUjBbv6dvPHwhuRSRq2hzuxR5F9ixdKm3lHlcy6PXG+usztp4FoeR6QSAFIJoNtJpTtPMy85Kebfv5PnR1WFufhMGVEVbGE+1GtWGvyi5MMUluHJ2LlC3ozbP97XS+t8NqsuqtELkEqAVEIqARStVBp8WATVEoYEirETJYQ0bj+qt1mflS83HLR2nVkqDTmi1Nj5wtnm1cBHb/SykymLkvlwh5fm+l6UlpYuXbrM0qpraoKv0Q8/nDfm7nsuu/wKyYVDDztC7bTTel9w4UX6xzfffLOuri6nY25tbV385ZfPPPvsgIG3XHzJpTq0BnDiSSefd/4F1113/UMPPazh1dcnjR+MKpVaWlrsV1Kttjbylfn662/sfa5dG8H0qO2ffuaZfv0H9O595vEnnJi5d/pzn779npo8uaysLGv7jRs3Ok8q+Q2tqKh4/fU3Ro0affkV/zjzzLOOPuZYNf3hiiuuHD36rjfeeGPNmjUJD7F69Wr7WVRWVhoVw+w5c+68c9SFF12cedSPOPIoXS5dQD1+xl2QSs4XzvPPTxs0eMgZZ5yl32zmCTz11NP149V1fu21f61fvz71d9qqVaFzzsbGxqqqKj35zu21WVa3K1Z8bexzw4YNOkf9pvRqOvyII3WCJ518ih4hvR71OOnaRjodjfCtt9/W3T/3vPP1mz3s8CP007jmmmtHjBipl21DQw7LfH3zzTfPTZky8JZBOmL7zdJJXXTxJXeNuVs/zJqamNmSdVLOF0uSFvUiF6hU6hvimtPcGCGVdjFJJaUCD8tokOt7sd9+B9gFweSnn27fWK+GG2648de/2dq+y+Y/+dmZZ52tt166Q5UWefXV16TPfvPb39kHoPbjzTbXb/uRRx7VaytvVqVdd9vDvstttw2LNAbJoO9+7wf2PiV9fD4et9562x5//qu9q//+n+/uv/+BOnG9yDI7zp8/33mpY9/QL774QqPa8+976bjOge219z7Dhg2XRI53rJNPPtV+CMnujtvrQFdffc3Pt/iFZZfvff+HRx519L/+9TpSyYl0hoRCj577Oe/193/wI8kLTXhiz3Z6HXRIVp/HHX9C1jZLvvpKCkAP1Q9++OPgGILbCz2rWZv9duvfZ23z1dKlmjFutvlPLCf4q1//9qqrrl62bLmPUrn++ht++avfWHrbYsutrr32Om2Z4t3X1EVTFF0c52//Rz/eXOpt0qSn2t8Y/r99Z+dJmt54xSCVwjx7InVSTFIprWuSO6mk19aNN92st1ik53WffXvIWpB8kDLG3D927Pbb7xjjN/OTn/5c8k62mTxIpeHDb7fv8pe/7hlpDJJ6zrOz2/A0XdZ7+Yc/2izSRdOlnjVrVu6kkuajEhnOr6ZRMx1z7HGZseVIKklb64o5FWrHph/R4sWLkUpG1q1bJxvST3+2RdR7rSmZTjmGYLJLJdkXZeD5n+98z3LoGFJJV2zwkKH+PzTpbNlQq6vNgTuy5t4yaLCEiGdvmhmOvmtMa+IKqTKUymK6+eY/jXqz/vinbfSKbmryXRdCKiGVilAq6bHTNz72Uys7UJIluZdeelm/w4S/HL2YZA/XCyinUqmkpMT+ClbTdNZ/DJIF9t5kCbfsrntnt4tYmk5EK2KpSyVNpiWSkr8KtUIXtvyRRCrp7uy8y24xxqOv2pNPTkIqZSFR+7vf/zHJjZZqf3v27LSk0vLlK7bdbnvnQaNKJcnreE/1Djvs9NlnnwUtXn/9W5z3rZbGkqzHyT7qY7C3tD//5W8ff/wxUgmp1B2l0j333ufzcrE3Lf1Y3AUsxiQ5NKT4+9lt9z/7r+DEc+s+6OBD7Xvpg+c5AM04nZPUN996K2yxUo4+ya/Y2eecm6JUmjDhIU1/07qbmvvqHqUolbSK8fs//Cn2eCQux44bh1RqR8vNzpmDT5OF79FHH0sulbSc/Yc/et3fSFJJphStGMY+O6kTCbiOOsnp4WBp8vqKYVvSLjfceFMMK69xzjB9+gtIJaRSTqSS6pwUrFRK69u20867Rnp8tXLks1getcnK4rl8E08qOZfM9t5nX88rMOmpyU6jd4up+o/e3WedfU5O30RRpZLexVqeyMXR5d/a0tKSXCrd3Kfv3/faO+FgpAxkBEUqZT69zl+ifPsOPPCgnj33V8/2xX19xeU9k1Aq6b+e99EolYYOvdUolWSutnht+hxONvvM0pVmR7oUllexj/S8/fYRUe+1ViTtfWq2LJ/CQw49XL6M+oPdVv2d737/8cefQCohldKXSusrmgtWKqXYZFvyXImTCSq5KcviN+rjQRVPKilg0O7UqZe+58rRKaecFskTuR25eebtnvpIJX04ne/iJE0+H8ml0la//HUqg/nZz7eMYUAtMqkUNMC0tx132kVeNZ988kmWwJVP0owZM+TFrAsY9sPxiWAIk0qKMjEqgF69Dpbp9NLLLu/Y5HbjKZW0fKbF/Y4L/epN42wPJpW/s37v9953vz2oInMf5SSX9e+KuHzwwQkyO2W0lH5K8rWaOPFJRaKFdSVH9UjRDwpfCOtK0XY6l/Ly8qDResGCBXLNDFuw03XQ3bTPhLOuebxmnN5IU8pDDqlUhFJp5cKG7iCV1PRw+6y77dujZ06HodneRx/Nz4VUEor+s++oUCCfi2CXXGqLFi0K7qiY/3zeUB+pJAfVXI9Bb+2EUinFpo9ld5ZKL7/8itH4IV3ywgsvOpeHZFnRmRqN2Vrc+fzzz+NJJZlDOk6WNJ2I5DUYJpXOOfe89r8q5NbSp7SOsiF01FUd2zbbbidFJXtM+7/IXcnupKUw/l9s9Stjb0qh4nlSTzwxMcz4LTHk3F3en1KBxpsly9PKlbn9fsk0FbRv6dmbMnVqW15AKuVbKr31ZHU3kUpq9tmGj9RIpckrxZ7BJbZUUkYD+456a7sf76lTYyzkKSR7y1/8sqCk0rRp0/MwBpkcdNkLRCppMLGTGnR1qaTZvNE+d8mll0XKwfPlkiXG9fcDDujlFFtBqSR343ZHHLkryaYV45oEpZLiTzPehOpc68s+TkJaVQ9bRDv4kMM6qi6fHGxSM0oWYNSUPqnIFIZinI/17dffP5bt28/fwoW77Lp7sB/96HL35dIJGmOiFYzSli+QSvmWSpZ6c4UpleRRq9gNLVrLnB5mMA9r2sviXKLUbVFdPrf+3R/+tuff9R73j63NNK0K5UIq6ew0JLtHi3Mp3elsZPxGKgNn1EwKuoO6I/IaUbqX1KWSYo+jxtRohqpHSy/BqHdTkVYW7ZtPqaSmhaT8SCVdKC0h5aLFk0o68eCOSjUUw9dYul8OjsHenJGGQanUcZnVJ6GRp1Rqb0rR5N+PhIj94dGyl38GRfnGhYXjOPc1vmTkZBbj4kh1GV96SguSi8+WHDmUoytqRDBSqWtLpbIloeVyC00qSZdoBU1RVx1/yXoJfvDBh/qB+X/bXnzxpbBVJ/8vq5SKMiZ3TCauUWlsV14ZIY1QWARZW7LCJk6fVqMzRDvyb7A7TupGyGUhOM0y5tMz+l3q66VUv1lzR61u6HsQVftaTkRPi2cnmuvLHVUW9azxKO2kf7S5XD3SkkqSBXL0njr1eSVKlmebMiIqEjts9cSo25InufGRSvlsTqmkBZfgJZINNZKJoiPK6Bg0e8hEFFsqPfvcc7Gv/5CQuATNNCIlYNQryzKV0q8vaj5JvYiMoXD2vWRaC4a8qavYz61cGoLZyBQbmPo3S3NR489Zx4r9pBWzVJLEWfLBxmCTi7Rx+xWfNhi3b6g3PBlKn23ceOl8c2IeSSvj9qVfun9CYfXjCk0qyYEu60uWfYVXfK0QCZ+uTjjxJGMPspT47C5DiH0VXyPxjHaR12QupJIM4/Z9lVPAMn55e9h3V4bc4F4qNeBzyjIg2b0QJLlUxyC5VNJE0ydnqT6uEkmWTIMS0HIT9skJKYkcVJBRpZL82P75zweN71ytCjmTQbQ3H1ePIpNKSjUZDKHQ6kySszbacqTyY0glef8kGUmYVHrnnXejdiXH9rCLHGP9SDPVYD/BTOJZKBgiuFYQI1VvRzRNDS5GJ3wAPC2XWgHMjyt315NKxcGHL9VadFLhSCUFXASLwQVRAjRNvn2sU8EoIX2c/rTNts599R6UZd5n5nHTzX183ErCcqYlLJdrD3iRXScYV9KOzMj2Qxsnx0Z3gWD+dJ/KZT7B3k6p5NODkjh7mujliqTlQmeH/QcMTCKVVERCWTftT7gzMjHTpLe6lVTS7zdoElZ0VfKllqDzsj3mMUwqPfzwI6lLJWU6iNGVfvtGC6We8Hgl8Hbf4y/B3oIlHf9j2aquDiYy0AkmvFlGw/bgxN12RPGAxnVVGSDz//lGKuWJZR839Nu/pPClkszFPuokg2IijL/brKb8Q1k7Klescy/FiUSq6eaTwVL+PbmQSpod2nfXb964o5YR7YHrkhfBnAsKJ/aJY/ePSZFaOuroY2JLJedZxFgQ0XKYz7Nq9ITzkUryIfPJIqE5g0+NHcVYdSuppJXK4C6pWBSCy7gymVjWiYxSScogYRlvo1QaN358vN6Mg1RES7zejEGmwTzg7QSjRjR9TSUXkVYMsnqWI2laP4FXXnk1aF2W48e7777XKV9wpFI+WPBG3YBeDp1UIFJJ60GR+tS83JkqTUs8WXs5s0vLAqS63JFGIguKM/WtvGSMr92EUklTuo6hv/5rfzNnzrQfV8FEwb1kw3Dex0gpj9s2uZ745NAz7qslEueOMXwwfbKHGxdEfKTS+Rdc6DkMOck5ezv99DO6lVSSPS9reznepnLixpBSLYZGUiGqhJNwGEapFFsLqqRmsLfx4x+I15uyMAR7s3gpqNhU1saqoZTKzQq+NvXejmcqC35WgsXp1LnSo3TWRxyplFs2VDQ/N7yqz74rnTqpEKSSnBZTmVsE0/ln7aKZYmy/ooQfGOOaS0KpJDRgu4+OcS0suN7v8wZ0ZlhQam//sJp2lAs7nlQy+hNknX6McuhLly6zC1A1ZU+OJ5XsrnhZNjPn45rWt8f+JCuvjx7U1JtUdVSpFIxIkhpI5cT1nAQHIxNjJKmknEapSyV5YsV2gtZqYHCQsa0jyucU7M1SYGTHHXdOmOM7jA8/nBccydy57yTsVhYvY3hH8tuKVCo4mhpbF79XP3VklY8xqXCkUlRThKdpRK2jF55cgJ3bK99ujJHoKM7aLEa3kuRSSVHN9h6CJcz05rUHfEnxGN/OsnKnW+7A8gr2kUodM/55mhU9cYoe5aeJsZdiBdK1bynkOw9SqXDyKgU9yZRqVdI2edNDGPTssSQdNUql5F/rYGUe5TCL3ZtKWQcH6ZNgM8yG7b+6LR+J4HxD7/lUbta8eR8FR6Lij0muvDyrFPbY6akBCloqSV4sX9Aw87EN00ZVTbpl7YRrKh68quu1sZeU335CmdMtqTClksU30KYLm5qCxtKs9v77H9gNyFkL0rGLZluKAFi8RJNLJYVu2RewgqWm9EK3H1ROCcEDSTw5V8rs3soWnH45wV3kLeS8+5MmPZXidDwrTXBQTTql0nnnXxBpGJbaHd1QKvlMddJtlvQ/RqlUUVGRulVJaWxj9yaTT3CQsXM+aULoL5UkyPJ8s5LYfvQoGrMh6C7H/iIUj1SSX+bnb9Urin7AgXHkRTG1zpVKcqOO3XPH5LNOl17VwkwSXR/1HefTeXKpJOT+YulB0SJZXurOqLHFixcHjyKne2fK0NgZR6Qhokol44pJVoux+pZBTirOzoPRhU6pFDVppFL8IZXa0bQnz19fS4mkoFTS85/8mgStSjLxxu7NODn0rA4ZRM5A/lLJJ4Am3Wac4Hnyj39cFexw5112y39qgMKSShJJc5+tkQ2mmyukApFKKiMQu2fnJ1blh9o3VuXXdCf9HVG0nbOyd46kknMhUoUOOm5vLxKs0njGo2ghP2FGHAtBd12nVFJ2O2esWWwnD00lna/moKB0SqWwLANhOHOAdSup5OPFn26zlDkLSiXF5CKV7AatnLawwt5ORowYGexNySM6JTVAAUkl5a2+78Jy5FHhSKUjjzo6ds9O9+SOHkLOjbVB7JHolWHvXPmcciSVtBQlK72lEyXpad9Y6W7tRxw7bpzxKHIRsO+oJE+xr56cQqJKJTmeOwuqJHlonZkt33vv/ahSKerbHKnUEUVxF/ICXJIpX/FJpaefeSbPN0uPboyTUpxpMJK6E1MDFJBU6tuzm+qhif3XFp9UUvY5++/ngQf+mR+p5Cw9q3wBOZJKol//AfaSZ+1lRO2mNXm2hpXAdEolZy2IqBM7u1QypthJUSo5S+gEX6ZIpZxKJeURNTqN5a5Zvr5BqRQveLZYpVIwP5kUSU5vVozYIKUgD4bjKDVAlhm+m0qlbtiGHVv22ay6ts6LCszdApyqjNm/JRMnPum/ynPueefHHokx8jk/C3BCIej2fp6bMiWzpRbgLZup2HjYIZxOtYoNjn31nGujMRbgFIATewFO9bZysQCHVEoilZTLKrh9+xwgzwSl0kknn4JUakd5VoP5OdsKCbm3K29+WtYppFLXbnefu1qVfRv/twJdYUqlJD4u9qxCajL2tG+sEIkYEeBpLSGpjnrupJJQ+Txn2Lxy2flfLp8XZVae7tjS5MKLLo4qlVRJyqlm4kVWtm0q8OfsPFg2B6mUU6lknA/456nKtVSKnZmiKKWSsWacfz2GXKNsc8rcERyhXkRtBQZSKVdt4EElCuub8ciGlQsbPK9J50ql2J80+eio/oa9Z/1i27d//vlp9o1ljI0dGuos0GGMpklRKtmjpRSeo2Kx9uBzGbGVDcVyCGdwfuy0wsbXll0q6UPrzGUlR4R441E0gHN1L0ayAKRSEqmkhzOY+kgOTIUileIWDClKqaSNtZKVVjKRdNFL3liRuhBSAxS6VOrbY+W4S8vfeHjDvJdrF79bv+SDjV2uLf+koeLrproNLTGuSadLpWCaRB/mzJ3rrFLSMU7ex1QQLwWlKnY5cw4Z3aVTlErK6WKsjtne9N7UIqBlAxUisB/Cvnindu9998e4erIPBd+qPikoFaxn30vrs/Ge2LPOPsfe84EHHhTcC6mUU6nUZqrWnFa2bqRSulJJyDsza2Ola+l05aEZjrLPF2xqgMKVSv0PKHnxnnXVlS1t3YCClUrxih327n2mvdtg9jZnddV4vpnO/DdZyTBzIZWEsk3av+72Y0l62vtXxTGnu5KxjqwdZ56nMKl01VUOP/0f/miz1atXRx2PytI5w9+MGZKQSrmWSsEUYkk85JBKOZVKp556us8EI88Y3SILJzVAgUqle88vryxrbus2FHK53BdffClSn6poHaz/7MyT5PSJkXnDUgDSbFKqrg7On4LV6IwaIl2p5FNg1ZLLwOlp5IxTs5fNMiKPHzk5xZNKMgE6d1SBuaiPq/KqO7tVjh+kUv6lkjElh/JfFI1UGjR4SNFIpccffyIYaRE7K2wqGLPfaUJlrH6NVPp3e6Lf2saNrW3diUKWShITa9eu9exQWaH32nsfZ5/K7ZG1owSZcy/ZoiK5H9qTZWeassEa901XKskbyUd2GJums87+jVUqk9xHobghn+EZ91WcmvyrnNo3kjuLsgw7VwM1BzXmJUcq5VoqaVqi7PNZuxx/wompjOeuMXerPFHHdsYZZyGVYkslpR0JloFzrvJ7onKTWTfLmUBY05ugtbjQUgMUnFRSxTSVfmvrZhSyVMp41WWV4AjTSYrqd/amvDjBtWd5hupb7tz3kEMP13vB59SGDRvuc2phCc3SlUpCzuPxpNLiL790di7DmM/VU/YHH60pI1bffv09hxfWyRVXXOncV6uuwXSRRlQdT9VJnR2G1SdBKuVaKrWZSgjra9cxeiMeehqDtuGOuVuRSlGlktAFDGZui12EruOTE4zzlweSZRdFnBinkSNH3lHgX+3OlEpDjyyt6R7OSV1LKmWSD9kLX6u8xtHHHOvTVVjYp/FjEGy77f5nGVEsI5EbtbPwuzNxVOpSafacOTF0Us+e+/s+Qn36+nQo91v7sogKqGnK7j/CsH6WLl0WnLkadbPytusNa3n5jhs/XqZ4Z1d618sPHanUWVLJmG5+1932SJhgSYnHIp04UslHKhkrc/fouZ/swUmukjFAVSWuw7bXKr8uY5dIDVBYUmnO09W+H57J1Q9eVRFsX8ytN27/7LBK4/ZVqwzv6PqaFuPGT/Q1r198/VmDcfvXHlif8JoUjlRSkweSTCNyGMr6sH388cf60my2+U88+wn7VMtwtcWWW/n0oNmqcqVoRSYrglTJDwfeMsiZp6C9vfzyK3mTSpoc62MTVSqNH/+AZ/9LvvrKR5pkkvMqjkzuRFoW7Di8efM+0n1UsH2kEVqG5IxW61h6Re/TrPLvEm0TJjwkZezZidZbw0aCVMqDVBKHH3Fkuvlja2vr5B4edKxZvnwFUimJVBLGaJI+ffvFPiktwgZ1jyYwwTxnGerq6oyhskp0V4CpAQpIKt12TJn/0tuUEVXGTpTX0bj9qN6rjNuXLzd4NtSuazFuPOSIUrMJcXa9cftHb1xTTFKpvUmL7LTzrvJJ0pTRGbkWKXOuU6BkNekzjUEJKvf8+17GBK+e9dfyIJXaTEE09qb1+0jeRc4SxVlNziVy/5JM2Wbb7ZyZmWJIJRkanR5LWZ9AjUTPpJqc2YMVoOxeSpaQOqRSfqSS0k4a82JoPTdGElTtEozVsmeuRyr5S6UFCxYE4280Cx1z9z3xnhm9Eg0pdkMuvnwGjN6QSg1QOPkwC1QqTb0jwgVCKnWiVIrdlJnQMh3McMyxx+VhJFJ4MlrkWSop6tXpmNyx6QMfqX/FsES1CSVv9iEFY21y1CY//bRlGEil/EiltvCihzIx2tOoBu1JxhQY0tOffvopUim5VBLy7TPerOuuu96yJm60J8mF37gmHuZqqQBY44RH1vG2LkKnSaUv5tQjlYpbKj344ATnkGRHkckqp8OQtWbGjBn2YeRCKgn5HvmPU0nMo/avIsQFJZXC3okp15m/4Ub7GJBKeZNKiu0IipVM23a77RX66jQvyd7w1OTJYS8B+eTZd8+RVLpl0ODik0pa5wp7I8la7xOgqkdF06Ew14IhIdG7xtdUgacGKCCptOabJqRSEUulK6+82nNUCsT49W+2ztEwtKxjt0DkVCrJ98hznHLbijQLb+eiiy8pKKmkL59TqSRpp53W25ldE6mUN6nUtimuQqrI4pemL6gcFrP8UfS9lx+kfGW0CBu2r95Xzh8FUslfKgmVrrIkn9t7n30V/C8zXpa7t9bIFOGvFLWWfZUmwJi5Qz6RRq9K3ThFvaXVYleZ7AJSqaEuwmI2UqlrSSV5YUeKrdBaVS5sS5q4TJr0lM8AciSV9IoJpp8xNgXbx7unctY2etd2llTKTF6j+lF5NkXK+HiAIpXyKZXaNuVVd1YPzHg9SlSp+bg8yjlSCYGch0YqRZJKQk4RPhEn8jv0v1mqER5WjcR47qk3Yw2GIpFKkTpBKuVHKsVOnNixqcxFjKoaKjGteUmKPx65MPtnecmRVGozZTQxtiS2aKmlE048KfkVc9ZL8ZRKbZtcdIcPv92Zxt2/yQ1i1KjRnkdHKuVZKgl52Sv4PK3braLXnkkHkEpRpVLbpggMn9TBnk1TNUvVNqQSUqkIpZIWjJwVyuyrSD6rXZbvqxbC5euX8GcjZ2qlOfDJopkHqTRt2nTngLfffscYEUNZl+6224bZy/Q6DYGK8k1LKmVQNod99u2R/D3417/tGaloBlIp/1KpbZPfUv8BAyNFMgabYjNVt8e4lINUSksqtW3KsH/TzX0ixZ0YzYSj7xpjdwlHKiGVilAqTZz4pBY4FBDhmbOnYyC6KnZpspJ8kHJ9UPhJ1KwE7R7cSkepzE9RD5o7qaRXklP8DR16ayr3V1lDYyzGKS2kDDYyBGq9I12plPkMaw1UyR3ivQHlPCGf36hGSqRSp0ilDPPnz/dMThsMdlOi56jvEKRSPKmUQXb3eMv3MhjLS9KnBjZSCalUnFIps6WScEhzKNrf+YzusMNO+vCUlJSkO1QtKikVrFavfHJdaiKrU7vzzlGxtVrupJJQ4Tm7DWzp0mUpXjr5Ucqo5mOc2/p3f1CEUftFy4VUakfpy6+++hpjrt5gk6vvtddeF3tREqnUiVIpgyoIXXLpZZ55tuQQo8JEcniKcSCkUhKplGHO3LnyAvT0vlCOUJn9/N2okUq+DDiwxCgL6tZHmCkWk1RSLRfj7gN7leT6XvhLpX8PtaZ2+vQX9DWVUFCpE73R9AKVheCggw+VDUkhoFphyfWYpZn0lVWxC9V3VDIPrQ9qAPKKkDeD5qCKfVCMa1be5xjI//pjK0nqJSloK5ViJlFXQ7Rodf/YsRIoun0q6qLrpqYEnspzPXr0XXq5ZFlrciqV/vPzWbhQdiaFPinfoLzTMqPSH3SVlLpQJTOV2DDhIRQlIL1oaVEltZJy2Tv8csmSdG+fjjg/gI+bczzeDOBZrc+OTNSzZs2SzVLFc5SUWQupeofsvsdftCwrcSmnRi24L1q0KMnqsxL5ZN2L5KXN2jZ582R1a0/v5BQ3wWcmdopqSdtgb8kTOSrYcObMmdLovXufqdds5oWvAEal2JblSUlA9HXQ1Y56s4znnnpLWE6nIKTSsGPLjMrgm88jPChhUmnmoxvWljQF28iTU5BKgw8rNXb+/vSaJFJJJ27cfdhxOQ93jCqVIDlymdIKl+Wa33vf/QUyVJnT8yCVAAC6HDmXSuMuLTcqgzcejuB1+/J96yy15Pxb9VqDA1pzU2ufHil0/vTQSp9zeX3CeuPuD1xeket7gVTKP4888qh96TAVB69UkL0HqQQA0AlS6YUxZpUja5M0imcn706tSS5lBh5UEuYeOvz4suT9/+tBd7lcnfJtIWa2F+9Zh1QqPg459HDLBdf/7SqqLuPLyQ0FAKRS+qiASZi2kK3Is5PKsubkUubxvqG1SMMW+CK1rz9zLylKD4Xtvuid+lzfC6RSnpHFyB5LOGHCQ4UzWmdeHJUo5p4CAFIpfZobWwcfXmoUB332XTnvJV9vrMduXpNQynw1LzRH/qqljQnX4O67sNzp7vbhi7U6ZbML+eGl/jY2pFJXQd7T9rSKKoHXVUxKufNABwDo7lKpzeVpNG30uqYGt0pQzbhBh5TGljKTBzsciaaPie8O1X//kpULbSYlneC0UTbD1Stj1+fhRiCV8oxCfnKUgCBddN99CrDceNPN3FMAQCrlhJqqFkXCW4TCiJPKPp1V5+xn8Xv19n7C2vjLKxo3ugpcN7cphC1G5/32K5n/ms02plPTCdqdqHSJkEpFhoLe7Vf7yScnpXIgZdmOF2E7Y8YMZWFQFLdn8hLlX+G2AgBSKVfMfqraqTkUAla2xFFjtfTLxrvPXR1Bx+xf8tK967QI6DNIOX0rPC0sEZSx3XnaqmXzQ9f1lJvgoWvc8mvO09X5uQtIpXyiIg/2Ur6RSq9YMKYrTL0pHU7C6isAAEglG60tbQ9cUeEUDX17rJwysspuYlFXchV/dnjl2IvLlT/J2EafsWrC1RXKulRZ2hx1qBsqmt+cWP3QtWtGn7E6rH95JmlF75MZdS3NoYY0nUhfD/+nB6+saG3J081GKuUNqQqlnLZcamVcTOtY+ZFKU6ZO5bYCAFIpt9Subxl1+iofU82gQ0tnPb6hqbFLTmHlna0c4sr07XOmuiCRspYjlboKyjCeN+WRB6l03PEncE8BAKmUD6pWNcve47m2JRmRh/j5dNGAPeWgmqxW61Y353N4SKW8ocIvtvLpP/lZXV1dWsfKtVRSfYPCidQDAChyqSTqNrRobcvfGejh69dUfN1U+NdRg9RQI5zXdWvqq1vyPEikUn5obGy0V6s997zzUzxcTqXSn7bZdunSZdxTAEAq5RX5hr4/rUarbP4hZsrcmH9h4YkGpuFpkJ6noxPX6XeKgyxSKT+oxrD9OqvEb5eQSieedHJlZSU3FACQSp2DfHSm37Wur3fiR+WxnDO5uqWQ9JLcsee9XHvrUb6aT1kuJw+prK7stHNAKuWH008/w3KRt9hyq9hFxfMmlXbeZbcnnpjIrQQA6EyplMEznP4/Dky9Vym7UiFcuKXzN959ToS0BT6pEJBKRUB1dfWPN9vccpEvu/yKdI+YolT67da/P/PMs1544cWWlhZuJQBAQUilDAtn1ysC3192PHLDmrUlnebAtL68WcahsBIlhsLAx5XJ+FQIKWmUb7BP336WNn/+fH4SCVm2bPnIkXdYmlJTpnvE9957335Ee7vn3vuUDPPVV1/7aulSbh8AQIFKpbZNpeK0vnbLwSX+uSW1frexNq8CpLG+NVKOygG9SrS9M1E4AAAAIJW8UPrHKSOq/CvX3nZsmZIY5SGFo2xCSjh5+wllvm5J+66c2H+tkiPwhAEAACCVUmblFw1jLyn3X4+79/zyFZ805G48JYsax0UZzz3nrV6+oIFnCwAAAKmUKwrEirNhTUQr1zF5snIBAABAt5ZKGRo2+Qb1PyCab1BTQwq+Qf/2nTqkxD/507e+UzW4JQEAACCV8ouqfyjizH/9a/jx30acJTli14rIAwAAgG4tlTJ8NW/jmLOj5DG6Ik4eo/IVTZHqrnTFQnUAAABQhFKp7X+zYw+NmB27xi879r+zh/f0zh5+2Kbs4YS4AQAAIJUKChXcfWXseuVV8q+5NuvxDfI9CutQcke+2EOO8FVgklPy9a6pwnkbAAAAqVSorF7WNOHqikgVUT56pbbp/womOYDrH/W//PvRQXVonhsAAACkUhdg4dv1d5wSQejIdPTojWumj1mnpj/4W5LUdCAdjicGAAAAqdSVaG76Nqp/0CERRE/UNjCTg6CRRAAAAABIpa5JbcYpu0fKIkmZLeUYXr0W520AAACkUtdHFUjGX1aelk6694LyFZ9SnwQAAACpVFwogeSIE8uSiKRhx36bxLKVBTcAAACkUlGeVWN9qxIEDDyoJKpIGnBgiTIRbKxFJQEAAEDxSqUMqp777LBKVWfzLOKmjVMvuAsAAABIpYKmsqxZ8WuqQGJJuaQNEEkAAADQHaVSOwpkWzS3/t0pNTMf3aCmP+iv1ZUk3QYAAACkEgAAAABSCQAAAACpBAAAAIBUAgAAAEAqAQAAACCVAAAAAJBKAAAAAEglAAAAAKQSAAAAAFIJAAAAAJBKAAAAAEglAAAAAKQSAAAAAFIJAAAAAKkEAAAAgFQCAAAAQCoBAAAAIJUAAAAAkEoAAAAASCUAAAAAQCoBAAAAIJUAAAAAkEoAAAAASCUAAAAApBIAAAAAUgkAAAAAqQQAAACAVAIAAABAKgEAAAAglQAAAAAAqQQAAACAVAIAAABAKgEAAAAglQAAAACQSgAAAABIJQAAAACkEgAAAABSCQAAAACpBAAAAIBUAgAAAOjG/H9WOXiM6/rq3wAAAABJRU5ErkJggg==;" vertex="1" parent="1">
          <mxGeometry x="455.37" y="370" width="293.29" height="72.01" as="geometry" />
        </mxCell>
        <mxCell id="XL6QC_tOQ0aqBgQdsJjQ-4" value="" style="shape=image;verticalLabelPosition=bottom;labelBackgroundColor=default;verticalAlign=top;aspect=fixed;imageAspect=0;image=data:image/png,iVBORw0KGgoAAAANSUhEUgAAB9AAAAF7CAYAAACKMxBuAAAACXBIWXMAAFiVAABYlQHZbTfTAAAgAElEQVR4nOy9Cfx/1bT//6qrpEI0SCqKa0pUZiGZRbf5GjLEJaIuwuUarvEai0pxy0/G6yJTmafrCk0kQiFkplHz/O39f+zHf6+H1e68359z3u/3OfucfZ7Px2M/3klS6+y19trrtffaEgAAAAAAQHesJml1Sf8g6SbxN/znOoS//laSNpN0F0n3lfQoSXtIeoak50t6qaTXS/oPSf8l6YOSPjBlfEjSEZJeE/83L4l/j/D32l3SI+P/x53j/+d68Z+3DlX/juHfHQAAYNq62HS9WEvShpLuIOnukh4o6XGS9pL0bEkvkPQqSa+V9EZJR8f17/2S/kfSge6fAWDsVPliXdaWdBtJW0jaWtJDJD1e0hMl7Stp/5hvhvz0zSvkpx+I//3b4l//mvi/f178++0c//7h/2fL+P+7ToN/Vp+jkp8CAAAAAAAAAABkKERaEXIl4XkNSbeVdM9YcHyOpNdJep+kz0s6WdIvJP1F0qWSJh2O6+P/558l/Tz+sxwr6cgoSjwnChZbxSJm+HeZhbcJogUAwHhoIs4FQWzzeJArHOr6V0lvjYe/vi7pR5J+Lek8SVfOub592/1zAYyFpkL5LeMhlQdGATscPDlI0kcl/a+k0yWdLel8SVd1nKNeLekCSb+N/xzfiodj3hn/OZ8k6cFRaA8HQWcx70EeAAAAAAAAAAAAWFAsv3UUyYMY8LIokH8rCtMXNSwarorjujiujeOaOK6tOdK/3v5+9vdv8s90Yfx3+WYU2MON+F3jzcBZhUsKlgAA5a6L0wS68Oc3lnR/SU+N3VA+JumkKMhd0fCwl18X0zXOr3Mm8n3B/XMAlIoXhqeJwuHw4+3ize5nSXqLpGMk/UDSHxoK49evkJ/WzVGvWSFHvb7BP1P43/5R0g8lfTbebg9dKh4WD+rcdIE4BgAAAAAAAAAAABUFtSrCn7+9pMdGEfkjkk6RdG7NouO1KxQMZw37+zQpdNrvrDGtGHptzULmX6Io8sF4K+jRsTX86ivYlxtAAADDEummtXi+e2yv/oYoYv1U0iU11qjrkjUnPejVdF28Nv5+yf2zA4zFF28u6V7x0Mpbox+Ew4+X1zi4eV0iai/qi8vKT9Mc1f4Z7Z9t1v9P6GBxlqSvSnpHfMroPjMOfpp9iRsAAAAAAAAAADB6VhLMQ+vyR0h6uaRPSzpzxm0dEwOqio9VRcYmYnhXo+qfsUpkt+LlrKLlzyR9PB402DG+Z1sFgjoAwDBEuvDf3Sl2W3lLFKZ+N2M9u75CIF+1hANi0wYCOpTELEF3TUl3i63M3xVbrv95BZG8S19sK0etEt59dwp/AHTa3+ccSd+RdFg8bHCPKTfVEdQBAAAAAAAAAGBUhILYTabcgA5vQf5zLKqFW9UXTym+pUL5NJE8d7Gxi+JlWrhcNaMN/Pfi+5V7RFunrBa/Dbd/AADyHyRbS9I2kvaNHVfOiHG+zrqY4+AYAjqU6ovrxrfKXyjpk5J+NSPf8u3Sc/lin3JUb49p/96/kfSZ+AzTg6K9UzjwCQAAAAAAAAAAoylIbhLF3HdLOjXenE6LaqtqiAKTkY+q1pu+JXxVkfeK+AZnuDn1T/G93BSKlQAA7a2LVYeVwq3W50j6aBSVqmJ+Gt/7Is4hoEMphzrDn9tO0gHxWYQ/zpjzVYc5c/tin0ZqD3/w02JGOoK9j5X0Ekn3rbihzoFPAAAAAAAAAAAoShy4abxZ8lpJ35Z0ac1iJIXI+QqW1zcoWF4cW5C+UtL9Ja2RfDvEdACA5Qt160vaOXZe+fGU5zmqbrP2cV1EQIchYK3BU24r6YmSjpb0yyl51ayDK7n9b+ii+qxb6uEw0Yck7S1p84pvR/ckAAAAAAAAAAAYnGi+QXyv9egpt+mumyEM5C7wlV6w9LZP/9qzJB0paRdJt5pSfK5qww8AAH9fF4Owk3JHSc+VdJyk8yvi71BFOgR06PsBlpR7xFvO35R0SUXOVOWLfTu4Uuqhz2mCeuigdLykf49PXKRM6+4BAAAAAAAAAADQKVXt2TeV9PT4nuGFU1qyI5j3o2BZJainxcpzJR0j6SmSNqzx/QEAxn6YLD1gtJWkV0Th5+oaB8mGKNIhoEMffTHlPpLeJOmHFT6WCuY+R8rtX2Ma6cEhL6inf+3pkt4q6cEV35ub6QAAAAAAAAAAkL395YZRYP18RWt2EwcoSPa7UFlVrExvp4cDEZ+S9GRJt07mAIVKABgrVYeJ/lHSyyWdFGNq6UIdAjr0tRvStpLeKOlHU+Zt359HGPOo+i62r0j/2jMlvT2+m141L+icBAAAAAAAAAAAS6eq+HQzSf8k6WMVN81LFAfGMure/DlP0ocl7SRpzRXmCgDAGNpCh3eU95P0rYqYOe2WeSnrIgI69OlgZ3gq4WWSvl+R4/hOSJMCfXFMBz6vi98zPaQUDku8WtJdk3lBi3cAAAAAAAAAAGitKHlvSYdI+n1F8fzagsWBMY5Z71L6v+7Xkt5W8R4lhUoAKI00roUDRE+Q9MmKd5S9aF4lAJU0ENAhhy/6w3q3kLS3pC8nTyXMEs1z+w1j8Rx1kuSo/ruuim/cP7OicxKHPQEAAAAAAAAAoDFpUWkDSc+TdMIK7dlLFgfGPqaJ6Wmb9/DG77MkrVfjLVIAgCGwWsVt87vFt5R/PWLRPP33Dr9fivZJ22gDtOWL4V3zd0v6c01fzO0rjPZy1PRmeto56ShJD0zmD4c9AQAAAAAAAABgrqLkkZLOT4pUiObjLoBW3fq5JilM/zUWtNNb6WGO0d4dAIbYhSX88S6SPp+0DLbDZGMW6hDQoUtfXEfS0+OhvXQejt0Xxz6qxPS0c9JJkp4t6ZbJHOPgDwAAAAAAAAAATH3HdQ1JT4xvuPpiEzd58hcFh1qo/Jqk3SuEKIR0AOgj6Y3EjeN7yr9IYpu9vUsHFgR0aM8XV0veNn+LpD8meQgHO/Png0PpnOQPP50j6Z2S7l4x7wAAAAAAAAAAYKSkt3k2kvTypB0tRcn8BcAhjbRQmd5K/7mkFyXvUNI6EwD6KtbdU9J7JV3s4hi3zavjPzfQYdm+6Nle0v8kb5tzsDN/3lfKYc+Qs35W0sNXmIcAAAAAAAAAADAi4fzOkg6R9DeKktkLfKUWKq2lqv334UmAt0m6g5uHCOkAkItUJHmYpM/NuG2exjkGAjosh/QpoV0rOiJVdX7AB7HBPDmqHfb0//2JsROX70LC80MAAAAAAAAAAAWTvu13L0kfSgpHVQIBRUls0NaNn6skHSVpKzcvEdIBIJdwvrOkbydxzLf8RaybHu+5gQ7LEs7DHz9N0mlufln7bQ6wkJO2edjTt3c/Q9LzJK2ZzE2eHwIAAAAAAAAAKPTG+QMkfWrKbR4EAgqTuW78fFTS1m6eIqQDQFfC+T9LOhWxbqEYj4AOi/piECf3lfRLN694MoG8NPdhz7MlHShpnWSuAgAAAAAAAABAIcL5/SUdW1Hw5jYPxckuuwxU3fhZSUjntg8ALIM0ngTh/IeJWBcGXVgQ0KF74fysJD/FF8lPu8xPJysI6X+Q9JJESOeNdAAAAAAAAACAAbFacjMitGr/BDfrOi/CMRYT0v9b0t3dPKZtJgAs6wmTXRLhHLFu8TWLG+gwzyGWZ0v6VYUvpnkCAxv0pWvSHyU9X9IaybwGAAAAAAAAAIAe44XzLSR9ICkGceOcAuSQhPRQRH+vpE2nzHEAgFmslggbO0r6zhSxDsEOAR26O8Syh6TTEc6z52CM+YX08NTA02fMcQAAAAAAAAAA6AFeILi1pIMkXYVwTmGwECH9cklvknSLKXMeACAl7cRybEWrdoTz5cVwbqBDna5ID5txiMXyAG6d58/JGLOFdJ+j/kDS45L8lKeHAAAAAAAAAAAy4287hN8XSzrPFXXCTQneOKcQOGQh3d/2+Yuk/abMfwCA9HDNJpKOcjFkVcW7yoh1COjQDl44v6ukT08RzvHF/LkXo35+amtG+kb6lyVtM2X+AwAAAAAAAABAphs94T3XMxDOKQCOREg/TdJj3PynSAkA/kBNiAmvkHSxiyE8YdJuzOYGOlTdwL2lpIOdWJ7e3uUQS/58i7G4kO4Pg7xH0oYuHNAxCQAAAAAAAACgI3wh5m6SvpAI56E4SVGSguAY2mYeI2nLKb4BAOPBH6L5J0k/T9ZFbpy3H6sR0GG1ZB1+Zuwc4+cIvpg/r2K0//TQhZL2d75AW3cAAAAAAAAAgBZZ3RUm15L0n+7Gg7/9wG0eioNjuu1ztaT/cL5BkRJgPHix7o6SPufiBgfKuo3TCOjjxh9iubek4xNfRDjPn0sx2s1RqzomfV/SQ6b4CQAAAAAAAAAAtHC77uykaE1hksLg2G/7nElbd4BR3nQNf/zKeJgmxAIOlOWJzwjo48Q/nbCupEOTOUFXpPy5E6P7HHVVIqS/X9L6FT4DAAAAAAAAAABzsrp7R3ITSZ90xRhu9FAUHGtRdNZtn4+4tycpUgKUfet8B0k/cf7PgbJ8cRkBfdyHO/eU9Ee3LqfvnOfOGxjYIEeOep07RHKupH2m+A8AAAAAAAAAADTAF1aeK+liV4yhXTuFQIrB09u6nyfpaVN8CQCGf+v8ZpIOd+sA7drzr4kI6OPBH07bWNIxiS/SFSm/PzL6e9DzS5Lu4NY1bqMDAAAAAAAAAMxx63wLSV+bUZikQIYNxj4HZhUpj5V0O+dXFCkBhn/rfCdJv48+Hm72caCsHwMBfRz4A2nPkHSR+/74Yn4/ZPS7rbvFycslHTDFrwAAAAAAAAAAoAJfQNlP0hWuMMk7kvkLYYzhFSkvpWUmwGBZza2L4X3l/+d8npuu/RoI6GXjb8puEg+oTfPF3HORgQ36Nge8X/jnDb4tacvoVxz0BAAAAAAAAABYoTC5WXLrnHck8xe+GMMsUqa30Tdyt1mtywMA9P/W+SMl/S76Ms+Y9HMgoI/jcOdT3ZNCHO7M73eM4R70tBw1HJZ+3hR/AwAAAAAAAAAYNV4k2FvSJRQmsxe5GGXeRg9vo+8xxfcAoD+YgBAOuhzsfJubrv0dCOhl++LNJX0s8UW/5uaefwxsMPTb6MdJ2jD6Gwc9AQAAAAAAAGD0WGFybUkfmVJQoTCZv9jFKOs2+lGS1oi+x00fgH52Y9lK0mnRZ3nrvP8DAb0szA8DD5f0B/edeVIov78xyjzoeb6kXZzvcdATAAAAam+kabMI0L/NNAAAzB9LLbd5kKSzKUxmL2YxxlGkvC7+8ZmStq3wRwDIgxcKXuBEOt46H8ZAQC8Hf7DsTe4b44v5/YwxjoOeh7m8lIOeAAAAUFuso7AF0B/wRwCA+fCFkJdTmMxevGKMS0S/PilSvtD5Izd9APKui+tK+lSFKOt9mNFPGyCgl+WLm0o6Pn5bOkDk9y9GuTbw69t17qDnqZLuHP2Rlu4AAAAwM3m/m6Td4x9z+xUgH8H/9nT/GREdAGC+3OaW8a07K55YsQSRIH8hi1GuDbx/+WcSjonPKHgfBYBuW7bfj24sgx4I6MPG19l2lnRx/K7cOs/vW4zxHvS8StJTpvgpAAAAjBwrXt1K0t8kvTn58wDQLSaWfz++05v+eQAAmB1DrejxQPeWJIXJ/EUrxrhsMO3dyV9J2ib6KDd9ANrHd3x4vvNR3yGCQ2XDGQjow8XX2N5c4Yv4YX7/Yoz7oOfhU/wVAAAARoolBBvF9wlDwvDS5L8DgG4xofzL7l2m9L8DAIDZIsH+FYVJK5jkLtowsMHY350MgvqznL9y0wegHW7i1scPO1+kZftwBwL6sH1xfUlfd2shnZHy+xRjnDZID3qaL54kaZPEbwEAAGDk4vmvXBLxiuS/B4BuMZH8a84vj6j47wEA4O/4vOX9Ln5SmMxfoGJgg2k3fd49xYcBYHHMp24v6TTnf6sqxAPGcGyAgD7cA57h+YQ/xe9IZ6T8vsTABtNaul8o6ZHukCc1OAAAgJFupjeUdFZMEC5HQAfopYB+VUU7KRJ4AIAb5zUbSzoFkYCCIAXBQd30+VZ8Ssr7MgAstpewrg6PknTRFMEud0xgIKCXju+uso/73nRGwv+Jf/3NUb1/HjDFnwEAAGBk4vk1LkngBjpAvwT0a91NA26iAwBU3+oJ752fi0iQvQDFwAbz3PT5vXsXHREdYH58gf+Fzvdo2V5ObOYG+vCeFXoHvpjdbxjYoEmOep374yOn+DUAAAAU3rbdi+f+FwEdoH8CekjeEdEBAG4YKy1ePs0VPyyfoTUthTKKpcO66ROKlXtGn6ZdJkBzfGH/SOdrPGVS1kBAH07d7aaSjnNrHM8n5PcfBjaom5+ucvH225LWS/wbAAAARvDmuS8yI6AD9FdANz9FRAcAuOENuze5ogciAUUxCqPDfxf95c6/aZcJ0Gyvv46kbzi/8oJdbp9nLMcGCOjD8MXNJf3M1d14PoEYQAwczhyo6pZ0tqS7Jn4OAAAAhbdt98UrBHSAft9AN3+1oglvogPA2G/YfSTGQ2715C80MbDBokXKVe6P3zvF5wFg+l5/M0lnItgVvx4hoPffF+8j6byk7ubXOwY2YA4Ms1vSZZJ2jH5OfgoAADAi8dz/OVq4A/T3Brr9chMdAMac06wt6f8QCbIXlhjYYNkFSp/jfNH5PEVKgJUFuwtm7PUZ5dgAAb2f2Dq1q+uIhC/m9xcGNmijW1J4PizAk0MAAAAFv3mebqgR0AH6LaBPphSYj6j43wIAlJrT3E7SGS53oSUmhTGKo+W2yzxV0vpJDACAGwp2OyHYjWogoPeL1dwefL+K78RBlvw+w8AGi+anlqPa4Rh/+cziAAAAABT25nl6Gh0BHaD/AnpaYEZEB4AxsEb83UrSX2vkNAxswBwY5hyoOtwb3pzcIsYARHSAG4rnz0SwG91AQO8PXjR7rftGJrKRo+b3FwY2WFZ+6p8cWhX/+F0uBoTb6AAAAFBY23Y/ENABhiGgmx/bL2+iA8AYcpoHSbq0Zk7DwAbMgeHOgaonpkJr6nslMQFgrPsEK9IfiGA3yoGA3g+8WHaoE85NWCNHze8rDGzQVn7q63AfmhIXAAAAoCDx3P81vIEO0H8BfTIleaedOwCUmNM81sU5WmJSDKMgOk4R/SpJ2yexAWCst13/0/mKF+xy+y6jfRsgoOfHi2Qfdt+FZ4WIAcTA8udAVR3uuIoOMQAAADDwN8/TgYAOMCwBfVryjogOACXlNLtWFI251ZO/eMTABl0UKK+v8P3HJTECYGzi+SFTbrsSl8dhAwT0vHhx7HPumyCe5/cNBjboag54f7da+tfds2OI6AAAAAW8eZ4OBHSA4QnoafKOiA4AJeU0+7hYx3uSFMUojI5vDlSJ6GE8IYkVAGMRz49y/oBgN86BgJ4PL4p9ydXR8MX8fsHABjlyVPvjq+PvKZJuVhEvAAAAYKBt2/1AQAcYpoDuk3feRAeAUnKaZ7gYh3hOUYzC6HjngN/LWCwIY+8kZgCULp4f6fbtCHbjHQjoeTAxbM1409R80a9VuecGAxswB/LlqCain4yIDgAAUJ547v83vIEOMDwB3W/auYkOAEMF8ZzCH4U/5kATEf2pSewAKFU8P9rtCxDPxx0nEdDziec3lXRCUj/z+3AGNmAOjDtHtbjATXQAAIAC3jxPBwI6wLAFdL95R0QHgKEWJ33bdt52zV8UYmCDPs0BRHQYo3j+/9x+HfE8fxzKPRDQ8908PzG5adq05sbABsyBMucAIjoAAECBb56nAwEdYPgCuvm//fImOgAM9c1zxPP8xSAGNhiKiL57EksASnvzHPE8f+zpy0BA747V3R9b23bE8/w+wMAGfZwDiOgAAAAFtm33AwEdoAwB3eKA/dr//vCK/w8AgL7kNE9yMQzxPH8RiIENhiai75TEFIBS3jynbXv+mNOngYDevXj+xSXV3BjYgDkwPhE9vIm+RkVcAQAAgAGJ5/7vwRvoAMMX0C0e2C830QGgzznNzi52mSBGYTJ/EYiBDYYmoj8ixhQrVAIMDSuuH+z26LRtzx9v+jQQ0Ls9yPJZ54u29pCj5vcDBjbo6xzwMcI6Vny9Yp0HAACAnr95ng4EdICyBHSLC/aLiA4AfcxpHuZiFuJ5/qIPAxsMZQ74vc91rlB5/yTGAAztreU3uj0A4nn+WNO3gYDenXj+kaRWZmtP7jnAwAbMgeGJ6J+fEmcAAACgp2+epwMBHaA8Ad1v8hHRAaBvOc12Lv9APM9f7GFgg6HNAb8HsnzpEkl3TWINQN+xufpityYinuePMX0cCOjd7MUPc/bGF/PPewY2KKGd+0crYg0AAAD0uG27HwjoAGUK6BYn7Jc30QGgDznNlpIuTOIcbTHzF3sY2KCEAuWfJG2S3OoF6Pu6+FQ3p1clOTwDG9gcQEBvD1sv/sPZGvEc3yP+MgeWUYezHPWdMc7Qyh0AAGBA4rn/e/IGOkB5AnqavNPOHQByFiZvLensJMYhnlOcokDJHFimiH6GpHVizKFICX3f6z/GzWfEc2LhrHiHgN6uL+4b7UwXCPyQvJQ50FYdzuruHPIEAADo8ZvnCOgA4xLQEdEBICcmYK0h6Qct5zQMbMAcGN8cqBLRv+1iEK0yoa97/W14ziR7/BjSQEBvzxf/ydmZgyz55zoDG5QooltseUYSfwAAAKBnb56ngxvoAOUL6Gnyzk10AOgyrgU+30FOw8AGzIFxzoEqEf1jFXEIIDd26yw8NXBOkvOzJuaPJX0eCOjt1N3uE2+dT9wvvph/vjOwQSlzwOKJCehhPCKJQwAAANBT8dz//WnhDlC2gO6Td0R0AOjy9vkRHeU0DGzAHBjvHKgS0d8SYxCtMqFPa+Kakn5SsS7m9iFGv22AgL48bE24naTzEvvii/nnOgMblDYHrk8O6Vwu6a4xDiGiAwAA9OzN83QgoAOMR0D3yTsiOgB0kde82MU0H39yFzIY2IA5UN4c8DHGipTPTmISQA58J4QvJPtwDpXljx1DGAjoyz/Icjq+mH1eM7DBGOaAX+ctlv9G0npJXAIAAIAevHmeDgR0gHEJ6BZX7Jd27gDQVl7zeBdreFMyf/GGgQ3G2ipzxyQ2AeS68XpIsgdHPM8fM4YyENCXy7H4YvY5zcAGY++UdLyLSTw5BAAA0KO27X4goAOMT0C3+GK/iOgAsGyRILSluzLGGd6UzF+0YWCDMbfKvEjS7ZMYBdD1fn8/l+PTkSV/nBjaQEBfHIv/B0WbcpAl/7xmYIOxi+jvj3GJW+gAAAA9FM/9/x9voAOMS0C3OGO/iOgAsCi28V/H5TW8KZm/WMPABmOcA2mrzPDm9BpJzgXQ1X5/Bzc36ciSPz4McSCgL8cXn+EOWHGQJf+8ZmCDsc0Bq/X7GtyLkzgFAAAAGd88TwcCOsB4BXSLN/aLiA4Ay4D3XfMXZxjYYOxzoOqWz8eTnAugi0Nlt5V0fpyDdGTJHxuGOhDQF6+93cfZk4Ms+ec0AxuMdQ7454bsjx+RxCsAAIBRk/PN83QgoAOMW0D3CTwiOgAsmtv8Z+a8hoENmAPMgVki+iuTmAXQBv6QxkkV6yJxChs0nQMI6IsdZFlP0h8SW+KL+CGxmDnQl+eGLpS0aRK3AAAARkkf2rb7gYAO0A9yCug+gUdEB4B5c5vdK07TU5ykMJWuNX5uLHsw55hvs/Ib++NHJ7ELoK23lo/swX6f0W8b1F0TEdAX46sVvpj72zP6ZYOm+antd8hP83+7oY70kOfJLmbRLQnaIswtBjZYrWAbwMDpm3ju//95Ax1g3AK6T+AR0QGgqUhwJ0lXxBhCW8z8BZnchaCqIuOqeMvi2ph/XhvHdW6sqvn/4f831yZ/T/v7VBU2/T8jY9y3fDaJsYtbPtDWnv9Zcb5dWxGHGOOxwax18boa62Iav4IQTOxq5ot0R8rvB0PwxWtX8MU6/x+z8lOfo07LT1kjxjcnUxH9vckeGwAAYDT05c3zdCCgA/SDPgjoFo/slzfRAaBO3Aq/pyaxiwLQeIo+ft1Ii5AmHM27Dl0m6dIFD2VcW6NwyXwdx3z1e59vE96hBazgvZVbDzlUNq4Yk4phqyrWoXn+3jaPPhPnGId/6tXfHu/8kIN0+f2kT764aoG/99WSLpF01QL/nFWxoWqekqOWP19t2PrwtCSOASyL1aMuFS52MrDBRoXZ4DbxyR4YKH168zwdCOgA/aAvAnq6WUNEB4CVhIL3VOQ2uYsRjPbXh1Qsn/W/+5uksyV9T9Kn4+2K10s6QNJTJT1B0kMl3V/S1pLuFX/vIOn2yZ+7r6SHSHqcpCdL2l/SayUdIelTkr4TOz1duMI/06yCJXN4HLd83h5jGAVKWGYuH+bTz1ycYV0sO674+LKqplAexLdzJZ0h6euSPiLpnbEr4L6S9pL0SEkPlrStpHvGNfDusfANs7HDBZvE/GPivgfr+/h8cZZQfqWkv0o6XdKXJX1I0jsk/Zukf5G0h6SHS9pe0jbRF8PvXSRtJukfo2+aj24f//rwv3umpJdJepukoyV9UdJpkv7sunZVjTSO0EVpPPN3lVsj7prstwGWkaNuLOkvki6Ke2UGNriwEBucH/f4xxIqhkkf27b7gYAO0A/6JKD7JB4RHQBm5TdPjrHCF3hy5zaM5a0DqWBurSinFSP/EgXs98ei4a6Stoub9X/ouHi+USxy7izppZKOknR8/GesmqNpsZWbP+X5UtqydRIPb/iYBjAvFuOOjnOLQ2XjWRen7duuiBcognD2LknPieJaEN+4IdM+odMIvliuL3qfXOlA56XxwMpno6C9Tzy4GZ6gurm6ZW1Jd4xi+9MlvTkeLg0i/sVT/vkR1Mczp20On5Z0ewNYhNXcwbLctWYGNpi0aIP/I1QMj76L5/6fhzfQAfLSNwHdJ/GI6ABQdbMn3A6+PMYJWtTmj9nLivs+9l834ybd+XGDEkSBvdlcl/IAACAASURBVKNYvW7N+XOTOP7BjdUrxmpxVP13/n9rf786LW3XjTfZw+GPg+O/w3kV/37+353b6fnnZpvvoW+cxDaAeff9z4jzinfPy4sZqWCe1nLCf/51FMJeKekxMU9a6XDOam4d+4ea6yKs7Itv6Gn9jbF8X0z/uvDNz5T035IOlLSjpNvVWOPn8cWqHDX939rfr47v3jYK+6FD04djN5OqNvHTDnwyx4ftY2mnpMPjvOAWOizKai7GWAeMED8Y2GBVITawfOAbhIth0dc3z6uSy/CLgA6Qlz4K6D6JR0QHgJTvJvGqL7kNo3mcT9/fu6bie54f16jXxGLk+jNcIi065ij4W1HT/7NMI/y77BDz4a/Ff9fURtdUdFpgzpdRoPyqmzMATTFRZsukKMm6WL5Qd1Zs+fys2ML5pjPWIy/KIYS3g63zO0zJb3LPK8ZyfDE91Bn+/E8k/Zekp0i684yczw5xej/MnaPOOgC6erytHp51OEzSj1zukh74REwv8z300M0rQKckWDTmmIB+ZRJfGdhgUoANLGZ+k1AxHPr85nk6ENAB+kFfBXSfWCGiA4DlOK+vyG9yxyrG4jfN07/u9HhL+7FTBHO7rWOFyKHghfWqwun68Y31Q6INUrtwM72899BfEr89BUqYl++5+MC6ONy4YKNKNL9E0lfirdbwNvkac6wv0A6ruS4zv4vfi3fPh++H00Tz82I79v3cW9Ep/zBAX0wPf1Zxp/g++zHxPfVZYjoHSIbpAz5+XSDpNvHbD2mvBf0CAT2/bzPUqg0Q0AfGENq2+4GADtAP+iygW/yyX/tnO6Linx8AysUKOdsneU0f8xtG/aKkf888/PEJkl4eW7JPu7lT2u05X7Cs+vcKtvh3SScmc93bEF8Ylt9VvXFvc55WmdB07//aOIc4VFbeYbLwzMOn4rMf4eZWyhAPkZWIxe2P4ovF+uLvJR0taRdJtx6RL/rDqim3iAc+j3QHR2ykz02wXxuWP/ic4vPxe5c2t6E7ENDz+zVDrdoAAX1ADE089/98tHAHyEvfBXSLY/aLiA4wzhgV2pP+MklS+5jfMJoVJX8YBeK7VXz7od3eabtYuZWkV8c2mt6G3Eofnt+ZX5g/nJZhrsFwsfhw/yTW9nXfz6heF6sOk10ab7cG0XyD5LvbYSuEjP7V4Z7kYjq+2H+fT7+Rf8PUxvnxLfAnSFo7+e5j9cVpOerNJD1a0vsk/bWi7sut9OH5hsWzSey2EKBTEswbNwK0cM/v3wy1YgME9IEwlDfP04GADtAPhiCgWzyzX0R0gPHlOe+uyHFyxyXG9Hidxmz/vUJx7XBJD5zyvcdWkJyF3bxPeUi89XOus6sVgLnxM8xbPm+J35YCJdTJ24OA8dMkd2ddHI5Yl74l/H1JB0jatGINGNtBsqFgucrGsdWxfVt8sf++OOtg57ckPaviAMsYD3XOI6avJ2lvSV9O2t9z2HNYfuLj2VWS7hy/L3s0mCdWBBDQ8/s2Q63YAAF9AAzpzfN0IKAD9IOhCOgW1+wXER2gfKwo8/Do+7Srzh+HV4rRswSC4yXtI+mWyXdGNK+HCSlpofLZkk5KbO1vNfZ9TzDWUXVr2A6V0ModVtr/vz3OGQ6V9d/Hp4l1F0t6f3yepirWI9T1GxOSPocvDs4X07fN/yLpXZK2Tr7xrPfAYWVbhTfi3xxb4JutLQ5y2LP/PjNxa1bYwwHMAwJ6fn9mqFUbIKD3nCG2bfcDAR2gHwxJQLf4Zr+I6ADjaN3+6yQ57XuOM7Yxqw3mlZI+KOkByfcdY+vLtsX0h0r6RGJ/a52ZfidGP2xwfRLbwo1i/AKmYT6/feLT+Hb/hXMv1oWLDy+PN5fT74toPqxa3DMqukCwzvbXF9MnE8LzKfvG97zTm9X44nyY/XwuE1rgPy057Jl2qMJ3+pujWu3+xUn8A6gbEwLcQM/v04x2bICA3mOGLp77f17eQAfIy9AEdItz9ouIDlC2UEDr9mHeOA/tTN8q6fbum1KUXD5mU09os3hIvN3o826E9H7nNLRyhzoEf/9ZnDMcKhuWcH5KbG28RvI9OTQzzL1zqMVd6HIgH88Z/X5K6OvxbXMPvtjNM0SPlPTF5FshpA+jlXs4FL2l+7YAdUBAz+/LDLVqAwT0njLUN8/TgYAO0A+GKKBbvLNfRHSAsjBBcIfo57Ru71/89THYC+fhTe7XSFo/+Z4UWrq/lX7b2Ob5kiT/5rZPP/3J7+G2TWIhgNUA3pjspYey9y99eB9OW7V/W9KuFd+TG67DxOLyx/HFXvvhpOIQy7GxW0/6PfHF7vzGuL+kz7pvYx2syFH751MTt6Z9JX4/fAbqgoCe348ZatUGCOg9ZMhvnqcDAR2gHwxVQLe4Z7+I6ADliYE/TZLSIeU5Y7nRY//deZJeLelW7hsiEPTjxk8Q0t+WCOlpkTL33Br7SAuUoc0pgPfpwD0r4jH+298nTIIfPzaZxhyKGTb2/XZx+Sl+2P9DLF9InhKq6t4D3fmQP1R7H0mfm3LoAd/qZ44anq4I0Mod6oCAnt+HGWrVBgjoPaOEtu1+IKAD9IMhC+gW/+wXER2gnHzntRW5Tu54M+Zx/RTx9Yoozt46+YbcTMjPaklxaxNJR7hNHkXKfvoYb01ClS8HvuNicBqXGf3pxPITSXsk3w+xrhw/vJmks906ii/29zmhEDN3nNGpB/KRfosHxtb6fq/B00P9bOV+fuyIG2C/ByuBgJ7fhxlq1QYI6D2iNPHc//PzBjpAXoYuoFsctF9EdIDhYjcS7pIIBEPNdUq/XfeB5I1zhPNhCOl3l/Rp9x15H71fvmYFysskbRa/GU8gjBfz3f2cv9p8yT1nxzrSA2X2x3+R9Pzk+yHWleeLB+GLvfPF9BDLLyXt5b5dWENZR/tJ+m12lnT6jKeHcs+5sY70kGfYAwZY42AlENDz+y9DrdoAAb0nlPLmeToQ0AH6QQkCusVD+0VEBxgmVkD5UhKPhprrlFqY/F7SChPhfJhC+qMk/dh9V96e7I/Pmb99Mn4rCpTjztFvI+lvcU74G3m55+vYxrQDZeHPvVPSLd23w2fLzE+3nTIfGPl80XfTuSxe0Fkjfi+6Pwy3tfsBki508Za27v076GndHVjvYBYI6Pl9l6FWbYCA3gNKevM8HQjoAP2gFAHd4qL9IqIDDAvbfO/pYtHQc51SCpNWKDlX0r8k34wbPcO/7fMSSZc6v6NlZj/8zzbj9oYyBcrxYd/8A3EucPs8r19WHSj7pqSt3TfjTdiy98vHu7XSzwtG9/lp6oufkLS5+2asmcPEf7dQBz96xm10/C/POmj56Y8yzhMYDgjo5AiTwm2AgJ6ZEtu2+4GADtAPShLQLT7aLyI6wDDgXcl+xlBfmHy/pPXd96IwOXz8Nwytwj+T5OkUKfP6oG3Gz+Cgyqj9c/s4D8LBFp40yX/r/Dr3Buw+7nvRiaX8utzT47dHPM+3Nvr10f7415KeUPG9YNj47/gwST9xcyF95ivHfBzrSDslvajiewF4ENDz+y1DrdoAAT0jpYvn/t+HN9AB8lKagG5x0n4R0QGGk/e8sSLnyR1Pxn7rPHRAenTFt4Jy8N/0iVEYCt+e2+j58xiLhS+r+FYwDk5ycZl1MY8fel8M47/j83q2j6ITS/n75HUl/TF+f55RyJefpoc7D5Z00/iN6IpUHv7A7mpun2gxmYOe+du4/y0+M2PfCKDKjwO3lXQluWy2vSVDrdkAAT0Tpb55ng4EdIB+UKKAbvHSfhHRAfqLFZ7vKOmqAvOdIYsEhyeFSQoj42jrvmF8e9vmATd98hcoL46FpwB+OJ56wDMrfDD3ejHmt87Pk7RHxXeCcrFv/J9JjoQv5vFFK1L/QtJD3XeiK1LZ+O97P0k/rpgT7B27XSN9PDyy4jsBGAjo+fNahlq1AQJ6Bkp+8zwdCOgA/aBUAd3ipv0iogP0E9tsfzyJQSXlPEMTCf4i6XEV3wjKxwtCT3Vvo3PTJ18OY3um98Xvgj+WDTde+7Mu+j3RZyVtEL8RB8rGd8Dz6or5wcjji++VtGb8NjydMN4c9e1TDv/in92ulWbve8fvQkcWSEFAJ1+YFG4DBPSOGUPbdj8Q0AH6QckCusVP+0VEB+gXJgQ9pOKN19yxY2wt2+3Pf1rSrdz34bbruFtm3l7S8c4/uemTx0/NV7eL34UCZfk1gTfFb86N17xtokPce17F94Hy4YBnv3wxtIrereL7wLjw3/2Rkv7s1kpaunfrpxNXX/tq/Cbkp5CCgJ5nLWWoMxsgoHfI2MRz/+/HG+gAeSldQLc4ar+I6AD9iz/fTeJPiXnPEFq2/6v7NogE4OfAm908oaV7975qNv9y/B4UKMteE8PBlSuSg2W5140xdmP5qaStK565gPLhgGc/fNGeMfk/94wJhzvB56jrSfqCmz8c9OzeX83mT0jiJ0AAAT1/nstQqzZAQO+Isbx5ng4EdIB+MAYB3eKp/V7r3vdN7QAA3WCb6z1d7Ck57+nzrZ7fS7p//B6IBODxglEojF0U5wztMrv3W9ucPyaJoVAO9k2PTvyMdbH7biwfcXUaDpSND9sXfivOBw54dpuj+nrEW9x3wRdBU+bDq9yc4aBnd/mpXzt/yPSEGetpOAR1JXltZ/tHhjqzAQJ6B4zpzfN0IKAD9IOxCOgWV+2Xm+gA/Yg/P0sSz5Jzn9zD3+q5zt1ovUX8HhQmYRo2NzaTdGpy6AW/7cZvzWdPZpoWfVhlG/fdS68H9FWw891YOKgyPuyb7+JiL77YzTrn64RBaNndfRc6QEAVq7t61qNjq38/j9L5xWjHd20N3SeJowAI6MSdSeE2QEBvmTG2bfcDAR2gH4xJQLf4ar+I6AB5c6DnJnGn9Nynbzfs3l7xTQBW8lvF25lpi9Ux7F9y+rCPlU+O34ECZTmYOPTp5FvjU+36lK9LXCDpYe570J1q3JyW5E34Yru+6DsjhctFd4nfgfwU6mDzZHNJP3KxnYOe7een17u9wK8lrcGUBQcCev59JEOt2gABvUXGLp77f1/eQAfIy9gEdIuz9ouIDpCHNSX9JnnjdQz5T19u2D3dfQtu9UBdvGD7SjefeHOym7zF7Hw6flsUFoMfzJrY2bpov9c4nwodNgIIduPF1rinJHkT+Wm7+anfk39F0jrxO+CL0AT/7ManXN7EQc9u1lTz4Rfiv+BAQO8mt2Uomw0Q0FtirG+epwMBHaAfjFFAt3hrv7yJDtB9HnRgRQ6UOy6UNnxeaXa+WNJD4zfg9irMmzeY4PdkN994c7KbvMXs/JwkpsJwMX/6QoUv5V5HxpD/fzEe6gvgTxByozPi3KB9e3t+6J8VMoHzv9z0I0eFefDz5u1uvnHQs7tb6H+StG78BnRyAQT0/LkvQ63aAAG9Bcb85nk6ENAB+sFYBXSLu/bLTXSA7uLNunFz7W+f544HYxDPfyvpTvEbIBLAotgc2l7SJSPf13Tp17ZJ/yV+XATcPu/WfyzvMD860n0LBLtxY2vac+Lc4CBLt88Kvcp9CzojwSL4Jzj2d3MMEb399dX2AS9L4iqMFwT0/PtHhlq1AQL6kqFt+w0nGAI6QD8Ys4Duk31EdIDucqGXJrkAQls7cc3b+FRJt06+A8Ci2DuHd5b0xwq/xre7uYWO8DdcTCj6YvJt8Z12fMcf2ntdxXeAcXOTeDgpzA9un3cnnj+rQvgEWBTLjfZwc41uSe3V1LiFDlUgoLfjcwz1xgYI6EsE8fzGEwwBHaAfjF1At4TffrmJDtD+7XMT2rh93l4887nWt2hPCy1i+5yNJZ2ZzD1E9PZvodshBhge3D7PJ9gd4HITBDvg9nm3vujrDbvG6cdBMGjTtx8u6cpk/pGjtrMH5RY6eBDQ219fGcpqAwT0JS/YY3/zPB0I6AD9AAH9hgk/b6IDtJsP7VeRC+XOSUoWz49z34DiJLTt36HLwekVPo6fL9/PrQC8D/49WLh9nkc8p3MDTOMnbr6wdrXji7Z2XS3pUdHudEaCNrGDhvdDRO9kL2pvof9B0tpM7dGDgJ63PsRQ6zZAQF8CvHk+fYIhoAP0AwT0Gyb89stNdIDls6akX0U/4/b58gsWs8Rz2tNC29gBjbUknZjMRYSI5fu7bdZ/zNQeJKu7gr5fEzls0q54vle0O4IdpGvXk+Mc4RmFbsTzB0a700UFusDm2TaSzq/wddbe5e5HzbbPT+IsjA8E9OWuqQz1zgYI6AtC2/bZEwwBHaAfIKBXJ/2I6ADLwzbNz6Q42UrS7gs/iOfQB18Ph2UQ0dv3eStQ7pHYH/qPfatPsC625iMTdxPO+wniOVRxSlIIZSw3P0U8h9xY7L8LInpnhzx/QW46ehDQyScmhdsAAX0JC/NG7qYVNzBuOMEQ0AH6AQL69KIbIjrAcvmRSzI57b+8IgXiOfRVRD+VfVAnG/bvRZvzlvMwsNvnd09yTm7ALW9dTMXzf442RzyHqvVqJ/LTVtaotAuEv3mOL0LOm+j3lHRFnJfcRF++3/s62t7R5hzyHCcI6O3uBRnKbgME9DnhzfNmAvq/uyJbKCYwsMGy5gBFxGYJzdeSDcTYB2+iAywH2yzv4hJMhILlxanrXVEy/H7F2Z627ZDb728l6cwk98f/l+v/JhI+PLE99Bf7Ru9Jcm8E9OXl7/6ZmH2jvRHsIMXypK+yD25tL+1v9D862pu27ZCTm7gnVK5K5inr8PJigNn0ZKb7qEFAb792zVBWGyCgzwFvntefYFZEe8ny4zMANAABfeWNPzfRARYvTn49KU5SoFj+zfMTXC6KeA59EQk3lPS7Cv8nBiweA7xNPxftje8PI+/eRNIl+ENrebsVsw6M9kY8h5TVnYjm1yXWpna6QOwa7Y14Dn3A5uEjKkQQYsByYoBfix8T7c0hz/GBgL7cXJeh3tkAAb0htG1vNsGs2HOIpM0lbRvb6DCwwSJzYGtJd5O0vaQ7tLP+FwcCev1inMWtIyrsBwArFyftRhiFieUVJ008D7d81432pjgBfdsfbSnpb8kegDiwvAKl/ed7RHsjovffJ16TxHD8YTm+4PP1N0VbsyZCFTYvPsja1Nre2QT0ZyfxD6BPIvoeFXOWNXk58cDW489HW5Ofjg8E9OWusQz1zgYI6A1APF8suWZgg2XMgVUu4Q1vQW6RLNgwO6GhhXu9QgAiOkDz4uSHk0006/9yb56eI2nTxOYAfWyVaRtMbvm0EwsOj7YmDvSbm0n6rdu/sCYu7gfpobL3R1uzD4QqbF7c3r2DzAHPdg6yvDramnUJ+pyjPt/lp772Q616OWtz+N0q2hoRfVwgoBNHJoXbAAG9Jrx5vnjRh4ENFp0D/t3ud1Ys1rByQoOAXi9eXV9RqGauAUyPLZtJurxiI81YLHeyRD3Eo3snOSlAX2/57D6lqEY8WGw/ZQdIL5C0frQ1OXD/MAHpqcn+BR9YLAak4vk3nM3xA5jli69L5g6+uJgfpr74vmhnBDMYQjx4W0U8ICYsb20+JLE3jAMEdPa5k8JtgIBeA948X3wx9adUGdhgnjlwdZxL4R3B3Zx/slFrltAgoDeLW9xEB6iXI72K4mRruVP4410SewP0FZujL41zN6yjvDm7vLhgeckB0c4UKPubcx/vCi4U6Jc7/38uae1oZ/aCMIu1JJ0d5w2dIBb3w1Qs+2ZF7APoI6u5Ofrpin0rIvpyDnmeJ+nWzuYwDhDQl1cLYqiXNkBAXwHatuefpIzx2cAnsNe5QHWCpM0T34RmCQ0Cev05aL+I6AAr3zo9K/oMxcnlrH8+9vwb6x4MDBO03hfnMAXK5eXHlhP/OPM3htlz/34VMT33/qqUjizhMPWdop05QALTsLnxpIrDXLnndCkHWX4t6eZJ7APoM6u7WuJpyXwmNiwvNuwX7cwaPR4Q0POv0Qy1agME9BkgnuOABKB+nGwO4+AK34TmCQ0CevONACI6QDW2Kd7NJZUUJ5e7/v13tDGFSRgS/sbJd5I5TYFy8RhhG/hHRhtToOwP9i2OjN+Iwvzi+8J0fXx0tDH7QaizDn0j8UXGYr5ot0yvdm8dswbBkLD5uqmkCxNhhBx1sfXa7PiDzN8YugcBnfxiUrgNENCnwJvn+ScnY9xFEiu00rJ9uQkNAvr8c5I30QFuiIm6n49+QnFyOWvgte6GqRV5aIEHQ40Pt4ntHP3GkwLlYrHCYsTHoo0RL/qBxen14zv14RvRlWW5h8r+PdoY8RzqrD/3SuYSa89ivugFsifiizBgbA15VMV6Q5xYLE7YIZuHRBtzCHwcIKDn01EY6sQGCOgV8OY5DkgA6nYO+IQ1JFy0bG8voUFAn29+2i/t3AFuGFPunNywo+gw/zpoa2D4vUzSHaONEcdg6HuqHStiBLFi8Zz5sniDKsAhm/xYrH5u/D7cPl98f+jF8/BmbYC5DnV98R3JHGIstuaYHd8e7ctBFhgyNn9fkcxv9rOLxUrLfd4f7cs+dhwgoJNjTAq3AQJ6Am3b809Kxrhs4BNUf3uRlu3tJDQI6PPPU/tFRAf4e7702ugbtGde7s2evZK8FGCo2Bz+94pYgYg+fz5iuciLEztD/lz7e8mzJrn3WiW8e362pHWifbnNBnW4maTfxflDJ4jlrTnfZvpBgev2Fypy1Nzr4BCHv4EeOvFskNgZygUBPb//MdSqDRDQHYjnOBwBp9vkalrL9l2dX1IkWW5Cg4C+2Jy1X0R0gP//RPnPXUJJsWGx2GLr4GFxcnFiH0rLQb6YzHVixvwxwzbxp2b+tnDD/cp2yT6HOb5Yvm1/7n7RvhwUgZWw3GmPJD/FF+f3RRPELnZdT6jRQAnYPF5P0p8SkYSYMX/MsFrZc6J92dOWDwI6etqkcBsgoEd48zz/ZGSMxwbTWrafKGnzxCdhuQkNAvric9d+eRMdxoptgh/pkkmKk4vFFIsnp7t4zWl9KK1AGW6inJNsQilQzp9Hm6jxgMTOkL9ltO+qxZhvXbSDNi+PtmVvCHWwOPg554usM/OvM3RHgtK5SbKvtY4V7G3n39tajv9/0bbsacsHAZ18f1K4DRDQefM8+yRkjMsGtGzPm9AgoC9nDtsvN9FhzELBB6MvIBQsFktWud+tExsDlFag3NltQilOLhY7LPbStaIf3FTSb1w8R7RbfG5/I9qW4jvUweZJOJB/eUXtgTH/QZb3RduSn0LJOerbknlP7Fis3ht+t4q25ZBn2SCgk2NMCrfB6AV02rbnn4SM8dhgWsv23dzCS2LVbkKDgL78uYyIDmOMJbeSdF70A4SCxeKIrYcvi7bllh2Uis3t9yZznwLlfPHDDt/8XtLamb/tmDFBaaf4PTgcstiaaPP6UkmbRduyP4QmvvjC5PY5a8x8vmjF4nAwaK1oWw6zQOn8yMUPctTF97evj3bl8E3ZIKDn1VoYat0GoxbQEc9xMoJM3pbtJ7jCCIJBuyCgtzOv7RcRHcaCbX6f4ooLFCfnjx8WO/432pXCJJSMze+bSTo72YwicMyXW5v9ws3+AAXK7jGbfziJ64zF1sV/iXZljwhN15jvuvWFtWX+2o0dZnlYEusASsTm932n1DEZzWKI5ac/zfxdoRsQ0IkRk8JtMFoBnTfP808+xjhsQMv2foCA3t78tl/eRIcxYLfAPhvnPm9Lzr8uerHgLol9AUovUD46zn/emlwsD7Hc46OJfaHb/Ho9Secmczr3HmzI4vkXo11ZE6EuNlfukezP8MXFbo8eEe3K2gJj0gnelPgBcWSxQzjbR7uyppcLAnr+XJqhVm0wSgEd8RzHIrDka9ke2vHRsr17ENC7mefcRIcxxJHbxVjuN8isq81jhq2Lr4h25ZYdjAUrxB+V+AKxpHn+YcXJv0q6ZbQrnSy6n8tPit+Brizz5dF+Ll8h6Q7RrhTboS6WQ72KdWXhPa0Vic+OHWMCrCswNk5P/IEctXlMsfz+ndGmHMQpFwR06mGTwm0wOgHdt20/qyK5ZlHMPykZZbds3zzxRegGBPT257z9IqJDqdim99lxviMUzB8rbF38YeZvCpAzJ7mFpL+4fNH7CKN+vm3xxA6oUqDsDhN4P+XWRebufOui1WReFG3KXhHm4RSXZ7GeLLam7IIvwgixHGoHl5+iFcy357Xc/hfkpsWDgE7+PyncBqMS0HnzPP+EY4y3ZftBFb4I3YGA3s3ct19EdChZKPiSi/EUJ+dbI62g8OBoUwQvGBuWC+6d5IzElOb5h9nuI9GmxJNuc+sNJV0YvwHt2+fLna0odWpH3w7KzE+3nlKTYNT3RVtPPh1tynoCY8Tm/fuiP9ApaXl7XjrLlAkCOrnGpHAbjEZAp217/snGKNsGfpNKy/b+gYDenR/YL2+iQ4kxZGNJl1TEfUb9+GBFmKOjTSlOwtjjyjejTyCiL97Gfb3EttAeFrv3dPOXNXG+/aPN4YcmtgVo4ovWvp1OEPP5ocWvKyVtGW2K2AVjxHKo9SVdEP2Cm+jz7fctHh8cbcr6XiYI6NTDJoXbYBQCOuJ5/onGKNsGdVq2kyjlBQG9W3+wX26iQylYDH9qnN8IBfPFBhMJLpJ0m2hThC4YK1aY36Yip0SIbJaD08Y937r4UdbFpRwq+1BiV4CmnBDnEu3bF/PFV0d70jUQxozN//0T/yA/bRZbLD/9KXveokFAz6/LMNSqDYoX0HnzHCciiLQ7B2jZPgwQ0LuNhYjoUKrQdUyc4wjo88UEK74cGO1JcRLGjvnAEYmPUKBsFmPswN77oz0RIbvh5pL+HG1P+/b5D5VdJmnTaFMOlUETbL78Y9LFhDWkWX5qheFfS1qTKQhwA36c+AnxpVmt2Ox172hPOluUBwI62tukcBsULaDz5nn+CcYYX8v20Np3V+eHJEf9AAE9j4/YLzfRoYT4EVoDnxPnNUJB81hgSffPEbcAbhRfNqp4Gib6NgAAIABJREFUR5oCZXMh8reS1mJ+tY4dUHici+/M2ebrou0fXxvtyaEymNcXXxDnEu3b59uvmt1Cpyl8EeCG8WUn1vqF6mLXJt0tOORZHgjo+bQZhjqxQbECOm3bcSKCSHtzgJbtwwMBPU9M5E10KAGEguWsmVY8eFJiV4CxY/u2l0cf4Rb6fHEmfUeaQ6ztYfH70GhzurLMP1//KGndaE9un0NTLM59AV+ce59qReGTmH4AU2PMV1yM8f7DWDnOWIz5Lmt9sSCgEwsmhdugSAEd8Tz/xGKMr2X7wRU+CP0BAT2vz9gvN9FhyELBYS72UzRo5v8UJwFWZq14gzr4DF0umucbdvDgP6M9ycfbz61/5mI862KzddFy4vC+LPMV5vXBwIYVHUxy10yGVNexHPUx0Z4c8AS4sYB+v8RviDPN4kz44yslbZnEbygDBPT8azpDrdqgOAGdN89xGoJGu5ss+6Vl+7BAQM9foLBfRHQYagz5qUseKRo0KxpYwh3a/QYoTgJU7+GeG32FGz7N8wwO6nRbTN+6ItazD202V3nSBBbBcqldk/wUX6y/N702KQjTuQRg+rp/DDnq3LUwizX7JPEbygABnT3ApHAbFCWg8+Z5/gnFGFfL9u9J2jzxP+gnCOj98CP7RUSHoRUM7pHMYYqT9X3e1szjoy05cQ8wneAfZzrfIdY0z9WvlnRH4k1rWNH3RdHedGVpngtbHvysaEv2kbCILx6RzCtG/TXDctRHJDYFgOr9cFXexVg53lh8/hixpkgQ0IkDk8JtUIyATtv2/JOJUaYNaNleBgjo/fGndBNxeMV3AugLVkjbP85XipPN109LtndKbAoA1fHmWUm8oUBZP+aYzZ5OvGm9kP4lN0+Zo/XnKLfPYZmEvdNP4vzi0FWz/aitF99wtgSA2TlqEIDJUZvXwFbFP/6dpJsxyYoDAT1/rZmhVm1QhICOeI6jECjaFc7Tlu27Of+jzdcwQEDvT5zkJjoMCYvxn3PFAoSC+n5uifZ3ox0pTgLU29v9KvoO79k2yzFMEPlwtCUHdpaLxfD1JJ3DHJ0r/7U5+mzn7wDz5qd3d8IMN0Kb1XnMbg+PtmS9AFg55tw38SP2xfVjjtnqgYlNYfggoOevMzPUqg0GL6Dz5jlOQpDormX7CUnLdoSA4YCA3q9YiYgOQ4obN5f0Z7cmUCiov47a+rl7tCXFSYB6e7sDou9wC71ZbmGCyFmS1mCyLR0r9gbBiTVx/vn5W26gwYJYPrWvWyvIT5sXgnleCKB5DnAcOepcNTDL6V+RxHEYPgjo+WvMDLVqg0EL6Lx5joMQINoVz+3WeRgHVfgeDAcE9P7FS0R0GEqRYPtEPKdAWc+/Lck+PfN3BBgi60r6UxJ7cq/bQxg+Rm8bbckNn+Vhxd43RBsj2jXLeW1v+fJoR/aUsMx2yqwT9dcIy1H3SOwJACvHnfQQHbGnXuwxAf0r0Y7kp+WAgJ5/D8hQqzYYrIBO23acg+DQXsGNlu3lgYDez5jJm+jQZyzXelWcr7x/3syvzV7PS+wJAPViz+sT0Y0CZb34Y7Fn/2hHhJHl59PfToopjPq3z/8maaPEngDzsEbsthHmFQet6ueoFrd+ig8CzJ0HnOjyAPLTZnnAOfEpHPKAckBAZy8wKdwGgxTQEc/zTxzGOFu2w3BBQO+3/6VF7yMqvh1A19ip8C/EecntnuYFgj/Hm7T4MkB9bN3bTNLlFbkqY7YNLJf4RLQjAvpy5+WGki50+ybmZb081+blYcxLWFJ+es+Kecao74vhqZQAawRAfcxfnprsj4lBzfbIOyTxHIYNAjr5x6RwGwxOQOfN8/yThjGOlu0HV/gdDBcE9P77of0iokOf4P3z+XzZ1tO3RjuyjgLMV6D8YPQlOmA0L07+knfQW33/nFtnzfea4fceiT0BmsL754uvDxdIWj/ak8PaAM25maTfRn/iMF39OGR7ZN5BLwsE9Pw1ZYZatcGgBHTePMchCAjdtGzf1fkdxY0yQEDvf/xERIc+YbH//smawen6+mtrSLLvktgTAJrFoO2jP/HOZPN8IoytiUFLr0X8R7QtXVnqz0fePYU2BPQPOV/MvY8b2u3z9yS2BIDm+cAboz/x1FDzfOC4aEP2yGWAgJ5/nWeoVRsMRkCnbTvOQDBY7gaKlu3jAgF9GDGUN9GhL1hBbf84NylONi8MfCnakMIAwGKc5DauHOJpFoeelcR0mB+L5Z936yLzsd6e0+bjPzMfYYn++DPWhsb1H4tZ90viGgA0r639o1vfOGjerAvG7+ItfigDBPT8tWSGWrXBIAR0xHMcgUCwXIGOlu3jAwF9OHGUm+jQB0xs+Z84LxEK6q+vllzvmdgSAOaLQ/slcQjRcuV4ZAXdI4lDSyUUe38fbUvL1nrrIsVyaGNPu4Wkq5K9E2O2L1p++p3ElgDQHDt88sUk72LUr0dvk9gShgsCOr4/KdwGvRfQefM8/yRhlGODaS3bd3M+R/JSdkLz9fjdSfCH46u8iQ65COvBGS5hpEBZXygIAsvaTN251qqbROGUgQ3WiPNiU0mXRt8yH2PMjkW2yf8+cWhp62FgW2dj1sR6fmh57DuS+g7AIgerQv2C/LTZ3tJ88bmJLQFg/lj0z26tIzdoFovoklQOCOjsTSeF26DXAjpvnuefIIwy32Q1xz9B0uaJv0GZ2Pf9Uvz2COjD8Fv7RUSHHBugLSVdWbGOMKbbwHz10GhDipPN5x1AFe91PkYsWjl/sIMGF0u6LT62MBbL92EeNt5/mr/eJ9qQw9qwDF+0t4fZ0zZfEzaONiTvApgf85+bS/pT9C8609TLD9LaFvvl4YOATo1sUrgNeiug07Y9/+RglGEDWraDPxxxWhL8Gf22AW+iQw5sE/t4Fy8QrOqttVagfFC0IUJBs0333ST9i6S9JT2NgQ0kPUPS7rHIRjxqlj9YPNqBeLS0dfE90aYc5Kg3B+mEAMvG8qov44tzCVbHJHYEgMVzg6MSP2PUyw1OYvIVAwI6fj8p3Aa9FNARz/NPDEYZNqBl+7hZzSX14Z24k+O8oP3pcP2Ym+jQBRY3Xh3nHsWAen5qSfXpTNO5c/9X9SDmMvprA/KXZrmDxe4XJX4G8/PdaFMOotabhzYHX8EchCWyjqTfuXWBQ571c9Q9ow258QmwOOZHj0jiETGpXj5/vqQNog3piDFsENDz75MZGpeAzpvnTHqcfvE5QMt28JvivdzboRb0SeqHFWsR0aFL7FbKZ+L846ZdPR81oeCNSU4L9desF0cbhqcDrmFgAzcHfP5CDlMvd7CY9KHEz2C+ouAtJZ0bbYpoV38vGn63SvILgEV88a7saRvtIU2s+muMY96WALA4a0g6i/xgrnr1A6INyQ+GDQJ6/poxQ+MR0HnznAmPwy83GbnG/fmDK3wNysR/38MqCqkUn4cZaxHRoUuC0HJGkiwyZq+7vPO62HwLHJisVwxswByYP2ew2P2DJa0LY8WKutuRR881/2jRCsvOFfZ0+SkHqlb2R8upPpbYEQCWF5cOZw/TKEewuPRs4lIRIKCzZ58UboPeCOi0bc8/GRjDtwEt28fNtJbt17mT54jn5fi4bToOT+YAwKJxJLCZpMuTeceY7peWUIdDB5ygbw4COv5FfGm3ReaG5AkLx6enRHtywKdevmp2Ck9zBDjADcvyxddVXBZgrOyLT0rsCACLY/70GFd7Y++8cky2uBQu/BCXhg8COnnIpHAb9EJARzzPPxEYw7aBF0VXOcc+QdLmiZ/BuFq2X5OIrrnnKmM5/m6/vIkOXb3lhu/O9knzxXdVxGSoP++4gY6vEWva2R/cJ/oYB3yaY3uot0db8qxJvXlnc+/ezD1YEjwx1HwNsINUF0u6TbQjB64Bls86kv7A/rl2bLKa9f8Sl4oAAZ09/KRwG2QX0HnzPP8kYAzbBr5A4W9E0LJ9PPjDEYe6OUDL9rL93n4R0aENIXO/inWFMd0fLaF+TGJHaDbvENDxM+LMcnMFi+FPIzYtLNodx7rYWLQLXVlYD2HZRfrT4/zipmf9NeArSTwDgOVh69z/kCfUzlEtTzhb0tpMxsGDgM4eflK4DbIK6Lx5nn8CMMoQzq93LcwukbSr8zM2SeNo2b6lpFNcYKdl+zhigP0iokOb77hxA322H1q8PUfSrVx8hubzDgE9/9rCKMcGfn/wluhjdKSaj7CfOjPaks4sK887y0vfncR4gHmxvGojSRc5X8wdZ4fiiy/CFwFaw9a4Z0R/Y/9cLz6ZrbZM4jwMDwT0/Gs+Q2UK6LRtZ3Lj3Mtv2X4iLdtHgy9E7TmjZTvCV9mxljfRYdnYoauvxzlGAWBlP7Ti5LGJDaE+COj51xNG2fHp08SnhQuCl0RbItqtnJva3nS3JMYDzIvlVvd184x97sq+aDbaljUAoPVcYQtJVxGjatexLJ96FPFp8CCg59/zMVSegI54zsTGseefA7RsB1q2E0PTmGC/3ESHZXBTSWchFNRek83vDoj2QyhoDgI66xp7g3aFzNDyGOYX7R5AQbzxPvWSePAgwK0yWFae8OQ4vzjgWV+c+qWkNZiCAJ3wfSe2cMin3h46PB0XoEvScEFAZy8/KdwGnQvovHme/6MzhmuDaS3b7XR/gJtv42jZHk63nuwCOS3b8/tnX2IDIjosEmMCt5N0eTK3GNN9z2y0XbQf63BzENDxMWJMO3PA8sNzJW2QxHqYT7Rjrs7OR63A9B3mG7Tgi6+J88tqIYzpvmjx6gOJDQFg+Zh/HUK+UDsuW4x6FzFq8CCgk49MCrdBpwI6b57n/+CMslq2nyBps8S/oEz8hncvSZfFOUDL9vz+2ZeBiA6LYsLvgyrWHka1z5k49RtJazEF5wYBHR8jxrS/h7hHEuuhuWjHrdeV55sJm29ObAiwCDaPPoQv1o79Jk79C74I0FmM2i36HTfQ68eoL0bbkZ8OFwR09vKTwm3QmYBO2/b8H5sxTBvQsh1o2Z7fD4cyeBMdFoH2mM39jfeFlwMCev71g1H+jeCdEn+D+rEJ0a75fNuZ+QYtFOe/G+cX4tRsP/QHYLeOtkOcAmg/Rt1e0hVTfJFxQxvwzFA5IKDj35PCbdCJgI54nv9DM8pp2X4pLdtHAy3b8/vgEAc30WFRoeCVcS7RHnNlXzMbvTSxIcw39w6M9qRNcv61hFHeQZ/9iVNzFwT/NymeMGbnoEE82DyxIcCihE4/v4pzzDoAMaptYPb5taQ1mXoAnfIjcoZGceqvktaPtiNnGCYI6OQjk8Jt0LqAzpvn+T8yo6yW7VaMoGV72dRt2Z57rjL6aQNEdFgk7hwV5xGtalf2M9v4PzTajts9i615COj51w9GuQd9Dop+xh6iGWtIOivaMMR88u/pc832rD+ecy0AmFWY3yReJvB7Hcbsg1OfjbYjPwXobj9zNHvpRjWrkFvdKYn3MCwQ0MlHJoXboFUBnTfP839gRjkt2w+q8C0oE/99D3NzwOYDraDy++kQBiI6NMWKa1+tWIMYN7aBiecXSdoo2o5N/3wgoONjxJj25oDF8k8ksR5mY/F8A0kXJ3GfMXuufTiJ7QCLYDFrG/bCjeP+q/FFgM6wNe8F7KVr16ssr3pYEu9hWCCgszeYFG6D1gR02rbn/7iMYdnAi6K0bB8ntGzP74elDd5Eh3niEG3n6vmWJdGnMM0WBgE9/3rBKD9WhU5WUB8r4t7D2ZBbr7Pnmol2L0piO8AycoSd4/zi/fP6cf8J+CJA53nDQ6L/0bWmft7wdGLVoEFAz7/nY2h4AjriORMXx11+y3YKEGXjv++erj0dLduJp8sonqcblCPcfOPGLPh5cAtJf3brEev5yhv+D1bEcZhvDaSFOz5HzGn3LVy6WDWPS490hRME9Nn5ps21HaPtuEkGy8Di1r5xfvHEUL2931WS7hhtx34PoH3Mz0Jnsr+5HIzcYeVnhl6RxHsYFgjo7OEnhdtg6QI6b57n/6iMYdmAlu3gk8RD3dygZXt+/yxlIKJD3U3PprHg5ucNo9oGFqOD6BtAQJ8fBHT8jDjT3hwwUfN8SbdJYj6sHJf2TmI+Y3aueXnMJZhnsOy98uvjHDPBhVHthxbzfyNpTaYhQBZ8Rzf21NPjteVW7452Yz89TBDQyUkmhdtgqQI6b57n/6CM4bdsv0TSrs6vOLk/jpbtW8Y2wBaYbePLe+f5fbWUgYgOs7C1ZruKOcOo9idLoneKtmPDPz8I6PgZcab99T8UKe+WxHxYOS79m7Mf6+L0eWZr4s8lrcHEghZ88Sh8sZEg9dVoNw5MAXQfrz6e+COjOj81+3w62o38dJggoOPjk8JtsDQBnbbt+T8mYzg2oGU7rF6zZTuFuvz+WtLgTXRYabP/uDhXaDdXz5fCpv/OycYRmoOAnn99YIzjRuIDo89RoKwfl97p4j15+cpF8C8zx2DJWLw6Dl+sFe/TG520RAbI1zGD3KGeKPWdaDf208MEAT3/fo8xAAEd8ZyJiqM2K2L5wrv9+YMrfArKhJbtxMzchfS0wMKb6GBCwdPY7NfyIxOj/iRpHabPwiCgsy6yl2h33bdN/y6Jz8HKcel/KvZtjBvbwOzzLuYYtFSYPykpYjKq47354gvwRYBsucOT2VM3EqXOYK4OGgR0cpJJ4TZYWEDnzfP8H5ExHBvQsn3c+JbtW0g62QViWrbn988xDUR0mJbPvSTOEd6XrJdAn8hUWgoI6PnXBcY4BJV9E5+DlW+9fiXaDgF99hyzvGH/JK8AWFae8PMkB2NU+6LZ57HEe4BsucP9ox/S1W12rLY66B8k3SLajlvowwMBnZxkUrgNFhLQefM8/wdkDLtl+/ckbR79iUJW2fjvu5eky+IcoGV7fv8c60BEh6oY9eY4P2g3N9t/TEj5ZEWMh/nXyAMT+zKwAXNgOeu9+dQro68hbtbHH3hlPk6fY2afx7MuQgtF+VvGrj9ecGFM398Ff7xHtB1PdgB0H7Nu755p5PmX6fHa4vlFkm6X2BCGAwI6OcmkcBvMLaDTtj3/x2MMwwa0bAdatuf3Q8b0+JQW1w+vSIRhPALmUXEeIGDOXtfNPu9I7AeLzT8EdNYr1ut2bwfbk1EI6PVYU9Ivou0Q7WbPMfvje0bbIdrBMrC9yCaSLsYXV4z3FqcukLRBYkMA6I614q1q8oeVc1Sz0Z2j7cgfhgcCOnv4SeE2mEtARzzP/+EYwxLOfeHqEkm7OX8iOSgXWrbn90NGvVhlv7yJPl5sLTomzgcE9Nl+c23SqhYBfTEQ0FmvWK+7iVlHE7MaFQJvLumv0XYI6CvnkuG23W0SGwIsgs2jOyVPnrFmVNvAbPQrclOA7Hw/+iMdbGbnDxa3tot2o0Y+PBDQyUsmhdugsYDOm+f5PxpjuC3bT3At24MvUVgoF1q25/dDRrOYZb+I6OPENqrfiHMBAX22v5h97EAcAvpiIKCzZrFmdxOzPpXEfKjG9mgb0oK11hyz4vdvJK3NpIIlYrFq24o6C+PGsd7qTsczCwGy5xDHun01cWt6jmo5xMOj3chRhwcCOjnJpHAbNBLQefM8/wdj9N8GflNnt87DOKjCl6BM/Pc9zM0BK16y8c/vp4zq2GW/iOjj3fSclCSIjNkb/YdEu7HRXwwEdHyNWNPuHLCY/tUk5sPsNXFLSVcleRJj+vwKt+0AlonlVw+LcyzkX/ji9Dhke7hjEvsBQL6n0XxdmHHjfbXlEBxMHy4I6Pj2pHAb1BbQadue/2Mx+m0DWrYDLdvz+yFj8Thmv7yJPs4Y9uMkQWRM95PgI3ePtqNAuRgI6PgasabdOWAxPRySgpWxmL5NkhsxT6ttcG1yQIM1EZadH+ziYhm+OH0fZ0Lde6LduLgB0D3md2+K/hj8krg1PW5Zjvr0aDc6uw0PBHT2CJPCbVBLQEc8z/+hGGW0bIdy8YWiPV27R58sc/M8v68y6sUz++Um+rhYK76ZaGsZ/jLbR0Kc3zjajtuci4GAjr8Rb9qdA7Y3CYekoH5e/wBy+Frzy/LF/05iOsCi2Fx6ootlCFHT81PzxTdEu1GDAsgXt/7VrZHErZXj1gsS+8FwQEBnLz8Zu4DOm+f5PxJjmC3bD67wIygT/30PdXOAlu35/ZMxf1yzX0T08bCOpN/Gb4+APt0/zDbnRJvB4iCgs16xXncTt87mdnCjmPQoZz+K39Pnl+WKhyX2A1hWfvBcN9fwxen7N/PFF+KLANnj1lOJW43i1kuj3aifDw8EdPbykzEL6Lx5nv8DMYbZsn1X50e0sBtHy/bwRuIpLrBaoZJb5/l9lTF/jLNfRPRxbHg2kHRB/O4I6NN9w2wTbuuvmfnblQICOmsVa3U3cSsckqIwWT8mPc7l9oh20+eX5YmvS+wHsKz8YD831/DF6Xs380VaIQPkj1uPJ4eolaNaLf310W7kqcMDAZ29/GSsAjpt2/N/HEZ/bUDLdqBle34/ZHQT6+yXN9HHIaCfH785AvrKyfOpmb9bSSCgs6axprc7ByymnyvpVtHveHpi5Zi0e7Qbot3s+WU54ssS+wEsitUlXxnnGG8Jz963WY4aYhe+CJC3Vvhgt3fk4M/0uIWAPnwQ0NnLT8YooCOe5/8wjP7agJbtQMv2/H7I6Dbm2S830cve8Gwi6fLkuzOmJ88nZf5uJYGAjq8Ra7oT0G8d/Q4BfeWY9LSKZ7oYN84TzT7PTuwHsKx992vwxVp7NstRd8QXAbIL6PepqCEzbhy3eAZm+CCg49uTsQnovHme/6Mw+muDaS3bd3MLBy3bx9GyfQtJJ7tASsv2/P7J6Cb2IaKXu+G5QxLL8KlqG5gPfC2xH8wPAjr+Rrxpdw5YbD+HG+iNYtLeLu6zLk6fX7Yv3ifajfarsCxsLr3KzTV8cfp+zQq8OySxDAC6w2rCW7G3brS3fg9xa7AgoLOXn4xJQOfN8/wfhDGslu3fk7R5XDAoFJSN33zuJemyik08J0vz+yqj3Thov4joZW54bu/WN4qT033B5v+Xot04OLc4COisX6zf3Qjo4eDvZknsh5UFdG6gz84PbV18UmI/gEWxGssb8MVGNat7R7uRowJ0j/nd1hW1FMb0vfUR0W7kEMMDAR3fnoztBvqGks5KklNEofwfipHPBrRsB1q2E4OIwX+Ph/bLm+jlgIDeLMbZ3P9ytB/FycVBQGedZZ1tfz8zic90bJnEfli5hbvFfUb13LKi0uMT+wEsKz84DF+sHefD2CbajRwVoHssvwr5Fs+j1d9bI6APFwR09giTMQno4Sbtz+OfQDzP/3EY+W1Ay/ZxQ8v2/D7IGIaI/u7czgoLgYDezAe4gb58ENDzx3bGeAT0LZLYD9Nj0ouSuM+onltWVNo5sR/AsvKDQ/HF2nE+jG2j3RDQAbrH8qvQ8efipBMQY/reGgF9uCCg49uTMQnoH4//4QqXgNFmJP9HYnRvAz/3r3OOcgIt20fbsv3SOAdo2U5MIibfUES/Ov7xEyt8B4YBAnqzuIaAvnwQ0FlbWVvb39uEXwT0ZjHpxUncZ1TPLQR0aAsE9OZxPgwEdID8e+vN49M5qX8yqvfWCOjDBQEdv56MSUC/laSTnUiUCokMbDCGOUDLdvAt2w+rSOyIi/n9lJE3RtovN9DLAAG9mQ8goC8fBHTWNdb1btZuBPRmMQkBvd7cQkCHtkBAbx7nw0BAB+jHDXQE9Pp7awT04YKAzl5+MrY30NeW9IP4JxHR838gRj9atu/qFgbaYI2jZXt4r+gUFyit5RLiOXFpzHGZN9DLBAG9mR/wBvryQUDPH98ZZdsAAX2+mISAXm9uIaBDW/AGevM4HwZvoAPkAwF9vr01AvpwQUDPv9djqDsB3ZLTdSSdGv8LRHQm4Ric0IuiQSilZfv4qNuyPfdcZWCDnHHSftNNToC3VIcLAnozX+AG+vJBQGdtI7/pZg3nBnqzmISAXm9uIaBD253h3uD25qwXK9e07h3txuUPgO5BQJ9vb42APlwQ0MlNJmO7ge5FdG6i5/9AjG43Gv59u4OntPSG8vDf99CKRI5b58SiscdixPNxbHjukHTbyD3v+jpsbfhaYj+YHwT0/POaUbYNENDni0kI6PXmFgI6tL1Pf1XF4XbGdF/cIYllANAdCOjz7a0R0IcLAjo5yWRsArpPsmjnnv8DMdqzgRdFadk+TmjZTowhxtaLlfbLzfPyNzyXJd+dMT15PjHzdysJBHR8jVjT7hxAQJ8vJiGg15tbCOjQtoD+mjjfuIFezxd3TGIZAHQHAnqzHBUBffggoLOXn4xRQA8gouf/OIzuWrbbjbsTJG0WfYBb5+Nq2X7ZlJbtiEjEojHHYt48H9eGZwNJ57u1Mff863vyfFrm71YSCOj55zWjbBsgoM8XkxDQ680tBHRoC6vJvCLON26g1/PF3ZNYBgDdgYDeLEdFQB8+COj593oM5RHQA7yJzgQs0QFp2Q60bM/vh4z+24Cb5+MU0C+I3x8BfbpvmG1+JWnNzN+uFBDQ88d8Rtk2QECfLyYhoNebWwjo0LYvPs8JLRxwn+6LJkQ9PbEfAHQHAnqzHBUBffggoOff6zGUT0AP8CY6k3AMLdt3c3N+9W7WF8jcsn0LSSe7QOjf/WVTnt9fGfnjpf3Stn08rCPpt/HbI6BP9w+zzTnRZrA4COise6z73azrl8cc2Be7YHpMQkCvN7cQ0KFtX3xunG8I6LN90fZtL0zsBwDdgYDeLEdFQB8+COjs5SdjF9ADtHPP/6EYy23ZbhOflu3jgZbtxBHiaP14ab+I5+NiLUlnubUSn5ntI5dK2jjaDiFqMRDQ8TfiTbtzAAF9vpiEgF5vbiGgQ9u++ERXwOSw+3RftL3bG6LdeJYQoHsQ0JvlqAjowwcBnb38pHAb1BLQA4jo+T8WY7kt2w9y85uNRdn473tYRaLGrXPiC/H1777ruH15AAAgAElEQVSQFmAOd/6DSFg+P0oSREZ1XmFryN2j3ehesxgI6PgasabdOYCAPl9MQkCvN7cQ0KFtX9zZ5acI6NN90bosvifajToXQPcgoDfLURHQhw8COnv5SeE2qC2gB3gTPf8HY8xXLPKbiXBjjJbt44CW7cQMYuZ88ZKb5+PlpCRBZFT7it3Qf2i0GwL6YiCg42vEmnbnAAL6fDEJAb3e3EJAh7aw/GqHON9C/oWAPt0fbQ93TGI/AOgOBPRmOSoC+vBBQGcvPyncBo0E9ABvouf/aIz5W7afKGnzOJc5jTuulu2XxjlwTSIU4k/YgDmAeA5/L7B9I9nIMqpzDLOPHcjjjcnlrNkHMv/wOeJOK3MAAX2+mISAXm9uIaBD2/npthV1HsZ0XzyeKQmQDQT0ZvEZAX34IKCTk0wKt0FjAT1AO/f8H44xexNPy/Zx4w9HHFqRmLHxJoYQQ29cVOfm+bixAuUxSbxkzN7o/2u0GwL6YiCg42vEmnbnAAL6fDEJAb3e3EJAh7aL8ndy3X8Q0Kf7o9noV+SmANlAQG+WoyKgDx8EdPbyk8JtMJeAHkBEz//xGDfevFe1bL9E0q5u7tLGahwt27eUdIoLdH7Dzaab+EH8vGEBijfPwWLnUclGllEtFph9Dop2Q0BfDAR0fI1Y0+4cQECfLyYhoNebWwjo0HZRfhNJF8c5Z/t6xo1tYLa5QNIGiQ0BoBsQ0JvFZwT04YOATk4yKdwGcwvoAd5Ez/8BGc1atrN5KBcvXuxJy3ZiA/GxVsHTfnnzHCyGvtltZDlsVP+NSQT05azhtHBn/Wb9bmcOIKDPF5MQ0OvNLQR0aAur39xS0p9cvYe1YnasDz55j2g7LpAAdAsCerMYjYA+fBDQyUsmhdtgIQE9wJvo+T/i2Act28G3bD/EzQ1atuf3T0Y/bYB4DtPiqIkF1sWFMTuBPomptBQQ0PE1Yk036/7lkraIfsfB4pVjEgJ6vbmFgA5d+OTPkxyMMdsfH5PEMwDoBgT0ZvEZAX34IKCTk0wKt8HCAnqAdu75P+QYBy3bgZbt+f2QMTwbIJ7DrFzuaXGecAN9th/Z7ac/S1qHKbUwCOj51wZG2TZAQJ8vJiGg15tbCOjQRWH+pDjnENBn+6OJUQck8QwAugEBvVmOioA+fBDQ8+/1GOq/gB5ARGey9qFl+wmSNkvmJJSJ/757SbrM3Zr0AiEtiIlNJBI3LqDz5jlMi6mPc2sr8XNlMSps+O8cbcdtzsXXdFq4s2azZre3dwq/3EBvFpMQ0OvNLQR0aBNrQX6cy73IUaf7o4lRh1d06wOA9kFAb5ajIqAPHwR09vCTwm2wNAE9wJvo+T/omFu2H+zmIpuEsqFle34/ZAzPBtw8hzrFye0q5gyj2p8sid4p2o6De/ODgI6fEWe6yQEQ0JvFJAT0enMLAR268MejXA2IHHW6T1qN7KvRbhzwBOgWBPRmOSoC+vBBQGcvPyncBksV0AO8iZ7/o5Y6aNkOvmV7eL/xZBfIrJ0ut87z+yqjfzZAPIe6m55NJV2VzBvG7M3+i5McGObfP3ADHX8j3rSbByCgN4tJCOj15hYCOnRxeP71ruMca8V0f7S6yNmS1mRqAnQOAnqzGI2APnwQ0MlLJoXbYOkCeoB27vk/7Jhatm/u5h2na8uFlu35/ZAxTBsgnkMdbP28RXzX29bb3PN3CC0yP1yxTsF8azwCev65zSjTBgjo88UkBPR6cwsBHboQ0PeNc44b6PXi/dWS7hRtR50MoDsQ0JvlqAjowwcBPf9ej6HhCegBRHQmb9st2w9y842W7WXjv++hFYkWt86JNyQLswsovHkOTTgtSRIZswWD7zO9FgYBHT8jzrQ7BxDQ54tJCOj15hYCOnThj493BzzpklTPJ5+Q2BAA2gcBvVmOioA+fBDQ2ctPCrdBawJ6gDfR83/gUlu271bxbiuUBy3b8/shY7g24OY5NMXW069WHFpj3NgGdkP/IkkbuXULmoOAjo8RY7rJCWjh3iwmIaDXm1sI6NBFfnqvijoRo9oGlsO/OolpANA+COjNYjMC+vBBQCcfmRRug1YF9ABvouf/yKW2bA+3kilUlwst2/P7IWO4NkA8h0Xi7lFxHtEic2U/MxF9h2g7DvUttubTwj3/+sEo0wYI6PPFJAT0enMLAR3axGo+m0i6NIlpjGqfNEHq2Gg78lOA7kBAbxabEdCHDwI6+cikcBu0LqAHaOee/0MPadCyHWjZnt8PGcO1AeI5LJqvvSLOJev8wpjua2ajlyQ2hPnmHgI6/ka8aTc34AZ6s5iEgF5vbiGgQxfcVNJZcd7ZAUZGtQ3MPmdLWovpCdApCOjNYjMC+vBBQCcfmRRug04E9AAiev6PPeSW7bu6ucTp2XG0bN9S0ikuUNkmkJZt+X2V0V8b8OY5LILF3yfF+cQN9JX9zTb8n4m2I0dZbO4hoOdfRxhl2gABfb6YhIBeb24hoENXxfnvxHkX5hy30Kf7pLfN1tF25KgA3YCA3ixHRUAfPgjo+fd6DJUhoAd4E50J3bRl+4m0bB8NfkO3p2vPdk0iCrJRJo6QGMwujntR7wjnVzx5AXXj8IOIubUFKTvc9Rtu+CwEAjprO2t7u3MAAX2+mISAXm9uIaBDVz75ISe4UBeY7Ze2H3xOYkMAaBcE9GY5KgL68EFAZy8/KdwGnQroAd5Ez//R+zZo2Q6+ZfshFYkUwnl+P2X02waI57DsNyYvT+YWY+UcZrtoP274NAcBHR8jxnSTJ9DCvVlMQkCvN7cQ0KErn3x1nHc8M7SyX1ot5aOJDQGgXRDQm+WoCOjDBwGdvfykcBt0LqAHaOee/8P3YdCyHWjZnt8PGcO3AeI5LJs1Jf0izi/emFzZ/2zT/+Ikz4X6IKDnX0sYZdsAAb0ZCOjN5hYCOnT9zBAt3Ff2S8vhfxlzewDoBgT0ZjkqAvrwQUDPv9djqDwBPYCIPu7JPa1l+wlJy3YoFy8w7CXpsjgHaNme3z8Zw7EBb57DsrHb01+Lc4wWmfU3/cclNoT6IKDnX08YZdsAAb0ZCOjN5hYCOrSN5Vb3cfOOLkkr+yZdkgC6BwG9WY6KgD58ENDz7/UYKlNAD/Am+jgn+LSW7Qe7uYF4Xja0bM/vh4zh24Cb59Bmbna4W6cpUNa74XOupPWSTSQ0m3cHVuSHDGzAHFhezkAL92YxiRbu9eYWAjq0jeVVG0m6KM49uiSt7JuWT70kiW0A0H682kzSJUkexrixDRDQhw8COr49KdwGWQX0AG+ij2fMatm+m5sT3NwqF9+yfQtJJ7tAZBtgTpPn91VG/22AeA5tYTF6vzjXEDLr+aMl1I9J7AjN5h0Cev71hVGmDRDQ51sLEdCbrYE7swZCB/WE0+N8o437yr5peXzoLBWg1gbQPgjozXJUBPThg4Cef6/HUNkCeoB27uVPdFq2Ay3b8/showwbIJ5DFznZjnG+hcNNnJivv/E/LLEjNJt3COj51xhGmTZAQJ9vLURArze3ENChS7/8lMu9yFFn+6ZdUrhY0sbRfnRJAmgXBPRmOSoC+vBBQM+/12OofAE9gIg+DvHcbp2HcZD7/rRsLxv/fQ+tSJS4dZ7fTxnDsAFvnkNXm5/bSbosmXeM6X5pCfWZiOdzgYCOfxFfuskfaOHeLCYhoNebWwjo0KVfvqaitsSY7p9Wc3lyYkcAaAcE9GYxGQF9+CCgk4dMCrdBbwT0AG+ilzdo2T5uaNme3wcZ5diAm+fQdU52RpIsMqb7pr/l84BoQ9pkNptvAW6g42fEmXZzCAT0ZjEJAb3e3EJAhy79cg+Xn3LIs7449cnEjgDQDgjozXJUBPThg4DOHn5SuA16JaAHeBO9vOFvF58oafP4rbl1Pq6W7Ze6k+JeCGTTm99HGf23AeI5dIkJv5+J848WmfV81Db/b4r2I8+ZX6z6/9o7E6jNivLO/1ka0CBuIG7NokbFBTCCa1xjRBGJKLiA+y4aFccNEYNhIpFRBAUTJxE0bpiIcUDUCQpGhbB4dETUKEYILkEQ0QZl/fqbc89UDU9X3/f93nq/W28t9/c7p043TQPNc+upeqp+t+pe5+oFGjGgDwzXB5bcNb47u3zjGt/ZxyQ/vtP65z8EOiwCP2bd1/Q59hJWrk/9C55XSbpjEEsASDdWrZW0jrFqxdoJgV4/CHTWCMuNx6A4gd7Bde7tNCtIjzHPmE3ltuHK9vy5R2snBshzyFWHvd31QcTBbHnqi+ru5D6nz+erGw4rYMylEYPW+8A9Xb4hUFaeBxHocfPfU4P4AaRgK0n/4fpcJ4eR6CvnqK/ln0WOAiQHgR5XlyLQ6weBnn99R9P4BHoHEr2tifC9ZlBlU3kcV7bfQ9L5ZqDxbz5z6jx/XtLqiQHfPIcc+HH8KWYMZ3Ny5Vy1p3we6WJIzRO36N5F0kskHSTpeTRiQB8YrA88V9Lz3Tdwt04wb7QGAj2uVkWgw6LwddXpZr+JGnX2fbl/CuIIAMODQJ/PG5zg4sdLePWBQM+/d0zTOAV6B99Erz8BbnQ//jf3TNdk7lOQ/8r23H2SRgxq6QOcPIfcC6Cd3VXavj8yhs++AfABF0M2AOL7HQBAbhDocfUqAh0WnZtHBnUXbXqO+hq+u076Li6G1F0AaUCgx43JCPT6QaBThyw3HoOiBXoH30RvQ6Af6p4nV7e3iX2ux/YUQoiX/LlIqysGyHMogW4hdJHrk5xCny1v/Qn0n3HKc+4+t7mr/2nEgD4wbB/wuQUrg0CPq1kR6LDo3Hwa9Wn02tLvzRwcxBIAhgWBHjc+IdDrB4Gefw+ZpnEL9A6uc69foL/VPUsEeltwZXv+HKO1FwPkOZRUe33C9UuuyJwtd/nOJABA/SDQ4+pWBDosepN+x+CWpNzrt5ry9By6K8BCxqm17tYHxqnp4xMCvX4Q6PnneZqSxqAKgd6BRK8zGRDo47my/VrzzK0AZEGbPw9p9cSAb55DaWP8a1zf5IrM2XPYx+oLLoZ8ZxIAoC4Q6HG1KwIdcmzWf9f1QW5Jmi1P7d7Mni6O1KgAacanDgT6bHUEAr1+EOj595JpShqDagR6B99Ery8hEOhtwpXt+XOL1l4MOHkOJeE31B5i+icvRc2Wxz6Xu+vc7xfEEwAAygeBHle/ItAhR35+xPVBXvKcPV99rP4miCUADAcCPW4fDIFePwj0/PvJNCWNQVUCvYNvoteVFAj0dq9s31nSeWYg8d99RbDkzztafTFAnkOpbC3p566fduM8t4rMlst+I+BoF0c+YQMAUA8I9LgaFoEOOfLzZabmoj6dLVf9ns2vJW0biA8AGAYEetxeGAK9fhDo+feUaUoag+oEegfXudeTGAj0duDK9vz5RGszBshzKBV/avo011fZoIzfoPwvSbd1cWSDEgCgDhDocXUsAh1y1Ke79qynaCuvOb2ser2LIy95AgwLAj1uLEag1w8CnfpjufEYVCnQO5DodTQEehvYRdVxPYUOp87z5xqtzhjwzXOoYex/czDm02bLax+vg4N4AgBA2SDQ42pZBDrkYI2ki10/5Jak+Hz9Pp8YAkgCAj1uvwCBXj8IdPbIlhuPQbUCvYNvopffEOh1w5Xt+XOI1m4MOHkOtZzweWSwOckpn9ny2xfZF2V+jgAAEAcCPa6eRaBDrhz9pOuH3JI0e76uN8Jq/yCeALB6EOhx+2II9PpBoOffX6YpaQyqFugdfBO97CRBoLdzZfs15pla8Ze7j9GIQY19AHkONS2EbsN30OfKcSsVnuFiyQYlAED5INDj5jsEOuTK0Ze7fohAj6tTfc6e7eLIZ4YAhgOBHjceIdDrB4Gef4+ZpqQxqF6gd3Cde7mJgkCvE65sz587tHZjgDyHGk+hf9b1XzYo4/LcF9rnuDiyQQkAUD4I9Li6FoEOuerT+5r+xy1Js+eszds/CcY9AFgdCPS4/TEEev0g0PPvM9OUNAZNCPQOJHqZyYJAr/fK9ntIOt8MFN3VvSxM8+cUre4Y8M1zqA0/J7zK9WG+gz7/BuXeQUwBAKBMEOhxcx0CHXJyodmz4Ia82dejvqb/sosjL3kCDAMCPW6PDIFePwj0/HvNNCWNQTMCvYNvopeXMAj0erAb+t23sLiyPX/+0NqKASfPoeYTPvcP+jAblLPnvC+2v+ZiyQYlAEDZINDj6lsEOuTM0+NdX+Qlz7i85RQ6QBoQ6HH7ZAj0+kGg599vpilpDJoS6B18E72spEGg13dl+7E9hQyyJH8u0eqOAfIcWlgUXWSKRwT6fBuU+7h4cgodAKBcEOhxNS4CHXLm6VOD+pQadfa16U3BhrB/cRYA5geBHrdXhkCvHwR6/j1nmpLGoDmB3sF17uUkDgK9bLiyPX+O0NqPAfIcWqmrjnN9mu+gx+e/L7i/mflZAgDAyiDQ4+Y5BDrk3LDfTtJVrj92n51DoM+euzZ/nxKMfwCwurFpraR1wZqQtnEMEOj1g0Ant5cbj0GTAr0DiV5GQ6CXi10YHSDpWvPMuKY3f+7Q2ogB3zyHluaLJ5nikRM+8eOA3xw4qOf2FwAAKAcEetwch0CHXPgT06eZWgtRFVef+vy9gG4MMAgI9Lg9MwR6/SDQ8+8905Q0Bs0K9A6+iZ4/gRDoZcKV7flzg9Z+DDh5Dq0tiLaRdLnr35zwiR8LfNF9saQ1mZ8pAABMBoEeN8ch0CF3rr7K9UcE+nzrVS+wnu/iyUueAPODQI8bhxDo9YNAz7//TFPSGDQt0Dv4JnreJEKgl3tl+86SzjMDwZJZRPHWNpMPk+/q+gDyHFrDzx0nm4Uuc0X8mODrore4eLJBCQBQHgj0uPkNgQ65N+3vZWos9jPi61O/F3SJpK2C2ALAfOMSV7jPNg4h0OsHgY5DWG48Bs0L9A6uc8/XwRDo5cCV7fkHXNo4YoA8h5bnkINcP0egzzc2+A3K7nt4d3UxZYMSAKAsEOhxcxsCHXLi66hvBJ8ayr0mrPUlzyNcPHnJE2B1YxICfbYxCIFePwj0/HM5TUljMAqB3oFEz5NMCPQysIuf43oKFd7SZrJhsh12A2K9ya/jTf4hyqBWfN/dXtLVrm9zjft844Ovjf6h5wU3AADIDwI9bm5DoEMJex2HBnUWbfYctvtBN7gT/fYb8wAwOwj0uPEXgV4/CHRqjuXGYzAagd7BN9EX38EQ6Hnhyvb8gyxtPDHg5Dm0jt9EO9X1eU6hzzdO2JPoj3UxRaIDAJQDAj1uXkOgQwn16QN76q3c68Nav4X+uSC2ADA7CPS48QeBXj8I9PzzOE1JYzAqgd7BN9EXm1QI9Px9veMASdeaZ2JFHwtLJhom2jQnz08wOcjJc2hpXnmpWewyj8w3VvgC/P9kfqYAALAxCPS4eQ2BDqVwvqmz2OeIr1FtPu/nYspV7gBxINDjxh4Eev0g0PEKy43HYHQCvYPr3BfXwRDoeeDK9vyDK208MUCew1jgGvdhxwxfIx3m4ssGJYwJbl2AkkGgx81pCHTIja+hDgtqLCR6fH3q8/mnkrZ2ceVlcIDZQaDHrY0R6PWDQM+/L01T0hiMUqB3INEXk1wI9HxXtt8jeAPbXxfLaUEmFibW4foA3zyHseGvcvxns+BlczJ+3LBzcTdH3y+IL8BYoM9DiSDQ4+Y0BDqUMpfswr7HIGtbv4/3QRdXXnoDmB0Eety4g0CvHwQ6nmG58RiMVqB38E309B0MgZ5nA3J/SdeYZ8CV7fkHW1p7MeDkOYy5dnq2ywOucV/d+OE3DM7O/FwBFskWkg4ymy3cvgClgUCPm88Q6FACfk75uuubXOM+f4263hzAeIKLK3M1QNxYtFbSumDtR9s4Bgj0+kGgk9vLjcdg1AK9A4metoMh0BeDXcwc21OIcOo8/2BLaysGyHMY++LodpKucPnQbbCxKTD/OEKtBGOrV9/i+v433GlBP7ZwGh1KAYEeN5ch0KGkvH2N2QthH2T++tTn9SWS/sDFlqvcAVYGgR435iDQ6weBnn+PmqakMRi9QA8l+jeDzUwK7tV1MDaF009SXNnORMFEudg+gDyHsePnnRODRS8tfiwJ68wHBTEGaAXfp3d3fX3JjB+vN7+PE25QAgj0uLkMgQ6lSatr2c8bZL3r9/NOcrGlPgWIG4s4gb7yeINArx8EOnthy43HAIHu4JvoaToYAj0ddvFygFkkcmV7/oGV1m4M+OY5wC2nRB8fnEDnFPr8Y4rfOPiuiS+nfKAVNjG16/fMItS+fPNVSfc2v5/T6JATBHrcPIZAh1Lwc8cppr6iPp2vPl0f5Hf3+aYOXnQDmA4CPW68QaDXDwI9/141TUljgEA3cJ378B0MgZ4GrmxncmByXHwf4OQ5wMYLpe+bgpINytWNLb5m+pugLgWoHd+XPxj0df8Cjv/rGyS9zvxzbNJDLhDocXMYAh1Ky939gvqUGnX++tTfGHONpB1cfHnJDWAyCPS4sQaBXj8IdBzFcuMxQKAHINGH7WAI9OEnJd9Hd5Z0vklkv7BhgZh/YKW1FwPkOUB/vXR4sPBlg3KYUz4HuvgiEKF2fB8+0NSsfZ8vsKfR/0XSTu6f4zQ65ACBHjeHIdChNLaSdGlwU1Lu9WQLNyWdbWLMTUkA/SDQ48YZBHr9INDzz9e0tDFAoPfAN9GH62AI9OHgynYmBCbEvBsH63uKe1ssAowJ3+/vZeZ6XuBa/TjjX4a7zlxnzUl0qBXfd+/t+rTt43Zutf3fjye/k/Qq8+/iZRLI0XcP6XnBg7bx/IVAhxLz9+hgT4o2X30a3pR0TBBnANgQBHrcOINArx8EOjXGcuMxQKBPgG+iD9PBEOjDYDcNj+spNJAW+QdTWpsx4JvnAJPx1zeeFsxJtNWNNz6OF0nawsWYF3WgNnyfXeP6cli3Tur/fafRdzRjDtfGwiJAoMfNXQh0KAk/T9x/wstatNXflHSQizEvtwFsDAI9boxBoNcPAp3aYrnxGCDQp8B17qvvYAj0Ya9sP88kLle25x9AaW3HgJPnANPx89OfmbmJDcphT/mc7GKMNIRaN1I+HfTpaWNEeBrdb6itk/Qi8+9mwx5Sg0CPm7sQ6FAavm46w/VTXvIcZl28ZOK5m4sxczLAhiDQ48YXBHr9INDz71/TlDQGCPQVQKKvroMh0Ie7sv0aE1PepGZyYHJM2weQ5wCz022c/dBsrHHCZ1iJfriJM0AN+L769qAvz/KCTfh77NW7p0q6m/t3cxodUoJAj5u3EOhQag4fYAQNL3kOsz72susSSbd1ceZFT4BbQKDHjS0I9PpBoOMolhuPAQJ9Bvgm+vwdDIE+H3aT/NggnvYKLRoxmKcP2AUwbfLmAN88B5h9vjo0mPcZY1a/QbnenPQ5oKc+ACgR30ef2fNSTcy4wGl0yAkCPS5XEehQKls60RvOR7RhXvI8y8Sazw0BbJgLa90tSqyNp48tCPT6QaBTVyw3HgME+ozwTfT5OhgCff6J5x6SzjeLPb+JTiMGq+0DbBzEyfPje/ITADbMie5U6LU9G2y01Y3TS+bHh7pYI9GhVHzffEjQd1dTe0w6jX6KpDuZk2/MzzAkCPS4HEWgQ8lz0uHBHEKNOqxEP9HFmXkYYMNcQKDPNq4g0OsHgc6+13LjMUCgR8B17vEdDIE+36SzvxER9sp2GjEYog/Qn6bHhZPnAPPVRycFi2DGmmHGah/PqyTt4GKNRIfS8H2y66O/GngsmHQavcuJA3v+DACrBYEel58IdChdYvGS53D7KPZmOz8fv7PnM4QAYwWBHjemINDrB4GOq1huPAYI9EiQ6HEdDIE+38TzYEl7SLqfpF1pxGCAPrCbpPtIOicY/Gkbbu4jzwHi8d893KNnY40xZvWblLaeuth8b5JNSigF3xe7vvmjYDNsyLFg0mn0z0ja1vxZOAUHQ/XpQ4L+TOvPSwQ6lJ7LH+6Zm8jn1c/HNv9f6WLNy2wwdhDoceMJAr1+EOjUFMuNxwCBPgd8E332DoZAByiLL7IROHUDICzeO9iIB5hdov8LG5TJr8rsPu+yJog7QO510Rbm00P2mtyhJcWk0+hXSHqG+XOxgQ9D9GsE+mw5iUCHUvF10oODOQSBPsx87Odi/2vPcvFmDoYxg0CPG0sQ6PWDQM8jdWlaWAwQ6HPCN9Fn62AI9Pknn26xRyMGQ/UBP2adERSpY2988xxgGPwYs48pMNmgTCfRzzKxR6JDLmzfO9P1zRt6+m2KuXvSafRPSrqD+zNxGh3mBYEel48IdKhhrvoC6+Bka2l7u93eLt5IdBgrCPS4cQSBXj8I9Px72zQljQECfRVwnfvKHQyBDlBWQROeDh1z4+Q5QBq+bYpMJHo6iX6aiTkSHRaN7XNfWMDJ85XyYsksbH/JaXRYJQj0uDxEoEMN+bwX9enCJPpjXMz9jUkAYwKBHjeGINDrB4Gef3+bpqQxQKCvEiT69A6GQAcoAwR6/0Kfa9sBhq+JXhAshrkmM51EP9XEH4kOY5LnfXmxPjiNfqKkbcz4xCdZYFYQ6HE5iECHWjg32AilRh12HvZxvV7SI1zMOYkOYwOBHjeGINDrB4GOwF5uPAYI9AHgm+iTOxgCHaAMEOgbLvL9j3zzHGB4utMmF5tToWxODisLl6dIdF+TAqRisynyPKeMCDfw/SL355L2NX9mNvIhpp/zDfTZcg+BDrXk9DNdv+Ulz3Rz8E1GovuT6My9MCYQ6HHjBwK9fhDoeda/NC0sBgj0geCb6P0dDIEOUAYI9FsW9/5HX6gf3xMnAFhdPfRKNigXKtFPN7FHokMqNjNz5ReDPhj2zVxt0mn0kyTdxvx/MN/DLH0dgT5bziHQoSa+E2yGljB3tSrRu8Y30WFsINDjxg4Eev0g0PPPwTQljQECfUC4zn3jDoZABygDBDonzwEWyZaSLnG1AKfQ02xShrXWNyTdysWfkz4wNOCPzSwAACAASURBVL5PbSXp7KDvhX0yd5t0Gv0/JT3R/D/xsglMAoEel28IdKgpr5/r+i6n0NPPv/7XDwieAUDLINDjxg0Eev0g0POvf2lKGgME+sAg0TfsYAh0gDIYu0Dn2naAxYu2Nwa1QEmCrdVvol8oadvgOQAMldPbuT5m+1ypuT3t2+h/a1424TQ69IFAj8s1BDrUlt8/dP2XU+iLk+jd7VR+X4JbYKBlEOhxYwYCvX4Q6PnXvjQljQECPQF8E/2WDoZAByiDMQt05DlAnvFma0k/c3nIKfTFSfTLJN3XPQMkOqwW34d2kfTToK/Z/lfLRv6S+/mlnEaHKSDQ43IMgQ615fYLXf/lFPpi5l7/6+80z2LTTH0AIDUI9LjxAoFePwj0/GtempLGAIGeCL6J/v86GAIdoAzGKtD55jlAXul2cDDmlC7bWpHo10p6gnsGnLCFeesGv57p+tLvKpTns5xGf7+kLcy4xak48ONmB99Any2/EOhQI3wLfXFz75IZJ040z4AXPaFFEOhxYwUCvX4Q6PnXuzQljQECPSFc545AByiFMQp0Tp4D5KcTUz8xm2c1Sbeamo2rHd9fZp4FJ31gVmxfeanpT/ZFmBrzeNJp9B9Jeqz5f+YbrYBAj8srBDrUmN8H9sxtueepsazJz5R0W/cckOjQGgj0uDECgV4/CPT8cy1NSWOAQE/M2CU6J9ABymBsAh15DlBODeQFHBuUea7LPMY8EzYpYSVsH3mf6Uc3N7J+mXYa/VhJa0wcOI0+XhDocTmFQIdauaBnjss9T7XY+ubdSyQ90D0H5lxoCQR63PiAQK8fBHr+eZampDFAoC+AMX8THYEOUAZjEujIc4DyuDAoPFuufXK3vusyz5B0e/cskOgwCd83ur7y5Z6T2i2tWyadRv+BpEeYmHAafZwg0ONyCYEOteb4U8080NIcV8snh66X9GzzXLgtCVoAgR43NiDQ6weBnn+OpSlpDBDoC2Ks30RHoAOUwVgEOt88Byiz/nm6GXtarntKPmH7c0mPNHMCm5Tg2dTUCX8s6Reuz9wY9KWx5ErXjjY5wksn4wOBHpdHCHSoET/vnen6MjclLXbetfsR7zXPhTkXageBHjcuINDrB4Gef11LU9IYINAXyBivc0egA5TBGAQ6J88Byh5/vhqMPy3WPaWf9OnaG82zYZMSbB94o+knra9RJuXKzebn3+M0+mhBoMflDwIdasS/JPXwYC5ofc7L3dZPuC3pbEl3N2Mwn1GBWkGgx40JCPT6QaDnn1tpShoDBPqCGZtER6ADlEHrAh15DlB+7fMIs1nWYs1T03fRT5O0nXk+bFKOj01Mbm4r6fMNfu98qNPoR5q48dLJOECgx+UOAh1qz/WP9+zN5Z6XxjjnrpN0QM/zAagJBHrceIBArx8Eev55laakMUCgZ2BM30RHoAOUQcsCHXkOUE/t84meuif3GDK2TUo//l8paV/zjBCD48E+66dJusLkpe0rY8zPSafRvy1pDxM3NvXbBoEelzMIdKj9FPrO7nvcdh4Y4xyYc861+xMflnQr92x40RNqA4EeNw4g0OsHgZ5/PqUpaQwQ6JkYyzfREegAZdCqQEeeA9S1QbmTpOsarHdqaDbW9nTth1w92sEm5XhOnW8t6e8n9Imx5yWn0QGBHpcvCHRo4aWyI4P5cOxzYe4r3X8i6Qk9zwmgdBDocWMAAr1+EOj551KaksYAgZ6RMVznjkAHKIMWBTryHKAu/MbXET01T+7xZKyna/1C4FJJe/c8K2gH+0z3kXRZTz9oZf2RIl9s3XSBpF1NPDmN3h4I9Lg8QaBDC+vkW5u5ccn079xz0dhfXDs+eNHTv5QLUCoI9Lj8R6DXDwI9/zxKU9IYINAz07pER6ADlEFrAh15DlAvW0r6cVCI1l7v1NYmbVJ+TNKdzLNCDNaPfYZ3Np9R6BpXts+WK5Py5TATW146aQsEetx8gkCHVnL+wGCtTH2a90VP/yLDZe6TM3bO9fsbAKWBQI/LewR6/SDQ8+/v0JQ0Bgj0Amj5m+gIdIAyaEmgI88B6q95nmYK0dprndZOo/9a0iuCZ8Zpn/rYNJDnr5Z0dc/zJv/i88XWUOcHp9HJlTZAoMfNJQh0aAG/Xj4zGOupUct5ce0U9716Dy+vQYkg0ONyHoFePwj0/Hs7NCWNAQK9EFr9JjoCHaAMWhHoyHOA+vGC6bRgPKq11qm9TdqkPE/So81z47RPPfO93VB+rLty3D9XTp2vLlf68qX7+ZtMzNnQrx8EelxeINChpfp0twnjPq2MFz2vk/QOSVuZZ8eNSVASCPS4XEeg1w8CnRphufEYINALosXr3BHoAGXQgkBHngO0tUH5hz11To21TgvNxn4pmCM+Lume5vkh0usQ5/eWdLJ5jjcF33Ql14bJF5srX5e0i3kGnEavFwR6XD4g0KEV/Dz6bte/bZ2au1Yba+vbA+jaJZIOmnLzDkAuEOhxOY5Arx8Eev65kqakMUCgF0ZrEh2BDlAGtQt05DlAmxuUb+updXKPN2Nu6ycI1xskHRN8Hx2RXqY4775zfpyZ55fMgo8cS38avYv7G83z4DR6nSDQ43IBgQ6trZm3lPQT18ftJ09y12ljbeGLnvbGpHMl7WWeISIdcoNAj8tvBHr9INDzz5M0JY0BAr1AWvomOgIdoAxqFujIc4C2+U5QlNZU54xBDNr54reS/kLS7c3zQ6TnIdwgvqOkd0m6xjyvm4JnmbtvjeGlE//zs8zNDV0Nxmn0ukCgx+UAAh1azP+nuD5+c4X7cGO8MekMSY83z7GbezmRDjlAoMflNQK9fhDo+edHmpLGAIFeKK18Ex2BDlAGtQp05DlA+7XOI4P6pqY6Z4wnbLv2S0l/KekuwfNEEi5enHfP4GhJV5nnw3fOyzgZd72k15pnxWn0ekCgx/V/BDq0OgZ83Myrvr/nrs/G3sJ1gv0+ete+HIh0/zz9fghAahDocTmNQK8fBHr+uZGmpDFAoBdMC9e5I9AByqBGgY48B2gfL5Te11Pn5B6DaCtfm/kbd7W7/UZ6BxuVw9J3iuo+kt4vaV1Qd/Od83w1y6TT6F+RdA/zLKF8EOhxfR+BDq3hx+rtJP3K1EDUqGXfmOSfUdf+VdJ+wXPlZU9Y5Pix1tTprG0n5zICvX4Q6PnnRJqSxgCBXji1S3QEOkAZ1CbQkecA4/vW5I+D4rT0GmdsbZpI737+KUmPCp4vG5Wro+87nt2pqn8MTlshzsvPk99Letkq+wMsDgR6XJ9HoEPLL3k+J/gsSg37cGNqK4n070p6taQ79LyYyEttkAIEelwOI9DrB4Gefy6kKWkMEOgVUPM30RHoAGVQk0BHngOMs855vBsDuk0vNijrFOldO1fSS4ONSr8RzRXv80nz7vvmr5B0QRBru0lc+ppgTG3aafTPDDRuQloQ6HH9HYEOreLrlk+7/s5NSXXMvX5csi8bXinpA5L26BnvkekwJAj0uNxFoNcPAj3/HEhT0hgg0Cuh1m+iI9AByqAWgY48Bxh3nXNcT42Te1yizXfip9uo/JCkR/c8b2T6xhv0m/fM24+VdGLwffMlcwqu9HXA2Jt9Nje4H48yzxzKBYEe188R6ND6GnpbrnKvcu7141O49/F192LinYPnjUyHIccNrnCfLWcR6PWDQM8/99GUNAYI9Iqo8Tp3BDpAGdQg0JHnAOPFj1GdRPxBUKSWWN/Q4jYqu+sz/0LSbj3Pfoyblf7q0PCkecfuko6U9P0ghje52CLO68k//6x8PpyToa/BfCDQ4/o5Ah1axr/gdoCpT7kpqc5bk+wLiF37jbtd4GmStplwIxAvvEEsCPS4PEWg1w8CPf98R1PSGCDQK6M2iY5AByiD0gU68hwAfI3zsKCuKbG+ofWP47Yt9ZxKX3Y3KR3urtDcdIpYbkmoT/v/6jbmHyLpCFPb+2ZjSC7UlXd2w96vie7jnjmb8eWDQI/r6wh0GMuY8BEzptuxnlb/y57/Jemj7kWJ7Sb0AYQ6zAICPS4/Eej1g0DPP8/RlDQGCPQKqemb6Ah0gDIoWaAjzwEgPOXz9p76JvdYRVv9RmX4HLvbBo6X9FRJ209IA7thWYNU38ScWuo7YS53Zeh+kk6Q9KOe2HHavJ3+7+utg92zD6/qhzJBoMf1dwQ6tM4m5pOKl7i+z01J7bzsab+V3rVfSzpd0usk7TrhxTdb69VQn8LiQKDH5SUCvX4Q6PnnN5qSxgCBXim1fBMdgQ5QBqUKdOQ5AEzia8F4VUptQ4sf522bJNOvlnSmu778TyXdaUpqbFaAWLeifPMpslzu5YC9JP13SWdJ+m1PjG7suRaWPl9nvq0P1kGfc/2Ak+f1gECP6+8IdBjTuPDHE+qb3HMPbf75eppM9y98fljSCyU9YMrLcJuamrCmlz9hWBDocXmIQK8fBDpz8HLjMUCgV0wN17kj0AHKoESBjjwHgD68ZNpB0jXBNcgl1Da04WV632bl1e6b0R9wG5YPlnS7GVImlNqhbJ+lhf+c/3fNIkC7P+Oe7s/cnTD/N/eNzb5FmL2evaT6nbb62sb36csl3SEY26B8EOhxfR6BDmPBi9N3FLr/RhtWpvftmSy524M+I+kt7qXPnWa4YWaTAepT2jAxSP1SAwI9LvcQ6PWDQGf+XW48Bgj0yildoiPQAcqgNIGOPAeAafhNqANMwcopn/wLh6HngXCzcppQ79qVks6T9DF3zf/+TlavlbTFAlNqC/ff7P7bz5B0mPszne/+jJMWXf7/LZTmuZ8Fbdg+7fvzsrt5wI5pUAcI9Lh+j0CHMfIVlwN8bmg8L3xO2kP5vaSLJZ0m6RhJr5D0J5J2mfHlT2gLBHpcviHQ6weBnn/eoilpDBDoDVDyN9ER6ABlUJJAR54DQEx9c1xPbcMCoc0YTBLqfVe+27ZO0mWSLpD0v9w1m0dJeoOkFznJ/Xh37eqD3Pcsd3M/2p/v7n7P4yQ93Z0iP0TSuyT9naRTncC/zP03p/1/3DRFmNOH2+y74dXt73RjGPK8PhDocX0fgQ5jwt8m0n1q5lcuD/geevtzvJ3r7Qn1SS99+nqge7Hy++6Fi09KOta9BHqwpGdLerKkR0l6qKQHBvUpbfgY/JGkuyQeIxDocfmFQK8fBHr+eYqmpDFAoDdCqd9ER6ADlEEpAh15DgCx45actLRjFwKy/UVSeONAn1RfSayvNBet9Guz/HtumkGW01/H0V/t2ufLDPVVg0CP6/sIdBgb/sWovVwecLPM+Ob7aVJ9JbG+0r+bliYGfh35nmCuHxoE+nzP5YTEzwXSgUBn3F5uPAYI9IYo8Tp3BDpAGZQg0JHnADDvKZ/u24LXBsUrm0z5FxI555Hwumwr1290zW5i+rZ+BhHkm90IvTGQ5H6zvK/ljhMtT7/0Y9OV7mSiHcOgLhDocf0fgQ5jlujvLGTvjVZujWrrykn1qf/0Cy1dDPwe2Htd7iLQy+hvCPT6QaDnzyOaksYAgd4YpUl0BDpAGeQW6MhzAFjtBuW+bjzhlA8LpFnnmyGb/XfTiMGk/rbsPhdgxy6oDwR6XI2PQIexc3rP3hu1AjFYRH1Kmz0GPj85gV5WbiLQ6weBnj+PaEoaAwR6g5T0TXQEOkAZ5BToyHMAWC2c8mFRxKKQPlBaH7Cbsr6uelMwZkGdINDj8gCBDmPF3zKytaRLg3U2Ej3/PE0jBrYPcIV7mf0BgV4/CPT8eURT0hgg0BullG+iI9ABxi3QkecAMPQ49rmMdQ2NGNAH6APhuOPHoo+7MYpr2+sHgR5X6yPQYcz48WJ3cw23/5H6lJqBurGcPoBAL/u58A30ekGg588jmpLGAIHeMCVc545ABxivQEeeA8CQbGpeDvxhMJaxQcmiiUUjfWCRfSCU5982ay9fc0G9INDjcgGBDmPH3zpyoNlo5fMv1CXUpmX1AQR62c8FgV4vCPT8eURT0hgg0Bsnt0RHoAOMU6AjzwEgZV3zh5J+FxSzSHQWTiwc6QOL6APrg7Hnakk7BmMU1A0CPS4fEOgAt4wbR2XYd6MRA/rAyn0AgV5mniDQ6weBnj+PaEoaAwT6CMj5TXQEOsD4BDryHAAWccrnSWbM4apMFk0sGukDi+gDvsbxY07XHhOMTVA/CPS4nECgA2zIZxe870YjBvSBlfsAAr3MPEGg1w8CPX8e0ZQ0Bgj0kZDrm+gIdIBxCXTkOQAsAi+qXmPGNK7KZOHEwpE+kLIP2DHGL6JfGoxJ0AYI9Li8QKADbPi5oW5O+NYC991oxIA+sHIfQKCXmScI9PpBoOfPI5qSxgCBPiJyXOeOQAcYj0BHngNAjk3K9y2opqERA/rAePuAHVf8WNNd09vBte3tgUCPyw0EOsDG48ddJP0yWHtTo+afz2njjQECveznwjfQ6wWBnj+PaEoaAwT6yFi0REegA4xDoCPPASDXuNbxuQXUNDRiQB8YZx/ok+cn94xD0A4I9Lj8QKADbIi/lWR3s+72eUJ9mn9ep40zBgj0sp8LAr1eEOj584impDFAoI+QRX4THYEO0L5AR54DQO5T6N2P5yauaWjEgD4wvj7QJ8+/ZsYgBHqbINDjcgSBDjBZou9t8mUpWD/TiAF9YHF9AIFeZr4h0OsHgZ4/j2hKGgME+khZ1DfREegAbQt05DkAlFLT3FbSjxPWNDRiQB8YVx/ok+f/Lmnr4AUeaA8EelyeINABpkv0FxuBbtfPuec5GjEYUx9AoJf9XDiBXi8I9Px5RFPSGCDQR8wiJDoCHaBdgd4nz4/v+W8CACyqptlR0pXBOIdEZ0HFgpI+ME+Nsz4YSy6XdLdgzIE2QaDH5QoCHWDl8eStZhMWiU5dQm26+D6AQC8z7xDo9YNAz59HNCWNAQJ95KT+JjoCHaBNgc7JcwAo9ZTPrpKuC8Y6JDqLKhaV9IHVyPNrJd0vGGugXRDocWsCBDrAdPyNJe8zcwsSnbqE2nSxfQCBXmbOIdDrB4GeP49oShoDBDok/SY6Ah2gPYGOPAeAUvFi61HmO5O+2OWqTBZWLCzpA7PUOOuDsaP78eHBGANtg0CPWxcg0AFWXov79fiJwV4ZNSq1CfXpYvoAAr3MXEOg1w8CPX8e0ZQ0Bgh0SHqdOwIdoC2BjjwHgNJZ437cu6fgRaKzuGJxSR+Ypc7xY0bXnuTGFOT5eECgx60NEOgAK2M/b/Yplz839Mw/NGJAH0jTBxDoZeYWAr1+EOj584impDFAoENSiY5AB2hHoPPNcwCoBS+69u0petmgZIHFApM+MKs83zcYU2AcINDj1gcIdIC4q9w7Tg/2zKhRqU2oT9P2AQR6mTmGQK8fBHr+PKIpaQwQ6JD0m+gIdIA2BDonzwGgNrzweoEZy/y17kh0FlksMukDK8nz5wZjCYwHBHrcGgGBDjCfRP/CAHtuNGJAH4gTte8J5vpUe29rJa1j7Tnzczkh8XOBdCDQmYeWG48BAh2SfhMdgQ5Qv0BHngNArXjx9UIzpiHR8y9AaMSgpD6APIcQBHpc/iDQAYaT6HZeohED+sBwfQCBXmY+IdDrB4GeP49oShoDBDokvc4dgQ5Qt0BHngNAiyfR7XXubFKy4GLBOc4+YPOfk+dgQaDH5RECHSAernPPXwfQxhUDBHrZz4UT6PWCQM+fRzQljQECHZJKdAQ6QL0CnW+eA0ArINFZVLGopA+ENQ7yHCaBQJ99vECgAwwr0W/oWY/TiAF9YDhRyxXuZeUTAr1+EOj584impDFAoEPSb6Ij0AHqFOicPAeAVmuaZ/UUwpxEZ9HFonM8fWCSPD/IjRF88xwQ6HH5xAl0gOGvc7fr8dzzJo0YtNAHEOhlPxdOoNcLAj1/HtGUNAYIdEj6TXQEOkB9Ah15DgCt4sXYvj2LdiQ6Cy8Wnu33AZvnthbaJxgjYNwg0ONyCoEOMJxEP9nspSHR89cNtHZigEAv+7kg0OsFgZ4/j2hKGgMEOiS9zh2BDlCXQEeeA0DreEH2OFOnINFZdLHoHKc878aAJwZjAwACPS6vEOgAw0r0k8yGrV2fcxo9fy1BqzcGCPSynwsCvV4Q6PnziKakMUCgQ1KJjkAHqEeg881zABgLXpQ9RNJvZqxpaMSAPlBvH7B57XP9t5IeFowJAB0I9LjcQqADDC/Rj3E5tuQaNWr+WoJWdwwQ6GU/FwR6vSDQ8+cRTUljgECHpN9ER6AD1CHQOXkOAGPDC7P7SPrZDDUNjRjQB9qR57+QtIsbA9ZkHIegTBDocfmFQAcYdt3u1+5v69m8pUbNX1fQ6owBAr3s54JArxcEev48oilpDBDokPSb6Ah0gPIFOvIcAMYu0beXdKGpXfjmJIswFqFt9AGby35d8j1JdwnGAAALAj0uxxDoAMOv3f1p9JeYfOOTQ/nrClq9MUCgl/1cEOj1gkDPn0c0JY0BAh2SXueOQAcoW6AjzwFg7HiBtmUwRiLRWYixEK23D6yfIM+/4tYvNvcBQhDocbmGQAdIOxY92cxj3JaUv8ag1RkDBHrZzwWBXi8I9Px5RFPSGCDQIalER6ADlCvQ+eY5AMCGNU3HiW6c5JuTLMRYiNbbB9b35PFHJ+Q8QAgCPS7XEOgA6fAve+0u6fJg383OdzRiQB+Y3gcQ6GXmCAK9fhDo+fOIpqQxQKBD0m+iI9AByj+BHhas9vcDAIwFf1Vmxzt6FvV8c5KFGQvT8vuAzVP7uZq/nJDrAH0g0ONyDoEOsBiJ3n1+5Ntm343bkvLXHbR6YoBAL/u5cAK9XhDo+fOIpqQxQKBD0m+iI9AByj6BjjwHANhwrPRy7TmmYOa6TBZlLErL7wN9n5Hq2vNMfvOCIMwCAj0u7xDoAIuT6N2PnzUbuv6WFV70zF+H0MqOAQK97OeCQK8XBHr+PKIpaQwQ6JD0OncEOkC5Ah15DgAwfZNyT0m/MHUNJ31YnLE4LbMP9H3v/ApJj3C5zJXtEAMCPS73EOgAi8HOZe/qEVBI9Pz1CK3cGCDQy34uCPR6QaDnzyOaksYAgQ5JJfrv3I9vDTakASCvQL/e/Xh8z+8BAIBbapbtJJ1tFvic9GGBxgK1nD5gZcGS2YQ7T9KdXQ6z/oBYEOhxOYhAB1gc9jMkB5q6lO+i569JaGXHAIFe9nNBoNcLAj1/HtGUNAYIdEj+TfSuIdAByhLotkC1fx8AAG7BircP9Sz0OenDYo3Far4+YPPPL2q7duKEHAaYFQR6XB4i0AHyjVN/JOk/J9yW5H9OIwb0AQR6qX0AgV4/CPT8eURT0hgg0CGpRD/XdbQ3ul9jEwsgb0HzRZeT7+/5ewAAMP2kz8tMEc1JHxZqLFTz9YH1E3Lx1RNyFyAGBHpcLiLQAfLg99e2Mev8JZOTSHRqVWrVjUXte4K5fmj8/tpaSet66lYaAr01EOjk9XLjMUCgQxJ8IbJG0qWSjnJ/jUAHyFvQXCDpYz2/DgAA08dQX9vs4WobvxHDle75FzS08cRg/YTvnf9U0sOMOKe+gdWAQI/LSQQ6QD6sBDzC5KafH5Ho+WsXWhkxQKCX/Vy4wr1eEOj584impDFAoEPyQn4HSU9yP+ckCEA+uvzb3/w1m8sAAHH4FwFvI+mUnoU/m5Qs3li8Lv7K9s9Lul2QowCrAYEel5cIdIC82H22vSRd6fKTK92pS6lLN16vcQK9rLxAoNcPAj1/HtGUNAYIdFhYIY+sAygH8hEAYPUnfd5gimo2KVm4sXBd7Knzrh1q8hF5DkOBQI/LTwQ6QBn4eXB7SV/pyVFe9KRWHXOtikAv+7lwAr1eEOj584impDFAoMNCBlJkHUAZcAsEAMCwtc2ekn5sCmuudGcBxwJ2uD5gN/uXzCbbTyQ93OQj9Q0MCQI9LkcR6ADlYF8me4fJVV70pD4de32KQC/7uSDQ6wWBnj+PaEoaAwQ6AAAAAMAqNim3lPRhU2DbE7Je/tGIAX0grg+sn5BTH5N06yAHAYYEgR6Xpwh0gLKwL5U9StIlZgOYFz2pR8dajyLQy34uCPR6QaDnzyOaksYAgQ4AAAAAMMCV7gdIutpsBrBJyWKOxexwp87XSTpoQu4BDAkCPS5fEegAZeJfMuteOjtpyml0ahViMIY+gEAv+7kg0OsFgZ4/j2hKGgMEOgAAAADAKheNXrjcVdLnTbHNaXQWdCxoZ+8D63s21Lr2JUlrXY51ucbnoSAlCPS4nEWgA5SLfdnsWZKuMnMsL3pSo46pRkWgl/1cEOj1gkDPn0c0JY0BAh0AAAAAYADsddIvl/R7szHAJiULOxa28afOr5f05xNyDCAVCPTZx2sEOkBdL3puJ+kfTQ5zGp36dCz1KQK97OeCQK8XBHr+PKIpaQwQ6AAAAAAAA3530n97cidJp5vCm01KFncsbieL8/XBjQ1nSLqX2Zix33QFSAkCffaxGoEOUA/2JbTnSPqV2Ri+uWdephGDlvoAAr3s54JArxcEev48oilpDBDoAAAAAAAJNylfLOnXpvhmk5JFHovcDTfpbV781t3g0JdLAIsAgT77GI1AB6gL+0Jadxr9U1Ne9ESkU6+2VK8i0Mt+Lgj0ekGg588jmpLGAIEOAAAAAJD4NPr2kj5hinA2KVnojXWhO+3UeXet7F3NZgynziEHCPS4fOYb6AD1YV9O21fSpSanb5owZ9OIQc19AIFe9nNBoNcLAj1/HtGUNAYIdAAAAACABW1S7i3ph8GmAad9WPSNUZzbDfr/kPRnE3IGYNEg0OPyGoEOUP+30W8l6X8E9elSz/xNIwa19gEEetnPBYFeLwj0/HlEU9IYINABAAAAABa4SblG0hHm5C3XurPoG+t17d2m2ZGStui5tQEgFwj0uNxGoAO0MeZ1PEjSV0yOc2NS/hqKNkwMEOhl9iUEev0g0PPnEU1JY4BABwAAAADIsEl5L0mnBJuUnPZhAdiqOF8Krms/oDaiKgAACuJJREFUVdK9J+QGQE4Q6HE5jkAHaEOA2Ntfnifpp4Hk4sak/HUVbf4YINDL7D8I9PpBoOfPI5qSxgCBDgAAAACQ+Vr375gCndM+LAJb/s75RZL2CXLBb7wAlAACPS7XEegA7bCpmZO3lnSUmcO7F+EQ6flrLNp8MUCgl9l3EOj1g0DPn0c0JY0BAh0AAAAAIAPhddWvlnS5KdQR6SwGWxLnV0h6rdlk4bp2KBUEelzOI9AB2n7Rs7sx6eRgI/nmYN7nG+n5azDa9Bgg0MvsIwj0+kGg588jmpLGAIEOAAAAAJARe3X17SS9S9Lvg40Frs1kYViTOPebYV27TtJfu77d1+cBSgOBHpf7CHSAcVzr/khJXw3qU0R6/hqMNlsMEOhl9hUEev0g0PPnEU1JY4BABwAAAAAoALtJuYOkDwUbk4h0Foc1ifPur/+npJ0m9HGAUkGgx40BCHSAttk0ePFtX0nfCgQYIj1/TUabHgMEepl9BIFePwj0/HlEU9IYINABAAAAAAo97XM/SZ8yxTsinQViqeLcXt/6cUkPNP2Y75xDTSDQ48YCBDrA+L6P3vFcSd8LRNjNQX2Qu16hEQPbP7sf35P4NiSfI2slrSMXVsxBBHr9INAZZ5cbjwECHQAAAACgwIWo3djZTdInezYcuNo9/4JqTG3aifOu/bOk3U2/3SzYbAeoAQR63JiAQAcYF5sFP3+5pItXEOnI9Pw13NgbAr3s53JCz/gCdYBAz59HNCWNAQIdAAAAAKCSazO9SLcbkTdKWnI/Z5OSBWSKRaPtV0uuz9m//zFJDzL9dDPXdwFqBIEeNzYg0AHGia1P10h6iaQLgw1nXvakLi1F7CDQy34uCPR6QaDnzyOaksYAgQ4AAAAAUDihSO+udv87Sdebwr6Tmpz4YQGZ6rS53wj3f/961wcfEPRTxDnUDgI9bpxAoAOMG/vpoY7nSDo/GCcQ6dSnuQUPAr3MPohArx8Eev48oilpDBDoAAAAAACVivSdJR0t6cpgI4KNShaSQ17T7heNXfuVpHdL2sn0Q06cQ0sg0OPGCwQ6APSJ9KdIOiMYM/ytSXwnnTo1l6jlG+hl9T0Eev0g0PPnEU1JY4BABwAAAACoXKTfQdIbJP17IDZuMhuVtrHIIgZhH7D9w1/TbvvKDyS93vU1D+IcWgSBPvv4iEAHgEljqGdPSR+RdF0gzXjZk1o0h6hFoJfV7xDo9YNAz59HNCWNAQIdAAAAAKDiBevmwablfpL+d8/mBNe7s7iMvaa9a1+S9PTgavbNzGYJQGsg0GcfKxHoADBtLLW1w46S3inp0mAMsafSedmTWjW1qEWgl9XHEOj1g0DPn0c0JY0BAh0AAAAAoDGR3rG7pPdLumLKqXT/a5xKH68096fN7e+5XNL7JO0W9CnEOYwBBHrceMIV7gAQc2vSVpKe3XO9u3+JLxTp1Kj5a8cWGgK97OdyQlCDQT0g0PPnEU1JY4BABwAAAABo+MTP7SW9WNK/9iwEuOJ9HAvOcCN6qefb5l07S9ILJd1uysY3QOsg0OPGFgQ6AMwqWTbrednzvZIuC8YWbk7KXzu21hDoZT8XBHq9INDz5xFNSWOAQAcAAAAAaJA+8dmdKH63pJ/0bF4g09s/ad4nzS+W9C5JuwZ9he+bw1hBoMeNMwh0AJhnnLWfgrm1pP0lnSrp98E4092Sw2eI8teVtTcEetnPBYFeLwj0/HlEU9IYINABAAAAAEZw4sduVG4h6UmS/kHSlT0bGVzz3rY0765oP1HSXpLWrNBXAMYGAj1uzEGgA8CQL3t230p/naSzJ8i2PpnONe/5a9DSGwK97OeCQK8XBHr+PKIpaQwQ6AAAAAAAI96ovL37FuUpkq7uWSwg08tdlIYbx15m9UnzqyR9WtLTgyvaOzhtDrBhPnQcEmzu0vrHIAQ6AAxBXy3yAElvl3T+BPFGjcrcFCtq3xPM9alk4lpJ68xcSQ0x/bkg0OsFgU5+LzceAwQ6AAAAAMAI2axn8+hOkg6SdLKkK3pEiRezSz2nf3IvbMbU+k6Z39TzHLqT5p+U9AxJ287w/AEAgR47FiHQAWBIJt2G031q5nBJ5/W8JGhfHqQ+zV+nltgQ6GU/FwR6vSDQ8+cRTUljgEAHAAAAABgxm0w49dOdTH+qpL9138leXmGz0m5YsogbLgZhbKedMu/aDyQdL+nJkraZcAMBV7QDTIYT6HHjEwIdAFLR1S2b9/z6fSW9VtIXJP1mhtPp1KjU5gj0MvsAAr1+EOj584impDFAoAMAAAAAwP9fAPedTO6+k72npEMlfXnCZqWVunbDkhPq8cLcyvKlFYR5dzX7lyS9SdKDel6E8M8TaQ4wGwh0BDoA1PEZoo7tJe3nXvj8fs+LnP4GJV76HLdkQaCX/Vw4gV4vCPT8eURT0hgg0AEAAAAAoHcxvNmUzcp9JB0j6VxJ1/YsNOzV4vaUOqeAJstye7q870r2rl0j6d8k/bWkvXuuZu9AmgPMjx/zXu9y7nqXl7T+GNzg4rRPED8AgNQyfdOe2rX7bvorJH1a0qVTNsNvnHJKnduU2hMyOQS6f+HYr4VoG8fgehej4xM/F1iMQP9d8Nk3GjG4uaG1zhkMJAAAAAAAsNI1mn0nme/uTv+8V9LXJP16wubVktmw7DupbqVy66Lcniz3G7h9/+yVks6UdJQTVHeP2EgGgHj85u2bCxg7ampPC+IHAJD7hc9bSXqwpFdK+pT7zM2NM0j1SS9+tlijjqUtWqDvOKW2p20cg79P/FwgHb7P342+TW6r7RiczUACAAAAAACr3ayUOxX9aEmHSPqEpIvcG+nLM25aTrsGfn0lgrxPkt+4wmZad7r825I+KunPJT3CfYu+D06ZA6TBv4jyHCdbzpF0Hm1iDLobMS6U9KggfgAAOZj2UmH36/eS9Ax3k093muynU2pLf5Jy2sufCPY62qIFendb11mSvulu66KO6I/BOa7WerPJX6iLTcz6/+uSLqC/k+9qb63zXfOpCQAAAAAAgOiF8zShu6l7K/3xkl4n6cNuw+TnMwjxpWDzMpTsfRuZ84r3SSK8T4x7OR4K8mmnye0LA5e5TYbum50HS3qMu/punvgCAAAAQH8NOu2lzz+QdH9Jz5R0pKTPuRc/r5mhZrx5Qo0aW5+W+HJoa21RAh0AAAAAAAAAAGAim8ywYdmxjaT7uqvJu+8Nf9CdBvqeu7o8ZmNs/RSp7dtNK7S+3xueiI/581zh3lb+oqQPSHqt+255d/pp6ylx8XHrYogwBwAAABgG+1LipNOum7qXGh8q6bmSjnA3KnWn0C5Z4ValSfXpamtU2upicJ17HkebWhsAAAAAAAAAAKA4qT5NDHe/bztJu0j6U0kvknSYuzbrFEnfcJK9O8X9G3OqZBHtRveN98vcCaXuFPk/SXq/pEMlPV/S4yTdx11lt1JMkOUAAAAA+bD16UpXSHcn1tdK2kPS0yW9WtJfSTrRvTD5LUk/lnR5pGinLSYGx7vniEAHAAAAAAAAAIAqpPrmM25cWm4j6a7uRPfu7hr0fSU9W9Ir3KbmYe7k0OFOwHffFz8paB91G2qHu9/7NvfPdv+OZ7kT8t033XeVdE9Jd3b/7VkJ/x+7/29OlgMAAADU8eJnzK1AW0q6o6Qd3MugD5H0REn7S3qB+3TPIaY+/aue2pQ2bAy6z0d92q0ROvjWNgAAKIb/CxOXIgYpyO67AAAAAElFTkSuQmCC;" vertex="1" parent="1">
          <mxGeometry x="890" y="216.6" width="184.02" height="34.87" as="geometry" />
        </mxCell>
        <mxCell id="XL6QC_tOQ0aqBgQdsJjQ-5" value="" style="shape=image;verticalLabelPosition=bottom;labelBackgroundColor=default;verticalAlign=top;aspect=fixed;imageAspect=0;image=https://pbs.twimg.com/profile_images/1511717493944946688/nRIgkMgK_400x400.jpg;" vertex="1" parent="1">
          <mxGeometry x="110" y="187.46" width="64.01" height="64.01" as="geometry" />
        </mxCell>
        <mxCell id="XL6QC_tOQ0aqBgQdsJjQ-6" value="" style="shape=image;verticalLabelPosition=bottom;labelBackgroundColor=default;verticalAlign=top;aspect=fixed;imageAspect=0;image=https://pbs.twimg.com/profile_images/1468931862915543044/eyx4CZmX_400x400.jpg;" vertex="1" parent="1">
          <mxGeometry x="1247" y="287.64" width="69.01" height="69.01" as="geometry" />
        </mxCell>
        <mxCell id="XL6QC_tOQ0aqBgQdsJjQ-9" value="" style="shape=image;verticalLabelPosition=bottom;labelBackgroundColor=default;verticalAlign=top;aspect=fixed;imageAspect=0;image=data:image/png,iVBORw0KGgoAAAANSUhEUgAAAd4AAACKCAYAAAAE9iuWAAAABmJLR0QA/wD/AP+gvaeTAAAZ1klEQVR42u2debRdRZXGTyaICIREY+C9c2t/VbveezFXIvCaOeJjFCKDjcQBBUQwiMwChqHBCDYGQWgHVGhbbNSGVkYRUVGUwcgoKIRBGkHAyGSEMJMQ+o97Ikhe8t59t+rcc879vrVqLRYrkHtqV+3fqV377J0kFEVRFEUlSZIkANb1xu6lIueo2OtV8KgKFqvIEhUsUsG9ClzmDD5ra/ZdSZKM4axRFEVRVHMa5YzbWQVXqmCpCl5tYvzFA/NEZD1OI0VRFEUNIVuz71LB75qE7WDjBRU5ra+vby3OKkVRFEW9QQDGO7FnqWBZAOi+Ngwe6rF2K84wRVEURS0/5Vo7RcXeEhS4/zRkiRp7CGeaoiiK6nj5bp+qyH3xoPvacAaf5YxTFEVRHas0TSepYEEe0H0t9MyTL0VRFNWZGqUGl+YK3cZ4RUW24fRTFEVRHSUvclAboPuPhCtmO1MURVEdo0YyFZ5qG3gbCVen0RIURVFUR8iJ/VJ7oYtXVfBiX63WRWtQFEVR1YaucxNU5JkCgPdVD8yjRSiKoqhKS439RBGgu7y8ZMLazhRFUVS1wYufFgi8rzrjZtAqFEVRVCXV398/zgmeLRZ4cSItQ1EURVVSLnXrFwm6KnhVgctoGYqiKKqS8sbuUTjwCu6hZSiKoqhqglfkUwUE7yJahqIoiqqkVOzRxQOvLKFlKIqiqErKAYcXDbxO8CwtQ1EURVUVvPsWMNS8kJahKIqiKikPDBQPvPZ6WoaiKIqqpFT1bQW84z2HlqEoiqKqC1/BPcW645WP0CoURVFUZeUNzixSRrO1dgqtQlEURVX3xGtMf4FOvD+hRSiKoqjqw1fs9QUJM7+X1qAoiqIqLycyswDZzLckSTKK1qAoiqI6Ql7k8jaCd5kH3k0rUBRFUR0ja62oYFGbkqq+SgtQFEVRnXfqBXZTwSs5Q/dm7/3qnH2KoiiqI+WAA3ME7/0A1uWsUxRFUZ198hU5KIeT713OOcPZpiiKoqgkSRR4X6w7Xwf8yBgzkbNMURRFUa9TI+HK/jhkk3sHHJjwsyGKoiiKWsXpV2QnFcxvIYHqGRU5zXs/mbNJURRFUcOUF9nICc5QwV3Dgy1+4kQ+7pybwNmjqGGor1br8iKbe2NnOeBAZzBHxZ6gIic5gzkOOFCBjznjdgYwlZ8ExBGAdbzIRr5md/XGzlJjZ6uxhzTsISdndjnYi+znjZ2lIju5mtsYwDqcvfiqT66vaa3t67F2KwU+pMbOdgaHZfY5XsV+PvvnIzPb7e2M2dYbM817v3ZpT8Gqb/PAgAP29cARy32CN3YPa+30/v7+cVwdFLUK9ff3j1ORbZzBKSpylRf8bQQhpVdU8IAKLnEGh3mRDZMkGc3ZHb4NvMjmKvYoFZyvwE0qeLLFbySfUMF8Bf7bA8c642bU6/XVONsj0hg1pt+LHKQG31DBr7P5bfXe8ykVuc6JPUuNnc19kySJGpwbenD9BrYR8L6gNhLZIkRIRoGzQw1v7B5RHAmwoxpcoIKnY2QvesHfFDhbjdkyYULFCuoBNlCRkxpOHM/n9O3kc42XKznOA5vRLitXrzFORY5UwRWx9shKxuMq+B8H7Du1u/stnefUI0wqF3poG8lJQW1k7N4tg9fYPQJXdzktZGhMDT6jIg/nXBru/1TkyOlTpry5k9crADiDOV5wdyFasRk85IF5vlZTepMk8d0+bYSI8buCtMp7SQUXe2C3jgnfErwEb1XAC2C8B45tPXzZ8nhMxR7dYQAenZXj+02Bep8OdlVwtRPZM0mSMZ0X3TT9KnKeCl4usI0e88DcyicrEbwEbxXA64zZdniZiLmOhU5k9yqvzf7+/nFq7N4qWFBgZz5IX1T8SY2d3QkA9sB7VOTmMtlHRZ7wIselafomgpfgJXgLBt4srHxuoZ2IwQXW2imVc+jGzlLBn8vl0FcYC7yxs5IKJvv0AJs6g2tKbp/7K9k8nuAleMsKXi+yoRr8sSQOZKEX2bwK69GlrkcFV5bcob9x/MZa21cF+/T19a2lIl/JvwtP1HFxb1fvWwlegpfgbSN4nchMFSwumfN40Yvdv7QnXO9X98C8gt8RtpQN7YEjynz6tcZurwYPVdM+8rAzbgbBS/ASvG0Arxf5dJnf5j0wr3RrMFWvglsrCtwVTr/Oud6SmWiMB+ZW7JQ7mJ9YomKPIngJXoI3R/BmxRdK70Cc4IzShJZFdlfB3zsEuv8oB+hrdtcy2CdN00kqclVn2ceeXmrOELwEb1nAq2KPrphz/2KR191Akoz1gq93lkP/p7E0Cz0X9z63VutSkTs60T5e8F9JWbPSCV6CtwzgzTJoKxhGK2bYzHu/ugou6mDovi46Yb9VxDKUWfj/gc62j3yF4CV4Cd4I4PXAZip4oaqnKgV2LNJ6M8ZMVLHXE7qvg6/BzwCML9ZJFw/SNnjVixxE8BK8BG9A8AJYpwMczNPemGlFWGsisp4X3E6HPjh8i9ChCsA6CvyBNnkt4coZsy3BS/ASvIHAmzU46IT7qtvbXae2t6v3rYWpr1zccUmb7TRGxf6Cdlhh/Lmvr28tgpcieFsEb1aKsJNOVCe2a411dXWtoYL5dODDeUmyFw4kydj2+AJ7Am2w0rv4swheiuBtAbyNTyTwWKeFzLzIRnmvr3q9vpoHfl6Qz6yeVcGdTnBD4xOZbDR6996VY2vBwiX1qDFbNr5jbU/xCi/2Qg/M9SL7NT4xk617gA28MdNUZAsnMtOJ7OmBI1TknKw+9NI8m2BkbSAJXorgHQl4FTg70P97mQoWNk5zcpUXe6ECP3AiP1zu0L3gbwUC8Pycl9coFZzfrm9lVXCJij3aAwPD7cvqvZ+sIts44BgFLstgnf/J19i98nw5UsE9+T4fbvQin26lmIhzboICH2rYOf5LgzP4GcFLEbwjAC+AqS28KS/0gm+rsZ+w1r5zuMkwjUxe2UnF/rsT3Nbmyla75bW2GqeTnHuvGlzgRGaGyhIGMN6JzMzyAV7K8Vme7wE2yCnEfHRup0bB92NEXqy1oiJfjV1ytBSnXoKX4C0aeJtPqJJnvODrasyWSaA6uz0ib1fgVBU83Qb43pnkUBjAWrtJjqB62gNzVfVtUV8kvJ/sDD6rgqfyai+YpumkmM8EYN2c1uGv83iRsNb2xezb7EUuJ3gpgrcJ8Hpj6k0UynhSxR4Vs2m2c26Cij0h73CmN/ajkZ35OjkVX1jqDc4cbhg5lLIIxhfzaOgQ29FnjSliPsMLauwhOfvtMc7glFhrTkTWI3gpgneY4G0kZQy9sZzgDGPMxLxs4JwzClyW5/1aVGcu9sIcToO3qTH97dw71trp3uDG6M8KfDjG72+0+ItaJ/svPcCmbfNtwAFZHkZoexxO8FIE7zDA2zil4Lkh/uyDPdZu1TZbGDs7t/BsJGh5Y3fJIXHqvDRN31SE/TOQJGPjd+6RJ2L0i3XA4fHWFx7ytZq22z7OYE7wZwNuIngpgncY4M3a/a3qz13hvV+73fbwIpvnkwkt50QIMY9Xwf1Rk6eAfYq4j5zI+2N+juTEfiv8b46W6LeoQK0PRzngR6Gf0Vo7heClCN4hwKtib1nFG+zZA20qWjD485u6Ch6JDN/FoUsUZolH0X6vNXb7Iu8lZ9wMFSyK9PzLPPDugC9JU6NlLlu7Q6Hs4pwJ/VLkRN5P8FIE7xAJKqs4SXytkHZpdIeJWuTDA+8J6MgR8cS3uJ13hc2oB9gg1r1pyLv5LDzeMR19VOQrgW1xJsFLEbxDhSgHv4f6TpHXkxfZPHL48msB19E5scLLIV8QcrEbsFlWwCM8fAOdJlXw2wi/76/1yfU1C2mTRhSpM+55CV6CtyDgHSwr9oYi9kFdIUwGfDJm8fdAp911Y7VWdCJ7lnFfNcoehs+oVZHrWv1tWe3s4El8Djiw2L4uaP7BYoKXInibG08650x5bBSvaTwABDjhRfoW1J5e5r3lDb4Q6Yrg3S3u+W0i/K7Hi9DWcIjnPi/kM8fINCd4Cd7KgtcB+5bJRtbaKbGqC3ljZ7VkK+/XjlTJ6daBAiW8jVBjYnzn64Gft/KjetO0Ww0ObdQUx6OB6hifUgJfd3zgzOZNCF6K4B1+qK50a8gBx0SZD+DUlmwlclCMe12XuvWrsL+yu8UXQ2cOh4zYWGv7vNj9sxPhyCqO1fQdhfd1je/kQ760foDgpQjeYb2ZuxlltFN2L/dkhDm5usX1c12ELjCnVGmPxShf6AzmRPMJqjUn8hE1+KYKFgzjrvrecrwE2b0C907en+ClCN6hT3fX0lYr9kJtxUFHSCB6rAiFTEIqK80Y+tOwBbkBy/u1nXHbNe7y7fVvTMwqS5P44JW6DA4leCmCd+jQ0B5ltlVvmnZHKE34Sn9//7iRrZ0Y7eTswRXdZ0dGqJ40vW0vEsCOKvbzClzbap5AfjawpweuD3AcwUsRvEO0jitKfd8Wncf1oeemT8SO8LfcEromcVdX1xpV3GdZEtrTDMm3lUe3Bn5J/DzBSxG8QxTWr4QDH7rm9EiyZAea/R1pmk4KHWb2wOeqvNec4IzAtptPDzZcn2KmhV6vhX3xIXgJ3qKAt2yfEK3UedfcxhGKVDRdd9bX7K6haxGH+Ka40LZL3fqB5+zlqkYIgs99hEYJBC9F8A41UvVVsNdAkowNXY7QG7tX0+sGOLVI2dUl2m93tDta0YE+7vg4X0gQvBTBu6ow8zMVs9nNgbO9D2j+NwS+ax7BbyhlyDN4cwJ7Ar3YSuba+9Wd2C/FKd1J8FIE7xDZh7i9UmGzRsWhkGH4w5v5++v1+mqhi0JYa6VD9tsWgT9p+Sm92IrA9SL7qeDeqBXwCF6K4F2lc7q0YjY7LTB4j2kK/M71Bo5I3GeMmdgJw3s/2QmeDTh/D3Sy/xpIkrF9ItZbu4MzOEwNLlXB4thNVgheiuAdGrzfqZbN7L8Fvic8tsk1s1Mejo1jWC8tSwbKX9N6UBljJnpj6s647dTYvZ3BHAW+rMAPsquO+1VkSbvmnuClCN5V9509q0o288AR7QWvPZjAK84oWza4935tl7r1nchMB+yrYk9wYs9S4LKsqcQj7QQqwUvwErxsL7eizYAD2gneCN+jcrR26t26iOvUWjslCwHP8YLvN6AqT1Rl3gleiuBdtWM6jeANeeLFxYRdgQAg8vFCnGRrNW0kNcl5Kniw8vNO8FIEL8GbI3h/SeAVCgBz2rQUR1lrN8m6Ly3owHkneCmCl+DNB7wxmrtztASAE/Ncf321WpczOEyBP3T4vBO8FMFL8OaW1XwHgVeoO96Tc7qz3ST7hnwp55zgpQhegjff5Ko/0fEWCrxfjLnenHEzVPArzjPBSxG8BG/77ngfpeMt0AC+HAW4jUIpTKQjeAlegpfgLQB4/0LHW5zhBV8Pub4GkmSsM5gTuiwowUvwUgQvwTvyO9776HgLdeI9NeA97jtV8PtKvqAAPyd4CV6Cl+At6x3vbQRegU5eTdbaXrldZU8VPFfBOVrWqI4lHyF4CV6Cl+At6Yk3cEtAjra3VIzQX7koYfi7vbU7ZC8WBC/BS/ASvCU98Rr8jMArEFyM/UCLPuC0as2JPOEF3/bG7pIkyZjXnegJXoKX4CV4yxpqlu8SeAUCb3aiG1F42eDEcoeQ5WEVuSrrWnSAimzxeti+Yd0SvAQvwUvwlhO8Hpgb2D5fdQZzOEY2etO0e4R7f6cGvAoL1qVq8JAC1zbqP8tJXmQ/Z9x2mqqv1+urNelX9iJ4CV6Cl+At5x2vsXsHvqP8GHdivupN024VPN7uXsIqeEAFv1KD73hgrgIfU5Gt+0Rsf3//uJDP7IBPErwEL8FL8JYTvCJbhF0z+AZ3Ys5ryOCCnEH7oArOd8AxTmSmtVZWFhKO5+vs0QQvwUvwErylBK+1dkrgfX0nd2J+6gE2zSnEvEBFjrfWvrMYvs6eTvASvAQvwVtK8GZ7O2jZyF5jHHdjbn756sjA/aWK7FQ0X+2AHxG8BC/BS/CWFrxZl5qQRSAO527M4bQr8vaIwP2rE9m9wOH1PxK8BC/BS/CW98RrcGhQJya4gbsxh1Of4Iwo0DX4aZqmk4r63Nn1yDKCl+AleAne0oLXi2wYvsqQbMgdGVWjVfBYBL98ifd+9UK/cAAfZpMEgpfgJXhLDd4kScao4O/Mbi6PsgYIoeFzzUCSjC36s3ux3yN4CV6Cl+AtO3hjVLB6wXf7tPLhXuNmtCMs60U+HdheL/aJ2MJD1/u1YzR/IHgpgpfgbQd4Zxa9t2zhINDtUxV5ptHrVs7zxkzL0R9fFPZe3p5Viv1i7Gz24yV4CV6CtxLgHUiSsRGqH72sNX1HZU+7K2aDv9L4zEW2zmGv39Fpd/KNNRqnfzTBSxG8BG/u4G2AxH4tuENrZDiPrtpes8ZuP8Rp/3Y1djaA8RH++tEqeD6gnR4vgy92Ih+P1geZ4KUIXoK3LeCtuY0jObXDqmQzY8xEFdw/zOdfqCLH93b1vjXU35/VZg5po98WHrrOTVDBIwQvwUvwEryVAm+2z38VYa+/rMZsWRGTjVbBFSNJXsrugeut7ykzLbB9Li78PjH4RswKXQQvRfASvG0D71Ah1BbGn621U8puLw/Ma73vLK5wxm1XmMiEwbklCOu/QvASvAQvwVtJ8Gbr6OYozk1wm3NuQlltlTVfD1kx6fcO2LfZlnkeGAhrG/vjwkLXWlGRJwb53U8SvAQvwUvwVgm8/xrxZHFNfXJ9zRLaaR8VLI3R9WegyaIVPdZuFfg33FrEOa9Prq+pgltXVqCF4CV4CV6CtzLgTZJkVKMrTbSm6Td77yeX5qQLHBgt1Ans2PSaMaY/8O9YHLpRfasCMH6la9DgISeyJ8FL8BK8BG+VwLs8geelWPD1grudc70FN89oD8yNeLd45QihNDV8JMJsW5RJ996v7kUuX8Uanxe6XjPBSxG8BG/bwduwHb4QudfrYgU+WES7ZB1wroz47M9pqn6EYFo7/P27/LAI856m6SQFrl3Fb33F12pK8BK8BC/BW0nwdnV1raGCByLD91UV+U9jzMQC2eR9oZN3BrHTES3649BVxpb1AJu2NaTvXK8X3D2cRDCCl+AleAneSoI3SZLE1uy7VGRJfPjiUW/sR5M2VrlqZNDi/ByedX6SJGNa9MfzI/yuewGs06Z9sE9W93pYd+IEb0v3PPZ7HCsOFTmZ4CV4iwDexrqyR+cAo+X2vcOJvD9PAPemabc3ODNwGcaVjUUA0PLpUHBGnN9nb8kz+pC97Ay34cOtyw9rBC9HjHErwUvwFgW8SZKMUoNLc94D93vgWBFZL9LUj/LAQNbb9cWcnmmZr9ldA4bD43zyJbhtpPfPTYSVJ3jgc8287Hhjd/nHf0/wchC8BG/FwZsAWKeJ+sQhx1IVzPcix1lrN6nX66uN9BnSNJ3kjNs5awbxSN7PEtK5Z/WiX4r4e59Xg88MNPmN8fBOuPZ0FTzd7Cdor7+aJHg5CF6Ct/LgXZ78ooLH2rw3XmpU1pLzVORkNXa2N3aWAjs647Zzxm3nrd1BgQ+pwaFZZvbFKrg3cNWpZr/X/d/Q4fN8ohDysAfmqmqtBdj2OYPDVPCbEdpg2RtrfRO8HAQvwdsR4M2c6HQVLOIebcImBjd2dXWtEdoW4ffWkJGHO9XgXC/yKSfyXhXZwhszrdcY55zrbRT2kG282P2dwSkquCTMi5qct8JLIMHLQfASvJ0C3iRJEg9s5gTPcp8Oa/wuTdNJMezQ398/rk3h/zzHkwDWJXg5CF6Ct6PBm/3uHXPKAi7vAG6K/XmOGvuJis/hoAVWCF4Ogpfg7TjwZutti9iFJso75Lo8vomt1+urqWBBJedwFe0KCV4Ogpfg7UjwJkmS+FpN1eCP3LP/NC5K0/RNudkA2Cx2v9rcM8AFt02fMuXNBC83E8FL8BK8gwjAuitt39ZZY5kCpyZtqL6VFQCpyjwu9N0+XdXzErwcBC/B29HgzeA7XoEvd/CefdobO6td6yhLtPp1Bebx715ko6Gel+DlIHgJ3o4H7xvs3WGfG9lbfK2m7V5L3vvJKnJfiefyKVdzGw/nWQleDoKX4CV4X6dGdSK5rgP26Usq9oQiNZH33T4tKXz/6mruX4b7nAQvB8FL8BK8K2q0F9lPBY9WtSiGtXZ6EddUA764s0SfDP3BOWeaeUaCl4PgJXgJ3pVo+pQpb/bA3BwbEcQej6ixs5M2ti8cjvr6+tZqQ2OLEWQv22/VJ9fXbPb5CF4OgpfgJXiHTr6a6kS+q4KXS7onH3PAMTFKP8aMOjiDOQV96Vnogd1G+mAELwfBS/ASvMN9XtXayLrTtG08oGIPzvO73OChZ2OmqeC3BZnPF7zBF/r6+tZq5ZkIXg6Cl+AleJt1nM5NyDrWzG9r16DBx4sK/MAD7yl6SLkJjfLGzlLBPW2a08VOcEazd7kEL2FI8BK8BG8cCBsVOdIJbmgXhLOmDxcpsM/U7u63JBXVQJKMdSK7q9hf5DLXwE1qcGjo8pkdA14A63LkM0a68euT62sG/i3jW1039Xp9NWPMxFCjzCG/QV9MvF895PyEsFk7NbW7+y3e2F08ME+Ba1XwQqxvRlVwpYo9QUW2qdq6Gtbaq9VUxR7lDK5RkSWhTrZe5HIPHOGc64312+lXKIqiIqm/v3+cN2aaM25nNfYQb3CmGlzqDW5Uwe+ztniPq2DxcsffKOAhD3vB3Q2o4HwF/kMNDrXGbt9KU/eqqquraw1n3AwPHKEG31TBT7LmCwuz+VySJWktyv7dXSq42ol81xmcosAHe0TeniTJGM5mOP0/pIa9rsGcKK4AAAAASUVORK5CYII=;" vertex="1" parent="1">
          <mxGeometry x="510.2300000000001" y="490" width="183.56" height="53" as="geometry" />
        </mxCell>
        <mxCell id="XL6QC_tOQ0aqBgQdsJjQ-10" value="" style="shape=image;verticalLabelPosition=bottom;labelBackgroundColor=default;verticalAlign=top;aspect=fixed;imageAspect=0;image=data:image/png,iVBORw0KGgoAAAANSUhEUgAAAQAAAABdCAYAAABKFbj7AAAAAXNSR0IArs4c6QAAHeFJREFUeF7tnXuUZVV54H/f3udWdz1vNdBNwyAxOqg8lnENzYwLleoCjVFIYjQQUVBjMoKJqCQ4jk8gJi5jfIA6Imgk4kQTcMZMNCS+uqpAJY6NJjrgWxeK0NA0Xc+urrpn72/+2GfXPVV9q+6tqlt0Vff+rXXWuefcffY5Z5+9v/19+/vOPpBIJBKJRCKRSCQSiUQikUgkEolEIpFIJBKJRCKRSCQSiUQikUgkEolEIpFIJBKJRCKRSCTWKdIsQWLlKGoBX2waQdxS6ROJxBGCco1pZV8icTjJmiVYJrZZgnWOB7RZomYot1rhIpf3Db1YRd4CqKB/JmODn4n/NcvjMWap59ZqmbQjj5XSrN6t5vyW+ZrySvNZioX5r+Z6E6tkVWaRcqsF0OqdZ2r//1Xt/1fV/m+o9n9DZ/uHnlZOs4FYVZkUtCOPhSwnz+WmbXfnuFwylnfNK6JdN2kIUutK4HxgnOZSeb2ghHIYBa4A9hMKfoUSeKsAONx/twjOT88AWNO7yShvBC6OaQ4z8R63AzcQnleje/4j4JfUn3GZmMdW4CNAhfl5xLJ9HfCTRfJYKeVn9F7gdGCacI74/wxwAnAd8BnCPTbTvmKavNh+GnAm8CRCWfXQvnYD4VxTwMPAj4FvAXdTP39W+r1uiQXyd4SHslGXJxBYka2uqAHQ3juflFeHfV4d1mLt8+qwuupwrtWvPbGc9jASz38KS5fJaQvSl4n7Hs/SeZxVpGtnpxDz+gBLn/t+YFuRtpngzUrrPwXupXmdWYvlZ8A7gCqBdgqcebS7En6iWM8QpNZGWGYI7AJ+yqp6qZssgLf+Cit9AtQIlU6AmpE+m2v+mnLadYAjlEHs9eLiSutmeELv65mfR634P1/kuJVSIVzXmwla2yzzr/tgke5+4AxC77qYhhOJPe3TgB8A7wFOLY5pVofauXiCQH0rQWt6brF/zYRAO4iStQ/YSyi0OJCx3pfZYn0VgQorII7wa8/XtuXV4Qmt3qElLUDz6rAv9o1p7zeODcdosx5pLYnC/4mEhqrUn1l5/eQF6cvEfSdTL8fyc4+//1ORrh1CLz6fVxLyjo1GS9sKHCCo7eVjFiM2rrMIAkSpC8Vm9WctliiU4/bvEGi7EGiXBqCEixsHhot97dACluqJdYnjWl1iDwXwz8W6lR6vARdYgNzULrPS1+PwRe8vPiyIw9es9PXlZvpV4Zib2v5Aj3AqhGd2PvDXxb6oYUGoL1HIPBv4YemYxRBCXegB/pHQJmaBDg5tHws1nHYtC+u5IZw/L7ZvI5inOe1rs8AaSBRCIf4usLlZwhZRDrXd4r52Xf/3gXsIeS5b/VdUBKnpSV/vdOOzl6MHALGAt1gDisOHyqnTCLxauee9wumzxbHa5BSJekM+C/h8sc9Rb/DlevI7wNcJjWiWpbGEhvV2wiDfDLBpQZqoYVja3ABLxHpXzj+jLozeTWhXbdUa29WAoN5z/gtwM+FGGjXeVhCCHfc04D8TCicWTMxzHPhsw6NbxxHMln8otg0r0gCGLZD7idql1vSe6HSyBmqsdFmn03eg3lrT9Qyn085Ry630Ps71P3IJo3w8HtvsDEc5GaHx/yphrAZCmcX6G9XmjOC1+AeCwGjW+GPv3wu8oti30Fwo172fAt8Bxmgf3YSxhtOL7bJQg/r1vBD4jwRPwSrGqdaWlTT2pXgV4eFG+zI+aAW+t8RxK2HV117rG/5/Wr1L8+pwnleHa9r/ba1VR86t9e16rvZ/W/PqcC2vDufaf5fWqsP/DkF7aJbvGrFRxgBiI98C/IKQX7zeuMRzX1ukbWbzR2Lev0njfGNdmwReTBvqyBKcR3C3RtO20f29tkjbto673epM7J2zVS7RfOgp1o0K3hIedFw3y3OppdkI8aIoQxlA3j/0gsx0n+6YyRXE0pF5HftBZWxgVzY++EWvYz+2dGSAOJ3JM+l6at47dIEgGvNIHELUjixhbOkkQiMtl9cs4fl/FLi6dEwrxHp1drEu14FYlwF+i+DihpB/s/q03MUAXwF2EkyQhfUxXsczaDPtFgBQl2CrXaC5Op5zqPtqJUuz8yzBzqCKqVxZdHgi4JBNoHwAQBB1qh9CNkM4V3igxlwZ8ti7IuFzhFM2x74APJV6Y49E+/hzBG0xjuG0Wp5RjX5KsS53NPE5fZ5gdsRxgXbUt4WLJ3R6PwJuLM6TUyde1ynFehX1dT5rIQCOGkJcv/ha79AzLZvOcTrtQcSSVZyOP2Q6Zz4R005k0zc7HX/EklVAxOkBb6mcO9s39HThIrcBw4PXknJD/FuCehwbeyRuf4PQQ8fjWm38UBcA24t1+bwxn6FiHc2BtSJ6KuL5ytcSfx9HEBRl7WRVJAGwKkJIrxi5EqlAqFAO6UJFbpSHnjulDGXKUHbso88fF7gJ6QLUAR7pwIh5fTmvBBBUYE8I8X0JoXGUG3/c/glBOJSPWQ6xQUdTs0x8Ho82+G8t2Vesy20zXksXh3ooVkUSACtEUSMM5jM9I6cKvNDpJCDGYCpOJw5ks+YjIeWIDwsYqzc4Pz5jgrSw4Ri96GDvl58kDObrIDx4PVAhqL9XAX9S/C6r/XH7UWCAEEefsXy1WErrSun3YunWA0KbrydVuBUzbAAyq1cY6QWkBjiRbsB/Ug6c86AylAnXeOEarwxl8ujg/Yj+T5EeAAdSs9Inmc3WW3jw4aKD0LtfAvwV8wN7oO7qy4FBwqh5FBirYS1V+3bS9utMAmAFKNcYYTDX7qHtCi9XnQKwila8TuKc+0BIuXNOJb2tGOizxlxPkR6w6CQor5jo+cI24bLaUTxpSAzaeQ7wydL+2OOVhcFvEPzxUWCslrb2qmtI26/zaK1sq+SEEPZrudxKX5fH10B9Jj149LObJp99b+j9ZU4AXMRFTlEr+we+69R/zkq3gPoiPLh3s+kowoMvOBq1gBi08zTmh2SXg78iLyW4zFqJ8ks0IQmAZRJCdy+r6Ym7u0TkshD2i1UwaA0M7w8pG7n2bgt5GH1fYbIKMTxY5HJlaLOwo3YYg4MOBxmhF38cYQS87PuPRGFwFfApWovyS7RAEgDLZtgC+KnJl1vp2+7Ia6CaSadxOnNnZf/OO8MA4aHTfgV33zWmMjo47PTgXVY6LaCOvGal9z+4qlxaPsdRQGzsvcAdQD+HBvrE7fcWSxQYiTaQBMAyEQZzAA+vRcNkPyAKptT7Dy9RrgPxv/cXnZyCGphFilDPeI4jnHKgzxDweELDXhjoUyHEAly14JhEG0gCYBnMhf1W73hRJt1PcczkgFo2Zd4fuDcb3flZAGFw0UoaG3c2tvO2XCd/WA4PNtJ9Rt6/67fL5zpCKb/Mcjthyq3Fovy+QvAKRNo+En40kwTAsohhv64I+y1CT6UDJIT97ubGCk0qaWzcqvrBeniwSlAGbBEeXPcgHGGUxzduBp7HoVF+ebH9HcKMOLCyQJ9EE5IAaJG5sN/+kXOsbH6G02kHhLBfP/Gg6a3cAnAmr2pBfd/pACqb+Bun4w+H8GATw4MHtHfkbEH8ERoeHBvyOwmv4C6M8vMEO/97wLnUff9J9V8DkgBomQsBENUY9qvEsF/4iNx/9rSyu9LK5B7hDcAbK7J3cFKEGxeGBzujhRZwxIUHx6Cd1wJvKn4vNHViL/9VQljsJlYf6JNYhCPZzmwbYVRf3Mwxu043Tl7gdEpBjEWM8+MHs47sY/W0rfTaFxJmfgZj5KPOTbzRYDo86kN4ML870zv0FJkY/H5x7o2u+kaheBC4CLieemDPQiGXFf/9V+D/AP9EPfov0WaSAGiJYQN468zrRHpAJ4I6Kj1GmLxOHnnmAwDCjuW4p0IgwKMDv3DVkQ+IdF+FTnjAWemtYCauAP747hAevNEFQFTxzwX+vrS/mYZzE2FizynmDxwm2kQSAE2YC/s97qsnulp+iYYeOvTyegDQn9e2DD8rc6YrF++h3l016rbK/6HG5NYfwPn7wiS2waVYhBa/XLuH3iFTg3vCNVyzkSv/IwQ33xeLbUfjQJ8oEAxhbOBE4EPA75MEwJqQBEBTTsuA2TzPL8+kr9Pp+Jyv2uG9pePDRi0YJSt1aNmCdZm5faJkKiAOR80DBlQ8WrPS153b8VcBfxbCgzekAAhekjA3/3XUA3/KxVLeLsoAqI8XvAL434RJPyqkIKC2kgTAEhT29+xEz+1bjXJF0ETLZabGMavoqnsmw7wBWbHoFEZ4jR5z+3Xy6I7xDawF5MAthMlX44h+JArTLxLeA9gG8ya7iGXyMcKEmBMkTaCtJC/AktwmAJ1Z581GevodLmee3Sqe+pROxSKL/F64SGkhZ95AnxqHy430bHWuq5giamCjPqsOQuP3zFf7Y+DPMMHXf3Wxv2w1RVNgG/Dh0r5Em0gawCIEl96O2mzfrtdaqueXVf+AeEtmkC6z+g7JgB4gp6ZSFzCZ08ncSu+LZ/uHviCjg38Tr2nJrNYnyvyGW57O69xi30cI896fx3yzIJoClxBMgc+STIG2kQRAA8KrvDtqM1uGzrDeXO90HOaXlbOyyTqd+SKMf0qgH++XHajiAGuMVRgF//uZdA44PVgaIBOjOoXB3DhdHRmRsR0/CwFJh75otM4pj/bHwJ97gZ0E4RBf7f0Dwtd8OmhsCtxEmKBzjGQKtIUkABZQfKknxOt7+bSRTTg9GHskBxJGq9UB+uRsdOcnlsqvFZShzFflXWgNEAFVwINaj+ZWujpUpz4NPB0u9FokapLteiRqUT8HnkmIC8iomwP3Aa8nqPs5dY0rmgLHETSFi0kCoC0kAXAId2dAzfWNXGek94yS6u+LXh9AHLWalf5fcdWRG+zYwKv1pK93cv/M8tTSkzZV5P6zp12/fNzSv93p6JyZYdlkHTMeyJxOz2bS/19c/8g7ZFTepuyusPFMgdigHyHMw7+f+Z7SGqFR3wC8iMVNgRcTTIHbSKbAqkkDKiWijZ337Xq+MZ2vczruCJXMWSom14MjzFVYyZyOqkEu1y1DZ8j9Z0/DXhUG81YW2Kty/9nT2jd8ltXKpU7HPJAJAqozTme+aukwhBeFOpyOe6Mdb9Utw88Kk4ZsqLcFY0OeInzcYrG5/KLK/wfU5wEoazqxvt5I+FJQjVSHV0UqvILg8ttR0+qdWxBzCzoLoULmVrpsTu2blbHBncCXrPRQxO47pJPcy3uXyHoRLlSAHH1feLdAPeCM9IDIP2bjO5/lmf2elc2F71wVFOf5lJ709c4wi/A1G+H5eebMJwZY+ou9UeDeR5gRGBp7BbZQ/4DGRiiDdUsqvDmCy8+pu8VKz7Fhph/EYDKnB2pO9SUA1sgbvU6hkIFYp1N5Jt2/nvff8dthxp/mPXOcLzDv2/WSzPQ+0+mBHLCCZF4ncqvyFgBjzIt9MDkywDhma1Z6T3ITs38dclr3rsHy6P9zCC9ANJvIM/bqHyJMFLJQU4jbFxLGAspjBYllst4r0GNCUP0vcq5v6DXW9F0Qvu5LBSQX6Qbhss3jgz/WEz/XJfsHvuvVX59JH6AhLkBrqPq/CgOIg/lSc/rV09zTgZh3FbMKGSA30ouHd8v4wI/0xN1dsv+c7zjV11npg6KiO53IrfRenPePvCzks3s9V/44SHcpoTG3OpFnq6bADYSBwWQKrJCjvtCGosuv58unqcgHvU5AqHA1Kz0Vp5N/n43uvFkZynjggmmAzOZXOx3fZ7EVEHHM1jLpOyWvjrwh5Hr3ElpA+C/v3/sWK32Pc9RqIFgqFefHH9gz9vCfA/DAmdPKrbZjfOcHnI7fbqUnqs1WdQpUP6r9Q48P4wGtvIF4WIj169vFeqHNvxjRFPgZS5sCVcJHQWG+qzHRIke1AFBUBuMUXbbyaSub0dCre0tHxfmJB2x39ytD6hEf3uPfXZH9zxnz8Dakm2IsIEMnEXi7dv/r8aFRHmqfx3GG6f6v/Ioob6oLG/XIZjDypsdxUWlegTBOYH3+MqeT+8PEIajH51a6OnLl0yHn4BpceL51RGexXs41tmoKvIAQJBSFRmIZHNUCIPbGtb6R9xvpfarTmVlC7y8gqDEvkQd2HIhf+AGI03Z3jO28wev4v1nZXAGK+f17u1128J0h70b2+bABqKj5Syu9FY/moN5KZ+Z04q5sdOCWEPMfXHxhVqDdFZl49j68vgzpgKAKZ04P1DLpf7rrH742CIvdTcceDiMr9dcvxxQ4nmQKLJujtrDqLr/h52Vm8+uDy087BJm1UjU5M++sjJ4zEtItnKW3mBocf1WpU8ucTnpL5ZXaN3xWsM/rqnkQIoN5rX/XgJXO33M64SQMJArqUM+fhpRXz+slg8DZXckmBj/vmP6QlT5LEVBTuAbfXtsy9MwN6BpshVZNgR6SKbAijkoBMOfy6x/qF+GWEIEXXH5GNnfkOvbNytjOtwS1eschdmto3ENZZezcrzg9+L+s9FiCv94jFVyYv56owgfCPICi5j2lOlqz0muczn6yMrHzrsI70CDM98xgpowOXOH9+D1B61AXXIMgXj4VPiqyYVyDy6EVU6AG/CZh3oAj2RRoe/TnkVZZWqRw+Xn5hJGe4+ouP8mcHqw53MUh3a1m8ZDbnR7AYv6b00knSAZYr9M1a3qelfcNXxxU+PB5cEE0rw79oZXeHU6na4AxmIrXyenZintTOc+FhLGHYkpyKxerzgBiQaJr8HGuKhvFNbgSmpkCUdP6IHACyzMFirDrDYHQZg2n1UI6Yqi7/Ib/yJq+36q7/MhFekC4fPPYeT+J6RbLZ84+H3vWTxXeHb4QTK6oRWcQkXcp93TEyD/dOtQD5i/QaULjLc6H/nnXvvN+WQz8LVoRo8tv0/6B76r4K23dDRldgy/J+4Yv3QCuwZXQqinQDRSCsGlDKQuQmQb7Io91G4lmXPla4u+c1j0pLfFY39xhRVEbXH4jp6rwofkuv96K04lbs9GBj8e3AZtkx5xq3tvxDufHH7BUKgCOWs1I78m+/+E3x5T5rLnaSu+24lNiWDoqXid+asYG/rKc11JEl58dHbwu17F/KbsGiy8O36RbvnryOncNrpSyKXAHi5sCzwP+kNZMgVj/xxr8FxvdExekXSti/k8o1o2E0QTF3HHtYq1vat1QvOXnADKrn7bSKXWXX6Xi/OQDdvPMnMtviazmmJve+/6zpzHypvpHPsi8TqAqbx3vHTpuesuXTrZwVem1Yo90oPg3CuKiibDUueqEcYVpz6V+zjUo6vC5NV2bc5dvFNfgSoj380rq7xcsZgqcRHNTIP53X7FulNeLinV8Y9GswVK+j8L8nPfs4n8PUJ8/scX6sjRHjQCou/yG32ek79ecHqy7/MSgRi+Rh547VXb5tYJwWU1Rk40O3OJ08htWuiqAUzS30me7hPdUfPbuoO6TA85Kd+Z0cigbG/xMeL+/9W8BRtOjb2LwETW8PLgGfd01aKpn1/qGrtkArsGVEHv1nxC+FQiNTYHNtG4KAPxbsV7oYswJsxJfX+yrsegMT6taomr/J4S3IB3zZ0+K9fE7xbpt7fZIqyANUW6sCDtqtb5dz81M55XFW34dILNWejtynXhXZWzn0MIZd0IPqsC1Emasuk1gq9zNDwXgTJ6ksFfv5iYDeIt/DTrzTYr57p1OeCvZywGcTvpg+6s4ncLa7Ipwlq0S1PWQb8gTwufFL9RruZaruVrLGkJQ8W+syP6dn8v7h/6HleofO52YpXhrMJNNV9d6d31JJnZ8LbofOXKIvfr1wAuBc6hrA1A3BX4deDUhRiDuW0gs05FivdBsCtpa+JDJaYSJTe8FpgmCZTW9cDy+AzgFeBXhmwnKoQ08CrGv0GZakY6Hg4zwUF9HKPTyA/aEAvoR8GRCgS36MOJkmrrlS1XnKz+yZFsduQe8le7M64Fv2bGBM+sDZxNFPjv9cj7I8Qtu7TyJJ+R5/8RnM7rPdzrlipH6Ig81QB56/6lb7djwxfDSinBKHIBaEgW5jVvNhXNfC9prAAdbJa/KPZl0PsnpAQeCpcM6Zn9ux/TJwuDBRSYUNYSyfCLwfepqqCxYnwr8oJS+UR4nAz8mNLR4LKXfZwLfIjSwRQdWl0HMp9G1U/o9Q6gj97H4ueN97iZc58LelwX7cuqDhqslCoD43QQPh4z0x/q+h3C/B1i98JnjKNAAThMA57JPWNOztRj1zywmczo1ZXM9H0Kv2uhoPXF3F6MHqmw2x+S+tlXUbBPV7V7kBFHdrqLbDWYr6LGeyX6jZpMLz6ioMFqW5pnTKUAucNWdj8Av9+eMPKLi94qaPYrfY9Q8qCJ71PiHs1z34t1+puyYMHiQRbwSB3XofGH6ewaTeVQL1+DJrn/8o4xyaeEabFmYbQAWmgKxk4iDflJsbyJ8gPRcFm8wtkj7LsIkI40EQFl4ZLS/3TjC9TXKt0a4j/cTGn/sHNvCRtEAoqsOlqEBRJXeVYdfbaTvw6XZfZyVTuv9wWtmhVsqRs9A9RhVTjBqtquwHfR4Vd0qyDEIVUG6jHRQHweiOKUnxAA5wBPmCF+6rRkMghC+A2KpjwXFx+FAc1zoaCZBxxTZJ8he0IdU2WNEHlTlQWC/zfhu7vSKTLreELSAUKmt9GTOT12SjQ/8bYMJRTeyBhCJ5x/hUFMA6vXmCoL3YDFTIF7X3wG/R5iqbBON20dbet4FLHaeGcJ4xl2EWZRi2rZdwxErAOLkmdozcqqzeo8goiFyrrhn8aAHLJWeEMOT1f+aG5upN2wX6n7xh+jSz0Cg/kqwKU7qYe5ilzh47lgDGIvhUEERBVC8xhqOfIIQEjt3fxYxHp02kp8qo+fdt+A7g0eCAGjVFMgJdeWnNL6G8j3/M/VPksfxhrJ0Xktij+KpV8h/J0yksiYTobZblWk3saEUNX3ut6FpRbrQAzirH7fSJcWkG6X7VWMxPY6aojVPOFepYTYStLFxqgGMIGLmGmixnldXPKEOCZCZpTQHh6MQSvE6HOBcrA/a0EKRsIix2F43r0jUOLRmpafT6eTHgOfAtY3yiOeKlWuhAGgVRyhfx/wGuNBV104amQLRuxOJpsBHCSPsjRqQUr//3wDeBryZ0PuWifVkLYgVxxaLErSWKwn30G7hCTw2Um0lRFXtDcC7F0nzAMHXe0hljT2d9u56shr7fY+60EIVQu+txe9YGaS0NgYRic9hrmFL6TSx1605QnDGqCD7FH0Y5SEV3WNUgi0v7AG14uUEMXo8ygkqbEfleEW3GeQYhX7QXkuHhOnBTOlcUQAEQeFx6NyswXP3rCG9N8V1CnMaiCjgrOWJ8ujAL0oDgrHCn0KYpmsxTgO+V0pfJu57PCFKbzHOIgyyrUklpn4dw4TecjFeS4gRWMyOLt/jCYTXjM8HTidMPLLWjBK0rS8AnyRoVbB25bZuBUCs/Y8Hfo1gC5Wv1RIa3sghRwJF0I/qMbf3Odf1cyudVafT3mJMc3V6Fqf5jIgZ8+h+UXkE0YeBPaI8qMIeDHussw/PkO/bpG4/E/3jrUUOHopy+yZ6evoQ2ZLjjxPrt4lSDDKyHWU7wjbgONAtYHottiMIisXMlrB2eGel23qd2mPG9FeDRyCUDfUy7iLYz4b5vVv8/w7CZJ6LqkSE9/0HGuRBse9OYJzGebSD2HC3EmzlGeZfixJG2r9PEHbNrmOhgKgSPlR6HHUzq533MQ3sI3Rq+0r7o0bVznPNY70KAFhlIccxgLy660VgbgZ6CUJjTOHR+QNq+qAqe1TkIRXdWzFmH8aO8sgzJluN0AvTgN1mmHPTRfYWxzfaf6FfRv6GLV/uRbv6UXdsrm6bGHO8KNu9+hNEzHbQ4wWOU+VYhD5BuhU/hupLs/Fz/2kVHxVZ1bMoaEceS9GqfdzqdcTeIUrWxwohdHCPyXnXswCA+kNYrOdZsjKXYwCodZwI2T4mZ8eDS601wuu1VwsMN2rACkH9ltYq1SGU5g+UGGg0P8VehXt1OdGJeuLnug6MVqvZ5vyYDg7+Qh59frOPiy50e5Vp1e5dLA9hjXuxErHxNDqXsPJGJaVlrdDS8pixlje0LmjU6ykI3Nqgt96pwRV8r7Ig+u5wE65ZCVGJp0mYFHehUGocvLSKnj+R2PgoKoqaYn0UCD0V5RoT77lZ+kQikUgkEolEIpFIJBKJRCKRSCQSiUQikUgkEolEIpFIJBKJRCKRSCQSiUQikUgkEolEIpFIrDv+PxH5OnJtxSAVAAAAAElFTkSuQmCC;" vertex="1" parent="1">
          <mxGeometry x="514.8" y="282.36" width="174.43" height="63.37" as="geometry" />
        </mxCell>
        <mxCell id="XL6QC_tOQ0aqBgQdsJjQ-11" value="" style="shape=image;verticalLabelPosition=bottom;labelBackgroundColor=default;verticalAlign=top;aspect=fixed;imageAspect=0;image=data:image/png,iVBORw0KGgoAAAANSUhEUgAAAuUAAADQCAYAAACgEh/JAAAACXBIWXMAAAsTAAALEwEAmpwYAADgFElEQVR4Xux9B2BcxbX2SLvq0qr3ZhXbknvvNgabGggdAgRCwgspL8lPkpdKykteCglJSIUkJISWUG1MM9jYGNybbMtW7733tur6z5ly9+5qV9oq7cpzk8WSdu6Ub9o3Z07xInY89fX1wW3Nrcl5l/I/lZ+Xd2dVRWVmVXmVT3d3tyG3CUK8vAjRhYWRsPBQ0lDXREaGh+Fv8AU8+F/6I6Rhf2GP14QXmeBp7KiafMXNEJjg48Daavn7+5P5C+aPZ8zPKF62cvk/M+ZnvpuQmFAFn0Fr85DpJAISAYmAREAiIBGQCHgaAkCJrX/yL+XPz7+Ud+WpEydvPHPyzPqOtvYYZNUTwLwCA3yIr9aH+PlqiT98kFgPDo+Tto5eMjYxbiDd8JM3sPWAAD/i6+cDjBxZmzf/3kDPbaqY9U2QKWcQAaU3oY+9vb1JYKA/8fWBPseTmMkzNjZG+gf0ZGhohHT39MHhDcYVpImKimzdtHXTwdVr1uxbvnrFRwsWLqiawSbIoiQCEgGJgERAIiARkAjMCAJWcd/W5rbQl1/894+OHjl2a1lJadqgXk803hoyLzGapMSHwyeS6IKAcPlyUu6jpVJy/fAYaWhuJ2fzqkh5TSuQ9BEyDlRL4+1FUlPiyA3XbCKJCdFAzAVp94ZvsUoGEj8jKMhCnI6AF/YjdiVl5oyU40HMB8aIuWd8bBxI+SAZBlLe2tZFauqbSVV1E8kvLCWjo4T4+vuR1Hmptbfeccufdl539TMJiYntTq+0zFAiIBGQCEgEJAISAYnALCEwLSn/4L39Nz31p6d+Wl5atsJX40VCdYFk7bIMsjwrmcSGBRMtSMd9tBpKtBn9orJz+l98xoFwDw+NktauPnIkp5TkFlWTdvjZC0haWFgIue2mK8gV21aQ8FAdzQNJOXtfPp6PgMLKVSPCulYNwQFueHiUNDW3kmMnL5GTZwpIXUMbGR8fJfPS0ws/9/n/+snNd9z8inW5yVQSAYmAREAiIBGQCEgE3BuBKUn5P//6j+///S9/+25ff19IeEgQ2bZmPrlq/WISGhTIFcJRos1UTyZUtItKSVEtBf8qFMc5TW9q6yH7T+SRC0W1pLOnn3L3jasXk7tu3UEyMxOJj4+vGeUG9wZR1s4cAsYHK3ZME8PN8qGLjiMUsoNtAXsYse/ognHz4Wny/v5TIEnvBMm7ltx+751PP/i5B7+bmJzYIftAIiARkAhIBCQCEgGJgCcjYJaUt7S0+L/wj+d+9sJzL37Na2LMZwmQ5R0bF5FFGYmcWAF1GgeKBXzcWDKOlIqRKAP9gnT0T4bvRkbHSGlVCzl6voScvVRBRkB1YV5qPLnxuk3kk9dv4XlOK8T3ZNwvg7qriDfqh0P/M1JuiZAbblpEGuMRwN7OKywjBz7KIUeO5ZKePj3ZvG3z6S/89xe+vHrdmpzLAFTZRImAREAiIBGQCEgE5igCZpnvk3988ifPPPX3RwdHRjTblmWSW65ZTUJDA4kW+BTKxqkRHvwspOPTq5uYI2NepKdfT85crCRvHTpPuvoGiA6k8V/5wm3kyq2rKYEbx0KoIN4L/oHSpFbLHB2G0zWLq0PhuBufAEPQAVBnuUBefGU/aWvvJYuWLC790S9+/MnFixcXTZeT/F4iIBGQCEgEJAISAYmAOyIwiZTvef3N+/73Bz/8Bxje+d965Wpy4/alaKYHdQc6DqSIqRUgHReST0HJ7TPOnBj3JkUVteTFd0+Q+pZuEhIcSL708K1k+6YV4M1FQ8tWKD2XuLsjkLJOrkbAWD8dx0VjYzP5n+8/CaotXSQ2LqH6sSceu3vt+rWnXF0Tmb9EQCIgEZAISAQkAhIBZyMgfBHSfHPOnF395O//+OuxoVH/zcvSyTWbs6iUmtFuJiafIGPwMSbgzDzTnsebaLzGyOLMJPLgzdtIRlIM6e8dIG+8+RHJyy8noNVCHyaRZ1WQz+WIgEq1BQ+GAAHenCQmxJBHv/VpUH1KIi1Njam/+PHPXi4uKpp/OSIk2ywRkAhIBCQCEgGJgGcjYETK//qHJ/8EgYESFqTGkeu2LgWjSz+FFCMVwsA/3hMakJbDh/qRxv8xCTpYdFKyZMuHqqTAu+gmcWFqDLnvExuIv7+WlJXVk1d3f0j6B/W0HPyg20QZVMizB5v9tefGn/RgxqMR4UCDobcoK508/NmbSFxcJKmurJr3zN+e+UNTQ1Oo/WXJNyUCEgGJgERAIiARkAjMPAIKKX9r91v35+ZeWh+hCyE7Ni8iMVHhlIRTNRVUWaEOVVi0Tfp3/Bsl4vQLJinnf7P2Xxq9kyungN0oSU+OJjdtW0U9u5y/WEqOHLnAJfNcVUbxyDHzQMkSZxkBHGN4OKMHNEbOqQGxZoKsBLuHLz58O/hB9yXgwvP6fe++/9+zXFtZvERAIiARkAhIBCQCEgGbEKCkvL29w/vNXXu+OtDf752dHktWLkwhPvANNbQUmiPobYXrqLB4MIwUYSRGPQZ86e4lbV22fVrwnc5e0t45QFo7+0gH/LwgPZ4smBdPy379rY9IU0sXJfsT4MPcPhUZm/CQid0SAa6+gh58VCpM43hzg0bA4AZo/coscs8dO2GsjJF/Pv2Pn3x04NAn3bIpslISAYmAREAiIBGQCEgEzCCgxb+dP3vupuKi4qXhugCyc8MSotF6g2YAGnUywSQ+TFmFS8bh26HhYVJS1UzK69rA3/gAaYEojObCp7OXua4Bl7gzZsWl7lT6LQoZBzLuBUS9jxJxjOx48vQlcvMnttE003t5kX081xEQ7jWxnd78pkU429x51XqSk1tMTp8t1P7zr//8OSR5a67jIdsnEZAISAQkAhIBicDcQICS8rMnz9zQ1dHpv3n1fJKSGMUUSighR0k5I8/eyIbAHR0y9cLKFvLBsYukvLaF9PUPgkEmdZRokZMzU03mRQWJNeqQU0JlQfRNhaHw3QhEdDx5Op8sXZxJ0uYlSEn53BhzdrRCJR5XicoVA2CuThXk70uuu2YTqapuIrnnzy/5+OBHN12xY/vbdhQoX5EISAQkAhIBiYBEQCIwowhoc8+dT/v2I9/e6Q3EZt2SNOKtQfKNBHuUGnSOU28XzGf4wOAQOZ1fQ/YfzSXNbb1A3IFeU/aOWjCWXaNQko88G9JGRfiTuHAdiDnH+CuTmTny/9GRcVLa0E0Ki6vI8RMXSRoEF1LE9jMKkSzMXRFAI2Fv7hiI3qRovMmy7HSSNT+VHGm5QHa9vvsRqLsk5e7agbJeEgGJgERAIiARkAgoCGhrqmtX1tXWzUuOCyfzEiOYiJwKqkGFBSXl/LexsVHy8Zli8s5HuZScUxKkKJlzDywWgWXBf1DKrvH2JtduSCLJMSE0tSLtVL3rNQFSdSDmz76XT84Xt5JjJy+S7VesIskJsVOSf9mvlxcCBpMHfksDQywUAlBdu3M9KSqtJhfP5V517MixazZv3bz/8kJGtlYiIBGQCEgEJAISAU9DwDvn7PmvgsTROy0pFoL1+FKyTVW/RRBF9LACP58rqCZvHc4l/UNAyKkeCvO6wlTCpzbBxKxQ8wU9trR1DZI3Pion9ShptyBdn/BC3fJxcsXKJKIF6WdtfQspLqv1NGxlfV2MAD3o8Q+qROEhEv+yBKTlmRmJpKOtg5w/c+42F1dDZi8RkAhIBCQCEgGJgETAYQS8SwqLtnsBAU6JiwAf4T48Q0a2mSvECaIfHiL7j+VTCTlVF0B1Fgj6Q3XNkVoLl4iWqsP101GyPjo2Qaqae0leeTt4bkFzUs7xVf/SUwAUFB4SQGKjgsgIqLIUF1U53FiZwdxCwOCPh9koiINkQIAPWbc6m4yDZ6DS4pKrqyor8YpFPhIBiYBEQCIgEZAISATcFgHvooIi4u/nRyLCAokXGGwKmfcEqJBg9E6URJ7JryJ1TV2UkKMeL6oNeI9rKI2mBpygU25QdZncVuq+HHMC8o9vjAAZP5LbSKqa+iixN8g7uZo593fu76slaXHBWBh41SiFHIwjibotqrJiM4IAGzfC173BZz7G+9y6YRXR+mhIQUF+enVVzZoZqZAsRCIgEZAISAQkAhIBiYCdCHgPDQ2SAD8f4uejpYTb4EKFe1QB0tPbOwT0HAk6o+xMW0Xom6OkfJxKKi09LFeUujOnhmgW2jswTC6VtbLooMzbNH/dUAcfMDqN0AVRDzBNze2qutnZWvnaHEPAQMmND2wTJCTEnyTGR5GWplbS3NC4YI41XDZHIiARkAhIBCQCEoE5hgA6XQG1FV8S4O9Pmyb0vBnxpsopwImBoKOUnHsrZ8zcgIQ3EmrLzlcsQlZYBUSb+ylHR4kGX+RM6ukFovmgAC2V0I+NjoMay+gcg182x2UIwABOTIwho6OjpLW1LcVl5ciMJQISAYmAREAiIBGQCDgBASrgRh/kQk7N+DbqmwjW7UVS4yNBxYVSb/Z3TsCZMgnzY27JaHOqOrZ06ckQeHUhoJ9Oc6LBYGghzIUi/NcPQov6+WuoNL6hqc0JTZZZXBYIwABauGAePTuWlpYtvSzaLBspEZAISAQkAhIBiYDHIkB5dn+/nvQNDDA6DOSXycRBpYQacHqRzJRYsjgzhVJlpsGLH0KEVjnn5raDMO5Nquo7oEwg3VS9hRFygnXgUT99Qa88wI/GOCIjIC2Xj0TAGgTwBig0xI8mHRsZAx0o+UgEJAISAYmAREAiIBFwXwS8fXx8wfByggzzWD7eYLRJDeiYCjglyf6gc37T9hVk4bxYCC4E36NhJ1Vn4Saa3COL7c0EXXSNViH5Qj7OtM65/rriNx1/t0NHxvZKyTfmCALR0ZF0xPT19oR1dnRM7bdzjrRZNkMiIBGQCEgEJAISAc9EwDsxKYEMDo6Q3r5+KqA2qK2MMb/PVKVkgsTFhpGHbr2CfOr6jSQrLZroAn2JD/g1p7J0O/nyuLcX8QGSzyTz7ABAJfSYIZQ9TiOF4oO/Sym5Zw6x2au1jxbvcsCouK/XZ3x8VJLy2esKWbJEQCIgEZAISAQkAtMgoF2/ceOhqsqqKytq28i6ZcMgFfelcmqq003F5YwMa+APMVEh5JqobHLNpmybgBV5YXZ68HX+3BvHyKm8ChIMftHTEkKo1J2qxIAbxnFwf4iqB0YOXhTaLiXlNgF/WSdmalZ4yIxPiG+LjIqRp7rLejzIxksEJAISAYmARMC9EfDOXJDxFlLw0qomMjSMRpfgXE6RUDun8gaTUUIDEJXXtSLlJ0nR4IN80qM2OXVO+TKXyxABHmXWi0YUknpPl+EIkE2WCEgEJAISAYmARyHgvXT50ncTEhKqmzv7IEBQJ4/y42ShIvon5w5d6hu7SUt3D1WJWZASxqXkyNGZVJ5JyaWmgUeNInerLPWHj648MdAVNX6Qj0RAIiARkAhIBCQCEgG3RsB76YplpVdds3PfODCXIznF4KrCyYScyim5xjhEDD0N0UGRdAf4epN5cToKDjUXVYiTPc4V3RpjWbmZRoAPJvyH2ifIQ95M94AsTyIgEZAISAQkAhIBGxGguiIbtmx8IyYmpruwspHklTc5ncRgYCCkRuW1LeR8QSVVU0+NCyORoX7ws8HTCiNP3KOLjQ2RySUCpgj09AyoDnsSH4mAREAiIBGQCEgEJALuiwAl5StWrji4cvXKDwcGh8kHp/JJT6/eqTVGqt2vHyKHThWRweER4ge+xxelhRNdEPiRpkJ0RtoNpNypxcvMLkcEQELe3t51ObZctlkiIBGQCEgEJAISAQ9EgJLy8IjwkU/cctNfQ0PDWoorm8nJ3DIyStVYUC8XP/gj6ukyH+ZM/5tH9gSPKUy2zb2Wc+VxppLCInSOgR/0vNJ6cr6wmoxB+qgwf7I0I5J4g0vECe7dhb2PZTpbnxyUZVh4UPoYghQxtQZ2HGBhkWhEUWcX74GDYnaqzPqDG2bS8cVUT3i/KWoo2JlsbE75gO6K4j5flc/stE2WKhGQCEgEJAISAYmARGBqBFioTHiu2nnl/sf+92cvvvjcS9/Y+3EuSQS/5IsykyllFaSWUWzg8VRnF+isNwYRwuibmIh5TfFG/+Lj4G2cenEh4NFlBHTVy8hr+06R4ZFRkI77k51rUkhkiP90tMopfUfpNj1AGAg/Gv9hvQcHRkhDcwuEYa+Hf1vJ0Mgw0UKcUknMnQK9TZkYKDZaNyA9h8NbuI6kzYsjmRmpJCjAl/j6aMkYjDNv6qoTDTitteBkLljkIxGQCEgEJAISAYmA5yDwwb4Dn/nwg4MPH/zgYOyPfvqjH994843/9pzaT1/T6spq74EBffIPv/3dXVEx0cEKKcdXP/fFz/8iLz9v07mc3A3/2XuKfPXeUBIXHUK9WCBTUqSYXLJMDemo9JwH/0FvF8B9vSBmyzhIxAcGhsgHJy6Rdz++BFFDx4kfkKpNS2LJyoXRQOlFwKDpK+2UFHhogArjwWIcopdeLCgnb7z9ETlztghsW+EPigKN0Gt3SqkyExsQEM4LIXwUG1M47uB0h8T8uqvWk+uv2Uh8/fxg7Kh82duQv0wqEZAISAQkAhIBiYD7I9De2qbp7OxaePZszicHBgY2TQC5BIFqqPvX3LYatra0XNE/oI8dGRlZPToyUmVEymPiYtsL8vIf+vF3f7i7ML944QtvHSafuWUbiYWgQegxZUyoFwhRMo3NAuSJRxui7udQ3QWIeXFFEzkBajDni6qBkI+CHrmGbFwSR7avTGLvMJ0Y22pvR2osBaXiXlhJVImA35tb28mruw6SC7klJChQSxakxpCwQD+iQfG+aIwdZclXHEGAuy5UhYfVD4+T+qYuUlbeQP7dvp+kpsaTFcsW0lsYQeAdKVG+KxGQCEgEJAISAYmAeyFQVVGZ+r8/+PGbnR2dy8/mnKV8ET9jo6MB7lVT+2tzcP/Bh4oLi+7+7re+t7O+rt4LA3QODgyCtobJs2jJ4oKD+w5+47Gf/PKJipqmBf/ee5LcunMFRN6MBk8pXO8Xqa2iycLVV5C0j42RxtZOcuxCFcnJKyfdvQNkcHSMBPloyOqsOHL12nkkEKJ4ouoL1TyYIf1tRTeZ+cgjHZ09pKCwkkru77xyAclMjiS+GiDtiAo9V8gARvYPNcfepLYI6K8e/jcKsay6uvvJm8fKSX5lBzl3sZgsX7aAqa/MwIHOsZbIt52BQEVZRSysK/6jo6P+mB/2/PDoSNBA/0AU/m1ifBxnLS5IeOQe12q1g+Hh4ZU4QPiRn97z8SPfuH+Af4e3l/dQalpqvzPqJ/OQCEgEJAISAecgUF/XEHghJ+drRz46vLOxvnG5Xg9OR+h+r5BFjydnlRWV8ZVllbeczzn3w+qq6vhhCKjJDTPpv5NIOUK749ode3NzL1Y/+o3v7r5YWLmgta2HzEuKImEhASQ8BKJw0t0Opc+oN64hrW3dpLa5g9TDp29gGCSZoGAAX/qDl5XM2HByw8ZkIL5hFFh6BYFKLyhRd04/Tp8LVV2BcunuPEHaO3qIfmiELJoXQbLnRZMgfy1qynOVGg39Vz4zjQCqq7D+gdMRI92+4M/eTwf+7MNIYVUH6ejopaa59GxIDXNnuo6yvJlCIO9i3tL+/oGEU8dP3jI0NJQ40N8fDWVT/6ld3d3RjQ0N8bBg+8GVn1GV/Pz8RlasWJGLf4Sx5A0HcnrOw+kN/xmKjY29qNFoOk6dOH0E/h0ICgpqCg0NbUhIineuy6mZAkqWIxGQCEgE5gACZ0/nXFmQX7D6z7/78y/b29tJf18fbZWG2ytyfw0evesX5hctPX7k+Hd2vbrrvqaGRtLd1UW5DKrsssfLPCnHr5YvX5Z/+uTpz/7h8Sf+efHCxSyUgBurdhhLK5Fi04wBuRAw5pwP0TrnJ4eSJamRJCjIVzEOZWSK6wzzaqhRVgvP1T8z/XX7HqHzLt4fGoaTCTyjEMyIenyBOo/hUYHWC5V05DPzCFBhJ/eFg6UznSi0WEAbBUVdRUkjpeUz30fOLbG8rDxmUK+PaGpsWgE6gzEdHR2J+gF9pL5/IPa1l17NGhkZTejoaA8cg9s2JN9iXg4ODpLenl64SRkBexBDsDNctIFo+wwPDq8RNWXnN2aijk9wUPBW9PoUrNMNeXt79/n4aNv8/P0b/vz7P9f7+vn2AqnvCwsNa/Lx8emJiIio8PH16YmLj7uUmJzIFg35SAQkAhIBiYDTEDifc359U2Pj1vfe3fsIqKskdnZ3g1MQg7AFBXWevtufPnHqGtjf1r76n5e/2NjQmAT68mRQP8gxZLsTlRzBf81KygXa6zasO3725JnP/v63v//L+bPnVrELYeHNhN8qwF90oI8dFuJDYiODSEx4EEmICoRPEAkLhuBAyNOVLVFsq2wjpWCDBxe1LguFn6q2qKk6K9Ne01BhNMiynSCRkWFEq/Ui9a0DpKS2k6yaH8sgoWHZkRhKWu60GWdtRnhzQicfknE0vGXDoLt3kJTVdNKfgwIDsQfp0JU9ZC2w7pmup6dPc+rEyWu7OjtXwTXeg22trWHl5eWkr6ePfiw9dHFWed1Ru80UP9dU1tDXjVxq8gzF3yAPCJJA8BMJI28hrkg6nY6EhISQ1Hng7ScwiGRmZuYEBwcXL1+57O9F+UWNWYuzStwTTVkriYBEQCLgeQh0d/Zod7/2+lfPnzt3X87pHAKknMD9Jm2IhiseiqtOT93ze7p6/F949vlvN9Q37Njz+hsmnaQ6bnAtnSlJOb69ZsPakzXVtdf9/am//d/77+y9Z3hgWDc2MUYCAzRkXkIoSYvTkYSYIBIK0vBAX3Rbx9RWkFyNgxRLqwVZpwUfg3izTJU9UYEfPaAo4lBuOQqVVP/dXrJMaTbXJ0c2Ny8lnixfOp9cvFRO/rOviLx3ohqiiwZAGqbiIp9ZQICemOD/EOEVdcqxH3r7h4GUD5FOUInS6YLJqhWZSMno4UlqGM1CHzlQZE1ldXhBQeFNtTU1G/MuXLryf77y9ZiW5uZwkIaTvr5eAioq9AN64pR0g94J7edxVDphQ0NRu0OjbfXvoloTIi18LxZypcr8pk0QetO1RAMZDvYPkNGhYTLQ1w9G396kuLBwNUjeV+995517fX19h7/8uS82xiXEV8QnxudnZGZ+GJ8QfyF7cXalA7DIVyUCEgGJwGWHwNnT5zaUl5bf8K3/983P1dRUJ/b3gjAGPig0EfJYJnvBeCVqeDxHabWqsjpu92u7Hv/Jj3+67WLO+RTc33BfE3uQkI+L5gkx9LSkHOFISU1uhX+++NHBQ7vff/e9zxXkFV4LV85hBRUdpKCinRLeMCC14cH+4E9aSyIhOJAWNkYfIOQYtVODO56ZB/WDUTaKBn29A3rqNhEVFsQmjMystXuADAyjcgluyoaraptGMWX+TF6PnR4RpiOfvf+TZO/+4+TSxVLS1dNDGkBv3guCHI1yDy025S8TOxUB6oIccgzw92VkHPyU79i+lqxcupDRMwwMhJxNfZni1BrIzJyJQFtza0B7a3t8fW3dPRXlFdflnr9Ar+76uM6g0Z2YJd/z/NCm1EuYb6oqKvJhcQksDA4lkeFF5f4ODNWH8QOLJz4gxaf/4isajdY3MDAgNS0jLXVwaHBzWHj4SFBwcGd3V09taJgOVjD5SAQkAhIBicB0CLS3d/qeO3t+XXVl1dcvXsgNRnVEcAU4SZ9isjMQpow4Xf7u8D0Q8mhwRpB66VLePa0trRrwrkKrhcKe6VRxrCLlopHbd1y5H37ef+LoiW2lJSVrykpK19RW1y5ubm6Jqa+vD+vq6QQPCeIkwMi18KRhDijlhKCIp7lqDDe1HAeC7s19i1Npt52RGSkdp2SbsT0sd0F6PIm953pSuDqbtLV1kh7wFKPWT3WHjr286sBHg7jRgI4KCgwAVaNQkpGWSOLjMAKs8GAO/9JgUFY/HjGRrW6NByQsKylPAgnIxr1vvfOtr335q4sbwKp+BAKJjUCArsHBYdoCFGyzGzu+TJn2Es591d/Yksz+oFZhUaTfZr5ToDK9XKHZcGNzPOTRJQIN0A2SDPEu2pqMg+RgAA4RRQVFpKy0zPejA4e+rtX6fD06Lmrg3js/1f7gZz/7w8DAwKYt27fu84DukVWUCEgEJAIzjsCPv/vjV3/y/R9tBT3yuMFBPbgAHKKrMI2ozmm5omLInYFQARzVvWC2iO785J67sCb3Qu49cANwX0tTc2x3dy+tLqs77Hn8NpdqBdDtbPJ+YxMpF2Bs3LLxMPyMH1JbUxuu79cH9fR2x7Y0t2S0tbQlge5MandfTzi6I29paknoaO+IpDug0GUX/3pNjIIOZ1dSUnKt0F7guCPjQsXhCWjU4osXLlzZBorxLCqnbQ82elxYibLeZRs6/D9UF0TWrV9CvMGdB0rhlU3fkpTNtqJlahsQEOcyJv02XOiwQSvUisagL32o8Sc+7j09bWj8HEva0tISBFbm69vbOnbCYX1tc0MzgbWBXU3SthqYNpv3qp5U6REa31oKkAxp1SooRiPCZDFhV2T8fSXTyWWyQcX/rhwODSMN15Gx4WEyDB+RzejYSCAYiAaCJOReIOW5TfVNx+MS49hKLB+JgERAIiARgKjp5ZETYxOhv/7ZYzf39vX6tre1cWEMZ6d8P2eyEr4GG6S2HoFgc2OzHxw2rmuoq/9GV3snAQk5CHmEB0e2Wyme/ajAiZLRSW2zi5Src0lOScY7XvzUwSfH2egV5RdmP/azx06BtWrIBHWVZ9ujeG1RNlskcwAGGBMgAfSmJxexpePfkPhLwaptKDueWgkmRQeqoQ+YFFTomaGtAvWTw/vIalouO9TxLrIqh1/85Oev/v7xJ1a+sWtPJo2gy6XhVEecP0LawdYkg1KaQtnhRgT/rubS5goXN2D4nbqDhdyFFknP3+wQrha7i5EjJBVCOoMjT0jeRZ1NpTNi9GF+PZ3dNOvf/PLxa0D//Jq///Xpr3/7kW/n3HX3nd+MT0o4K722WDVsZCKJgERgDiJw7lTOms7OzsVf+fyXfwX/xvZ19xi1ki7RqoVevaMz/XLYH+gfucqqG8riQACVnXMm5+EvfO4L98BhIxY9q+DegaoqVDKO9efGq/Q+gHNRFPKY0/5wmJTPwDhC3zhj9rOqyVu7UGNR153lPx0NmIHWXrZFqCSUFg9Fwrml6KvLFiy3a/ilCxeX9fX1z3vl3y/dSXXFlZXWZE6pf6WqaYIvq2a4lTdVNKsp0qpVXCwbB4txp2b2gs1bPvSxsid3w8jwsLanu3t9UUHhFwcGB16rqqo6PG/evC636zBZIYmAREAi4EIESouKE0F3/OGujq7bYE+IHIPI7pMfc+svT6Va240k6C6ssy1Z19XU+fd09yzMz8v7TnlZ2T36AXAUMKxqo5HE37BZCAG5JXVsTyDlkinbMlJkWnMI2H+mk3hOiUBDfb1vd1d35h9+9/t3S0tKk5rqmmh6by7dQE1AcRelSKDFmsv/pXrcqlKMfzaWgYtkQsJtljYLlTUkzihtoW5XzTUDDnn8UoZJMBgxZ0J9rvZG8zB+V2TF/jV8OQaG6h0gJTly6GP8fHrJqmWfXrpq2YcXLlz4HwhodF4OJYmAREAicDkg8Mbru772h9///tELp3NjgJRjyD+2WpqzC1TIN7uDVG4x1TrmBoJuWVIyw8C+uXvP46Ceed/u3btBVRsk4+A5ju59dM/j96t8ezDdxQw4CLEU20kwB08IWeo2nTDDfS6Lkwi4NQLgDzzs3Jnz/3X046OPg91IEgT+MVNfmL5cpGyTnbZg8pzSU4k4/Zv6RoUVR1VdTCTmRou/GWm6Qqg5ATfQa+UIgTnzj6VusJCWNxT1CitLK67KPZ/7yKnjp7a7dWfKykkEJAISAScgADFtVoIDkM+CfU0MBnibVuPEaGNQr6mqyti0eTihEVZkUVxYdBM4MAinQQ+pUZyFuk+ZlzG9xaOLp0jKrYBIJpEIWERASsqdPDiAkIefP3P+4XfefvuxS7kXCUTkJGPgTlB50AUptZ5ndvWGK7vJC63qYk/5Uq2BLggzM8emLBzynr5L1XrsQgwuDIrBtpuuodRBlVIB48hx05cwGVQlK6gfXG+Sevj0tPc8cDbh7Pbqypr1qWkp7CpBPhIBiYBEYI4hADaAsQc/OPgdUFtZUZhXxFqHt48WVFLV66UpFMbBIlG4Y8+K7HyAL5zLjQSf42kP3fuZVMxdw6OPTxXjxhrJskgjSbnz+0zmKBGY0wjknD67/qMPD332wPsffKG6qhpcHA6CGoghSi9dh6mnFU7G4XcMJCb+rqh/cJ1yg1TbsHQxmQNbiNGCPSQslPhqtSQoJJiAlxMSGqojENCHaDVa1XUnCzbW3NRMhoaHyEB/Pw1I0Ys67kIizuvBvMUyN6tYDjW6wb+g1INL9q0h/tN1NLajsbGBgJFTynP/+tfB3/7qt0e/+Z1vfmG69+T3EgGJgETAAxHwgTonOqPeiooiNYjk7gOdkbHjeYDrb4LtdMkjSblLYJWZuhkC7nHEdjNQ7KlOa3OLF6ir3FBWXPrZnLNTOFsSiFtw+yTKRtJqrnOExxNK08Fy3R981vv5+ZLI6Mix0NDQofj4+JaAgIAeIOb9yPkph4eUIyMjQV4a70yQ3Pt2dnT4DMP16UQ/eig0ltWwMi2Vbg8ylt/B0NHooOr0ydOLtD7aOPhFknLnQixzkwhIBNwDAVSJRtLqlMegce2U7JyVCfJm210BWlm6J5ByK5tiKRlzq8OkXiARg3+YEZpwRA9jCKyCR0DCRp0lTmCYdweLlK/bhwBKV8GFEFUBhm5B9QOtj4ZRJ357ReWZ0m2lffg6+NZZkJB/fOjjq5/9xzM/6ursorlNpcstdL2VoDy8fKHiLQw81Vd7gUGBJCAogKxdu5aER0S0Llqy+E8QObM8Ni6mGIJHjfn4aId9fH0HfLTaIW+NZhjyFoScTurxsTEfkNzrQJVGOzo6hp5Q4ru7u1MhpPP9jQ2N244dO0b6QXI+2Mf036kPfKGmzpYFlz1NDY2Yd8TTTz39YkJ8/EefuOXGf7isMJmxREAiIBGYHQScwivxdlW9d5juNbPTNFoqu2Z10eMU8FxUN5GtNeo4U1RB/ToSOvb72PgoaWkFQ6yqBtLU0kU6u3opwaCWszJ+u4u71Hz2TDqKtJt5y/D39yFxseEkOSGOJCfFkMAAPzhUsT6a1nhkVlowtwvt7OxKb21t+0RlRQXAb+O6ZE5izv3QqmeoRqshEIynJTY+7mxcXFz+8hUrng0KDmqKS4hFiyFrnxZVwrz62rqQsdExDSzwFZD/dfAJg++dJs2xtlIQZI0mBfzuA/RQCiBJubXgyXQSAYmApyDgNAciyMmY9yy2S6gtgDwFDFvr6Qmk3NY2GaU3dCrrUZSSo1D8bG4JeeedIyS/uBIkZ6ATS/VXRTBUh4qUL9uBgHAhhDcVVBuB3myAmyGtN5DyaHLltlXklhuvIAH+fszcD/vKSn/WdlRHvqJCoKykPAakzMu/+f++8QJIoDX0Nol/b8nXKl1AkXSjzjYGgOC63Ph3DY1yBmGgYCL6+vmRqJhokpW9kOzYueN/sxZlvZa9ZFHBgcMfOq0PEpOTUH/lb/xDerp6tS88+9wLEHn4U3tef0OxH6IOXrj+It8AaB3slQqo3dSyMwnL6c3X95Dk1JQHnv/nc20Z8zPe3bxti/Ma6zTUZEYSAYmARMBmBHDjdgopF3sLWzfZ2olLtM01cs0LUlJuL654yhJGXKI76xubyMuvfUAKi2uI1nucLMmMJtGhgSD8Q+EV7p4uw9veZsz595jGr0GTGH/rHRwhVfWdpKqmmby+52OyeFEaWbYok2oHm0ZZnPMAzWIDuzo7M8BQcSWoemhsvkK0eHCaID4+PiRUpyMxsTGdYeHhF0F1pQz+ZhzyzQXt1oWFjD7/zHMFoX2h70dGRl6nH9STwQF2MMe1QrRxqgOHNdUyuhww2UqGh4ZIb0/PFYP6wXPW5CXTSAQkAhIBD0HA6QTK21tDNBpvjJJpLgLRTMNi4zWxbdWb85JyGuqbEz4R1a+7R09KSmtIoJ+GfPW2tSQlPpjzdUYMjUOZ2AaoTO0IAmhizc9FKAyH//Xrh8jz+wrIpbI2cuLkRbJs8XxGmhS/oI6UJ9+1BoGn//q3v0OQhCX9PeDFBLvHBtdU5iTqoMVN85m/YD7JWpR9/ns/+N6mkNDgQfIra2rjnDQPfO4z/weGoF6r16y+79zZnB/tenXX/OHhYYIfGhrZSQ83ZaG3r170hgCfCdLe2k6ee/aF1VfuuPKRupr6N5NSEhm48pEISAQkAp6NgNNJeWRkBImKiiIhISFtng3N9LV3yjXD9MXMYgoVgRAqEm0QYWp4dIwkxYSQyHB/lQ8GQeBnsb6XadHKUQj5ECXkjLz4+2rJvFgd/bkX1IzQEJQ7PrUFKeexLFtK9fC0rc2t3uBrOw5CCS/W9w9Mao1aam4ugI/6BfE9/usHKkhozAmqKudSU1M+oIR8Fh4wJJ0IjwgviY2LeyMrO7snGtRoNBrwOmvDocPqaqu3KaomM079ug/q9Uvr6+rWNTU0ucya3+o6yoQSAYmARMAxBFyy16JAA93fgrG/O0jKOQlxDChLb3uKpNz+kxdeR4NLNfTRQKMuwe8jo6NUCsuuqukX1LvHBAY8AaVzptds6THoNxlSuPQ2gxfDylUkj/gb1X9l+rm2PBPUYQU2W20wKcaZbXlZREnRzWXqAMwftHBMN7mMyX/hfq/hneExFoIGM0BDTxYSnX1va9ttwelyT3v08JEv19fV315VXunV29OrkFU6ErlaiujbqbAyVXlJSE4Erzralu/94PsbgZAPzybOq9atPg3lny66VPj8nl1vvLJn957FegiEBIzZecqL/ALIkCGsPTCmhyACaklhsd+bu9/4y+133fE5qMeJ2cRCli0RkAhIBBxEwCWkHLxukQBwiwtCE1sM/h1sisXXXdJGUZqnkHK7waVkW3mbBQiJj40Cg0EtqWnqISU1XWR+chjoKmk4cVRFJTQtVcnIlEK6tI+m4Z5T1NciYwYjSXo+QWIryC8jzk5lIuryaTAZcayYjJdBzYEmYmmB+LX3DpHS2g5at7DQIHoI8YJ6o4cWG/TKZ6CD7B6ibvtiaWnZDaUlpduHh4ZVt0l8OHIDTlNVFlN9bDUhRx1ykHSQ7TuuPKrT6Y7NNiFXAx8ZE1WQtTj7uS3tbT89feKUf3t7h9N0y7EchgNbN8QtEP4J3DWSosKirJam5mWSlLvtVJAVkwhIBCQCAgFzklmnoeMppNwx8a2JsVlSQgxZsyqbnDhdQJ559yKosehISKAv8QZPH97oJ9ui5NmU2wn2aNhqndYzZjJiBo6GR3i2sLlMWm0WBp3SZCrJY7cIznqErSztOJqtlV0oXoAM+gdHSXMHRGTUD9OD1JrVS5j5Nb0dgMOENMh1VndNygc9lPzPI99cf/HCRTI8Yl6YrSbkxpbyXO8cb6J4zvi9FiJyIjG/cseOb4FxZx75ksuqb3PG0bHRExAi+k0YfpriguJfIil31mM4qPAcBSiATzf4e+/u6ibNjS2bG2sa/h2fkiB1y50FvMxHIiARmGkEXKraAWupu6hcW0lobIffU0i57S1T3sDgQcyFnnhCdUHkvruuJTHR4eTIiYukuqmLqq8g0WNBhizhzcXuXOeUXt3bwDcdaITRq5NVBmwdH8bkmxFyLsW2NSsLjUJVIeZmkiWgOsWc/BvHVuTfc1ksuqxkuv9Mch8Q6E+2bFxBrtiynCycn0xVjVDNyFwezsL3cs8HonUmnzh67LqO9vaIIf0gAU0L2jtiBrEbD/MPC19vUG9RE/eM+ZkkOTm5OiYmuig52f0MG0FSXlJTWf3somWLvuQX4JcCOJBRUHWz+6hq8K3LXXyynNgaww/GHMaiosK7NT6aevj1e5f7+JPtlwhIBDwaASexiMkY8GBxHg3OdJX3FFJudydTIkiFwEgQGVFEfj4vNZ7cdfMOsm3rStLX009a23vI4OCwKvqneeiERBkDCfpBcJv4+DjuMMTurXu6PqLfd3X3k46uHvAMMcak3IxF883eNnjQv3dAIPiHjooA3V64HWAOmmk4c+dJnzk5A7AbwQWlfgDCnQuGbjY4E6ZHtRT0zcH05KOiwkhMVCiJiAgjYbpA4ufry/TTqcqNDCBk1cCxI1FHR0dmeVnZfT0gwR1BbyQ25SHG4uT5EBcXTzIyMw8lpyR12ZTlDCZOSUtt+sNvf79/YGDgrqqKSh2S8pl46urrfb21mhsryiv+kJ6R3jQTZcoyJAISAYmACxBwF2m2C5qmZGkb6bKhJp5Cym1o0uSkilaGILHIP2HYhEeE0A+TWYE3BCDtlKBakpQbiQjVfeJaQi5axKrP1UyEhwh7VE7wVKIYSgrjS7UZqUNw05fVvsSXL0mfVjXG0DZ4mR+gsEZ4/ECaTnXI4e/jtI+wBJswtymx46337ByK8ot27H519xWoVqFIvmmTzMNoPC1YGqFaJboSPZosWb541/YdV/0f+bp743Pbnbd/t6er5y95l/LPDwwO8vE2dZ3N+jY38eIiDqXKmVS1hJQUFZPq6qoln7zl5oVQkiTl7j1EZO0kAhIBywg4iZTzvQR3Hrwhh43fTaKtT6VO4fC4uCxIuQEllWmgQbOCGwyiAeE0eBp9z3+ZgsM73DsmGSiEnPIj1ha7jmsqQk5vD+wh9tNCpQLLivyZKjl/h+u6Y+vGhUScMj97lVak8rktYxF8dc/r6+sDKTkaujPKbc84M1Vz8fHxrQkMDGy1pS6zkTY5JbkdfIej880++ATPRB1GRuEmaRA8Q42MhM5EebIMiYBEQCLgIgScRMqNa2eDYwcXNWtmsnUJeC6ouj2cgFfDmLoi3zM95nBFCxMzSitb4UDNrCxBdaYwPjU4pWgrCLPN9XT4BUMPoaScEXb2H1S9sf2x5x3bS5kLbxx8/8C94A3kdiTlVJ/aEt54KBRqT0jd0bsOP+DRG43xcepyFL2thEDUzrj4eJKQlHABguRgyHu3f6CenZ+48fpj1153DW0HdZ/Kh6G5fzFysIgeLNKK98S/otHUM6ui5QO5Qd5DECSrr3eAnDl1+od7Xnvjq24PkKygREAiIBGYjIBLpci41bgB6C5to6eQcjfoB1kFT0UATX09te4zWe+aqprQzs7ONRDQBiJqqamnmVoI1Qzu6pKm54bPRqsm/A2DPvj7+aOP2aGZbI+jZelCw0ojo6MUVZIpz4MmBxQs21LkU/VBxygN5NHb27sG+mCFo3WX70sEJAISgVlCwJW80h1IuUthdSV4Lq24zFwiYC0ChkBD1r5xeaZrbW1ZnJOT85mGxgYuFRYxcI3xECccKh1n7JPp+yMp5xJjRXIOOQVC9E6Mlunn5zc5LKgbQ71+44Z/rVq9+ifqAF2MmLN9wdSqRLGLULUJdekFFniOYWcZfsvA0wkcUVmrrLiEnMvJ2eDGsMiqSQQkAhKBqRCY88TZZPl36mi4zHTKnYqdzMydETA2srMjwpI7N841dRsaHA5vb2uPGOjXcy83opxpLhoU42gmLVc/TMWFGREbe9l3TRucmWtYeFiVXq8P9dH60EBbIhKw2t5VDDM8kLDziTkDcPY39NOOrFwXqoPbAw3cHvgRjVZDfMGrUGBgENH6asmChQsqdKGhR53ZDpmXREAiIBGYQQTmOil3afs8gZRL1YMZnE1zpSj1rAkOCu6cK+1yZTt6enpiK8orSW9PjxmCad73iqK1IXTKVYxVqGkgoZ2YwHORZ03leWmpHQ31DeeRPI+BK9LxMQxYpdIth+agJJzZwppvm/AWgN6DfPz9KGlPz8iAWwNfEhUdORIQGNgTFhZWmZCQcBj+vQjqMgW+fn5yvLpyoMu8JQISAVch4FJ9a5R7uKri7pKvJ5ByF2GlWFrR/MWtNAteIx93QQDlq0LCSn3OW9k5ar1diB7Z4C7tced6DOoHw0GnmQwNmY/gKeo+OXiV+VYJw0+hvmF977kPSiDdHk7PzOgCw9ew8vJyuiVQqT+3H4+IjiS+QLD9fP2It8YbfOpHEB9fHxLgH8D+7ufXHxwSUuLv718dGBxUD4av+sio6DqtVjMcFBTQpfXxGYDvunQ6XQOk7QaS3hafEGeba3j3gUvWRCIgEZAIzHni7MouvoxIOep2oi6noOBMwkVJH5dyMd1jjcdJ9Fw5QGY2bypy5Idhzr7Fn5SK4B8EZ5l67qvIvJVUfmZb626l6QcG40BaTgnndEaKthBznGeUoHuglAMOdAOP/s+jl1rbWreWVpQZdRmOvggIwBWiCyGhoaFDPj4+QxkZGYXg9rExPCKiAIh2cUhISE18Anidmee+AZPcbRzK+kgEJAIejYAk5Q50nyeQcgcJFTO0YsZVPAok/OoNxK69s5ecyimCoB0N1B0Z1XqFJNZKYx3AXb5qBgEjSg69rvXRkIT4KLJ2ZRZJTooFnVwW6ZOGZKVnKweHhuwFBYH83Pxlhw5+uMYLvXMzFq1Q6Alwb0gfrqJiykzZMQlVO8yT+ZHhUdLfN0BGR0Z9PRHym2+/+QcDA/3xm7dt2gq6361AuhtCgoOb/AP8u+DnbvAqMwoS9SGQlI/4+ft3g7eZgbiEOHTyLh+JgERAIiARmFsIuPTQ4QmknNIve/sUCTbTAgXS4KXhfpe9yOkLxeTFl/aRisoGMjwySsPXc6bHSIl8ZgEBg1h8AnRVNODJQ+vjRfa8e5TcsHMjueu2K8EoDkcD814ue8l5XaQfGIiCYEGJ1uVocn0x6TbDOBf0WT46SueXR3p7SkxKOD00NBQWEBjQANLvZpB+NyWlJDPFe/lIBCQCEgGJgEDA1Trlcx5pTyHl9ncE1wFFgywk5xg2vLa+iTz7wrukuKyWhAf7kezUSBIe4k+VIrgs3f7y5Jt2IcBOXcxDB1N1mIDDEiFtrX2ksqWLvLrnIFmwIJGsXbUEvudGg9YH6pT8fZpeAbWVhMHBwTg2T/ASwnAOVquyTDodc8NHkUZ5j7pJZIV2dHQSVItpa2tPs2twzPJLiclJg1AF9Feu+Cyf5SrJ4iUCEgGJgLsiIPdbB3pm7pNyZAYa5keZEQYv0tndDyorTSQ80I88cP0ikjUvElRWIA01JLRbKO9AN8hXhSa5UIGgHrKB2HX1DJCX9heRSxUd5HxuKVm7OptKypmcXPaVs0bO8NBQ6NjYWAg/G1nM1hbUUQMGpxNKykeGxwiQ/vTmplb/2LhoJLnykQhIBCQCEgGJgC0IuAPhd+ltwNwn5djdNK41VXilnV9X10KGRkZIRmIESY3TMcM2qnMuxoYke7bMEmekZT3DdJnHhVI/dEMwHJxS4kPJxao20tPbD30Fdx0YqAbc5Ejdf2cgz/KoqKhY29LUTKitMzfMtOfQo0jMedXA24ii+19SVPIgeCCpgK9+7byay5wkAhIBiYBEQCIwNxBwe1IOfn6ZAgonzo7ArkjB+VkL7dfGhOcVykSoAjpjJYoXEFaiIsl1pALyXYYAFaEy40GUhtM/KecgritO+4WpGyH43lRVBY9OaBuAxNw6DywccnnKmn7saemwF3IIOuAtycVVcApxuKX8eT/i1wMDA37tre1rp6+KTCERkAhIBCQCHoiAS6XIHoiHzVV2e1IOvnuHwHcvXncH22vZx6IJUupHpaxpqQkQQc+PVDT2kAslrSQtNoQEBfgQby2E+BhHDywstUq4zn+W3M7mEWbmBeFOj6KJqij8PEQPX/RSg91q6PVjpLVbT/Iq26i+f0x0mKDp8Bu6rpTunJ3RH7QbBB3nPFx9c8FchU5+hB9ycQPF8zFKyIys2VNSUEQ6Wtp2tLa0+kbHRE/tDN1ZDZP5SAQkAhIBiYBEwEMQcHtSHhKi64kIj+iGjT9KbXxmNb7oxk3wAioJ9yJxsRFk9cpscuzkRbL7o2ISExYMwT60QMqB6o2Ds0SpF2E1vLYm5McdTtWYFFwtkWWhgliHDQ6OkY6+QdLVO0QS48A14qpFiiEuKLnYWrRMPzUCJrp6fNJMdQ6dwv7CnB/zHghMBE94Y2Pjivr6+vzExMR+2SkSAYmAREAiIBGQCDAE3J6UU9bGHIzb9TCCh6JYw+u6kCBy181XEl1gADn08VlS3YLezVD3dYwL/VhxKMEdB7/NBu8TUlJuVyeoX6IiWSaOZaorzACXuh5XVIfEC/h3L7IgI5ncevM2kpGWAH3B/GFLl4gO94RpBkakXFEXM6HqSs+ovK4oEnOTHE2JeVtrK3jTaSWF+QWfiYiMOAHJX3R6K2SGEgGJgERAIjBbCFjSeZyt+nhcuR5Ayh11SM3UI4REdgJIHf66YGEqfFLIZx+8iTQ0tZLO9h4a4ITKX9V6svxn8E1MoiLBKJTrQHtcT7tThaEDerp6SHtHN1VHUT/42zj8VQOBg2KiIuETSmJiImgHUik6PxfRfrCgVmGmqRaopTuBMut1ofdDlEjj/ww6RWYrpnaBaE4qLoi6uN1Sz5sD+w98OSgocLMk5bPe57ICEgGJgETAkxCY85JRTyDldMA4xKooeUNJOBt7XiCWFSoSoUGBRJeRQkiGQvsMA9QMOfek0eu+dcWOEHFqmEGn6GFqz6m2I8RGKL8r9x5M4V8+zkRgxgAtLS4hGq1mQV9nr29weIjULXdmL8q8JAISAYmARMCVCDhER6ermKeQcq7lbQ8WgvApiuVcGsigURuisbApqkdN/CQJnG4s2fC96Q2XoV/Nq/PPGF+0oQ1zKymEi+/yg3CptqpqWbo5UkvIDTEC8EDsRW9J4An494svPv/2rjc/vun2m5+aW2jK1phDoLayxmd4ZCSoq7MzEzzxxLa3t2fBsuoPqzBekOEioCkqLFxPRwksxgFBgV2pKakX4e+j+AkKDmr29/NvC4+IKNNqNN1ZS7LbLlekSwtL0k6fOfNQSkpKztbtW9+4XHGQ7XZLBC6HDdseMmpVZ3kKKeeNcQ4OzsnFKnxlIicjIPvOyYDy7DQaTa+Xxm7TDZsqNTzEhOPV1dV3QblD8KMk5TYh6JmJ9QP6pKGhIV1nR+f67u7u7U1NTduhJTo4tPlwUk6KCoto45CV60Bl0Mdb+0n4VQ+7/EBYWFgFHB7ztRrtO1qtFq2Gj3gmEo7VuqG6PgywW1hbXfNQaGgoEiBJyh2DVL7tOQjMecLvYaTcc0aOrKlEwJMQyM7O/gB8iN8GdQZFrqkfc5Y8QjJOgwWZPKbSdDSexufNXW96JSQlPvDk7//stXBR1ls7rtn5+nRly+/dG4G6mvrgyvKKqysrKq7Oycm5vrOzM/TihUvBQMZ9br4B+DWQbe8p7HJMbRAO7v8wAFocAGMoAr5Lgp+3wedLiMLitGwSHh7ev3LN6qb4hLiK7EXZ72Qtzn4ne3E2Bqiac8/uV3Z9q7+vb+Vtn7z5ntGxMdKvHyC33Hbrp6ChP3RFY4H8BxcVFd3S09OTDYeA7NHRUT+Y36gLCkF6x8cio6OK0zMy3l+/cd3Hrih/pvI8e/z0NjBAX1FeUXFle1tbRntrW3T/QL//2OiYd1lpRSCMXe/+/n6zEgu6FhoMnYivny9ZumJpv6+v71hAQMBQVHR0W3R0dGVsfNwlXWho3tXX7rwcjNtdSZxdmfdMDbkpy/EUUi4FpG4xXGQl5ioCPj4+PRqNdxOseBnKZFNtNtO1W/HAYqOa1/DQEIFN//q+nr6S6cqQ37svAs2Nzb79/QPRzU3N2aCWcidIwj8FNyJeQGhYpakWoX3LOH2LGiAbmZvQbEdAHWZQP5jR29OX0dXZFd7W0trYUN/QlJCYMOC+aNles9bmVt07b759U39v31YaNwDnGRjgjI2OohW8U5+mhsYAmI8J0JfpcKtxZ09vz/ae7h7dGBwE0BsWc4gGxvgabUtbaNtY/qWC9sjIiNK4hDje2U6tjksyA+LtPTigDx4Y0MeUl5Zd3dHZ+anent5MIN8ExhPB2zw4hJBxjB5t45oGYz4IDi3UYH6gvz+6x88v298/YAfkdzD3wqUyiL3SGh6uq4+Ni8P4K3PxmfPE2ZWd5imk3JUYyLwlApc9AivWrjz10gsvHwcx5ma24RtCM1lDpZCU4wc3I3ym8lKk1luHQELk+Weej1q2fNn/vfjM87HLVix/dtmq5TmXfYd4CAC7X3/j+yC9Xfzlz33xViDiAQ0NDbTvTd1kUjHjJFLOaLa58WVpzBkTcy/S19dHjh89KtBa4+Pn9ypKK3/43R/mxcXFnr7tjtu+Ep+UoPcQOCdVE24eIl9/7bWn/+eRb9x46fwlHzzkCGww2nF3R0/EmeOnr127ad0+R9u457U3flRYUHDXfXffuxhIOcHPVA/YY8XAbH8UbiseDQoKGvjLE08eTExKPHzLnTf/xtG6uOL9U0dP3gAxErYdPXL0Mz9+9Eehhw4cDKDR6hxzI2G01o0Amc+/kGdqnYbN8YPPDfxD5mfPJ5//zEPd26644oPk1JS3tu/Y/oIr2jxLebqSlLsy71mCy7hYTyHl1vACtwBUVkIi4KkI+Pv7tep0OjI8OAQf64U4isqBmYabc5cokjFf6CxYFBA6cjH34ldAKhWWcybnydVrV6Mfc/m4IQLVFVUxJSWlNw0NDqWfOnHy+8PDw9B/XSAVVAmnVdJFc24xWbOs2F/VYZXpKzho2HagGOmjFF38DaS5o1CfyrKKJd2dXUsOf3x4fP/e9w9dc8N1/3FDKC1Wqay4LLG2tvbKQwc/vKuitPwmUC2jklvmdYpvh/DPCMW+ezHcDhyE2wE0iLX5+fCDD+8ZGhxccOLoif+tr68jIEEmoyOj7GZiqi7ivoax/729vAPz8/Juam5quubIR0daIiMjcxYtXZRvc2Wc/EJhfmEGHPxXNze3bDlx/MRdHe0dsXU1tRxLY1ox1Vo1qVqqbrCnynDzALccY6GXLl68o6Gh8baXXnjpxoioyGOA29k161YftydP+c6MIuAyTuoppNwxtKlrQ7EJmPP8YcXm4FgN5Ns2IWDoI9O1z8610GUTyKZmuXliXaiuIS4ujnS0tZN2IOXW+ORXR9llGgoGqNXfWQwwBO+gjnFNVTWphk9ZWdmnQY91eUVZxU3pmenVbg7ZZVe9nFNnd8Kh6ea/Pvm3r+BBqrerm2KgSG/RbQoPLGWtuorR6qsQboOuLpVlqvIVyr3jnDUq6i2QZmxkhIwNj5DcnHOUvF+8lPtfUVFRD546cbpFpwupBH3zcnfvNCDk844fPfa/p0+e/sypU6fpIXkU2iUYspqX9w8MELiduD4tI+01aFetLW2rrqwJAy84yY9+57v/BDWggIoSporPZMf4Px41gp6DzCyhqMICfx+Ewxh+Pv7wEL7u193T9RxIzA/Az1fbUh9npy0tKl2w//19T164kLsj93wuGQK1FIojf1gQO0YNrFmrKDYY5Y6fVOg4t2JnUa99InlLQzMtu6K0Asv3hnzuyspeCJ+sjtMnTj+QmJR0ODE5gYZA9sDHlYTKlXlbC7UVvW5tVpPTzXlSziaEahoiP+czCQMJ4Y/UdIUqysGEM++Tz36E5ZtWIiDGOVVYhH5h19r0r7AQsm7BjmLphITVysxlMisQCAoMbEtOSh4dHR7RYuTNKVVQ2IyZpKagLka9Gak3PWU2KhFdWY/i0wYSwcLCoqXvvPX2Cy+9+NIHV+648ldx8XHSl7kV/eeqJHU1dYEVFRU74fPJt998+27Qxw1Gt5ZoDyCIDZ+UPCivEIKwGllzuDOtu+l4MXcbw9YEthIgAWfLPJTNFg06QAf6+knrONG+uWvP3qjoyCOnT5z6v6joqIL0zIwWV+HlSL67X9v9rff27r3z0oVLaxvq6qkkHGwqaZZiG1PzYz2Q8vr6+k1gmIiBH6wm5XDojftg//7HW5pbrgUpfADqi1O9fVQ9YojCr0wVjUGpoGtUF3NtBUNfvDnZeeSjww+EhoblLVu5DE5IM/OcOnFqG6j4xIBx8edef/X1tcWFRVFNjU1wsBmGgN1Mz1vREVdRKxaMjrXRSNDA/6aMYYVMGNJOO77N2EOomSU7VBLSAWtfMSmK2LP7jXfA81D+gX0HnoKby4J1G9fR044HPe5AnD0ILuOqznlSbiDkYhKxVWZkZJi0d/WR8xeKSUl5Leno7MHpChMSNfXkMxsITKBnBlidxuGwBC6LiZ+PD0lLiSVrVmWTxIQYEhjgB+cmMDYa1xj5l5+Nus7FMsHdXHNSctJ58ECw1pr2CdI9nf64Wn1BfUhmGyGL4EpnJfze1tpGWtvaSH9/31aoz6ZFS7L3gyQwLyEhod+aOsk0zkegvr5h25HDR35/8IMDaT2d3UTfDyranK8JTypUaq1+BNPg/WpKdqytpenYUv8uiqRjio0gRWQvWEF/7wDBz5u73vABTz9X+fv5hYCnn79A4uesrcNMpAOVCh14qsl+/LHHHwOS7F1VXilapMwNZS/jh1n8AiTdSMoD4d94a+tZcLFgCaj37Diwb/+n4aBF+rtVU4udtCkhRyKuqAWpyalKp8XoUMYrUF5aTsDwlxw9fPTJlNSUf8GfZ4yUnzl5+mtgZ3A12DpQw1SU4LMTBltfWHuU4w39WRm6yjgyHCQnCxP4u/yWxlrM+ehUJWf1UMYw/AaHXfqBgwR+txiMTv8clxB/GG6kToDrS+v1CW2plOelnfOEf86TcroZoNRVmUtAyEE37+SZQvKPF94mjY0gEWSJuJSHrkqeN1TnQI2xj4w2AmjTh/DZ/dYRct0168ndt+4gwcGBqkV1DjTajZoABpYXjnz48a86Olr/ffHCeT8hUaJXtvThB1tRZzMKp5b1h43VEVh2LD/u0MGwScGf21vaSY9vj+afT/3zUEREROGH7x/8XVhkeNmqtatOuRFkc7oqB/cdvLelqXnHM3/7x+dAZxmMCrsIGrIJQbRYW9UgmFVTEoQOEmrhoB0cHExCdCEEJNYkECIq+/miDZzhEbvu2NgoQX3lPpB29/eCxLu1haAurrlDIFux1aHgWH7qlRwJz8EPDq6tLK/8++uvvJa8avXqp0FFiukRzNKTm5O7sr+vP/VPv//z7/R6fRqSceHH3zDj2NRTjh6cPOK5CEl5U30jHpSip2sC9KFPY13Dlnfffuf3hXkFy5pAhWJIbzAcNdw2QM70fGNATyHnFFT+d7zRFNJ1rl5E5zPUFcfJiSPHg9pa2u4FFY1fps9Pb5iufvZ+31jf6HNw/4GfgKeYdYc+OLhjGNSXhkFVxeCqkOWMPIASYV59IRw3y/KUtYklNkjXjcTrFKHp1jzBKIwPlGysGspWYU0PvF7kzMkzOE+2NTU2Vzz5xycPbN9+5S8WLctmjvzd9zFulvvW021rdhmQcjzxc+k3P902wdX8K7s+II0NrSQzKYKkxgWTAF8t1w9DAjLnD2NuOyBRnciLqxeNgj/rxuYukl/VSd589wjJSIsn27esoQsWXw3dth2eWrGMzPQDERHhZ2HD2swOSTP/4DTVg4RLDwK8U8dPBoSEhKyKi479Vkxc7HsgNToHUiODYujMV++yKBHUU3xf/NeLDzfU119x7PBRpifOr+EpuRC8zEY00I893ICQsPAwfXJqch947mgBzx2tMM5QRYnpabDHCwwbA0BaGNne1h7b3tYR0N3THWxjcUbJUd2mqKAIDVJ9ff19v5WWln4MEswqKQe3g1eCVPlThw4eSpsAz0WobmPLAxFSCd5ewL+66d7r7urOqKmuuevi+dxl51DnXgBt8qIz5jyq3ZSXlRNwtRoBh6Hl9dV1HYmpSU6X9jbUNfhB+9Nzcy58raK8Iqi4qNg8DBbkbGq5+XT4Oft7y2WzytaCQaoXzJfqmtr49PT0+7PmZ52pLK3sT5ufZrWakrPrLPOzOG2cBs2cJ+V0/6CrDG4q+IsXqKr0k/LKBhIS6Etu376AJMUGES0PesIIvDOWJaf10WWRkfGFIur+wQ4N/dUGKkY+x6vImcImcimvEkg5aFZ4oZMBzWWBy0w3MiEluXvvW+++tOO65s1gcERgI1ck2vZeIDE9VX6LrPaUISTtZozIhFQJ/Pyir1/y7HPPLgf/vstff+O1L3/nm9+uWLdu3b+XLVv+OrgWq5ppjOZ6eU88/rt//fwn/3fjxx9+HEXVi0zcXLLlVFw9GqSmpiRPSBc3XbEFpOLRZOsV234BurJnM+dnfqDRaoaiY6OtPlyBn26vjvbOZJAqxx8+cvhfAwP92S888zwU6UWNDSe7CeGyc64XLXSGsdbotrHl/Tadj6/vK7te2fWb2+++/dcz3adgxLmptrr2un/87e8/rKutI/rePq7HzW1pVKoUCq58nqj164fAU0ozSKW7O7tTp2pDWUl5EkrI33nrnWvBKw09YAnVI/VuZ8ngUQQFM1LnEPVRjwccGioC3AaqaO+///6z27Zf8WX4apezcAYyrsm7eOmen//kZz+7dOli6rB+mPoXF2NOHaDKyB6Br0Wsyqzl5shxfFIi8ff3J5u3bsYAVZ1ZSxZ9Gw6TFQnxcRd5G5hEGP5bX1e/EvXYc89f+BOozkR+8P4HBG49SFdXl9LcyRJxU46h2gHFtT4ehEEFB8dGfu5F8r8//NEfV61d/fPnn3nuuS3btj4Gtzz1zsJT5uM+CMx5Ug4KynSR4JdQMBE1pLy8kYyBFDYtIZzEhftzQo7pWFAGqkJhRMzFKjMdWTc9jk+X3nggYKmX24GAIqQcnJiWnbg2xc02KjSQzIsNIeeAlA+NYGwKFN8CIZ/GINc25N1nQrpDTYD8NsEGVACqBotofdQnJnsraJY4TZ+Z2GQhsAcZ8hsmPs0tupDgkBV9vX1Vg0ODh3q6emt0YSFcw3n6/GSKqREAPIMef+xXN7e3d4Qj5uYMdG3FEMZSS2BQQCGoqxyA6/iauMS4qR1gmykACDyOwpr62oYW8BK0G0j9QvjD7erV3dp6oXR5GFQYQS0mGnysb2lqaHoKAt/MqKcLkCTroOwdiDE9+Nrx4G6D82MC2jI2PhbV3d3rFRoaYnbpA+8qYRDcaQOWBe4P7SjN/ldAxSYGyo+1P4fJb4IXlUi48VgDxDe1paUFVGZQmGZBHG5Hwd4azTisfx1wK3cmNCy0ICYm5mhgYEBLYkpSh2l2NRU1Z8DgNhrS/VOr1WbCZzO877T2ijUQgnIh0Q+BMXP70NAgRgZ1V1Iut187xpx4Ze6TcuR8eDqmZJvaXsPJF/WSCens0ZMRkAL5U9dPxpQYRxWd4twYzaDRNxltlg75PDtzs6Vh6gVCyd9EKm8+lIYDPexmrwqsDJI2U6zYscSLku5xgiosA4Nj8BMCjG/TrcgqvYpxLrIBf1OStNkwDnZcu3NXbW394cryqiq4eg4UKuXURRqdR1xERMc8lzZxqZmQcKslk1i0Op06LLWolqkxqLkgREgmGmoa6OfoR0dv8fX3uwU2zqEvf+7LzeER4Y1X7tj+V/8A/5Yt27futaG5MilH4Pv/8/0PH7zvM1srSsu0QKLoXDNzicFSm3zBTLSZigtKxcENIbnvgfueTJmX+tqajWs/wld++JMfOYw1uIlDRvkDzKg4ryi9sLDwjl/8/Oe/Gh0G/XOVfrTCCvjgpaOWS0npGgS/7n37XbL3nb03BQcFPwp5PbtwSdaM6euCVDeyt7d32Sh6PTF5lJsIbpjI5gbD1hh7g4y3orz8jtMnT+2H7/9lmt+xo8ev+8oXv/QSBAMK7ecBgZhrP56SCzjG+B6ooaIh43ltNM/5GqAux7Cf4djgNiiQrgcOHadBNzprUfYShzsfMqiuqgp76fn//OP/fvTTG44dORaA64zWC1RPTetrsuYYeVcRuwE1ZmFCOLg1oZLxHVfvmLjq6h1fWLl21fMRkRFDb+x9Y9pqp6Sn9EAi/HxHJC4rKUs5cfT4Y3Ajcg+6tUTdfbU7RpFO2GAY8DUUZ7qWYrXBkBU/8cePHj/53W9+58znv/Tw7RmZGe6kziIJ+bQjZuoElwUpZy72uHAVfkiIiya6kADSCGosh87VkXXZcSQsGCalH8ChrHOCAAoCArTQolNS5pvXG10soiAXVCvauvsgOIDRUqWabYToArUECAQ9LDAiP9fpOGs+M7ZRQYFuKHEdp5sO/ABqRF4TELgCfu7qHyEltV3kYnkrXTiTk1D4gEuTOGBZHtx4fanYI1nlTdbBmTTHXgdpeVtMbHRlQlLCYnTVxcKlT15vTQ37zLmuswSNMBKj/a8yFJusisByMPX2gpoJ42Njfl1dnSlgFJhSVlrmC3MqD9zeDWo0mmEwIuzy9ffv9vP17QKvMjMqCfWk4QD+qqMg6MuGZ55+5koMADQGruMMhM1A/NT9NUl9BV7Q+mjBiDOEANZkXlpafmRM1IfBupBqV2EREBTQBrrphaBvqwfpYUB1WaVCvKkOPB8zRusNH8UGG+UJ0tTc9GmQ4FfBVzNGynGlg4+vOWyMxDlmjKnFO6w/2G8jI6NasMPINM2vsKBoPuhZ7wTj0TDm9pCttpaeaWXNU9VH5CzS4F4IQhU01oVAOUwS5sBTXVmlA/ec20EH//bODpXAmi9L6vE56YZHraqiaqQXEHNUzQkOCSaZ8+ePJSUn7wJ1lUtIyB2oKvH19e2IjYt9NzVtXgwcTLZDUCZNS2MLrFfIEfCAyHNX4an2dEPZh8qg1qgu8Dq6wgTVoLVgI3Aj6NK/lZ4hVVkc6S93enfuk3IwBUcJNiO/VPYDpDyKrFqeRQ4dPUc+OFNNjl2qpxMTiRyjiAYrfsoTqX6fmPmTuw/dgcHbqHzJrtDg/6Pw8zjVZxSeK4zf03hr6DcsZ8PiejkcMxVyxXtEQCuEN+OwkIs0QyABGxgaIzFRYWTZMrbn0P5U67yYmVH0Wpeedwxuvdxp4rl7XWJioibeeG33U/MXLrj9xWdfuHLQiJQbb93mvGEoQjg12RaNVm026o0U5yD+jn1nLk86fxVPMDDHcLMfhgAx5y7QOQQBV1ZCh68cnxi7PxI8e6Slpw8mJia1QCCT3Hfe3vseqE/kb9iw7rC7Yz/T9Xv91df+fuzIkVtrq2pBf19PD8SKKgBbAI3UWNQHKNFPuNbFgoQ8e+lisvPqnT+95Y6bf/zz3/7CpU1JSUtF6eTbB98/8EXwT/2ryrLKOIXMTCKPrEV06AlJL+dGB/Z/kHjq5MlvwTd/dWmFVZlj0TDWVeJq9iXV3eZ1Z+Iaw2M0J6jwhyeANoEbUzAMrNkK+um+cChS/PrveX33U82NTTvQmxFbNS3TbpSQW3qUfjaxLzBNz5ZcVmtUKME52gFeb4BEhjiK7X9e+M9z0JZbUGeb5s/17tVlmnPhqD6gsVtzVhMmA9IQ/2A/sn7zhv6HH354LdyWFDpaT3w/ZV4Kqmj9Gz9FlwoXPf33pz860nM0ehDcc9K9ieMkDo5i7RP1wr9TWwkVnuKGB2dncQEYtFKq4fUkrGufhWTrnFFvmcfsIzDnSbnx2swIczBIyR968BMkPiGSnDtXTLrgSm8E3CgNgm6eIO/iKEvFGXC15QNSIEuCcmFIKlRYcC5pFFZiqZNVKwMXRpmT7Mz+EHFuDahHDyopYAuOflAPZxkm+Wa+j7mvHADe18eXhAYFk7WZyeSGazeQhWnJChlXHZPMVlDZnKEcCBnt79xWXB65pWWknwgJ0XVB+OcrkXQNgFs6ax+FbJuQIyNpq2lmqrSmajGGpEY0hY4X5VEkdF40WAj4e/YfHx1P6evtTQGp0jZoS96/n3vxqMbbewCkWKW+fn69ICFtgqvrnsDAoObUeSnd1rZvrqQ7+vGxu97c/catqGtMJeSMBhg3T/0rZ4IKfYPfwcMGiU2IJWkZGWT9hvVPJqckvzeT+MQnJJyOjY/dD+TkAT0YPg6CFNHcQ1cZQWYhgTgbdoGrR5Akp4D7vsComCjzLzu/QcoZgS//HHr7xDKom97W1roAJNIBkBEl5RAlN/ynP/zJxj4wlDb/mClLVMaUn5uZxyJPSwdo47lJfOyFEFw5erW2tK780+/+cAt446HZKARVpTZH1wwzknxLt3A4bqNjYsjSVcv0S5YvfVoXriuzt45TvacLCy1dumzZP6DWDx099HEMGCuzNkxzO0jXStOM+aFS/BkOKWhUujb3Qu5VoH5TuzBrYakr2iDznDkE5jwpZzJsSnfpR/gsj42KJJ+99wZy3c4NpLWlg/TCtW1fP4QWV6xCuRU8kMOQ4CASAPpmUz242I/Df2iEUOrznOmoW37YgqiedkwFZqp3Zm5guKokwx0EK6ETIwOOjFKiznqILbneGi8SAleKYbpgkpwcSwL84KYXsEEpA/OPY83mxdK0tLZYHVjDVe32xHxXrFqBftPOPfzZz/8Q+mNhVW/ltM0QXhpQJ1x9+KJj3WTDVG/mQppFe1+1WU2SfNE5wx5hks3YlSFSH8470J+lnyqi1DkUEm2GoCib8U3QcQUfwLqJhdlZZaHh4RXxiQkfnTp5+kRCYuL55ORElMDO+Sfn9NkrIerh3y6BZ4em+iZl9pkuW4p8gdvX4AUgShjxQYezWl8fAl4hRlatXvX4HZ+689GZBm7RskVFED1yV0ZG2gPgCYPUI3Gj+uMmaymu0XwvYOOKrTnglhCrrK2oqNx84Xxu84qVy4WHDdc1hUrJ8Q6CB7RRScfpHJiiZNEfYh3E39GHO9wxxUJkzyj4lR4ugchmHz9ynKqNMAm8avLwvmNliVWXJzFTuHoMmM5j04O2soUZAjBjMXa7y8rLvfRp6NfboS0UFbpH0grxf1HWxvXvzdmi0JRC6qwCF1T0SEJiAnnoC59fHxYWWgJrgNXegGwZGAnJCSMNtQ0/2rBh/fPnzpwu7BvoBZ7B3TTz20G1vYC6rkYiCL4uGtgMIRCZlVbl3TffeQ8MTd+AHz9lS91ckNaajdkFxc54li4japcBKTcW87B1CdVUQL0E/o2LiSDx8KG6zoqhpgpvugBMPc4UfXW6uLGrdyVK4eUyRK2eEwJbU2AYdgYs8X6XdwlbVXk/qLC1sky9ftDhq1Mri5qTya657to/g7Rqx7M1/7wFN70RUCkyfSbpcKo2QpHWVP9cnYepvrj4TslXTVqMDq5iizLkpkxXs8smI/BtbRCcqKfPa2hoeD5ImOYH63TXgD/0epCcFz/95NMlvn6+PfFxcaV+/n5dIFW/BLrq7fPS09rnSgeDX+d1Fy5c+EZRYVFYNwTkUesnC9gsWkdTLsTmL6oJhYWFoYHcF0FizVjTLDxAqirxgAX9mVlfB3FqxLUmb4yp1NHod56msKDgOxDY6H2ovstJOYx3CGDsBZeEExpKJE2EMcYHWlZBEfaejXhjwQQeQHGfGh0eQUk52bf3/ftAenobfZOSOUOniKJCQ8PoLUdvH+v/Ebhd4vo9LLHqRnOqLrUkKcc9FW6jCNw+YBCcNnuHxZGPjnynqaFxMZu53L0q3Q6gUaYqHmZwND38i3fWbVhPQOd73+LF2ZfsrZu17wExx0Wz6JH//loJ6MMvOHsyh76qqNVyVRw15qa3hcrvahy4KsylCxd9QRf+JiDpKeAqscbaesl07ofAZUDKjUEXUSNN5djCiHPShZEVpNpgu8il3+aundyv72epRpYAZX9X24EaqQvxXcUul5FqReRZarUnF3vH3Xf8uaSw5J3/PPf8VeAtQocR82hfCQmb+hqWN9SyTvhkpmxK1i1u8gJEE51zsQ8z70eCTLAaTlLF4InbwHgVH4xUKaoM/ybhJyoyageQcrJy5cpRIBMdy1YuewY2vAt9nb2vBoebdznnSf0LESD997+//yuXLubdWFQIuqmm65UBUJNmqSWqnJTDjSO4iyvccc3OZ2YTAyCY1VnZ2S811DX+kErJ+TJjWG3YMYLqIRstQQY3tEUFhTugn9G7y29c3hZGyoFnMRsKoxtSVQUNcwFvggy1Yqo4KCJmUmDw5EIGBwfA4HMkCFOBxP9uCPx0k5GEmE8JSurhPZCskgAI5DQ0CtEv8bCNpFwQ3WkEUcqkmeJmF8uBIE0EjMXHYR7l24ppVWV1CBgep3z5oS8sbmluAVE7n99cQKNIjFEIRsEBHEW8ESSr4iAv1guTNq0FyXVcfCwewmbsWb565Su9PT1XASnfrNw+0H5hQqdp6QaeQ9R3G7RNE+RS7iUCxqmBlWUVtxVcKti/aOmighlrlCzIqQhcdqScr0sWQZxMGaadJk7tEJmZKxBw2U2TKyrrlnkuyF5QtefV3d+tqqq+74XnXtiM+sdoxCXUVOj1Md0eVMTBLLkwbh5VW+GbpjDcwjwFmTANcKIc1NQExTS4DROp0drQLYtxF6r2JK63xTpg7gDQ09NNI+mdPnVKC15cYk6fOv1dDXoWCQn+y9e/8vVO0EOtgLDhJ+Lj489esX3bO27ZYRYqVVNRHZZ3Me+WF1988f4e0CNXjDpVU0RRATC6WufejFBFD/L2Q89R8P0j33jkXlAzq/jbs3+bVRjQ6PP8qXP7QH/3ERhPIWI8Ch5nxMf4eBCDlX03QXLOniPR0dGrZqIhUEdv8EwCw5urr6gKVc8l9Q3UJHUv1ckDJORkHGyiqiqqtxdeKur5wXe+d1VjY6OReqSYnenzM8CeKo7cducdvwYj6Pe7OrsSIEBXwu8e/+2vB0EnH2wxuPqPWlXMUEFzc4beDvN56BfoRwICAsidd95JwB7l+LqN676UvXiRzbcPr7386l/Ly8ruRP/c9OFqK+jRRRws6Byn6web0Qa8BK5c2EPXATbIwyLDCMxrcs31V/8/8E/fNRP9Lcq4+uqdGKjqT7tefL1leGQYbuu4ppwQOiGOfG0zF9yJaezw9iMKdCxDuwF79Mjy9N/+8cT6jevfhDJumcl2ybKch8BlScqdB5/MSSJw+SAAkkhwewARFCE4xsSEQf1S0Sm1QtVrSrSmeZ+SfmvKsPIMJiRtpnViPrpBJ1cEWeFXy0DuIxOSEiMTExMzAwIDlvpoffwh0uTHENjGY9wtgiFkfHd395qa6moqaaVeoxjjQXTpT2oJnpm7BpoGxgAenMYXLJj/FgTy0bvDLAAXmE2gjlEHdcmmrZhCimtcX9bizo5O9FUdPENtweMoVSw2ezNkzThXVZQdjr3IQN/AQjD6TG1rbQtiQYkmT4bQUB2JjIoqWLBw/j/TMzNKMJuK0sokwO9R8KUdKkaDQWXQNkS8td4kMDgQDH/TfwfGt8fsIeRYYn1d7bVlpaUqA1E2Gil/tXKOm7stQ8cNMGbbZpqQY5vA5SJ6Zem7evMO9C2eLOab2eZYvLFi/WEKA6hpkoqKCjJ/4fxNEAQsEIKqzZTRsnqAuFqKaXXP2zZq3Se1JOXu0xeyJhIBt0Yga2k2eicoO3roSE3u+dyv7Xr19WtQqoybAd0kTK6HLamhiEaa05k00ptEMsylb0JK5k1daIt1ma//Qq+UZ6wYDQvpPU/GXI8ar+lT7iBKWqYOgZ+2hmbS2dwOgWsK4sEj03f+8eTfv3rrdTd33HLnra+DPnLN7Xff8YQ7d+KTf/nLCz3dvatFBERKc6BdamwULsB1nb3BDSW9cVCkeYRcd/21qCf8UXxKgvUueVwMDLizK//jb/+YDwc3IOWsvubCrivVoA1ldyiIwCB4xRjo7QtpamgOjEuIdSmhQYEnjEVwHO5lswGkOASrD0xM2D9BXnjx+c/qQsM+iyHe8fsxJP0oSYZPeGQkCYsIJ3ffe88vNm/b/H+g7qCE9kyfn1a3/7393wbj37/++9kXuEMx9XWU8Vwz7Uqs01VXXUUiIiLGb77r5ltCw8LyMxfMZ1aINj4Xcs4vB/WbL+96+bVI4dubqrhxyTATD7NVwHT+mq4p5oq+5dZbh8Iiwl49cPhDG2vmvOQPfPbB/wCB/s7LL79sUNmkgm9+IwVFMZUcfrZUr618grLLQL6e4YCCNH39feTSxYvRT/35L2eOfnzk0S1XbN3jvFrLnGYCAUnKZwJlWYZEYA4hAGobuaDj+XZ8QvxiUGFIHJ/ogNDdJrE2bJJmWQCHkkX2gXAD7DHanEzeM7Nx0U3NzOZtW3fwa2L4ZwxDmsMHNHfoAweSQAirHdhQ1/DfoN5yuqSobHdwcFBjQlK84ivatrJclxrcyXk9dP9ns9FtoMHLlBog5fRiqITQMeb0x5v6CyEkLi72OAQGOuW62tqXs0bj3U+v+FmXTfOw9grPJFpfLQRA8iGjo6MY1MelpJwPSctnwkk63cZJldspdQuRlIHb0mE0xOYThwalAxKHwSsxQE5cXFwNSK+Pqgm5yCImNvY8HLSOwW3DFgw0ZKrqxaafAViN1oeAfhcBY2gaDTM6JroOjKKPJCQkfhSflGD37REE28lobGi8b3BoEN3ZKvr2SvwC2rHTzWq+AHGiy25OGCwxsTH/gaBTZ6cbHa78HuqQBzdWp2E+raOVQnekXD3HrG65uDmZdPvDxoUYLhNjE6S3u5c0NjQsgpuS9fDVHle2w0Le00+9WaiUk4t0WRs9gZS7rPFO7iSZnUTgskAgIysTVQT+DFekf33huedfgsArd5RAMAv0lWyYrHwHVALPGEiF6YQ2K/FSWAtLrY6MbdiBjK/+RQmTjNum3cCt6zYThx70pSFQccHjCPg/9wEd0M3/fvbFKvBJXLPnlT1/zlqc9VbWkiywpJz9Z9+7++7a/+6+rLzzlwIZP2EGj6xNaGioljpyCR0PZEPJEKTCNGi4h+T16huufXDBwgVu5xMZ28UMAlkbNFwQjb628DEdeyh9xTahjnH24iwChp4o+bdMll3WlaJmBmM/S5WYPL4ZWcb03aCCQ3uUv4zxMrw13sQv2J/svG5n4d333H1lcmoK9QFp+qxYtfzMhx98+Ld5mRlb2sE7UTsE/REPHsZovnh7guMH5PvhEToyLz2dfOKTN762dNnSn4OaSi6m+eIjX7YbpcaaJp/nnn320eeffT7IS5EUc2y4/YkItGMsK2dpjDgrHbcCVx6mD35dtWbVYwsXZVG1ndl6rr3p2hfBjWdfSFDgG+jNapDfNtJAXbzdCuYqfXM+M+kQpT8rw4aPd9CIAkNuAt5qSFBA8JfPHD/9wdpN62bvSmC2APbgcj2BlKuHnoNQo59y5jxVsbnH3zEkJ/wfr8bH4SbTJBK8g2XK1+1GQBj28BGAV7DMnSV7rLBVt7to+eL0CIDO4uhrL792OCs7y3+wX39jZ2cnAYkx2xyFxiMndFPqgSrSWEayDWowZmgJEgK11EglUTTsT6r3FAPU6SRr07d3yhS8DeCdhgwM9KdUwtW0l9Yr9NLFS68A0SuDKIuzqncNfqzXgEHfnYY2cEmimUYpxNVUWgu/g4oOqECEDQYE+Lc6iJhLXoc1AXgoN/yDJqLkG0Op+/oxqW5gUBAjqX7+xAf8q/tqffSBIUF6rdZnJGVecn14eMTZpJTEbpdUzjhTLsu2vSRTKbmp2phpMb7QTpCQg+vK0PPgm7tlqhLh1qcrPCKMsAA3qnnEf4TvqWQcgjWhZHwcIv6ehhuzlwMDA53ihq++rm47SMpXGRXN1xCl3sq4FFJig1raVOoraHzqCwbKgEGX7ag7/w1wF9kKawOsFxDwSpBy9ZzjP5u9FcHeQVwsSM6xtn39vbqmpqYbK8srckG/f6bcubr6QDvnhbSeQsodmxGK0QxzI8WnMtO5g5u+YbgmY9Ig9F5uJoqWY6XLt61AgFqUI4Hi0g1KGeDAhJFUfWFjZSI96j9jNsRYVrTg8kxy56fu/BO0/E9vvLb7qxDg46q//OnJWxAJpijL12eVZJZdIZuXxApCrt5ouIDOoDuJ4wKz5hJ49Q6guEMTeuiYVpB4Fx3hRPlUfxkI+Rh4QLhw/gJ+IiOjIx+Fz7fuuOvOJwvyCp9atCR71qRz7+3dew8EyUGXj/RhcmPzAc7Qqwo+Y4pXG9Ap55LY5StWQOClrIPJKSld7jjiYWyNQi/A2gHyclhPQsHTBrq3jAcSqdPpSHZ2dokuNLQwNiH+/YSEhBPgY70mMTmBiZc96BGEzJJ3FsHVUOgaFhFBrr3uugvLli//V0xc7JSkKSYmunD1mtW542Pjy+traw2CWI4NHmpA0k7uvf/eX6akpLy3av3qI86CLed0ztpdr+x6saiwkGv5s5zF2EPPtmo7AbatKzNQrAyTq4MLBiROA6l+bEJcW3Cozi0OlODpp2TlmtUttdU1MejxBptC+YdiI2PoqskHMeNmKu+oAjaVlZaT0fGx/xcVF41uH/c7q59kPq5F4PIg5SYYopR8BPRCO8E6Pa+gkhSVVJF+/TCNxKmeFK6FXuZuhIC4ooNFiV41e4FEBqQy81LjSNb8FHDhFQNSOnDDRtcpJjG34cjs6tP7Zd+ZECHzPfBMcv7+3r4xkPqsPnns6DwI5ELamlvpJmO4nFfJ30wksVNJ/IQTMNH7yslM5aXC0vsYdMXI572DvaUeTJbLnCDgYxlL8j1+9Pgj1dXVm8GI7ptBQUGNWYupweyMPXU1dRFf+q+HE8E/suHKmx5WGJriv+bawjZ7g8s5cKXXn5WVtXvGKm9jQXBg+ODW227dDoaGvT4+vm1geFgO0t3+4JCgFpSQRkVFFfv7B7QFhQQ3ZmSmTyk1trFoe5LbtC6ZI+DGN0uGKggS5wOqOXCzQYCQ/zo2Lg4j9E75gMS7OSkxaV9xSNFyqtvMJ242RMBFryVbrth2CPSxjwPO/woNDa2aLj9bvgeVmWVAyIGgtk0yGmf5sHGoulhT3axZ3g3YMjNOgxilp6ddjIqKtAl3W9pgS1o4LHaDJ6cLEPjpGlohk8s8SwcumpTjMOlmAL/g8xpvLicqiDd44lkHr0hSbkvnzGLay4KUK54FOAkYBVnKidP5ZM+7h0lhYQVIhDjJo7Pd8rXuLPbT5VE0J9xGioGwyMSAtGvHlWvI7TdfQXTBQfIuww1HQzYjmmV1NfW5sBlk1lRX7gMfvNHgMpDWlnM7trXy/VOoiSnqKLxdRleyyvWsuO0XwV+YRIl5ZRBbtpIBKxPLEsSfXb24DDlTH9JYEJJyNKo8fuw4qEpo1yYmJH4XiAxGvfy5yypiknFRQdG8hobGhd1dXV69ELkTNa5Zf1hW5xF4ml6N4+/x8QnvAynfM1P1t7UcUKXag5FZQYp7HsKmcyfQtuYyI+ntJoaiX8wRckViSvcyZgMAHle6lq1Y/kpouM5ikFbRYvD33nf2xJn3dSE6VAwH95AsHzhIjgQFBx//8iP/fZWr0AFp8YbiwiKVlx82X9UHejZ2WQ3M3ayZ9/jEfJnHREWTjIx0t9GvBpW24Tde3X2oubH5GoEpW9PYb2LpsuTFymz/KzY8XgTU1UDw2IWCkSvra+ueTExO6nBV38l8nYeAp5Byu3dT3PghFIliyITqKy1gxPLG2x+R/KJKEh0aQFYujCOhgWhwzyeCVCp33gizMichS6WBXjg5HwaHYVV17eRCZSd5890jZNHCeWT9msV8kbZpT7MpsZVVlsnMIAD6uOh14TyExn4AJLOphQVFD1VVVK4FHWsCEhtqDDrJkwqV7himuFFnKTcoBgm7OQJsrjOY9MnupUPJ0pI0UhAD07LFzQC9dofPGHiQmADvCu/seecG/wD/G15/5bUQ0MM9snnrlnddPYgunLvw6cbGhv9CYzL0SW46EdTU3FywEnGo8Qd9XP/AACR4uYnz3HdzBz/QeD3xsatxncn8RR+o+0eMLTU5pdJxXjFMi5LtVWtWk/SM9CJrCLloE+iLn0tMSTyTnpF2JbjUG4dbh2Or1q35OYzdhu/96PsuafpHBw7dfurEqfuFhF89LpVDt1gLhHqH0U2b8chW58NsyCCCabiuBjxHuZXHoMWLF7/c1NB0PdR3G9eysWhmrFJmMVqb1OsQDbyGy57qHrm8rPyq40eOfxf+/G2XdJ7M1KkIeAopt7vREDONiuYmJoDh8fuh5tZuUlBQQUKD/MnX715NwkIC4TtUmYABPWGz21i76yZfNCBgMNrk1+V8UdGviCd+B0rIqYIGcvpsPlm3NluxC3CcbskecBUCW7dvpeGrT504Xezn7/u17p6uG0By7kc3EF6orSclY9muZUmvK9rkSGljcDOHBuYF+SzSOBgUfqcrPT0FfnQ5KW9ualpbXlqWOgIRHw3IW0DIVESnSgZu8miURlRvcAW+l2metk2BKfrHHH6gvgP636ld8YmJR23BN3leSvfLL/znYGRUZNKq1at/k5Ka+jH4gHepF6Ga6prr2tpa6fpAH5Vami11V6elhxnuwhOPK0GBQYVwU1Vtb36ueG/B4oVVrzz30mnIe5sr8sd1q7mxiZQHB90IP84FUu4u275tc9eGzvUEUu5YJ9BrPDBc4nfm+E9rC+iswaRPig0mfr4aKj9il+OiKGYtYazIIrRa7aUU1vbKVM111jgwUAzWRnWZziuDSSpZfuwfy9ip68D6AvvNi/iAx4ToMNAlh78NgrSPhQVHQ7Rpb2KtBVymcyEC6zeu+6iutu7sjp07kiorqraBvuj2nLNn7wEPJeTokeOKVEfRjeSjUQR9oVJxPFfz2xPq2Iz/bNi/maRdrV85lX66rc01zUtIzk2Nr9QjnPEKGrCRPqDWrngNOvrxUVJaXHrP00/9XQNeEd7cec3O/9haJ2vTFxYWrc0Fw1MM8ERnvYKdSv2HS/SN8KRpDUZn0aCPOy8jHdzghWEkQvk4joDVC62RSgovV31bZHRzJMYb9B16nrn2+mvuAHWeclur+6n77/15YX7BP8HNYZOt79qT/sjhozc1gxs/nDE4RtEOxPSWy9INmTn1DjVmdD+BwR8WGXEeAqC5nRvP4NCQmsjoKDIIqm56MBQ3dzMyCVP1rYHJ2md6HVZTU0PAZ3kmSOSDIYopRhSVjxsj4Amk3CH4DPqqYg30hhC7PpT0DQ+DARi4Q6Qa5dwrywSNFIYkXuisIfljdN2IulI2a/iLTWaHU7aIHwUoEcGFyZDYaVo1mDclPyxSoYHgYmHC4aBDsNO602t8xFeQKpo1Ym0mb5AkijqxRQX94bK60Mhm8DO9fKcW+MLE3Op9zeqEjrVavm0OAdCdxI2gqLK0oqstqq2sqroyJqA/IAEGSCbsLT6Tj6HMYSndd4x0ykXuHtSdZiR+qMaDT0V5xV2gDoKSZ5eQcvAj7/3Fz38xohN0S5nvbvsfcN8G3ktCRjRgNGl/LvJNFQJM9uDCB9VXwBXiuaSkpE57ipkpQo51gzkR1U8Nox25k5rcSgEy/guuHN3C64ppLTU+2n6cXyMiIplIYOPNiKU+BkNSMj46Di7MCNPRde3j0jHt2qpbnbtL2+gppNz+HUUYb3JJObrci4uLJMEQgayisYvklDSQjUviQSILN2cANRI/hfKByosi6aJXYQaJL/q+FTSSdqWJJwmru9ckIR4KxFrN9nNTGbK9Oau3A5SAIbkVSyALM20wmXO8DGaAx6Sc+KB7wym3IKpMDgQcKoV9gK0ehzzK67vIuaJW+pfY2CgmcnTSwcHxVsocbEEgbX46St3woxhblZdUpB49fPhPtTW1N53LOU8DlrS1wt7JT8HjqHZGD8iGw6JZwycmXrOlOnalFbq8WAcRxMRSRvS2x2CtxW94sGnjtJ1v7XqTXDh7/quPfut76267645vrl67+phdlTLzUlF+YfKHHxz4TE9Hpx/q8KuN45TkUDf1jYTRWkfnLAonqLNSogsJIeBCsCQgMGC2PZY4CyJ3yMemAatIUHlQJ7pTqG451LYP6Jc8MSmx015CPpPglOaXJNx04yc1uPWhBzQ2941vvugeoq6USq/cklcaNnYJ4gCfJBIdFV05k+2ytqyg4KDW5ORkAj7aIRonGGNzG5spb/tQ4CUKMNWtF3su/74LjD3xU1xcdD3cfhycycOWtRjIdAYEPIWUO9BnItgMV0mBwZwQG0E2blhKjp8qIC9/UEpePVhKQoP9SJC/BuYxMm9eHC4MaDhBLaJhKxWGNHTBQIMKDent18NniBqTOuPBiYgyYZQUR4YHEzCeZxJj52TPqkgXPlZjXLTAGyTp6OpzrtgGygAX4yQ8LAiCdkxwnw+TDc0mY8b6aRQM4zp7h0BlZRzIzwRJTYkhmzZmw3c4ZNnthXw8HwE/P98uCP99JCw8fCwmJmaVVqsJ9NFqgwcHB/2xdRhqG59h0IlGY0lK0ukz+W5KvUkp19c4UlRqGI4gJvIxeHSxZQyq0tLTMKv/yMgIemlZr+8fSIVfnUbKIVS8bmhoaKVpe1kbBIT8CsuSMaxqswcJOQZdqYG+kdffjgwiw7u2DB5jF4GiX6hQhd/0Kqcudg5E/X8wzPSIWw39oD5GzOkp9zk+b9TwWzTCVo1dPDxrtHBX5E0gKon7PRBNVg9zawiCW1GdenpB6AIBw/DQ8BJYE9A2YEZUklyEtE3zxkV1cGm2c56Uq/0b4xKGPRoWpiP33b2TpCTFknO5JaShpZ0M9A2A9KqPqrHghAgMCoQP6DLzMM240gl6zzY2MAiFzPyCgDjDx2kkETdMHmEU6w5UhKpscB7ilMFAJ70QYkNbtED8Y2LDndYEdWURcaRRuBpacu2E6Qf1Q6S7p5+pEsGhJCAArstDQ0gyuEDMXpBKNm9aQZITEhAcjjVthVPwkJnMHgJJqUndUPrj6hp0dfV45+acuwVceq2+cP7818GLS8DFC7lkCK53W9pAiq7ceikCdTY9eNAbxQOBStrmKDFXS60MYb4n4yZ2DHMjU4S9omlg3mmgvhgOuxE+4ILu6T2vvZFwy523/sYZvdHc3Lz8Ym7ubX19fbQcHrmbzh/GbVgNETOLEjlWUQpyfFzcxMqVK/8CERzrnFE/mQfdiqwiGGpbCcRN9KXw3muka80XdghKgxLiC+SFf7o11DDmP5eTk/NptOyi45GCwmBRxqhKKk73YZNDpBCasWnF3hU3QDhXg2EPiY2NHvL398e1xu2e8LCwqqXLl1waGtSvgUBCtO5sj3bu/lZUUPCtxoZQzPSs24EgK6QgMOdJOW0pnadM90ToMydChLdbPxlJtmxZQQnhKEjihiCgEJJyfDA0MUaTZKsDZMA3MlwQ6VwRG5aTdeBY1spFMivMyadmJXIpLYwvgFzi4oq5IeBSFhoz7RkGt3Ej8GFbFUbyZPgHBvqRiLBQEgBXBsyTDvYFJ+TOXbNc0XSZpx0IwKF5vKSo5EyITtcAsvGu4aGh6Nj4uJUgVQ7v6OyMh/ka2QVqGRCOG6LxDlF/vGMwd9FIyuhRjTNHNzgjiRzPd0qib0aqZ0p+1b+XV1QEjntNfL0gr+CdRUsWFdkBm9ErcNMQDsZdZAxDFov5Yi5TK9cWmHHDGC3T0XrJ9xUErCLkdPtRHS6N8Jti/QPjTgIftzfK7eruWt/b23sl22f5fmTaLmWPsjx61O4gTVNRz0GBgQMajZZdu7nb4+U1CqJAPa2WFfPRXgED2JZoIGjiKndrvgfWx+oDtT1tuzxIuRBIKJsTI3XoeSUR9MutM9JEmS+qfOCKobByezC38R1XlGXI0yjSIROKOeVB7zb0eGH91sPWJFoBfI/1EdNLxxifqhieVF/deXV1SoNlJk5FYEHWAiQU+DlpmnFxQfGigrz8ByvLq+5va2uLKywqpP7P+/vZbT2zZzCIIR0l5KJ8U5UYSw2mer58gzVXtrc33rKhPjfzIIRpzuXkkJxzZxNWLF/+2aJLhf9w1EtEX29vVFNDAxkaHDISx5rWZyrJvrp9eBSexirEqf1/mWRm/epI11N+u0EPfAbVFXNYxcbGlsIn191xhFuixf19QsvGEEHUZOzRX1HqLfTETdsl5hxNY/Kgj/3w8PAmCKSEMRTc7oGuROM1CsLUEnKDnj2/7rLYFnPzuqa6FlWastwOAFkhIwQuE1KubKv8B0E9raPj7CV1YHer11InDDdXlGXI03rSbFtTbNeJ4xJ7pWp8A8JlSjk5qOptW3Vk6jmEwMJFCwsK8wv/ERcf99HAgD5u2aplWaArGdFQ27B6bGwsrqWpKQ6kb+D6tJX09PYQlKijJH0cdNLtfVR3VzQLU+mlWsVAfGfpMMDS8vEurqgpz/Iily7mfburo0sHCb5kb13xvYF+fVRbazvTxefr13T5ma40htgBXE3IcIU3XVby++kRsH1hF1JUPhjV/aPscDzXoJDA84EhgW6vagQGz/EY9dbI1sECdmKOmQNOmZ8mkmb6DlN5GYI09i8A0/en3SkCggLbwBD1aJGu6DpzmbBbALEf8pWDCx6mK1SNVX9vH2oEBE33jvx+WgRsn7vTZmlI4Cmk3FkCXBugkUklAhIBd0Uge3F2CdQNP8pTX9sQCuQ89OL5C59taGi4EYL1rKmvrwdj4UEyNACSabOkfPLSYs4LEU3FVckUKZQZnU9TQq4m7waSbkLIMWvcdOHPly5cJNUVVZ9qbW79WnRsNEb8sesZGBiIbaWuF41v9gyHC3W7ze8xim4vr5tchO3qCksv2b6xizeosyz16wbCJvooMDgwLyg4sNGpNXZBZu0t7f4wZ7FBRrYOZsnpFOWrb7HoVMX/4G2U4R3UbbMdcxe02TTL1Hmp+tMnz5zU6XSoXkMN3E1v43EuUh/udBmybyb29/aT4cFhdI3oyY+79KHL6uEppNyTB5Gsu0RAIjADCCQmJ3RDMd01ldV/yh7MfglCjKdDkKI48G4S09HRsbK/b2BRTVX1slHQs64sryBAXCHaXTPoXY9RLyjiMV1tFWUvlW6raRoRAh2NTOmWyvWAhf6nJcm6SCvKrm+oJ6CSE3b+/IX7cy9cPLN8xbJLtkJXXlaR8NLz/17KyrT0tnK0MCTgajfmVABsrYNM7zwEDMFkWDCqUer5ixCNiZqWuqtTU1MPLFm+9JzzauGanGBe+uDcs5doTlkrwAfPL+ERESQ9Pf19MKZucE0rHM8V1w3o52HAwV9cSBkZ+DqBAra0NIMKkMbTSbnjYLt5DpKUu3kHyeo5BQH7RAtOKVpmMtMIpKSldkCZ+FEk6Q11DRHd3T1JIEW/FyRzyXr9wLWghx7U0dZBJVNqUm5XfRU1FMd2T9SNx/9BFNT7YaNGhm8zKYdALItAJSDV1nZYUXMrktha6mWb3mYs2RBDJQzUdUKlcrxdMZ8N6FBXeQKycDDW4KHYZQ9gFBQYOBEVFXUxMYUGMXPXBzvS5jFhS2N6QX0FHleTcpe3w5Y2uyitS/vJU0i5S0FwUcfJbCUCEgE3QSAhKUEQ9YtYJZBG4+akAUPIECDCic3NLWsqysq+Xl5avujU8eOku7uL6DH+gAXSY3rKU0vIRZOVK3WUQDO9VgUN0+8o3VJ9f+zw4e0JiQlYx2ftgNAfygvAOrGYB9QRIsvGSAUH4y8Ychfli7ao24FCWfjehezJjlZ6/itWCQsM/cL4jtHYsYQBRqjygAdcd1Lf3K56qAEoehZGY0o3fqBPIVae8XBwye0BrHluDIOsGiDgKaRcdpZEwBEErNr8HClAvutZCIDkDDdq/KAeZ2thftFIR1t7JETXux1CXi+BaJYBs9ki9CQDUsQkO+ugIjpUC9UoGynhsBNV575mczewCLHQm+gado48EOSKm2u4vE024z3DEM+YhLmnq9dXFxYCIQM98nGXfnRZPeY8KUe/4xgQkz5GLhGFPxWxaan/9cjB6vmVpjqS3I2iSl8Sw4SLmz0U/0DcVZUvd89vtmzB7COQvTgrH2qBn19hbWDj8n/uuec+amxoWP/mq28oFVT0PJHqqiRbQqfc3EptTuKl9lFuqn+OhV06f4m0NLakNlTXhySkJlrtyq0ovzD94AcHvwOGrqx+ItCSiZTeuEzeFq5TrpbEiobDV1qos5SyOXeoWsVExVjBIFB4wEIHsaaPSJOamgKxHSCKso+PR5AuGGuTfRjagbHpLQ8b+wb/NPC7y0iUHdWd9ArUDwUENA6AYkPAD18Wg3vZWXBhYeE28F51CozlrV5X7Cxqrr7m0rHkCaTcqoXLUu/TPUkh46iHZxj0+BWq56HBF7oOoxMCJrN7T9+5Os4p+ix4k9CdhM1Hp4NoqRr0TcEsz6njAUWX0uqhYXXCuYyubJv1CIAkafDVV157E8LKN4GR2M36oUHS0tRCxsfH4MNJkVq1xQqPCFO5TTQ1BBU17erszKgqq6ybl5mGrlSseXBN52HLDclNo0JO0kWeJmjJ0PCQD7iZTK2vrfdJTE602yuMNQ2QaYwRUMaGEE7wJVIsamoVKw34wNdqtXggc2t1DVULKSm3NyCOko+58avSuYf83XoPCAwMbPPx9emGSkaZtkntEtFJcwMP167SLXcpYXVS+906G08g5c4DkBNyJHhj4B6tqqae5OSWkMbmTnAVBBbgqHmpCtLgvIJlTtMjwOYyI99IepikIy42kixZlE7mZySR4KBAXL4tGjdNUYZbL8jTYyNTzAYCd9195y+x3Ddfe+On1dXVD734wn8ShoeGyQi6cFNJ4di4ZY8lcq2uv5DiGSl083dFOsxvaHAQAgqd+2FsXNwe+PUFKzFAkuM7VVoRaAXr4Q3SOPydEjuTg4Va+g86+AQkbJ+OS4r/EPIut7IuMtnUCFi9Lpn1pGNi6Ilp/Pz9QVKO66RrjQad2LHK7YsjxFwwQdNbKeFJCPJ2ikTeie02ymrJssUlTzz2uyqYgxlU8EQ/Bn7L7oatHi7TVRMxdyUekphP1wNTfD/nSTmuWyjYYusXuJKC2zL0V3zkRD559Y0PSGVFLXyPNBBMooQU3Wlj34GeuYxfpfAz9Ukq9YmM1pFtG5aRT92xk4QEQ+wDvPGcRrJ3GcMnm+5kBJJTU9738fPrWL1m1RPVVdWkqqKSRVRUbz22jEcr046NjqFB6icDgwILbWyS9Ruuqi6TpOm8UPw7dRs5PJw4MT4xJeG3sZ6Xc3LHdxlV35kxEqSqEO78tLa2+l+xdqtCyp1q2CgOmVbONXfAyVvj3We41XdBjQxYWL8+uKAaMsupEZjzpBz1U6hhjGqSVtc2kef+8xZpaGwnmUkgiU2PIMGBPoZzqHvfdM3ZMc00V5CNM8YzPDpBahs7yYXSdvLGO0dBWp5Ctm9bwYydaEqrD+SOb4BzFnXZsOkQWLVu9XFIc/zg+wf69u5992+VVRXeVM1KJbuyRu9TSO3MeWoxVwf0p15RXq7VaLxh0Fv9mDUYs6jXzqXjFiX8fCMfBV/S+sHByLGxUSqGlc/sIiBWPmoJZV51yurFcTZacv78+fDy8vI1omynEnLIlGn6GG5/3F2nHKvr46PVm5u87GbNqb2EpNyVxNy5tXVq052SmUvb5ymk3CEQUG/cm+srYziBrp4+0tzSSUJD/MhnrllIIsID+PYKNI/anThUnFN6/XLMhBrlUqrD1Ijwd312HNEPF5BzJc2koKgKSPkq2+j45QikbLNLEMhesuiVtva2LFBh+WZRQREB/WpKiNSEQiHnKqJkStjNpRf5qNPiz/pBPRkaHjbomVrbMiQkii2N8Uu0LL7KMX1VyuyMXO2xP7G/4YrY19dPGhsaw/r7B+KsrYJMNy0CVgkLDMbFLLmi/mQme2U82iCxmLaWLkiwcuXKTlAJyzM1KraXnJvOO1S9Mns6dUFbnJXl6Mgoj+bprBwnz3s+fjAKlauMti8X8uSydrrytOSakWVjrhN4x0w3HnS0y1RYWlo6yAhcDSdGBhH/ADiX8A2UEUHm/cPWD7WLp6sAM1a05oOrhnjP1vJmKr2hfubbxEBl37GfbceO4YavYz8xWs4kkRPEB4w8k6KDKb/o1+tp/2A62q/ykQjMIALg67w3LT3trazs7HdDQkJcXjKOeTRAh8BGDhRmYZ5YYZgqGohEaRD027s6u0GFZQQsr+XjBASsIuT2loMrpL3vztR7EHW00WVl8YOny/J3QcZg5zZTcwsJuatIOSIjN2cHxoenSModaCKsTdyYid1meREfX7BOhxz7h0BPEjTvkOjRB2xBmFKErWMKZLuMS7JsFN0ty8YZbMlEAyv8l8ut+KHAgcY6/Kq65bRW00DBSDRrA2u+rdgZ3kYDeYo9PUhxLOGfgSEMw4yq5HDfQQ9Wbr/fONwPMgP3RGDdxvWH62rqilqaW06A1Dy9p7MHda0VKTNVA1FVfTrJn1pSiOuGEuLeeOLZsoGyI66QfJvMlamk9qLaxpJ8tghAlFDS09tLuru6Et2zZzyuVkz/yYpH6Q+xJvKxoX7Z9IYF3vGI4EHQfLCaJn7TzZPpYFLmEU8o8GD/uv+GcSk3L2vXy69lTNdOZ3wP6nPeIJuc8wJZZ2A1G3nMfVKO16/8Gpe6KoX/x8VEkUB/P1Lf0k1yS1vJ/GQd8fXRcFopLnZt6A6FveJ1LxBHthAI61ILGam3bvX8sI/U2lDbaZOqVPGmTWtKwln7ufcUK95Wkih6c4gb5orGZROkvXOA5FW2UbISGa6Dr5CYYz/ahJNVm58t1ZVpL18EklKSWn79i8fO+fr5ptMDv7XsyhrIzE8+WzdQpxIyrNIQeJwZGhkmYHw6U9I8a9CSaUwQsMa2wc1AQ4NU10T1NOwRbr/+g1vmKLgRC5+hvhmAclzpx96mzXmG2uwxxcx9Uo4EkXvrYN6uCUmIiySbN60gHx89T179qIjEhAaQ4ABf4oX+sC3oYU7Vo2wEqqTiVJo73RjgKjV8Q5+Ux3Svu+x7XnmmaMoOF8p/JxcqVjuDyybDX+yqInquAiEPlqofHiWdXQOkD2400lLiycZ1i3l10IsOU5WRj0RgNhDYsnXb07GxcSMvPPviPfV19crtmND3tXVoGkn6VGsQBs6yiZGDf2rIi2646sOCwkqmVFvhd11CEstlucq7cK1XUlLy4NHDx85t2bb5ndnAfQ6VaTNRFPJecy8qdgK4LLIENuc/G9gq90qw7rNbUjtrIVRQeQwBE8m7vbnaWRnbXwM5EwKgMbdu0F3YZLuz5ClpqpJF3pkL5n8UFRXRb3strX7D1uXP6owvh4RznpTj/kKdrzClZfpvaGgw+fSnribJCVHkvQPHwQtLJ6wF/aC9AnJY4PDMV7ktj2r7E+sK6j1PM0PUfkcxShtbSGwt25Z6Tp+W0XB2o2DwW2zdHDP2M2trO3gZyrrM3vcP9CdXbllIrrtmA8lMS4a+GeN659Igd/relClchUBwcHBzXFzch/7+/veAKzOIxaeK1cL9Rzt6Ja8wK+umH2NiQMrBjWgP+h83ejjRZtPawtxEew1zgEFycTwHDyxpXV1dcDomkpQ7NrhsXSCtLs2G4WJ1nq5KCAaZdMVnapz2P4rBsshC3DjhmIZItKCy4dva1OIVHRfjYEn213GqN6cTMSn7Ms+Eqsmxtol5T/+1xte7iwk5rYZrUHKbXF02d7GFnkLK7e5kqodMJ6gYKqhigios4eTuO3fC5yoy0DcCAYTA+HME1dvwwGrbQ3uI5o/S73GSmBRHgoLRows3/jSTHZNmeIFHgxbS04O3SUxSYGvZttV06tSMS6A6Kl8i4B9UG4mPjSK6EAuG4UJCARXX64dJdQ2E9+a02fa24K0GLjSYgzeJjtSRyIhQuMEAlVr0MY8BpuE7mySHzgRI5iUR4AgsW7ksF37M/eJDX/xFS0tL9ECPccRqZxByFdhWq6ME+Pt3xsTEnAkOCl6u7iz1XBS666aqDiKNoe7GMxj/XlpUQvQDgw9D3r+Sg8EhBFy6sTtUsxl8OTAkaAx835P+Xr1DpVKCirso7Ff4TKDEnNtoDIM7z76+vsSRsVH0sY+bvDs+WH2btkxBzCmTUPZhRtSnWH88JdKrO/bRjNTJU0i5/WCIYc69eSARpkGE8DxCJ7IWIkV6k8z0eEqJGeWzaW6wRQAnhqVd0EztmfOQCZIQHw0fnkA5ONjfXIff5FI+m/KhhxFCAsGTTfbCVJteNU7MATCpA71FoAkxfDS9yrCrjxyomHzVAQQa6uoDYWP0n5c2r8OBbNzyVV1ISHtEePgkUu6synprNcRbo7Fa/9NL4z3s5+dXo9Fo+XpmWSpuVEcjtT0L6x+kGdAPks7OzrimxqaAuPg4x5iUs0CS+XgsAoFBQWPot7+/FwVTTnhM9Ubhd9DVJqCzncI9B7krKacT1RpJt9k0qnYbG2obCLqPD8Ri8fZ2dVApmw8XTuj1OZXF3Cflkwi20P1mwid1CBqD917b+9gpYg/bzwK2V3S6N6ZXhjfOwSi9oygIFRZjIFCvlj1Azt0Bo+kwlN+DD++64N6enpSiwsJPvvv226sgel9A7vkLP1y+csWFuQTPgqwFFyDoR1ZtdQ1fT5zTOjyXotQvAEKm+/n7dVuba3JKsv7siTOnA4ICh2CF88P1ja5rXJImZqgiFedEgAoVDFd+tDhzU62yooLU1dYG9nb3oSihwtp6yXSTEHC1ZMHRxXhGuixlXirYEA+RlqZWPn/sq7ap9xX1793d3aSmpmZz5sJM9PffPiMNs7EQqC823Ie9NknEp+Sm9ipD7Qj4vB43UWOhuQiVNS45D4uMIBqNZiYk5XKXtrH/1ck9hZTLTnagk+Wrdlx9SNCsRqCirCIOXOZlweYaXl9fv3h0dDTg+WeeXzM8PJza3tq6sG+gn/QP9JFVq9fshkwvWJ2xByTU6XS1kZGRTq+pUDGJjo4moWFhtbYUEBkVlR8YFNgCG3Yy25cNy6dZKZtyM8UJkThom+ie45/HwYfsCKgbFOTnP3zkoyNHt27fKnXLbemcmUvrEXsm+Psf9dEyLuqIypcVho8BWMTMwW99STWV1QHnzp5b39Pbg3VUqmmuTUJlxRQr09/Vqmniu4iICHAH7Ttifc3sSunqw6ZdlfKklzyFlHsSprKuEoHLBoGCiwVLKssqNhUXFn+2p6c37cyZM7F4XVxWXKJstOhLZwLUjhrqG9fX1za8npicYKyA7cFohYaGVuqj9HnQhCXObIaKlI+GhYWV2pJ32vy0ut/+6ndVSMqZjQYauzM+IozDJhEgKnVjpZi7LBN/g6iDxGt0lBTm538nRKdLgeSSlNvSOYa0krwAFsEhIX2gnuUQIbcSftQnd0tS3j8wEF1XV3cV3CxahYO5w4upyorARP33CBAe+Af4z4T6jkccCK0cNzOezFNIuezkGR8ac6pAOX4c7M666tqQ6qrqrQP6gZjm5uaszvauBAi7vuBPv/9j9pB+UNfb20d9WWOQmbGxMbDM4M7OkBBS9QkNAYn6ncePHCuDqvzGweq4zesgyc739vLGGwCnknIk0VogK3Hx8a+Gh4cj6bfpCQkOrgUyT/q6e2h/mA0aJJg2N5Iz58kBCxXu9titOiP5p0+fJuB55kqbKiUTmyJw2a9L6RkZRT09PdlWSLqnHD0WJcUwj/p6+sChQlPiQL8+wh2HIKyOGpjvOmwDzvtxuInCgSEO0uZUU8S8NA6SpDrxqW65RJrY2GgCOvx1M4DBZT+uHcHYU0i5I22U70oEJAIOIFBZUpHU2d6ZVFZa9pXe3t41xcXF0Q0NjaQgr4Dq+DPxExdCcd9mjMgxAkc5Ofyvuak5oqysHIncnCHlgYFBTWNhY+ccgNf8q7hBg5EnSOIPgftFprBuwwN66C0BAQFE3z9ASbmzn9qaGjQai+vp6vXWhYVY7R3G2fWQ+Xk2ApHRUbmg53wNtCLIVS0ZHByESLTdQXCD57IyHKw7epeYHEBpqqsrOwoMDgkmoG53yY5X3ekVt7ztcCZAnkLK7T95mfUmYjDvNO5heaPozMHlWF6UyVmIwiSiKFo9LKxO6FidPfvtpoZmn/r6ujWNjY1LG+sbV4FkfOlA/0D0o999NGVoaNAPCd4oEDzwZEAG9XqIlKvqH7GBCDUJk6mE0prC/AJSWlZ2RR6ElF6yfEmRZ6Ol1B4Z74ijkj5TLDA/jbeGZC3Kfi0xJdFqQ0+RT1RMVHn2oixy/uw5Mgw3GGb9GUNic1fhU7eFqbkMgftTfN7Ytevfr/znlYt333v3L+dIf85UM6SXCkA6Ozv7dbhd64Vx+FtnAq/EAAFPXahO1z/QrwXVK66z7cySHM8LbgoSCgsLF4MxPPO+AjEGUNiBXmnwQYm56QZmqoYm5iwah4vv8F21MeiiJUteio6J/o/jNZ42B7nfTguR5QRuT8ph/WdbP7UgtqOvFUMnlW8VI8Kg/kWsk3P+MObAkHHlq6IvOCFHWSv0uT3d7spaztW8gWxHd3Z2ZYNayn+Bl421hfmF4EO/l7Q2N2N4dXadylUd6IKPE1MBQxGJW4Sno6MDvVkGDQ0Nh9XV1Icm2UE23RR7Oxam6Vui0Wr09hByzBncInaE6EJ6NFqtbvqSbE+B4wEfiGb6qdCw0BDbc5BvuBgBl4xJZ9cZJLfl+oGBXGfnq1YfR3KL4xXu7dyS7wwND4UCMfdH9T/lEbFCGLOmkcYd7dCw8LC37VGFc37fOJTjnCdnbjlIzXSZo+ORUggWxpcRC29wr4d/w62FBr+jnIIfARwaM/Jl+xAQc431k5fii5yRPfUAwDBLNt5pOGH82Ncqd3/r9utvzQNJUkp5eXnIjTuvN6ouJeFUx5FJbJi3eN5PVC+FwUo9AtCfTCLMsdeZlJarueDR+K9//stBMDjKgRe2uTs+09WPQTTZTYkYcPZ6lNi0dQtJSEyoPHDsw+mqYPb79PT0D7127vxR4cWC37eDnr/pwy6hDP3FrDxZ3xouPfghjMYhgP+hFI6tojTWAz7/fvZFEhEZ8YmD7x94MD4h4cSiZYuK7arw5fmSq9YlV+Xr9F4Co+9B8Hl/Mj4pEYJSDZCujk67ypjqdgc8QpG6hnpyy+23zLMrcxe/BKo1ySApJyODzDGK8JikuDvk6696LbG0rpjDAQ7oBH2Uz1+QsS8hMdHVsSLmPGl28XDwiIietJOFKyD7AGFS8nF64mRkHGl5a1sPOXYyl5RW1JCWFlgMvEC1y1Y/3fZVSL41CQG+j0BHIflD1YiAAF+SEBdFtm5cSRYsSCZaLZoMMs/LUoLunCEERkWpEFEv2OIcM5oPnHpzgq3UANOY8FKaH0+gzF2eZlA/GAhfLejr7vMJDg12tYsu5wBlIReQbkXCJ9oIC1W77S0cjCjRkLLF3ve1Wm0fvF9LNGg85k3GJibrlZv2i3LyFR0nfB+LzqT9bN5/OQQUujIkVIdGZJKUW9dpribOrs7fulZal2oEDukDI8PDuC449Cik1IyjlfGxMYfzd6hyFl4Gm49gPOTS4y6/cHRmOVog5GhfAo/VQcicWb6T85rzpN/tJeWtrW1RcNKNtb9jYZSDKBxD+Qqjs5HhMbJ3/wnyn9f2kZ7OPggU6U38fLTEe3yMjIMepyTm9qPt2JtsRUKrFzw6jUGHnT5TQN567yjZsmEZ+dJDt5LwCLiNNyWF0xc65yfy9BCYT9HX1wt7goGwCQmMGjAldLVKssouljA6LvcUILLnxNsUcIM0nRDwyYupY3e/vutn+/fuO3/NDde+bG/9Z/s9uGG4BlQ4Hha4OUu3fPWaVfmJSQl245IyLwUWNrL7y5/7YmNTfWN8f18fEV4c1Jip+0Xh4jyBSK/heqoYWZcdiHGOsnDmeETu6uwkjz322ANbt23bXpBXeN2iJdmFs90vHlK+JxFnl0EKkWGHH/vpL/LKS8vXtbWwIEK2Pqbzz9z7zS0tG8CuZUH24kXMX6sbPLW1tQH739+3oq+vn3iNG+aV6RydrqrqNdo0bdbChSQ1NbUNpOS4JsjHOQi4jFO4PSnnezzbAex64Pod3sMM2AWtN2lobCLv7z9Gerr6SXKcjmQkhRFdEBo/YwokKC7D264WXA4vCfUHVFuhbqHgf/rhCdLY0kOK6rrI8bMFZOvmlSA1X8bgkNuZU4ZFRmZmpV6vXwFuDi3np3KdZ9D0EqoOBmJu7awRNgIXL136Ul9f3y4o2G7y6RQQHMgE9O831lTXJBtlob414OOUqmSZ3iaYSMWQ0Pv6gDtlADI+Mf6ZuIT4Uw5Ujb6anJpS2d3VE19UUEAGqcGnyaUGl36LKWW2D01vD01+x1/HwH95S1NzyrHDh393/Mjx32/aummfo3WfqferKqpCMOBV5oJMu28mZqquVpZj0C2z8oXZTpYxP3MfrAXr7KqHWemyYYNgqlqEgB/wNW2t7dnwq9uQclAty+rtgXbDvmcwTmWCDoPzFVUDVRMU9cwtBRcQAkjEMzYujqRnZhy3C1v3e8nabcb9am5ljdyelDtKv+jANWhGwGl0gvSAF4na+lYSpvMjd1+9gKTFhik8nGs0WwmfTOZsBPhypBCY3t5B8tLBYnK+pIVcvFRKtmxcwmXpNpU85yeyTWioEm/atmkPhKEeyDl7dpO4IWI7uqDffEdTvWMpmpz6nDTVmUl0xrtvvRuyeOmSOwrzix4DY8HqhMT4QXvbMVvvlZWXrsg9n6sUr5Y8sxsdg6cnkYi2nwKEBxr6j+IdxcdXC/7JtWTpimXPgE55l6Ptylqc/YEuVLeksrxMh4ZktG/5jm8c9U85Fhu1BX9R/B1SN5fGIgv6FmQ4PDBE8nMvkfKSkutuvv22ROjTmuzFWW4tMa+vb/Dt6eqZdyHn/ENA2DCs5DccxVu+bx8CG7ZsfALcra6G8XWDMZ1WHSL5YdBobVHmGCvX6NwrjCMhDQp6WtvaY8orqnZCsjftq6Xz36osq7yho7kt0xttqFQHeN4aVYFsoeDLBjX8ZCsIe9SYKb7LeYK0+eldG7ds/F/n195ijq7cb12Z9wxCZLko9yflqDxMzf7MHoenBZHpHqOcHKMKslnb3NxJRsAaOyE6jMRFBFL9ZMMz2f2Q+I5OeDoZhOB+KuoxbdUukwTi1K9edMw3XWz4tJ/4UhMIeuWJ0SHkfGkL0Q8Oc5IzecmaBsw5P5HtHUzgcm9/e1t7nY+fz6aJsXFCIzbypZ6dZ022SDO647aWjUoQdL+Ajm5vbQ3es2v3ywsWLngJ/vRrW/OarfTgLjICjNKyf/Or3yRgcBKzDyXbk78x/IkZUDIwWNqMzPkEDiidziDkmG1KSsoBXYiu39vH99fMmoYVRv/lZbJDgindth1ZVIMaGhohBZfylsLbr508dvJ/YmJjLqRnpjfZnpvr3oDbDQ3cblz53jt7vwiRFHd4j5MwKM1wsnJd0TOZs0dtTsnJyZ1v7t5zLCE54Yae7l6QahuC/k5p5mVhjrFhLgY4G/WN9Q1gl+Rz9Ux2wlRlwRgMfu2lV29sbTM2xBYHeeOAX2LmGg7wZvOmhxRG0nW6EBICjpFiY2PeQ3/w7tJuWY+pEXB/Um5Uf3u4FfrV5ZOT83pvjEoH+Q4OjYEP3wkS6MsMPMfhH9TrMpBCU/DEOidkR2L4y2E2GQH01KBs/4wB2KRzgoyQvTMEYb3pQkX7TU0rPGrfcctBsm7juhOlxWX1QMpHR4dHtXBaVRCe5IRLpS/uCPLiXezJ9pY28uau3Su2bNuWUJxX9HZkdGRxVGy02wejqaup3QQ6sJ9ua26lEQMtrkwK5zaTgq9HamIO1/gkISlxP3nOOcNl9brVR8H9ZInWV/trnE4okTNs73xa2jE7J9WOeukBifnQMMm7lE9KS0oWR0dFfT8tPf1ZSPuMc1rjnFwguuPWs6fO/PzgwQPrigqLyKKsLAIHFwfslpxTr8s9l/CIiIsw9kcnSL0WSblBfWMaZKagBeqbKziMgb/ygbTmxuaA2PhY/WzjPTQ4GFFZWbmotdVEawraQ/c7IQ1XBCHsb0pzVQISNQR0WYE/ICmHwz2JiYt5OzrO/ddUK/vDHhJoZdZWJ3Nk+5u2EE8g5QiAU0AQvZmUEAuqK0GkpqmPHLlUSxalxZAQfx/irQFiDoUJI6ZJlBwnBBOXc91Mdv3M5oZTqjhth3lKAoEL+5cvJlNIWZXgB7SBeKuhIX0DI6S+vYfkV7ZRdGOj1VGSbcLbHSay23ZdaFhI/bXXXXeyvqZuy6kToMasXI0yAjeGZ1r4F0ygnfIoxqRAEMdBOg/hr8nF87kxj/3sl6fWblz/5tnTOX9Zs271SacU5oJMivIKs17+98u/PnXiZDboUbPj5qQNVBTMbwVU9VAOJTgvEFl4NxDWI/BAQbbvvOKb2YsXP/vfj3zZaTUHf/AtP3r0xxXgei39wN59bM0SV/tOmxkGEjEKwVrw1mXXK69v9fMP2PqH3/7+3ojwiDP3f+6B7zmtUTZm9OauPV9rb2tbc/LEyZ2//tkv4tvbO+GWpo14gQlRM9gYdbR3gjL/nHpsWiDdoeWJSYlnbr7t1t8e+uDgdxrr6hVXqtQrGjyKtyC+D+PvaIyMnkuUNYXvMcKNq/rvXe0dENmzyxcO0vMhu4uz3ea2lvaF586e12EgNiq04ussW0rAPxxvi7ojxd9YClAt4+sOGmOzvxlSQ2AmctXVO55PT894Z7bb6sTynbZiObFOTs3KU0i53Y02uFI0yIfi4iLJ2tXZ5NDRc+Tg2VpyprCZ+Gg0hEXDwvlhYT3jki2mccvHBirWzPlhYgf86HpyEhmfWlpu9C10xNDwOOkHlZW+4VGSlhRPNqxZzOXtuPSge0Sr9x3ZQ1N0YUxs7Nhffv/n890dXWho5asMc7YV8uXfjjFg8RVVd0A/j42Og0vSVtLb2xcC/opvnZ+14CAEGjobEREx6sxSnZEXHFzCG+oaMkDqlg3Xz5Yl5DYUhqPZB7w/+fr5kujYmCNJyc73JRwbF3sMSD8GEooyo5RkQ22nT4oSc2DlpLYWPSQSMi89dcdggj6+p6v3p7qwkBmXUDbUNkS8ufuNu5qamjZfPH+BjMB6MjgIgVo4ocGfR+A2boYfqxevGa7XrBWXkZnRfOrE6X0Q9OohmFhR5pZ3R1YjalOB9g9DwzEN1fW6hNTEnllrLBQ8ODwEwdo6Kd1Q+AStEB8aFq4KrHUPHRKiG0lMTHwFApAZdIFms8GybKsQ8ARSrhqlVrXJKBG97sE9gqqVM08supAg8vCDnyRJ8bHk4KEzpEffT/SgxjI+zlwmW2ZwTBqk0XjDR30JLNdX055BLzfM4wSEaYLgB/gv1VmGny3HJmMHHETTm+McrNORDVlp5OYbN5MFmYnQf0jGx2wlQ5KUTzN1brvjth98eODDkWMnTnxjbHiEjMIHz1X0+IOSKiYOtn0CmnlDnHmpdBmNB+GDEffA0IuAe7Cgw4eP/OumT9740HP/fPbwZx568FGnFOpgJq0trV4Qsv7Bp/701HcOH/p4oX5Qz7wE8cAe4q5djZDBZzIuKoYhSANjsf/TBznsjTfdRFavXfPNuPh46i/S2c8tt93yVbiVCN316qvVEyNATJCU8gfrbHM4LpMKsj41NEqxR4Afjh85hn286NjRo70P3fdgx+r1a4/ExyccW7p82cuZCzIanNlWOCjpaqprN1+6cOH+vt6+pLOnz2Z/8bMPh7a1tqAhJxnoHeBqdYY+0Q+AfbEXod/LZ3YRWL9x3aFdr+36Z1Nz83fyLlwi0IcwOJk2Gwpi6CgTEmSuymFsXM1vpkw8IAm1D0x79MiR54D4vwpZfX22WvvcP5597MSRY59nFnOsdbxxbL2F3ydL+/HP7JZeuKLF9tClWbUORUdHk/lZ88nqDatfXbtp3d7ZaqOLynWHvdw5G6EFgDyFlDvQv/xsreiZ4O9g2RMaTO69awe55aatpLGpnXSDcckg6EOy/dJ8v4vJEx4WSgKD/dlsEpuRAzWcq68yVX4xfr3IoH6IdHb1kDFkIWYeGhYI0rPIkYQgzlFg5BkVEQl/YQuzF9w3e00IRQqr54Y7TGS37ub4pIQeMDoqp4FmlGtTNr7F8dPxQM/mIMAC4ODGr6EHwDPSAFznwjXzlqCgwCFQuQgAw8cZl66aqWkI1G0x1GdhGxhm4WaIpNwguRNDzLoxSdcStvfSBwL9FEAI7AtxcbGTo/w4YeQkJiZ0Qzbda5ev7hjTjKn1wJyQ++QsGM9gjcM+9YJYEaAmooHDVzRgeFtoaCgEkh15r6ujqzUsIsxpAaTAtWHw4OBgCpC5e1AK2QzqRXoov7+/32I7qQqASlXXJYBMzlSuSRaAhrlQBp9KCICV5rS+wKGIezvM2YGB/gSNVpPltLztyAjiBqTBmIxQBgGvH9vk+H+sEIKwpCr9c/gVb90wGBNgeMaOqslXZhmBy4CUc68rVGGLhr4Qo55CHxDgRzLSEpRuMP52lntHFs8RMNj9USmjwUmbtQjJDdAKpDZt2/LPX0REdIBXimfef3tvANVf5HqbdO44C0UhKuf5iZDteJtC2REc2kAHGGu8Y99777c/eN8DdV/6ylceBsOluuzF2WVWNMUpSSD8t6ajrT37qT8/+fI3/vuRNAh6RCMCKrqeeJDg+q6iQHH2Z772DRItuncKPTc0WMbDJyTImJ9BNl6xpeWq667+/PIVy1zuS/iXj//6e2UlpT/60++eSGSekdHIXTkb2I8bFVDwAG2UJ+DY4XquGK1wbIIM9OlJdW81qSx/HoUfd0Oiu8PCQ0d3bL1ybFF2dkeITjeQmJRUBmHB25cvX/4CZIMRCMUpBzPDjzY3N/dujKTa09MXMTAwEFxTVZ0A+uLayvKK4Jt2foLuaYpbODgM0D5TtUxwHSplpAcrur4EFxUUL4Bw5B0Z89ON3WHYj8p0bzprRk1Xjkd9/4mbPvGPnq7uf33j/329PvdCbuxQr54d2lGYg9s4t+sSjVKDaOlIbLAFmyC7X3sD+337bILy/DPPXzsqgraxZZYPdFwXWCtEQCAuGjcK/iWEAlRCTtdmGMegfhsQHERWrV/b/9VHvjYfbEkaZ6mN1kkm7KvcnJ8zlwEpn7rnTXt4zve4fRPB099y5SLh6dgo9Qdp6hAYWZZFR0edgIATV4HLP9C/dX1kZnq1zKXOtDLKrRYhQ4NDAfoB/XzwkvEZIOXFBfkFb/r5+3VnZDhX7UHdibXVtSjGDcm/lLetpbllA0hzF6NqDT64PijScVU9jQaYuI5WbqQnS9E1EPo6ONCfhEdGkJTUlF1wG1A+EwMJpPFFEZERe6F/Pz8CKkqdYPA4lcKeTXViV2OKeoF4V8FGBZI4oIAbRe3I0LC2s7MrfgjGGhzMMlC33s/XLxXeR7/1wpMjj/824VdbXbMJCU1/3wANiAQ+xqk0Xnkod+MRJ1QHDqV4QwcanUZAyu4HTYArUI9/PH4b04WFjv34+z88C15YPlFZWsH61+FWsfGJYwfWG//cnIvrgkKC6pytQjXV6Kkqr4yGm5zoT9/16dAJTsotNkstKedzyyhvM5L09PR0AnrkJ+Bg61ZuSD1+Rs1gAzyFlEtSNYODYg4WJcePlZ0KXk/OHvno8G8gecj+vfvXNjc1WSZZVuZpmkzdGcYBbBgfV38PRpUEPxdz8x4EPVCSlb3wZ+BV4PSZ46d/MC8j7aNoJ7pPrK+p14Ev43Wvvfzq99taW5fu27cvCiSxxBt9paoIubguZrdq/L98Z0WLB+pelVNJo0BLqt03IDCALFy0kGzZtvWdT99/n/NcrUzTJ6vXrjpcVVlVVVFWfn15aVnSscOo742SOjRyt3+aiDcVbxd4tlLqwhpO5dEYsVcoCEICfVcfGYCv21s7TGu+Wf0HYdyGdTSEFDd+hd60qNpAlYt4JUQsCq7OT2876G0FSPHFjVBfX08CkBncE5mFqnxmFYGbbrnlJ1uu6Hz9p4/++F/9qAIlbtYcqhWqUTJtuH/87enD8xfMfxF+/C+HsrTh5b3v7v0FqG9do4d1Rawppq8brRmqL03/TlceRdUQ1D3Dw8jnv/Bf341PTNgbHRtl/2S2oT0Wks5m2Y7XfvocXNo+TyHl08MkU0gELCMw464VPLkzwFNHwdJlS/9eWlyyzM/f168RXMahVNWcFNSRdgoJueJ71xwpVP1tGDzxtLe2ayr9KjcePXz0FxUVlfv37d1XFhUdXaH10fZGRUWVwCY1DJFBp9XLLswvXIjScNA3jgRpawhI5GIO7D+wsrO9fXtFaXkmRDkFY1cYNlzlRC3rFtH0DG1XnyS4LJ2r6Ig20rS8LbrwUPAfnEjWb1z/MZCClx3B0J5356XNq3nnzXd+D1j9oLioOAzCfBOQVtuTleV36C2C6deGvYwdZThnnm6Lowkni7wNEngunTc60ZlkyiX4hmoZvvcDV5RI9MPCw+pAj7nTuUBMmZvDst8pcp8O1Rlspn1FRcdEFwQEBHSnpad1BwUFhUJsANWAQdUjbuWivrHic0xNYJm2ixhxhro0NjT4BQUG3lBTWR2Zkpbabl8trX+rurI6+k9P/PGTXZ1dMUbrglgbVAas+CcxOIwMWU2KE60CzzUwfsMn4hPiP4BxXGp9rWRKOxFw2fySpNzOHpGveRQCkpTb0F0LshZWQ/J/PP3U3+dXlFfc27bvQBJ1GQd6wZM2ExvyNZeUejNCH7uoMypImkp5Xax8aNo7OjhIqsoq6OfYx0fXwya0PiAokKxcvaoH1DIqIBDS74Fc6U8eP9UaFR1Vmjk/Q5F4whV4Yltr2wLIBr1s+Hz4wcFHBvr7M6qrq9Pa2tpJZUUV9UgyDOoQaqakMWGWwusB3TRV9VTrLAtDLUWvmRNCYRkRmxBH5mcvKP/0A/dfB9f0qKIx48+NN9/42yMfH24sKCj4N+hiQxAnJ3IS3peiUQacWA8ru5miSGvJtJ7lQDFHjk+Naw0SfeZRi/uNEYQcpf6KWTjT1WWZsLQalJCLccb7EFQY0B1lV3xCQgEYoLpsszXpZFcSciMtqxkfXE4qMHVeClrnljz5x7+80lBXf39tTW2A6Et6u4MevuCmg8UWodc98Ds7j9MxZ6T+IUaeAfbC/AIypB+MB1uRr+Scytm7ev1qlxlGQv7rz53JuebE0eMxQMqVcW3q3lD9u/r2SYkroMJWuT2Cv23cukkPY/ftRcsWu8R7k41d6so55Mp5Y2MzXZNcknLX4CpzdS8E3D5CpHvBxWoDgSf+uGrNqne6Orvf72jrCMy7yOJtKBJOeyvNl2zhaZ6RLgNZM5ZycdUHdKvJ1R6EowxULUHfwxfOntMFBPivKC0ufhbfBWknATWEjh/8z/dRTxtFwH5PPP7EPDQO5NUnrW2tNHAR6oojER8Ct3gYJl4xxoSESo3UFq6mW4KJZA7VISgtpEaEjCCKJzoulkpkP/+Fh38YrAspmS1CLuqTuWD+W3Aw+AoY9f754oWLpLW1lcDtgV29ajQmTCR+3NaSERHVdTu7hEAJ+GQ9dJaY9YEwyMSfmRtNVkU0CMaHqqKIWlONFYMrFdOgTmqig+NEA/EpbrzxxpG4+LjXZ5CQ24Xx5frSzmt2/griGOyrrqzZBaofBG6y2PDg0m/F7lM1jqgbXhwj6rmrAMgGEF5mNTQ0kNdeff1/lyxZch0Q56/FJ8afTUhKcBqpbKhv8G6ob1y37/19f8i/lL8ODgH8zK5aSFTzhapnmdSZe4RUxriixgNpsxZlk8DAQPKJm2+8AdY8p7oXdWC8OQ0/B+rgyldd2r7Lg5QLXTTDem7SYeotxfAz1T+0CD+PxoeT26HuV4tyHMpIvmwGAYbuhDeoI3jDpivJuQ2jBK5E6yF5/eM/e/xVMLy7CUg5klrHHwMz4uZ4xnrklgpgZMsgk8aQ7vgI/czyMiNbSXQ3prj+Y0VamKkmUlalfKWejjcZcwgJCSFaH5/KLdu2/RKC6EyrYuOcUi3nEh8fD06gyV+eeOx3N8MV/tVd3V12k3Jr66peaaeD18gFJ3+RjQFOqkwLtXEhRkIO3lbIwqysP2RlZz1vbRtkuplFAG7uKqDEiu9/8/tHAgLbtgpSbqiF+Y6frLAyud6DQJJzzubgFxuyF2XdGhQc2Ak/O83DE+w7C2pqam7KA0J+DsrBmzfD6J2C25kz7DQDO6jsgdvg6LPLli/7aGZ7ZdZKs3GWu6yeLiPmnkDKHewEHuKdb+dUIkdFNwxT/H10ZJR0dfWSxuZW0j8AHgC49GsckqUkxtB0GOLdDxZw/BuT8LGgKsydmzXT33hwjIKUrgt8dutBSqeEBKXVcllfu2x0ul3GtDu8wPc8M6aBvgqHf0LhgwuufGxE4PZP3f598Kn7+6joyGdamptXHfzgAB3y1MOFWlIMmIuAFzjHWKQ69vDDEesPLuphF88sn0lGTJOmAc/B8il5UqsmzyQLc4tmjSdw9q9KZs8rT6MoKa1QF6SWvBqnwG+YO9Z00PcEAkw+/bkHPgdqNpfcgZCr23D9J2/4f5uv2Jz93pvvvtzY2OCTc/Yc+PUGA1ca4ZirjvB+4h1vZIxL+5RLKU2v4+l3k3qGExMxPsys8Gw8iHUaxxkfKaKv8Fv+HpWkm6jMiCIVw1Oq2sB6Fsm4n78Puf6GGyBg09onVq9f83hSSlLLpGq69g9KS9gPfHyL9V+lZkP3I5Sg0n0LPixYMocHjVXFQcUkD9fWf8Zz/68v/tenaqqrd0BnP9/e2kaKCorYGkOjapscu1U3MuqKqqNACwjx/ZrySvLPv/7je+nz0//fH37zxJs7r7nmx4uXLbZbN/vc6XNo9/LIX//41PUgLAgBiTmrJ58P3qp1TFkj1WOA6Wvx9UfdNjZpUIc8LiGB3PPAvV9KSUl57+e/+fmM94eFApXZ7CBxM1k3IDfQV5sw9UE7i602Xdccba9oiieQcodgx8nKrPDBVy6dhd7gTQECWgyOkIrqepJzoZgUFJWRvr5BotcP0xDMwp0WvhYU5E9/D/D3I15aOOfSnsAIlXzzZoqNfIW0rqp0YsL12uDQoOKTVGEvkpNbB+J0qQDHLh69r6K0YuEff/vH3U/86jfVMXGxpXGJCfmZmRnHU+fNm+mNeLpau+X36Znp6O+28fl/PgcOfie6YPReZc39kPlZodps3Gmsq08PCtMW3WHb/DbuxAkCNzQkMjrqzJKlS16KiIiYFR3yqQZW1qKsQvi+8G9/evKlkZHhG6C1USK9oMW2DExr35luE2P5mKYy/n26PIwJGVupvSEaMxLzlHnz9oCE/JlZIORYLcEJp4XW7OizMCTnskwHCHNDRVnFAbAXOQyqa9umBc7KBNgR6P4Vg03BsS1wbHzsnnUbNjxXX9tQl5icYHPgMnhPdyn34qrSktK70F6jsqKC2URYWZ/pk00QUH0DCXlULrhT3ZuekV4z/TtzJoXzYLQfEqvnrq1F0EAMtr7kaem9gYljYHd0l4UeJJpAGn7g47Pk4EdnQIeyiznkR0kLl6T7Bfiq5DPgqqutg4yggRt0g9CBVTYsujCqNRitR4fG2uCyEiZlYkJysypw1mcrU1IEOKvi/s9qKipJTUXVdtZXyrcjG5at7Vi8dGnFxm2b31+7ds2uuIS4UvA84mQ3FHOnSx546DM/a25q+eXW7duvKcwruP/dt965p7mlBfxE9zKlEpVOpxdeKalkHSgdZ8JOlPSx/jHVnVQjZZgHXEqE82MaKE31h02T0xqZ6IAb0jCJMJ2LKOVXpQXpDCubV8DIwFORbhlyQl1liKZHNm7ZhAZY/1m8dPEfExITcoCQu7XB8Re++uXPdLR3BMSnJO8Hw7ote15/g/eTaJu4Q5hMu4WHCBHum5Jfuq6a67fJPSn6Rbg7NA0xbq7rRWBgHnJKSUKHGP9N3HpivXz9/MBtXDhZvnL5xG2fuvM+8ELzQXJK0kwFCjJqAsi3veGjpXry+A0Pk66Me5SMq7Az3EAY9gqcR3QL4psH3YkgV/zM1YcLCK64kHNhw/mz5771zjvv3AaxC8C+gHE10xs3Uy0Quv6b0Do1zrW1dQSChpHzZ86/D/EQyEP3fa4d4iP0rly76oPAwKCmuIT4c+Dpqc/P379zWD8YOj4yGlhbX7cRfI/H5J6/sBNU6gLvv+veGIivADEWBsEnOgr51Ps6K9yoh/gNDqMD8F86CNSnLjBQ1mgh0KE/Wb1uDVmzYW0+2Po8AoT8IKwpbtXZSGFgLqNIe3I7bRyUiotWY1I066Sc9qc4ZAmqYWZc2dhcmhzXLU8g5Q51AgZtxzNqU3MbOXDoLDl28hIprwCnDJwQ68BfcGpSJImNCiWhQQEkPBQNvBn9HoeJ3g+h4eubu0hOUSWE5wXPDDBA/Hw0JDMllizOTFauuu2upMLGOSFw4nnankExZ94xYgPIttihp29ATzp7B0lLe7dPa1dP7Injx2NPnDi5MVSn+9HKVSsvvvivF1656tqdf0xIiLdZQjJnsJuiIbFxMWNlJeUXwOAqFtz6LYED7xIgoV59EMCFLiqjgg4Z9gqDtJOpIaivkM0WpT6dqkR/U7kGcwr2jIkbyDfPlNWZeySnE129D4qZz/4WCN5ggoOCiS5U1w9E/ARg9Hp0dEyuuxNygR8EFtLveX3PbmhiW0xszC168OmMxmloBMsIt1AlMUGcwzCZIZin5ZP7i6Wz6Ct9CokFVd/gBwA1E1DrpAcFB5MQ+ECfDICXlcOgTnRqtgg5bzulXwYcBHICSBx0U3il4UIclQ4PG7v0sXs3cso0molMYGzmgkHmntj4uBVgtJ3e3dFNGc3oqImhssLADexJGaN8aKrH7CgYOo/BB8c9PmBLE9mrC4mEcj4PRBz92p/Wan2qff39akcGhyIgbXxTQ9O1AwP9pL6+HozGh0lzU/MUvWDcR4ralzK+1bVhP6PdQxBE6gwPCweVlbhGWFP+ER0Tc8bdCLlhXBuPYSePB3cY3PxkpTo4KQcpx1vrCaTcoVbislbf0Ez+/coH5PjpPDAKQ0GoF4kIDSZL5ieSpfBJiAoDMh5E/CFuBHOtxK9N+SbdCyQOnxO5pbA5saW+p3+QxEbqyNolqSQITtSmp+9pK40n+0nDS306njYHmcACAlSxCNWWULWISjlR3Qh1LyFwBEYAhDHQBb6ZuzDsd0MHyS2uIWU1zZqPPzy0MicnZ+XJE6duPbj/wM93XLPzbQnyZAQgAh6qszyLn3OnczbVVNdcuWfX7p/V14GUCeYaPkzPFbXFDGHc6e/4JQ+/Tm+p8FeVJESRmLIvjEJLM0m8kfNBo8qZ97RgSEJLM6tratgIsb5IPvEvRmGu4S/mJfuGd5GQX3P9NWTpsmWvfOITn/hMSIQODEY877nljluegFo/UXSpcFllReVNf//b0z/rALeRHW1tiuG7QfWZLWKGvuSBllQ63MYL3WTaTr/nQhLjfPjNlhgnfKyobzsMJJ4Rc+HJR/TVGOQbDGT8tjtuJYlJiR/ectttN4FO/8C3f/idWe0YMFgGIPDDNwE+rhUPM1g7ysvVhxrOBWjNGWk3ngA4dgGDy8CcHQg5suYXgAi/3tXVNf+Zvz1zpLK8UldcgJpYHFUqgTasMYa1hY9ZDp7psVE9QmvQNzo8+XkFAup18AN+aB/gu+bWMbODC9cz5UbEYI+DaTXeGmqfZkrJkZCnL0gnEKlz/L8+//mtkdGRl6LjYlh4YTd8YLyC1jduvqihIEa3fTxa7bVJ1VRzC8jMIoHzDtrIKqKeh/a102QSzyVJuWpq8YVsHAh0UUkNefr5N0hhMUjHYUIEB/uTbaszybZVC4kuJACIuI/JFSu/DMV9gu3ikC6Q3H/zRjIvMYIcOpVP2rv1pK6xgzz12iFyJi+F3HzVajI/FQxCjU7lSqBn8wNGGHqId2j1zRH1mR1vc6E0ulQKlQOKM5PuoWFugJ8/2Af4k5gIHW3q6ux0cs2mxaSxrYt8fLaYnM2rIh8fOLQ+N+fcWz/9wU+ef/ChBx+BwBKdcwEXV7QB/IS3gG7jWdBLfh02jIX+/qVLsZzGxkYyAcbM6G5w+kdFitkyxx6zCrJ8KTTiJEJwocrH4voovjDOR0muLnNKBV32fmhYGJVkgfRqELDoTctIPwQBPN70VEKu7itoT2N4ZMQZUL853tzYtLq5QefXAzci+MFgQ4KMiHcYR+SCBSPspttHzX2v7ksVgTHJV3XRaDRe8ICkARugCPBOAdL/Cbjq3wVeKj5CQj79eJyxFKphJ8gjI+JCpdH4VsYEJ9PbA3EQdgY3mDEIHCsIQsrrKysrG0Cv+mVwDbgNYg1kYY4NILUeHx8jw6CyqsDBB4t6rlvpC0VVycl9oD4MYkJFOGCmf9Rrm9mxC+9ofX2pQADsUOiBcvHSJU0J8fGHYD5WuDMh54s2k73YNP8tjAEj/Nj5FTj/dIuJYwPKirdhbmrwI1Y7MUedM+2g/62og0clEdR8BK6xLuVVkr8/+yaprGokWiBkGamxZCcQsDWLUvkZl8HKuDcSOfyZ+UMWlvo0QAF87QsL/I4N2WTd4jRy8lI5OZtfTUqrmsmJixDMpLGdfPHO7WQpVWfBvLjjrimHj5CQqOB1Tq96VH/NWGVxo6OnWuMSNWD0FRocSELhgJaVGkdu2LqM7Np/hhRWNJFX/v3SAxBYYtuZU6fuWrt+vcsCS8wYBi4oKHtxNroPw88+zH7Xa7sf6evry97z+q6HB8CDR1215Yjl1JsEnXPsYXPX2LRvks9eTCNkFJSYM3/gdCar1mu2nk+eUIa06vTM+4uQsor3FNIpXuJpFBhhni9evoSAW7L6L3/tq+uBBPbHJ8R1uQDmWckyNT21FQrej5/C/KLlxQXF94LnnW8VFhZ6teAVPQSUEn2nvr+gAV2gA+hNA8Vs6uqre8m0y5SxYfaGg+UrJGqYVqzlyfNSSIguhNz3mQe+A/2Ts3L1ioOzAqLlQrHZdHizscc9EXGJuTkvNiIrdvbh80YQFw6yNwjfYUlTJMRu1maXVCctLQ3tAr6AmcP684Penp41Lzz3/M2oStIOaqvq4Sd83tNxQ40SDKd7lVgP/m5uMzZem3C9YIGL2I2gkIKLtYiWy9chZW3COYEP2gPAd2INRBm54By6cB0GsyKf/synz8XFxe259hPX/R9952v/7RL8nJkpTnvAAQO0GauU2VEInRH0dlT0hXtcAUFPaZGUs1vgCYK+belktqONpq94iqGnVVSVqSuwJuJgbwY98Fd2HyBVQMhxZiyYF0du3bmSpCZGUxUVASRepdMFUVncTGUThoGALo10If7kqvWLyIK0ePLGBzkkrxSu7Fu7yct7T5PA2/xIelIMm2y4aJohBU7oN5mFCxBggUi8SFJMJPn8nVeQwzml5L2P80hZcdm83/7yN6/lnDlzB7hPO+uCoudUltmLsvcODw8f9vP1qQDjp4Sm+qZ1nR2dKzs7O/wgoibpg2A9qHM5Ogo6yiZszXA4VkvL+ZxG8sKRYoTFcHtvyMawVKinHk3L31WXaZCSsfwEqTO34KA0nHk8iCbRIMGC24Gx4JDgGrgheEun011MSklEn+5z9omKiswjixY+5+PnU79mw5pVxfmFd0I/BxYVFkNfjpLaau4AQnQGPQTzxVj0G73BUmt6m6c+YkNnqhyTtTTUICOrBd/v1Ac8hGUnsXFxJDY+tit9fsah4OCgixCifVcQSPzdrWPo3oBiPxx3KuLB4FPRSLGn4eqkHD4pQqxJhklBX0PaaAiz5W6tdn19YP15FYKE7QOsanu7e1cXFxRtbGpuJi1NaJDeQ40vjR9+aKTrCxcLGI054xOl4QZDtabwcW58uGRjnfWPypEDz47+mSaZoEbhsJYQ8AxGx2/WooWX4EB5cfmKFX8HSbllqYbr4bSnBFieDTqG05zHp8xfLVRBvPjHKj5oT8VteAel5HTgqOpldPizIS+jpJ5i6GlV+yil4oMcPa68tfcIyQNJ+RiorMSAEecDN28g0eGh9GQqDINw0UfyLDZnpgeLKxvVLKcP+lumCyWPJISLqTfcL8yLjyL33biBvAZS1XMFNaS0poXsPphD7vvERhIXHU4l7vLxHASwvyGeIx1DwaDismPtIhIXGUqe2XWEFOQVpGIAHbDy37Fo8aJKz2nVzNd00eLsEl4qDfcM7sHCK8rKd1aWl99dVFh4Q1NDY0B7azsZU5Ny08Or6ndB4aj3Fjzs8szNnXfNScZNSbhaH5ltjOwGhU5x9Q5iUgASv4jISJKVlTWWvXjRR0DG/wRqKieBjDMl+jn+RMdGoxwDFWupcu2xj4++C4FXUoeGh34K/wYgKTfC2twtBV9VaTqFBFkCDhdzugJPIuZq9QCUxvvCdX8k9M3C7OyRZSuX7wbvKo9nL86iEWHc9sHmca0cJjFlI5uxdNZuRhP5DR/9lu1Kaj1po/bR/U+5mXAH8jLj8KvWnzOtza0BRz8+8uPc3ItfHBu7GAqHSAKCAmWiM681zOMF5QD8d3a0wT8a1KYYt2Y36YgxPVOJ/uEHzUnrj9E6Zny4VA5YkC0YjVI1K1BT0cP4fXbLti3fjYmJZpbznvewcae03f5hyMLJqG5SmdSEqo3M5gP9DrIAQ7sMbNEZtQIhgzOycXEeVvUqEnE6w+CQduTkBbLnnSP017iIUPLlu3eQmMgwNvFQKk7nItuBGXUWuzEugDjb2LeGK0Q6A+kqinIIpnU+QWIjQsiDN28mEbog8vGZInL2UiUJhA3iAdA/R//mVFrulEsNFyMssydjsCni5BKBOHx9NWRlVgp59EufJI8/8x7Jv3Qp7fvf+N7BQiDmQMokMbdyzICf307QR94Tnxh3etHSRX/Rgxuxrs6uhLGx0aCKiqqb+gcGFsP3EaALCt6NBghG2BuEn9FoFKVaivqK8H/HV4OprvcZOeQbJ9td2Yylc59loAQuErYH8L1/QAAJgJDVIBWmeuKpKakQZMaPzM9ecBRCWNdCKPajoWGhpaBHXpY5P+OyHgMLshbsGhkZDQrSBV0CV7NhO3bu3AiuMZe0trZu7OzqDESfz3j4wsBszU1N1HuLIqXkdh5s5eXSRMpFDVfVgrjjnMQ+CPAPoJ5toB9Iamoq9TOempk2AlLwfNAr3gd9VxceEV4IOvDF6Rlp7i9dRKvz8YkRIB5aqsWldonICR87KAq1FhUJUH6cfOuABu08MI1V+6aV09gjk8FBUl9dWf042Hns2bb9imwQCGyHCJtLS4qKVuK4LCjIp95SOtu72EjENQZQwzUHvKwwOiHWC0STknSMyckeZgLGDBqFUJAtLlyCqiJu/N6IJKcmE3SZmrV4EfUGBIF/joOUvCAC7HLAm0pBeGR4iQcTcobLxMSIQcJhv6xcCEmEWg8VkKpDOs/aqMQeH1eFf7K/jZOb4Bk65VYtLowze5GOjj7yyuuH6DTx9/clV29eRBJjw/lEwos91BHHqQTX5wIRJmJnZFvZuMUVOSteLI4oq6PveaHeJAQXCvCjhoKlNa2koraF6ppvWpFBlmelUnIvH89AQASFos4wFT+/XiQuHA9em8hfXz0Eqiwlaa+9vOsX0KJ7PKNV7lFLcCeGfsqq+Uep1KlTZ07BlXJKYUHhbaB/ntbV0ZHS29MXAORO09bS4qu+alY2Qpx6PAd+DLfQSCFpZC8oUnB1RnSVMMxRlLgi8YuMihoAo7FBOHydAxKeu2nb5seBDHZExUSa+FtzD3xnoxbRsTG4M6EXCGpLAM8rlaWVqRXl5VeDR4yr4LPa18c3bmBA79PV2RkAKgUcafNrojG95P1CZSxexAf6JQBc14aFhw0FBQYNZ2ZmVkJ/NK/atPYp8CFdDnYNF2cDAwfLBEAmwFXIxCq2wRgGNTtHqget9SVR7khIC6jyuLVPfOtb5FjK1LTUdsgBPycb6htf7enuSfHx9fneoF6fXddQt1I/oNd0dXTx9YGtGfwMb6xWJKqhSNPZH+jBia8pqi60UOkJ8JMfNgZjd2jpsqUfgc/8M6tXr34qIXVO3bbhuoA2Rosd6zk+JUxUHCFPd3BVjDpQ/Y62z9L7VhFeVxVuTb5F+YVpj/3ssdyzJ0+H/OWJb5HMtAQLr+Epapy89e5R8sxz75ABOAEvX5AEUuvNJArcHaq3AnrYojrfjGLjKNJDhM/Gtm7SDVEgmbB8goSBnmKYzh8+QfT3cZiQYHZLyb/YRMTVxYXiWvLnlw6QEbiWX7ckg3zrczdQUo566PJxfwS4dhK7JaE3Iqzv8O+oavHmx+fBAPQsCQ7Vkf/71S9uueKqK950/1Z5Vg07OjrQSMgXJFZawFwL0nQ/5GUgiQ2oqaleB38LHx4cToSuCYRDchhIvTbqBwdTIeBNIESiVIg3Ejk6v6mki0m7mDRrAiRTqdU+PtpG0DfO12o1rSBhLQkJDqmIjY0t8tJ4j4MawSj9aLyHwUDQGtcxngXyDNYW+sUXJOS+IyMj/pTAjI1r4DYktKGxaRlIKmNAlSAT/hyIkhKYcbSLwGxqDG4pKuCWYh8ETBkMCAjogf6EpddrHPpkBPpmBAjnnOiX4uLCtJaG5u39ff0rwZVhIG2/9wR6cQRVITp6uaUL372YtACv7+GGewJCTE/gTTeGCxqDZQtIuNdwUEhQka+PT9mGLZvemcGu9siimhubcexpYCz6dXR2zqupqrm9s6Pjrs729nRUc8HbndqqWipN7+83w8GoJMdwuxMAvsTxhm3evHlEC8F+MFgVqFXVwg3OXpCQ/xtIeIWPnx96/xmJiY3u80jQrKh0eVFZZHtb+6qO9s5VIE8OAns/DP6C4zsYPrgWqFVQUBbKxzTNHH9HQ1E/bxSNM2WG/sAA/3w4mB9LSU/dCzeWbjH/339r7/9C3baCOHc+jINAaCv628YP1g//ZQMETOJVf8O/U1E7T4MEH8cEfgZ9fX2a3F59hV4oqfSKLI0JJM3dPXpy7nwx6YdJFOKvJauyk0m4DsYBSsHpxswWNxbhk109lYAh6MEzJVTKPQTuk0Zo8BOmZaqFK1INjIsQUEWJjAwnPrBvtLX1kV64XvdCDwM8DyRveJkxxgOnnC2sAD/mAyQsCA4D8A5GGxuHoYbqLExqp44hZqlF8u8ziYByqUEJOT6MkONHq/Um125cArYD1XS87Hr59R91dLTtjYiIkpJTJ3YSXN/i5DMbhr6goMALAhMFDfbrw7hLKn+NVnsKSN482DwXgCQ2HP6O69kEEDfQQoKtACYaWh3hAzMPvY/3gnu8E7Bxduh0wXWgAqEPCgpqDA0NrU1ISvRUHU4n9oBzswKsxSalJiDN4MkFYrSMhECAlmIokRpNsS5C2ceYN/RP58JFWfnOrY375bZwYXblxfPnfeHgUQyk3Be3JuDdVGmZyoWEDhYzKIMtSXWFR1CPgv4B5EJUSoQeosf9A/1b0AuQ+7XW/WoEBsHCPSbe+LSdOnE6FGDuHBsd3QS3ZqBiN+YPalNx4ErXB4yZcW0xkbBhD1FSTokFGGzigXIUDL9rwAalB29zgJDnwuE+Fww4z6I6jfuh4PwaZWRltpfkFZ/x9tI0jHuN+3C5JJIeHOP4EaRcfbmgvgDF78GRELWzoMTcz8+3Az6t7kLIsWLQr/uhARegqiA8mhiFHQfJN9re4Ed9U4XtxL0N/4YfQdbF38U7XuB1Z9jtSblylTfN2BkH8lwF7tdKyuso+Y2PiSIrstNwpeLqKnTJB4LMvK2gx5R9J/LI4fNl9ETMtgQWyVM8KHzA8lF6jn7JqacWTu2RiDP1JlhD6ZUW4Eq/hxwA9lfeP0MeuHEj8fel3oHYw1ZWttyqRffTtE1+PXsIeMNUwrEVCGpKn/rEBvKHFw4Q0CtflXs+72ao1euzV7PLq+RFixZVXF4tnrutBSNM2Ze8e5etXIkHE/m4AQLrN65Dt5nu5jrTDZCxvQoLlizsgrfwM2efNZvWHXdF49yelFPuSq+imbMnSw+qGJRXNZDOLjz0epP5KTEkLDiAybypGgJIrKmOgjepqm8lL793CqM4Ur1wJjNnhmCoomLwN8kIPVNyQck5IWkJ4SQC3CJSDo//5VfkjGN7kcb2PtLQ3Edyi2pIPvhDX509j6UVFtpUAiu8m7qiS2WezkaAHthgUCxJTyTZaTHk+PlycubEqbvgr5KUOxtsmZ9EQCIgEZAISAQuUwTcnpQzrgvybSDL8fGxFrsJrakLIXrnOEi9UTdlxcIkRRiNdyHjVAo+Tjq7+8izbx4nNU0QVIA7YxD64tRIBnm26pIKiboIUIJ1yIgPIdtXp1Ap+bgXSNKpNTZzlYTMraimg+z5qIy0weHgFAQWWpyRCFFDtVw4TkXlNK3UNPeMGTeOwThQWk57zItsX5tNjl8oJ6eOn7gegqksWLhooXAB6BkNkrWUCEgEJAISAYmARMAtEXBGECKXNoypazGzSvSmYukBf7kQWhcCewFx9gGRdloyhL3nRl4YWAgZOPL194/lgSoKEHIu4RaGGkKTWOQvjH6FSyTMAvXN8yo6SUtHP6ileJMgUE0JAMKNpDsQInAFwr/zk8JIRGgAVYmpqW8nrR09JgRcqL24FDaZuZMQoLch3LUV2hEkx0aAv/tgUlpcFlxXV7vcScXIbCQCEgGJgERAIiARuMwRcHtSzskxMiPhjNBslw0Nj5G6BojjASkzQXXFF4zzKBenqi8sxllVQyvJhwicQikFM2IejoTePf7OFVEmibLRdykhDWDoeexiA+kbBG8P1F7BYBiKhp/BAb5kzcJY+tf6lk5S3dQO6uaosqJSIpeuEj1m2uEwYD3HvPWEBAWQJZlJYDU4Rs6dPX+VxzREVlQiIBGQCEgEJAISAbdGwO1JOVUoAUY7nbrHGDAnPRBlfGIhYBCPycU0wqmkE+LugoS8b2CQf8epFg0eYsid2blTNm/UcUiqUdcHyfalinZS29LLFRootUdDeK6aMkEWzQujeumDEEGsrqmTjNBABPAXbIo3+EdH9i4fj0CAespBo15qGAC3MOCRJwn83uOvBRfz1nhEI2QlJQISAYmAREAiIBFwewTcnpQzOiT8glsms9TdIOPH4CtUCcZNiRSGBaJeUdALLv5EKb4hr8lCcbUPFiZtxwe9rOA3+sExUlHXCzrl6MmGvc0MUVlNw0IgMqC/DyVuza2dZBhcLbJEvIqqSF9uP0JkBalhLvOwA3cjGi8SCn7r0VVma0sr6EjJRyIgEZAISAQkAhIBiYDjCLg9KedsljLfunpQT7H4UAtK5umEGnXyN6mkE/86BhLOSPBf7sck1pRAW/6gdB3BEZJ25j2FFYAqLnWtvSwCKC/HG8Nf0N+gbAjZHh8ZRL9p7uilwWeoa0Y8DKDDcmMhvOO9KHNwLQLCAhjHA/RhaHAghEgOIJWVlWGuLVjmLhGQCEgEJAISAYnA5YKA25NyqsnLGfagkDib6x2V9BnVWJh0G2XkKOXEF7xISkI0WZAWzwm5QZNcaJSb/su0xcWHV4LFaaBEn5JsboiKJahVZiLB2BOfPv0w6B8zl45Gp4DLZYTNiXaKUYD9DaHG4CbGF/1jqq9b5kQ7ZSMkAhIBiYBEQCIgEZgtBNyelAcGBughJDY6H4eInVMHKvPxAaIE/Kmts5dFYwRCjpE2qcQb/u4L39+wdQn4MI+l0TrNSsq5T3QTlXLmyUXh1RMkOMiXGo8KbXcoSaUQM04PA+xBI0+UkHO95NnqaVmuQwiI8YDjyh/CJwfARz4SAYmAREAiIBGQCEgEnIWA2/spD9aFdIeHh1cDw06ug6A/q5cvMNt2Hx8tiYuLJLW1LTQoEFckoZorICv//+2de0xUZxrGH64DM8wMAoJcBxBFxVulYNFWa6v1tu3GbLftbnWrvdm0MXvL7v7VdG/ZbJPNbpvdNtFNY6Vtst2tia0Sq9auVRFExQuugKCAIMj9PsNcgH2/7zsHpqYXGwnhwHviyDBz5lx+55A83zvP+3ykjdX4Yzo1gf78J2vQ3NaNTpqp8/bF4x2kjPE+0LS6UlCPLPS0r38AnxWVSzFuMekzxaq1VC11xDTj91mRcy52r6Ztl2uRQP/WztWxusK8nbsnQJYjNY+16CvQB1/sQbp7sLwFJsAEmAATYAJMQCcw4UV5dHS0a9dbO0tJ1N5/tbqOjnv5iB/c/zKGmkKQ5kgkUd4M7+AQrtc2IyM1jsSUaPJURhSliYepCTMUqUnTkfqN94GyqOg6WwjxyuuNOFJcISvmsdFWuU21VbWeavZU9Xenm0Q9/W6iwUKg5mFnM7nx/vBUrKY+xpLDO/S7BuByudUIixcmwASYABNgAkyACYwBgQlvXxHnOD02ptxqjcBNmhzISdXq0UWvTAfAFBqKWenJ2jwvwzhfXv9lPFIYK8E88imRpnL7w6867pfhIvXXDYo3lFkuVCSPJPuKLsilZpOlb1UvF683UZ65OBi7RSR1+GHmKvkY3LbjvAm63qpKLtp4A+GjiaE8NPCjRfcojfMB8e6YABNgAkyACTCByUbAEKI8febMM5HTIn3dvf2oqLohhbT/In4VjXczqYlzekyUzAyvqG9CR5fwoCv7SCApKhGbKJJZROVzNJ/l9kuqRyZKG7imswMo1tCHkv/VypWjbeGUwBEi35QiXa5H25cWmWGa+dOHrh4RgxiImGlWBNGx6cMBLa58st1Hk/Z85FhrSItEFFebZHjfgBe9NDh0OBzdk/bE+cSYABNgAkyACTCBcSVgCFG+aMnic/GJCedb27pwurQcXpnCottGRP64CDwcwuyMFMzJdFCWdCBuNnei5HINWVmock3pJ9LAIqvlIp7wm05ba8zUdL/8Qf8VXqhGfWO7bBrNSo/CNBLmekSidLmISqocAASg6kYXPKTeguh5WlKUtLDIvHQxhxAXV8f1Br/7nYlvU+TYTtqWREPvLZqpdYiEekJSYsPdb5+3wASYABNgAkyACTABUco1yHJv7r0fezxuXK+5QRXwLnXUeiWbngYOB8FKk7oszZ6LUJrq3kOe7pKyGtm0qfS1HoGo8sa/3gwsqt80KZBcQQj0QKqKOnG2vA5uyhs3hwUjI2kapW8IIwNV3WUXpxD8UpXLAUBFXZfMJbdbwxAfY1dNnpoY1z3nBsHOh+nfN0Bl8wGK22xoUfdf5rzMUgbEBJgAE2ACTIAJMIGxIGAYUb7x+4/uphN2XqtpJAtLvWq+0/swZYMlxRCSLs7LpcjDtEQpgWsbW3Ho5CUMeIUlRZfhegn8q2W5ENeyXZPWDySvidPpwuGiCprBs432N4j0JDsc8TZpf5Hb1NbXN9/eO4Da5m4E0gEkxtnoEanMyLJKrqqtomLPi0EIiLQVEWcpLyHN5uodQiXdg+IK3pO95JhBzoIPkwkwASbABJgAE5jgBAwjyh2pjsa85ctK+vvd+OJ4KfrJXy4r2QIwnYW0p5A/JIJmW3x5+ybYrBYp3E+cq8LR4svwCfuB+ITuR5eiXihkrSiuPZdZ5HJSIKCXBPm7+4twqPASpW0MIMZuxkPZKbCEBamWTjFzKO1TeNWFgcZH4u3ytXa0drpo/2YsmJ1KNherml9INpTKD03wW4IPz5+A9oWJGlDRpSurqEMr9SpkzctqTUhMuMK0mAATYAJMgAkwASYwFgQMI8rFyT69dcvrNrvdVUK+8ooqii73m+FH2EVk1Zoe6SkJ2PzEGoSFmTBI3t9DJ8tQdLEabuFF1z6jFdqVrBf/ZNVdq2DTL529fXj/QDFOl9VBZJeHhwdj5ZJEpFKVHCNpKmIooER2AILQ3NGLi9VtcLkHERMZgdz5DlpVWFz8LhVr8rG4b8d+G1/75YW4flQtp/cH3F4cK6mU35IsW7V8X1JK0tWxPxDeIhNgAkyACTABJjAVCRhKlC9YvPDo+kc35A9S2fu9f3+KlrYOumZkKpCqVz8VMaV9AB5+MBsP3r8YIcHB6HEOYN/RUhRfqiHB7B3JEvezpEtB76Gm0OraVhwpKceuvccpbeWaCMCDnTzq63LTsHTeDNqPboVReSpKywXATcK98GIT6pookINeXJ6diaS4mKl4TxnznPXB0m3iXNqYZO8AcPx8FWrIEpWYnOR8YMWKfJvNxpGIxrzafNRMgAkwASbABCYcgQk/eZA/sZiYaO+5M+d2njtTuqGm5nryvz46ipef34SQENlpKcW2DMogfW6jXPMfU7W8o7MH5y9dRXt3H/b9txQ1N9uRkRwlhbQQ8lRIR3tPH7ro/bbOPrIm9KC71yWr42JrM6LCsH5ZBualTkMwpajIrGrKqR6myvgQGcd1e3jljQ5qBm2mDGtgxnQ7VufOlQMGA/XSTribc9wPSHpUlMVJfgsj/olGBbIl1Ta14UjhZbg8HuTcl7M3Ozf75LgfH++QCTABJsAEmAATmLQEDGmm+ODd91/+2+t/fWto0IennlyNJzetRjDFIKqFKuXS662eCxH17vsFOFBwiuIRSTHTayKzfEiuoFSYqHer1cmEEhSAYMoVDw0NQM7sOKzLS0VoiMgZFwJbjGHENoROo/op+cmFdmvqcOOdTy6QoB+AzWzGSz9aifuyMrSGTkMinrQ3/LedmBTklKCjuZLkfSQGavmfFKLownU40lLq3969czn1ONw2O9W3bZnfZwJMgAkwASbABJjA1xMwVKVcP42nt25++9c//VVewScHNh88dBoxUZFY+3A2CWTh9lXNl7qqCjOF4rnNG6UQL/jsNNzUsDmafkIinCqh9ggTRRyGwBIegkirCSlxEZjjiEa03aTV3kXNW5gYhCAX4l9VyMX+Gtt68XHhNarEuxERbsLa5VlYmJFIq6mIRF6MRUBWyFVHsKyWi0z8A8cvoJgy7y02y/DWF5/7EwtyY11TPlomwASYABNgAkYgYEhRLsDu+MWOX3Z2dCYWnjy5and+AVU3h7B6ZS6CaKLN0Sxw4f+m2T5DQ/HkE6thodzwfftPoKfHparjKmQFVvKMJ8dbkRJrRXKcFSFUdbeaQ74U4i70tSyg0gaVTWaIog97cbCwFtduUgQiNXSuyMnEI8vmU1NouAgslykuHLZihD+D0WNU35ooQd7ndOLDgyX4/EwlzGYLXnxl+2/XfW/dP411Rny0TIAJMAEmwASYgBEIGNpbUVdTN+OPr/1+T9GJU49YLOF4bH0eHt/0CCIsJq1SrglvTX17vF5U19zCX97Yg4abrdo6VC2nqmhwsLKuhMi0FJJlQcEktMlXLrMWyXtOr4k6/MhCAn2IhFsPRTSKn5lp8fjNs+tgs5hlgVzU1aUn2dCEjXALf4dj1BoA9D4AIb7FEhBIF2pQDKDEqItepaaEjh4n8g8U4lRpNULNpuFtL2z78+ZntvzBHml3fYc98qpMgAkwASbABJgAE7gjAoaXjI0NjVH/ePPvb3y6/+CWwUEPshdn4qnH12JWeqKskEuPuZTfKidcZJk7XT4UnbmMwlPnaMr0DmoG7Ue/001WBY+skGp2dHKgUD1cVLyleNO2o+eci1o5rRseFoJZyXH42ZY1ZH2J0OqsJN8DBul9w+O9o5vIMCtp104kqshkTO3yqB805yr1CbgH3KisvYX39p+iyafaYLVa+7a98Owb23e89KphzpMPlAkwASbABJgAEzAcgUmhGjs7u0zvvbPntb3/2ftKW0urbXp0JFavysH9eYuQ6ohDEMUiqir3qNdcaDLf4BCabrXiRn0zurr60EMTEnkpPsXZ75QiXfcXD1JUYm3tTdQ1NEPEMepiLtwUjIeWzsOGB+YjNmoa5bFQtZWqrmLmRzkLpH9l3XC3xiQ8YGnz11JVRgS6Crb00qOhsR3Hz17FsbPl6O4bQHpGWvkzz29984dPPbFzEtLgU2ICTIAJMAEmwAQmEIFJIcoFz77unsDS0vNr89/Z87szxSU5os8yNjYKWXNSkbd0EbKXzIGJUlS0crnMMleze345aloIcQ819/koElFulxpDDx45jcPHitHe0j3Suyk++YM1OVi/ciHsljAZmweKSJTb1eIZRxtKJ9AVn9KHojpvZS+n6CcQFiSS5O3dPSg4fhnnr9TgVke3iMnsXrFy5Rfbd7z46sJ7Fl+a0sj45JkAE2ACTIAJMIFxITBpRLlOi5o/p+3fd2DLB7vzX2jv7JjvcVEqSkQ4oqOtWLRgFrLmpmHe7DTKNg+SzZmBZFmQi3SoaE1+UrDRc1JnH+07ho8LTsAprC1UWQ83mTArJU42dc6fGQ9zeBgJPBL2JMpFlVw2d0rlRw8xMrhN9I/LVeWdfCUBzUEuB05erw8d3U58XnIFF67eQDc1/1LXgCs+Ib6UquO71m5c+yHNHutmlEyACTABJsAEmAATGA8Ck06Uj4rzLtvRw4e3FRUWPVZVWZ3aUFfv8Hg8QaK5LyQkEOlpCYi0R1BzZ5DyFwtdTqVTlYinPORuzzDOlZaJTkCVe07l1enREUieEUWJ5dT8KUW3rumlaUWqeynMpUAXOp9zEcfjRr6jfWhpO+KStHX1o54mBPKRNcluszbPnT+vNm9FXsG6jRt2JSUlNd/R9nglJsAEmAATYAJMgAmMEYFJK8r9+ZRdLJtdXVV9b3Vl9T0V5eU5lVcq53Z2dkTSOqIT9K4XJeF5mUAEZIKldln0S+P3M8BL35K44uJib+Uuyz2+6uGH9s2ek1nqSHN0TKBz4ENhAkyACTABJsAEphCBKSHK/a8nxSjGdXV2JbS0NKe1trTM9vp8Fnpf5LVTwjlElqKZHlH0iKdHivZzCt0ShjxVUdn+jB5n6eHzE+TiZEbucfEdhniPvscYNJsj2udkzS3OWpDVZMgz5oNmAkyACTABJsAEJhWB/wO+CqhpiHRHMAAAAABJRU5ErkJggg==;" vertex="1" parent="1">
          <mxGeometry x="521.3" y="211.38" width="161.43" height="45.31" as="geometry" />
        </mxCell>
        <mxCell id="XL6QC_tOQ0aqBgQdsJjQ-12" value="Type 1" style="rounded=0;whiteSpace=wrap;html=1;fontSize=20;" vertex="1" parent="1">
          <mxGeometry x="51" y="80" width="350" height="60" as="geometry" />
        </mxCell>
        <mxCell id="XL6QC_tOQ0aqBgQdsJjQ-13" value="Type 2" style="rounded=0;whiteSpace=wrap;html=1;fontSize=20;" vertex="1" parent="1">
          <mxGeometry x="427.01" y="80" width="350" height="60" as="geometry" />
        </mxCell>
        <mxCell id="XL6QC_tOQ0aqBgQdsJjQ-14" value="Type 3" style="rounded=0;whiteSpace=wrap;html=1;fontSize=20;" vertex="1" parent="1">
          <mxGeometry x="810" y="80" width="350" height="60" as="geometry" />
        </mxCell>
        <mxCell id="XL6QC_tOQ0aqBgQdsJjQ-15" value="Type 4" style="rounded=0;whiteSpace=wrap;html=1;fontSize=20;" vertex="1" parent="1">
          <mxGeometry x="1200" y="80" width="350" height="60" as="geometry" />
        </mxCell>
        <mxCell id="XL6QC_tOQ0aqBgQdsJjQ-16" value="完全等效以太坊" style="text;html=1;align=center;verticalAlign=middle;resizable=0;points=[];autosize=1;strokeColor=none;fillColor=none;fontSize=16;" vertex="1" parent="1">
          <mxGeometry x="156" y="148" width="140" height="30" as="geometry" />
        </mxCell>
        <mxCell id="XL6QC_tOQ0aqBgQdsJjQ-17" value="完全等效EVM（修改客户端）" style="text;html=1;align=center;verticalAlign=middle;resizable=0;points=[];autosize=1;strokeColor=none;fillColor=none;fontSize=16;" vertex="1" parent="1">
          <mxGeometry x="487.01" y="148" width="230" height="30" as="geometry" />
        </mxCell>
        <mxCell id="XL6QC_tOQ0aqBgQdsJjQ-18" value="几乎等效EVM（部分不兼容）" style="text;html=1;align=center;verticalAlign=middle;resizable=0;points=[];autosize=1;strokeColor=none;fillColor=none;fontSize=16;" vertex="1" parent="1">
          <mxGeometry x="870" y="148" width="230" height="30" as="geometry" />
        </mxCell>
        <mxCell id="XL6QC_tOQ0aqBgQdsJjQ-19" value="zkEVM" style="text;html=1;align=center;verticalAlign=middle;resizable=0;points=[];autosize=1;strokeColor=none;fillColor=none;fontSize=36;" vertex="1" parent="1">
          <mxGeometry x="720" y="3" width="140" height="60" as="geometry" />
        </mxCell>
        <mxCell id="XL6QC_tOQ0aqBgQdsJjQ-20" value="高级语言等效（较多不兼容）" style="text;html=1;align=center;verticalAlign=middle;resizable=0;points=[];autosize=1;strokeColor=none;fillColor=none;fontSize=16;" vertex="1" parent="1">
          <mxGeometry x="1260" y="148" width="230" height="30" as="geometry" />
        </mxCell>
        <mxCell id="XL6QC_tOQ0aqBgQdsJjQ-21" value="Polygon Zero" style="text;html=1;align=center;verticalAlign=middle;resizable=0;points=[];autosize=1;strokeColor=none;fillColor=none;fontSize=24;" vertex="1" parent="1">
          <mxGeometry x="180" y="199.47" width="170" height="40" as="geometry" />
        </mxCell>
        <mxCell id="XL6QC_tOQ0aqBgQdsJjQ-22" value="Polygon Maiden" style="text;html=1;align=center;verticalAlign=middle;resizable=0;points=[];autosize=1;strokeColor=none;fillColor=none;fontSize=24;" vertex="1" parent="1">
          <mxGeometry x="1309.01" y="302.14" width="200" height="40" as="geometry" />
        </mxCell>
        <mxCell id="XL6QC_tOQ0aqBgQdsJjQ-23" value="" style="shape=image;verticalLabelPosition=bottom;labelBackgroundColor=default;verticalAlign=top;aspect=fixed;imageAspect=0;image=https://pbs.twimg.com/profile_images/1646415530092265472/mJL5jdzB_400x400.jpg;" vertex="1" parent="1">
          <mxGeometry x="110" y="287.64" width="73" height="73" as="geometry" />
        </mxCell>
        <mxCell id="XL6QC_tOQ0aqBgQdsJjQ-24" value="Kakarot" style="text;html=1;align=center;verticalAlign=middle;resizable=0;points=[];autosize=1;strokeColor=none;fillColor=none;fontSize=24;" vertex="1" parent="1">
          <mxGeometry x="197" y="306.8" width="110" height="40" as="geometry" />
        </mxCell>
        <mxCell id="XL6QC_tOQ0aqBgQdsJjQ-25" value="" style="shape=image;verticalLabelPosition=bottom;labelBackgroundColor=default;verticalAlign=top;aspect=fixed;imageAspect=0;image=data:image/png,iVBORw0KGgoAAAANSUhEUgAAAYUAAABkCAMAAABektzpAAADAFBMVEUAAAAAAAAAAIBVAFVAAEAzMzMrK1UkJEkgIEA5HFUzGk0uF0YrFUAnJ043JEkzIkQwIFAtHksrHEcoG0MzGk0xJEkuI0YsIU4rIEozH0cxHUUvHEwuG0ksI0YzIk0xIUowIEguH0YtHkssHUkyHEcwHEwvIkouIUgtIEYyH0sxHkkvHkcuHUstHEosIUgxIUcwIEovH0kuH0ctHksxHUowHUgvIUcuIEouIEkxH0gwH0swHkkvHkguHUctIUoxIEkwIEgvH0suH0kuHkgxHkcwHkovIUkvIEguIEotH0kwH0gwH0cvHkouHkkuHUgwIEowIEkvH0gvH0guH0ouHkkwHkgvHkovIEkuIEguIEgwH0owH0kvHkgvHkouHkkwIEgwIEgvIEovH0kuH0guH0owHkkwHkkvIEgvIEouIEkwH0gwH0ovH0kvHkkuHkguHkowIEkvIEgvH0ovH0kuH0kwH0gwHkkvHkkvIEguIEouH0kwH0kvH0gvH0kvHkkuHkgwIEovIEkvH0kvH0guH0kwH0kwHkgvHkovIEkvIEkuH0owH0kvH0kvH0gvH0ouHkkwIEkvIEovH0kvH0kvH0guH0owH0kvHkkvHkovIEkuH0kwH0gvH0ovH0kvH0kvHkouHkkwIEkvH0gvH0ovH0kuH0kwH0ovH0kvHkkvIEgvIEowH0kvH0kvH0ovH0kvH0kuHkgwIEkvIEkvH0kvH0ouH0kwH0kvH0gvHkkvHkkvIEkuH0ovH0kvH0kvH0gvH0kuH0kvIEovH0kvH0kvH0guH0kvH0kvH0kvHkovIEkuH0kwH0kvH0kvH0kvH0kvH0owH0kvIEkvH0kvH0kvH0kuH0kvH0ovH0kvH0kvHkkvH0kwH0kvH0kvH0ovH0kvH0kuH0kvHkkvH0kvH0kvH0kvH0kvH0kvH0kvH0kvH0kvH0kuH0kvH0kvH0kvH0kvH0kvH0kvH0kvH0kvH0kvH0kvH0kvH0kvH0kvH0kvH0kvH0kvH0kvH0kvH0kvH0n///+lzqQyAAAA/nRSTlMAAQIDBAUGBwgJCgsMDQ4PEBESExQVFhcYGRobHB0eHyAhIiMkJSYnKCkqKywtLi8wMTIzNDU2Nzg5Ojs8PT4/QEFCQ0RFRkdISUpLTE1OT1BRUlNUVVZXWFlaW1xdXl9gYWJjZGVmZ2hpamtsbW5vcHFyc3R1dnd4eXp7fH1+f4CBgoOEhYaHiImKi4yNjo+QkZKTlJWWl5iZmpucnZ6foKGio6SlpqeoqaqrrK2ur7CxsrO0tba3uLm6u7y9vr/AwsPExcbHyMnKy8zNzs/Q0dLT1NXW19jZ2tvc3d7f4OHi4+Tl5ufo6err7O3u7/Dx8vP09fb3+Pn6+/z9/vuLZFkAAAABYktHRP+lB/LFAAANDUlEQVR42u2deVxWVRrHn5cXEMYRxZRUKhOzUGF0LM2FlBSXknTUIc19CXQUNcdcGvfJBcUxUSx3a7QprUjDGlPHJfdcpgwpHaVBQwV3RUTgvZ/5g+08955zzzn3vi8vzXuf/7j3bPd837M9z+9eAGQs/K3d6bfyMg4t6eQDlrnHov+tlFnORH+rQ9xgT3yjILvY1eqTCre2lxWVFU6xeqWCrXe+orVkm9UxFQrhoUKz1V5W17gdgoWhUkCwMFQKCBaGSgHBwlApIFgYKgUEC4MbIBwaO2R9keraCqeeG2auQvaKBUEDYYYNADrfdSGGJ1WMT1gQNBCKr7e747pJaY56wmtmQaBCcCUG23k1hXcsCHQILsTQSbP4X6viqgccmlBuA3+FEFyHYZN2D9bbVU+4najks18jBFdhqJ6rpZDquRR4EFyEYSTlPFJQ11Mp8CG4BsMR2rFwkodSEIFAw2D23PAM9XD+o2dSEIPgAgyL6D6S5z2RgigEp2PwzqJTWOmBFMQhOBtDNMNfeOs3HkdBBoKTMXzGctv29zQKchCciuGRBywKuzyMgiwEZ2IYT5ZynPyjqL5HUdBAmKZKUGVzeojq0gvOcnQTCkzF0TibLHKmJ1HgjgTfbYqS2dA1o6EFWcR+WEr+meHlORSEILgMw3KyhBEQjkqM9BgKghBchME3h8h/vwbACbLADyoHBZ/G0X3j4gb1af2I9OOFtouK6RnVrLazILgGQwyZ/UMAiCcv3AtgZoydIm5PAQCExBQbifloTLkxqvKLTjpdUP7uwLbxjUQfLWzcpxcKSzPe2DM30tsZEFyC4SsydxcAqHEfT1Es+0kRtx4AAHGcRE1ptYQn39AkPDDMl/9cj007o8l4dVmoEyC4AEO9QiLvL3YAgI/RE7uVQpNPHNSkGUM524ZGa/OpGR0pIeYhOB/DVDJrAgAAdEXFhbqPgt9stirroN685D+beRBV8pN+axqC0zGkkznDAADA67/ktfluo9A0XS/13T8wn6l1hm49PzYyDcHJGNqR+Y6VXHybvHjJ7iYKPe7oJy+awGjYuHxORddfNA3BuRjWktnGlFxsgCbjl9xDoV8ht9SJtGbZFvOb8zCmPH0vrttiO72QTK4zI1kQgv8tcsasVXp5H1nWFrdQGMiHoDgoPl/buyLtyWtXmv7Z+4ZGgthomChGYTCZ59Oyy0MUKpwKpBCRL1LsvSaaVs0Ua9C1krWh7iXDEAQwFHUXorCXzFMuEK56m7weX/EUnswRK/e0+uDQzyHYom/tmnO8zHQkOCllicTJkET4qg9juThhmsLlYDkKXvvVBWwa1a1ls879E79X3VC9dlz/tkbPc2z93Cnz1h3STHDxms2J5EgQGg0ir0XPYQlT2wkIh9tGsa03ud4oD9qAnAdjnEo/3rfc9RD6ERKX36tHNslrn6qXTg6vXnIrMPaCKpxbFwB2mxkJIqPhuh8XApYIN2ceI6SFw/ZU1JTXJb15QegH9WAK3iu3R7PV39CSjrsoux+5V/SZjsfDYoDaRaZGgshoeJnbWUgifJp9pJYWDiNnuZIo61NNQqezDurbDS+Sg6EmseNDx03laB1Vxo730M/UH4aahsDFsILbWUgi/Gd0q04Bea+XHIRY1MwddkkKweT+KC+CMheSW/yx5dfHYh+HdmXsgnZew/Hyt0B6OmJMSp3JHcJJXmchiXBBHXZXKV9IQeiKCKbXkI0v/JXMPp5Ww0IyUF6+KpwlM/5ck5JxEpHgcCvkT/7B2xgECoaN5L6C11tIIrxddbOPYeFw45to3DeSjfL4kBq1f1G9AEHk76dsRuiGTnQR1AWrTJB7LsYGcJK1wADAevEtYIZqCSYnukI7p7uQRDhGPSlmGxQO1/oP4tdJOtaGOrMNvZKPiCR/Kr34dzLjBt2lMDveBwBTWO48CqNJZwnHmYQkwrc0X79aakw47HdQobmmJCisIm7vZtQynFKELzkGC0IYOY8pipI7L0Ab4Trv77QZidz/ZnL6C0mE39MGuQwJh20bUbZ18nFnGzkhsV64akp5ziiy4q2sBo5WCtcFUw+nq2xOWp3RJuGQfn9hiXBrbYITRoTDs1ADv/GVp/AUOZwDGdUEkrXUoniQYlgNrJMaBnR/mcYTbXCnOgIdQubq9xeSCP9Emb3iDQiHY5AbJ6O2AQ3GANKpksCwhWQ97Ysz7iDX5lpCza1daBoDBwJrYSs1JBF+i5IAqwCEhMPPodfj7oYbUcIsUWStpGlXyV+V4NBVeTCSpSclzXQUh92J5/W3SEgiXPQ4LcnHssLh+leQW7eHIT3SVmkKk4v9wAI7JP1Qo4HRwBsJygD9+sfzuxipABwNuI9U7Tsxd6I+he+lKRQfesPYjgAdS1XMjAbeSFC+40hFTincrQhWAXCFw/YvUAO22IxRuCZNIanYO0FeGiIsBPrFBAYuhLzm+rX/nkxc2JPun04hE13gxbKXYW80eznXp5AnTWF1cRCfHrDiWYtcw5MSdzpyDJLyegpZpH6Jr+Mg02NgjIJdvmFrtV7tCPGzvib6LzoauCPBEcup2jdH/mH1hcNdkAsvrxUYpFDFKAXyOK20kvB7dX9gaDTwR8Jo7r5e/ln1hMNqF55Dd1+rPyMVGqTwGnmpC7gagxMgYImwqI3Q2feeU8QPjPoUyBjJzRsitqxYREY2oC+4GAMfwhj+zqDQCAW2cNgXx3s/9zJBgQykNZLoykiyBaPAtRj4EOL5tU5VDBlLOGxDPmUlLQBMUDigFtAIWgjZhPngUgx8CGMFKk03RoH1bFiJda0hmKFAhmGnSnSkN7k92AOuxOAcCG2NQWAJh/+IdmgPI8EUhZk8bQDLyOjSXW8XYuBDGCdS4xqDFOjC4WfxuWckmKNAhtpyq0r04z/IVrRgnvBfMIuBC0FICoYlwlJGEw4HY6XnUjBJoYZDJExAMRRcmcdK1VE58KIpDHwIYvPoYKMQaMJhlQtvp7dZCugl+K+YhQyKVtf0OzR5st58e09RlH+2Mo7BWRBgD5knJYFjebrCYS+8hTsvEl3hUJgl4jbxvqxcTmrGXhhYh5uaxQLGVOqM1ZvrzNh8hue2UN4Ug4AkwvncbtusKxxGGgHldlOQpJCivY1+0/tteuP5cFx1ViA9i75dnl26gKaEGxkNGtOMhL8Izp9IIvwJN/lLesLhEehmoZhcn6Swk3L/GH+lCyh1SOdteaVs49YU/SzX0/I9Ux4/LNrcxDwGwxCwRDiam94rky0c7oxceMobYi34mlTEUe6jmHxhZ1qbtpDR7SdKL+9CraH4cfyO8PYachg0EKaJbiWQRPiqwD9DXMAUDociF57yvmALyJcTHBQPuB+KvNzWbo+9UCjjcNn1l1FziuI0iwmOpnYCkxg0EKYLb+g2KTqyQJo97WAIh1UuvIOiym60oG+iPKRqnpugcktV38Y6xKheX0jGkaagnejuWRuYw6CBMEMYQkCuzjRPt4N04bAveh1L+flR0Sa8j11/2qigXRV7PtWNHCljsrE+nrjXUtUvGcPKfxm+sapvNI4yenwzDwFLhE8JZYmlCodVLjyRoGSJqV+FzTm+JzVl1760nDINWMsCVZK0hR0etQFAg1dX31QdYRDEd9QVX1vzWlgAVG0QnZSpunPSDqYwaCDIfNHriPxyiofPJCPOKERhGCtVIH0fVzozZV2nvDqIlVRVhBUcjvYmfEo0CLMkICCJsPqdBZZtpAmHIw1TCOVTsH8pGvNQ/aKb3JQSbhjGoIGQIOM6RCebbYKZOtKEw8YpMN8ODWQ6RliWHqRuawehF6WVr71NeVg1EBbKQMASYdH/sICPGCtNU5jEpwBBp0SUupRvXPYRwZBW3ZSjWwNhkZQXHUmErwu/NDibIhw2QSEgi08BAg9ySz1LjSd1y+VmPFHPVLzBJAQsEV4unA3/A6v+ZilATwefAngncApNZejqQ9M4GXcEmAr7aCAkykHAXxF+TjzjXq2q1QwFeNPBpwDQ65JOkXmTmYfaauv0vsNQMM8u9MwsDBoIiyXDekginCaRcbBWOGyKAgy8LUABqiWyZpeijbqfPY5gryqHhX98Gkf3Gn8A2xsOMwszgEoiPFkiI/48yQzzFCD43Vt8CgBB82kqwvsftuBtKHocpjbkaB+JD6lpMJxNfFvzX1sWyUII3kVaPZms08mcqwEAnl4lYTTZbJWe678lPhpx4+TnVIGxT/cPLqLHvrt7uMi8DmELzqk6LCtZ8v96dH/A/X0tgf8DC27eJqpH1PPNQnS3jg1fnbbhy73H92/bsHhYmF2i9AGJW3+4ckcpunFu78qR4fLN42Lw8P8tWEHGwWBBqAQYltqsDnI7hpUWBPdjWGVBcD+G1RaECrXeNAfhCgtCBVvEFU2QaI4FocLtcdVHLTOjrT5xy+JAeH+yJ/hZHeImC5uy88zN+xcOLO7oY3WGE+1/IfF6b9nV7R4AAAAASUVORK5CYII=;" vertex="1" parent="1">
          <mxGeometry x="1296.5" y="400" width="157" height="40.36" as="geometry" />
        </mxCell>
        <mxCell id="XL6QC_tOQ0aqBgQdsJjQ-26" value="" style="shape=image;verticalLabelPosition=bottom;labelBackgroundColor=default;verticalAlign=top;aspect=fixed;imageAspect=0;image=data:image/png,iVBORw0KGgoAAAANSUhEUgAAArwAAACfCAYAAAAbHQryAAAACXBIWXMAAAsTAAALEwEAmpwYAAAAAXNSR0IArs4c6QAAAARnQU1BAACxjwv8YQUAAC50SURBVHgB7d1/jBxnmSfw5+0fjtkZ2wN3cGEhyWR1EhtIlPEfySFtwG3taQ85l7h9Wk6wQvIYnVYJ+cNjiSXsnoR7shIJu0i2JQJZdBePpYjkIFr3OJeQRKBpO8mSDX94LEgwu4AHQpYfYTdtT088P3q69nmqqu2e8Yyn3ur68b5V34/UjHF6xvOjp+pbTz3v8yqCFYaGqkPz8zRULtNIp0ND8ldKuY8b5L87juP+3er3U0rNeP+9c56o0HQcmuH3meG3Tf5YM81mvUkAAAAAkDhFOTYwUB3hNyNKdfituoHDKf+ZhikeEnin5a3jqJP870yXSjSNIAwAAAAQr9wEXqncttvEwbZT5S/7Vv4rCbtDlL5pCb/8OU0uLdH0/Hx9hgAAAAAgMpkOvJs3V4eLRaoq5ewmcwLuRjj8OieJCvVWq94gAAAAAOhL5gKvV8nt7OcvrcL/t0IWkx5gftNwHHUM4RcAAAAgnEwEXgm5S0s06ldyK5RB3gI4Z6LdLhxD2wMAAABAcFYHXmlZKJU6e/nLGCM72hWiUuev+QiqvgAAAAAbszLwDg5WK0TOQcpoNTcoqfp2Omp8bq4+QQAAAACwJqsCL4Lu2hB8AQAAANZnReBF0A0GwRcAAADgSkYHXunRLZc7NcdRewkC86Y7qAOzs/U6AQAAAOSckYG3Z7RY3hajRYqD78TSkhrHVAcAAADIM+MCr7QvOI5zNMYtfvOmSeQcbrVOjBMAAABADhkTeP2q7kG/qgsRkzYHrvbuRLUXAAAA8qZIBpCq7vKy822l1McI4jJUKNDYpk0foMXFH58kAAAAgJxIPfAODFT3K+U8wRVI9OomQlU2bfrDkULhpn9st882CQAAACDjUmtp8HZJc44SRo2lwh9htmdurj5NAAAAABmWSoWXq7pcYZQWBhohSMsQf//vQYsDAAAAZF3igZfD7l6/heFaAgNIi8MHhjj0PkcAAAAAGZRoS8PgYPUgkVMjMNF0u632YIoDAAAAZE1igXdw8O5DGDlmNowuAwAAgCyKPfDKfN3lZeeQ49AogfEQegEAACBrYg28/mYSDf5nbiWwBkIvAAAAZElsgRdh124IvQAAAJAVsQRehN1sQOgFAACALChQDNpt2VACYdd2jkPD5bIzJZuEEAAAAIClIg+83jQGqhJkAkIvAAAA2C7SwOvN2cXosayR0FsqOcelVYUAAAAALBNZ4B0YqO7HphKZNiLj5QgAAADAMpFsLcxhd0Qpp06QdSObNn2AFhd/fJIAAAAALNF34JXezkLB+bZShNvduaAq5fJNM0tLZ88QAAAAgAX6bmkolTp1DrvDBLnB1fzDWMQGAAAAtugr8PqL1DB+LH+GsIgNAAAAbBG6pYHDboXImSDIq2s7HWfz4uKPnyMAAAAAg4XaaU1uZxeLzhRaGYBfQjtbrXqDAAAAAAwVKvBu2XL3hOOovQSxuO6699Att9xA11//Htq27ffct73On59zH7/4xZvu4wc/mKELF+YoDbL9cLGotjeb9SYBAAAAGKhEmgYGqqOO4yDsRuiP/uhDdOedt3HIHaabbx7mkDtAuiQAv/TSq/Tii6/x41X64Q9nKAmyKUW73TnIfzxAAAAAAAbSrvAODOw+l0Yrw3XXvZsefHCUHnroW4mFuThJyP2zP6vQrl23hQq4G5HK7+OPT9E3vtGg119/k+KH1gYAAAAwk1bg9aYypLOb2ic/WaGHH76PnnnmFfrUp/6WbLR16wDde+8uuueeO2MJueuR79nXvvaMWwGO0XSrNbmdAAAAAAwTOPDKQrVSyTlHKXnqqZpbFZVb9yMj97lvbSHV6XvvvdMN7UkG3dUk8H7mMw/HVvF1HHVgbq5+mAAAAAAMEngOb7ncqVFKJDBK2BUSGKXP1QZS0b3//o/TqVN/m3hVdy3yPTxz5qtupVy+p1FTyjmI2bwAAABgmkBzeL2Zu3SIUnLnnbe7jy6ZSPDd706TyaSa++ST/5v++I+3c3V8E5lEFsfJ91Oq5BH3Q2/udJyFxcUfNwgAAADAEIFaGtJaqNbVbWfokqB2442jZCKpnH71q/et+HxN9qUvfZMf36Iotdvqxvn5+gwBAAAAGGDDlgYZQ5Zm2JU2gNXhca2/M4FMXJD2BVvCrrj//v/pfs5RtjiUy85BAgAAADBEgDm86YYXCZFrueOOD8Y9dUDLF7846vbp2kh6op96apzuuutgJAvaHIdGN2+ujqPKeyXpcV5aouFCgYY7Hbqi31k28pC3pRJNYzMPAACAaFy1pcHr3XWmKCVeEKutu9hLxpPJyK00SWX0scc+5/bF2k5m90YVevl1c6TVOjFGOef9DnV28K8av6URfugs6pPAO83fyzN8M6aOOccAAADhbBR4Oew6FUqQTDaQ8CibMsjCr408/njD3VwhjWqvhF2pjF5/ffQTD9ISYehtlkrqxjxWKf2QW+VfL9mRMMqpFU2uANcdRx1D+IWoyF2H+XlKbLrK5s3UxN0LAEjauoE3ybm7EnIl4Mr2umG31pWgJqE3qfC7UfXZZtGFXmecq7w1ygn/joi0AFUoZtL60Omo8bm5+gRFbHDw7sNKFbZRRnQ6nem5uRNHKEYDA9X9hYJbwV+X43TOt9uFwya1+kjYbbedtygdEnpnvIfiuxjUSLqVh1/rB/m1PrzR8xyHmnyRmdj26UFeT73ktVUqFWq637uN/p2wHzcucozlY9/eIM/tdOgIHx9DjXOS/FMuk/FrUcL8fGz52nTw72egItC6gXfLlrsnuJIU6IUVVlwTDWSKwzPPfJ8eeuibsWyykOWw2yWhd8eOv+h3g49cVHn5pDGilCNj+yqUsKiDb9ptTHHgg+HM3NzkjRQTveKAWa0+aW8otI6G3MWI42Kul87XHvdrqBcfT/by8WSC9DTbbbVd92Iq4ASmRqs1uZMM4C2id44Ge7bigku9RiHYdRxUO3Xu+PHXVkt7bVbUlFITs7P1fRs9b80pDXIgiDvsijvu+FAsEw0kiEo7hFSNo5aHsCukTUMW4vVJFmhVKcOkQsIH4NOUQtgVfCIelhPAli27j8rvLUHiuCqpcaxUe7E5y4Yq/mv6nAQcyhH/4nmCNPH5emeMdw4qcnwhAMutGXiLxWRO3tJ/OzLyGfqrv5qIbAME2ZRCPu599z1MjzzyDEUpL2G3Sy4a7rlnF/WDD96xXzilQUKLnAT46zNiK2WZjFEuO1MIvcnyigPOqMa7DLXbndwv5gyi52LuXB5e1/I18terXVXksLsv7K374P8GjUr7BwFYbJ05vMmVu+XW+SOPPE0f/ehfuOFXgqpuD+7rr//W/Rh33VWj4eFR92NI6O3zdvwK3gK1/ITdLpnT2+eM3krWTlZe32OnIScBMogEBL5Fe3rLlmqmq+omkeKA/pxytR9V3uD817VUezN7oSDHyGLRDbuarwtnPO7Wj8tUDaEXbHZF4PVuqaSz0YSEXwmqElwl/Eof7tVIVViee+ut97lV4rgWq3WnMeQt7Ar5mqXPuh+lUmeUMqTdlh4ydSuZaYgrjselD5AgAaGKA6jyhiB98lkMXN2wq3/eTWNRsKrh2AK2uiLwFgpmHIgl/H7qU3+zboiVqq6E3SQmMmRt9Jgu6bPup9c6iX7wpAwOVuWEa3wFVVot5OKVIDb97UKJKm842aoy2hV2PTi2gK2uCLydjtpBBnnooW+t+fd/+ZcTkbYsrEcWbuU57HZ9/vMfp7DkYO6terWbv3K3Rn2Q1d6yopQvAg5I7x3/eY+sspWH/H9ZWcyPujyP+jNUKDjH0dMbp75av2RB5yhBCKqWhbYdueDhu1/1EGH3SMrjHnFsASut2FrYXyE6TAaRtgUJtr3tBN2xY3GTrYJt2y7Ymb9InV//Cy3/6g1++4b3/5v/5r7tpTa/w32IwtC7SL3zXe5b93Ht71/6b13dKm/4inqnwv/TIIs5jnNUKQqjyd/xI+02TeispJbfx0KBxjodZ0eYSqLf+yirq40YKZQl/nikYeqDv6DTiEWPtpHfRQ5c07ZuX95dB6DbGsWvmWOzs+mPtfOPLcf569iJTUTAFisCL59UR8kw3XDbu+taEmFXJjJEMJYrERJmF793ipZnfkJtfkRBAm/x2vdR4b3vo+J/4ge/lSrvXXeFC7x+W0ONLBUy4LhBt1Siw2FOCv7K61H/3+eTnLM/RPCtyPvyx0KwilDQ4fcbGJG7Bpbsmue+liki/P27QUITv6Z1t9vu4uqoO/t6D1ko3DoA5wyH3VEyx8jysvsz2HD+KYAJSiv/r2NUO0PXiy++uiLwPv30KxQnWaT22GOfI9Mtz/yUFqaejSzk9pIQ7X5c/2O//MYCHTmzRGFJUJNbYLZWZDjs7td7Ps0sLUU3G1MCK3//6hye+QTjaN3O5c/9IFdiJoKEbglf/O9EOmCfP+fhoEPcpZVjeVkZXZH2buVGteW62xbRIMPJTmP8GqxRDPzds0a5aqt7EVG16ILhEhlnyN9PzZYM50ypVKiQYfxxZTOt1olxyq9Gu61SC/2yVbfO86UAMz+vJihC/DHdgkywZ7t3OyMtwAT9HpQuv4N7EDeyEX11Rfell16jOD344D6j+3YljM4/W6el0/EGf/HodIsOv3KeLiw41K9i0T3IW1dp1P3diDrsdvkfb0+InXK6UwFqQZ4c9efN3z85IAZm+kVRudyp8R0LikjFxtAWJf9rlwutmv4CLjsuGLr8sDtKWrywa27rgCwkrJ7M82s4zWPW/LzW08l/HUX6WuKfv87Ha0Z/bgz2vEuL1splMjLsCmlr6PaOPvPMK7EuVrv//o/Trl23kamkqjv3tS/HHnZf+90ifeLv36QHXmhGEnZFoUCmjvK6Kj+oB9WMI+z28rbLVJoVFUwFiEIcu1BmdXMWXfI7I9V9zQWbFVte11wJPaQbduXiud0uVM3vk8UiNjBfz5SGjtGrXp9++vsr3sZBFmXJRgumWph6juaOfsVdhBYnqeruevy3bhtDlPiWpZUrq5VyF9wFwmFoPImrfT/01jXeBVMBIiDVXYqYhCBcjHi6oZc0KlA2zDT2xhkqrc8zrjtFMRmSnR7xOgaTXQq8fKI2uvrW3Y1NNqaIg/TtPvxwfxssxEnC7kLjWYrThYXOpapuTIbsrAKoGwI+scl3SiYoIaUS7dOphnElcTdBXzTGNjb4O94I+FwrQltSJOAppdMTadYozdW8sKs3ztCysOuSRYjeYjwAM7mB178qM7aloUtGlMVFdhMztW83ibD7ywtt2vXEbyKv6q4mW7GSfYL+bkwneevR+7e0Whsyt81zknQ2muACwjF+o/GzQctJr9nZel3jgsHYtoa8hN0eVWw/DKZyA2+7bX7YjZP07fazk1ickgq7nzj+Jr9dprgp1cnwa805Qwmbm6tP6FR5NfuRYYVgCwUlsMjPxV/EM03BSMsJfjY9+HV9LOhzTTyH5TDs+txFbBUCMIwbePnAktvAa3LfbvvsDzMVdj1m335cTa8iWkhlYQnf/g0cDGxdOJg2f3TWcJDndjqXq+5+pTcQLF5bqVwm6VEP9Dtl2jksv2G3C4vYwDxu4NVZlJMlJvftysK0i8e/QXFKPuy6hskiOjMOZZg+pUB2cAv6XMcxc/Sg6fgYORrseTTjBzWX39Md9DVUQWXsMr9lJ1CF3KQLueyGXb1Fsv5ObGjTAWP4i9ZUKifqtJnct/v20Yev2A44SimFXWHVwjWdnty0wqR/klzv82x6vZDqCFcb95VKZm/qYCK9UWSq0fua8UNb4Cpv8OHtuRGoTYgrvO8kA2S5squ7SJaNtNsd9POCMbrj4HNX9TG5b3f+2/VYR4+lGHZdMvN5fl7rwJkqOcgHvJ2d4lax7ravu/nznO506AxXvGaKRWpgn/v+6Ww0sbS05kI1qYwFDbJVqYrh5+bxf/eCPHMbpSzrbQzymuSLv51cuT1NgbeDVmMDA9WfY2tzMEEhj302N988bGzfrmwssfjySYqLjB7786f/NbWwKziQDZNFlNJZjOYcSuM2nszl5cf22dn6Pjm5yCp3hKZo6IwiWyu4eBdAGFEWkhWv4bz07Hqfq9qj8z6ytTn6ecEEBW+f+/yQvt3HHvscmUhaGOLu2z38jxfotd8tUZqU6gyTVQpBV9oLvo3nTOEAnw06o8iUcqvs6/w3OkKBKbQ1WCRM2KUEdmSMi1zA8R2PAxrvgk0pwAgFPhDn6kVoct/u4vdOxdrKIGH30TMtSl9hmOzSID0jcoDHAiT7cXUqUPiUap03O3Zt0l5CwauVQ3jtXGL0+Sls2OXAaPU0BrmLxL8bgXvTvU0p0M8L6SrkaSSZyX27EnTjHEH2/M8u0uFXLpAZHKsWSerekhZygOf/ndqyZfdRhBc7cXVXjo2Bjo+9o8jWEmLxGsIBuRcSwwGfeZ4S1k/Y5cCoc9fISMViYUxvEZvbz4t2HUiNTGnIRYV3167bjO3bFfPHH6e4yCK1GLcL1sYHSRtfczo7ml3CX+uoH3zPye1xtDrYo1AI3ku7vBzoLoDOWKeKH7jzLuC4sc4MJSjvYVfIRdzysjv1RWN0I/p5IT25aGkwed6uWJr+PrVnfkJxSXMiw1psfM2FqfL2koovH+yPlkrOucHB3af5hIndiAymOYpsMsjtad3XkFKdKuWY1/PpVII813EKM5QQhN3L5HWvFPp5wQ7S0pDpGbwSdp96apy2bRsgUy1MxdfKIH27JoVdn5UHu3ab9lE0q8ZHvFvWXuVX2h5Q/TVLsUiVoM/lC7iJoM/l4+0kBab25zkY6Gy1LOP4KAEIu1eana1P+GMRA0E/L6SlRBm2deuAO5HB1EVqYmHqudgWqj35ozmD+nZXknBn26IN+Xy3bKkecBznKEXE6/WlUa7+jpZKckLdLSugJRQ1snqCtEOwHtqNFqutJjuv8YWTfOwgQXZoedkN3jqtEJnB39vAWy3z707svytyYcq/+6OkJ9Nht4vvXozxsUvG9wVsw3H7eaf5+6LR126sET4vRHZO2IjMWcdc43AyHXgffHAv3XLLMJkqzoVq0rdrati1mVQzuMozHOOiogqH34r8gU+wM+ROiFCT2EQiOV6riTMc7Nl6bS7yM+SPfyzojmocsOR5uQu8cscjaDsDi/13QxbPef34Wu9j3ZzdfrTbao/OphR8nDvMhY+TGfj+DIW4EAqNX1cNfoPAG0KBDyqZvGX2xS+O0ic/afYuqguN5ygun/3OWya2MmSCbPKglDt8PdaTrFR/5STLB9Pj7bbzFldQpmSVM1of4qVUZzToc9fZWW0jWovX8vbz9r7e4BeUXEE1rkqYt7Ar/H7efRrvMsQB+TgBJKRg6Yr5q5LxY/fccyeZTBaqLZ1+heIgfbsvv7FAEB+5jc0Vje2ae8v3S6q/h7oL39D3Gz29xWpr76y2EX/r6cC3uEul4AHcdvL9LxadqeDjyAJPyEhMHsNul9feE7yfl9zt2O8+RAAJKFDGPPzwZ4wePybcVoYptDLYTk5oc3OTN3JA2pdw8BUjPVMfjmPiQzR0Fqv1V1lUWLy2iryGdcMuVxQnTAuWfEfmWB7DblepRDXd+bw4fkESMhN4ZYGahF3T2xhEXDuqXVjouCPIIFlzc/WJFIOvqMrEB2l5QMW3X8FvpfdTWeRQoNOD1128lkkSduS1K69hnbArQraUxEwd5KplbqcQhJzPexSjyiBuJT7AWL8QRkaPyTQGkxeodS3P/JQWXz5JcTB0BFluSPDlN7KorcK/V9J7u5uSHcFW8Sq+dx8ulQrjWOSmR2exWhSVRbk4Chrw0l68JrOzZXY0RYQ/3g38NQ2TN6Iv1O+IidXdy1SNQ3xVFnLlsdorX/PAQHVcWrCCPN8bVeZOv9lDADEp8S8mnxQdspVsFSybSpg8eqxLqroXj3+D4iAjyB490yJIn9+jKQ/asqUqs0SrnY6zQ7d6FZ4aW152qlztzWUfYViyWI2r9IGeyyfoUO0MUsVqtzv7+eQ+prkBS0XeN8WLmKEoJ5M4fZ5yvD5ZE6u7K4zIJgvFYnVPHkcMyugsvkjawT/toPOUq7IoFyO3IC7WtjRIC4NMYnjqqZoVYVfIVIY4Whls7NvNSxCTRRz8GPVbHrbz40A/O7YFJRUTGRGE7WmD0VmsJmHLv6gJTMKq3ObmoHtOqn8UovLPQXmMwCXtQzYcQ/wdFt3pKpRDpRJptXlh62GIk7Q0/NyxrMBrU1W3K9apDK/MopXBAn6VRx6HvdXoMnWBdvvzRuNofRjyT7aZH3zfL53FajoXLL0VXX6/Pn/GStoaapR7znirNdkge8jv4SG+4NnWap0wvSodKX/u9D7pzw74LjKqTFobzF+McxnfdVEJHl87ZwhCsWrjCQm6n//8x923NpGq7vy34xk3KK0M8rBM7ntL/erUhP+gbt9vDK0PQ4WCc5yD13b09K6PA0mgjSBEp0OBxi7Jz3RpyTmqlBqmaEgfbUW3upwtEnZP1ChhXr+1LEqVn2fY30/p672b8hZ65fXKr9sjQTdbYRXLWhum+Wu0KaDnViHsqnJpKUiC/Du7dt3uti7Iw7awK94++jA58xcpatLK8MALVmaYGYIV5KQQV+tDz4IQWIN/CzVQ64e0M2xULZePF3bqwMacvK7+ly16D6QRdrvkd1SmD3Dw7WccXU22KKacka2HSWP2NFobIA4lf6Wwtnvv3eVu7vDDH87Qiy++yo/X6Ac/mKELF/qvNkrIvfPO2+iOOz7EYfc22rYtmXAdh/lv12Pp2xUyguzCgpULDlFpvIre1ge5Jb60RNVCgSp9Tn2oojq4tnK5Uwu6WK3TUVetznnjqKR9IbbpHGkvXkuBavB56oAJbTlyZ2Z+nka5AjkddALBarJ7Il8Q8a17tS9PP0fNrYdtbG0Aw5X4RNoM08P7yCPPuBs8SMVVHvff7/29BOBf/OK3lwLw+fNz/P/fXDMIS7CVMHvLLTfQ9de/xx0rdscdH6TrrnsPZYHM28UIsitxhWSGIBD/hDjhP0h2V5MqX7jKoVsdbBCswCF2R9CL/vVm78rFhNzu5j8OU8z8xWs1yjippssFhj/uzyhyu50rkHXdjTJ6VPmuyzBfvOzMS+jVHVXGKnwBWUuzqg/ZUup0wlV4Jci+8P9foI/894+s+Pubbx52H9KGsNrrr//20p+zEmrX0/n1GzT/bDx9u7bvpsYXWD8nCKU76zdk8K2gyruSjI3z58EGccVWwv6iNLeqG+Y4GoY/TaJGmeW28ozPzpr9OpXXgoz+40qkHOjDTEMZ4dA7lafQ648q6y7UDUAd5GNdHYtuIQqFcjl8P+Xf/N13tZ4vIbf7yDJpYXj78UcpLrbvpsbBAAevPknwlX5C/R78TtCZmLngOJ3R4M9d2bvpL0o7LXOPKUFykZPlrVj56ztiy0WZhN5Wa3I7f9ZhF6J1Q29cLTDGabdpH2nuwkYAESjIlWXYhWsvvfSq+4DLZHGaLFKLq283C7up8esNPbwRkJOtfuhVOwhc3qIYtTvo83vbGfhW66GIF6U1Sau3PdkLF3mNtdvqRt0Hf3+1ezClNcS2BUsc0GsIvcHIcUsmXmi8y4i0NhBAn9yNJ/gKKvRctwc//3cEl8UZdl9+Y8HqVoauUgkV3qiEOHkME7g0Z+9O+rewubp693S0VV3nSKnkhkON1f9qb9IByVuwpfeQSq03cURLd8GSVST08u+ibI0b5oI+V6FXNuTh3KHzet+PqQ3QL3+ntcIMhfQPr/6KTj35PAHRxeOP0/Kv36A4SN/uZ78TT5BOkixEwTzYaHm3fwOPMBvCicOjM3uXK5z1gYHqfm+VubqVIqEaUgVttU6M+b8TdY13lukdo2QBb56qCjS7uEfFxt3JJMhxwN8Z8q6phN54Fn4YqFgsjGl8n6y8CAKzuIGXX3R9Vdy+9KVvkdO0P4z1Q8aPLU3Hs5OaeOCF85nYTY1PBtbuEiNBURY5yYmYq3yHBwd3HzflpMy/w4GrJVzZzE2/4Hr8LZeDLjRqFgqyIYjDwS2K751cnKidMqy+dxGc37eq09sYuB0jbbpzWIW3O5l9vcqywCpcf72rkpc5vXKRp3l3qqIUtteG8NzAu96onaC+99MmTX1lgvJqYeq52MaPCenbff5n0W9ckRIr2hkkEPHJtsYB9ygH29P8eIsrDOccxznujdVxt3mt8p/3khk0hroj8BYKWifOIZmdSv3zN0+o71x/UZbWpgYVm26ByxxW0rzdLwuWbLzNH66/3uPN6b071Ixf2/h3pzSq/1HdXYE8cgOvX2Xo6zbz2P95hUPfKcobqewuNJ6luEjQzULfbo8GWYArCTUZ+8UBd5S8SuB6J90RE1oE+KIVbSIaZPYuJcrr0w2wXapOW0N3Jq8VQvSb+7sEdqzcXa6f0Cs94t4mJtlXKlEt7MJ5AB2Fy39UfVXe5Hb7Q7Vj7vzZvJCe3Tgru1np2+1lz4K14H3tpVLw0VaQPmlLiX7L37VJz7rXvnCpT/eqvEVeWlM3Avchm0B6XPX7eSX82TmGrc/QW7Oxj1lXiNYGgFAuBV7+hZykPj16pkX/9PWvZ76ftzt6LM6eXQm7Fm8dvJ5pixasaVTa1P60b7vyhcRw0OfmfSyczuzdPv+lI8Wi2q47U5ZP/jptDUO2hcGQ/bxWtjaIfkKvtE/JBRplnH5rA4C+S4E3is0ALix06H899s/upgsSCrPI3VSCw2575icUpz9/+l8zsUhtJSe+cnjE/Ep00GA4ZMBt10rQJ/az2YztdGfvhqFb1V1NJkJovYOFm4no9vPa3Nog+uvpdY76iywzDa0NELdLgVd3hfB6XvvdEh385mt0McadxtIi7RoSdpdjbtv47Hfecr+P2VPQPJGnxwsqOm0+aizNkxKfFAMtnsv7WDi92bv6ZLZomKpuL28b1cBj5iiNmbz9kgDoOLobNdjb2iD6CL1DhYJzPOvjBNHaAHEr9P4ffrH13dYgHj0zSy++9CrNH3+csmLxe6eo9bUvx7apRJdMZHjyR3OUQU1btgvtoXVCTuukxEF7NGhPqs1j4aKgM3tXk0xg2Dc7e2I0ogsKnbshMpPXuiqvP5+3QVocqxdydUMvaRaXpMJdKjnHs74xBVobIE4rAm+nE90Kerkl/7NT/+BWRG1ub5DPXRanzT8b/zxwCbsZm8jQQ1nTztCle9cjjZOSF7CDhwD92+XZoTl7V4O7gcR2DnATFBG+vbvRNIeVn4E54/G0tNskFT2d8GflhhS9/Oq2dugld2MKe9s6gkJrA8RlReAtl6M7GUo/r4Tef/vxP9McV0ZtXMi2PPNT93OPc3FaV7bDrs1BS7vaMLK87JxOotIr/0ax6EzpTBzod+a2zTRn7wbkHFm9gUQU/Jaahsa7WDWTtytMawOH+4O2VzqlbYXvqOpuuUx+61SmJzfIa79QCPO9Abi6FYE3xEH2qqQP9YEX3nLbAOak9zXmhV5RkaquzNedO/qV2FsYRJRh98Pvu4Y+PbKFvvxf3+U+vvDRIfqTP3gHvX9rkdJka9CSSptutUEqveWyMyWtBhSTMGGXT7ATUQczm0Q8e7fZXZhGMdGdnGPTTN5eIVobTFgk2rfZWbkjoNvHbO8OdDr88XW5vRsF8Sis/osoxpP1evJHb7uBrht6ZVcyky1Nf59ah/461vm6vR441Ywk7ErQfeJ/vNt9fOEj2+hPb/o99/HpWwfp63f+B3px73s5AL8zpeCrJm0NWmGrDRJ6ZZSSbBMaZbVXKlsykL5Uck7rzpJdWiLtk2tWSECIavauLPyTFoa4e9L5jtsEaVHWbDW8mt/aoMHuBWxd/BqqhelZlWNL1hex8WtCjru5HqEI0Sqt/gs5yPILTa6eI7tl1A10Y/9lq7srmbQIbP7YHirddDOZQtoXFqaejX3cWJe0fDzwwvlIFqjJ93Xs9q0bPu9Pbxpwg7HM901y5JntfaNSbdiy5e5jfOtVu09StgnlcDrKwXdCgr9XudAnQZerWvvbbYereEr7dzPv1V2lOqP886N+eVMYCmP8c4z9RCwXWxzqGvwqqgR8F9kOu2Lh4lC3tYE/93G9RWnucxtkOZlLzF/7rRo/5+56gaP8x52UUfKa4Ltk495W7kYbkS3oKWWdDp2Mch1BFl0ReOUgyz+8yaBjjoLqDb3uLNsn/i9tGrmdrtn53/j0/S5KS9JBV8imEtLfHMXosaBht+v9W0v0xJ53JxZ6pRrGB/QJspyEnKUlZ0fYKqEEX/7f0cHB3RKUGhy+Tsrsa9kEQubi9q7s99oV3AvOEQ5qI/xd3MFBV95SGPIzyHN117tYiOJ45ozPzp6oUYLkjhv//CrB38OdydsgC0n7EL9O92r8jlVkU4awF5Em4a99D3/tundtKny351CrdSKz/a7S7sLHTPndTW3kYwBD/hb0qeI7kfJmgmBdhbX+kg+yExQDCb3S3tC1yJXe2UN/7Y4vk+CZFOnRlTFjsiBN+nSTDrsSNqMIu1Kx1Qm7XRJ6pb83GdH1hKdJAmn4LUJXkCBb9aoW0oPrnOYw9hYf1J3ugys35+Tv5balv3Vsnwd7dSDP1d0oRnbxBcoBDhY1Spjf1qBRTVaRFiqSFK59yPjqXyD++hmtzTg82WjtuDosYINorBl4/Vti0xQDCb0PnDq/4u8k+ErwdCcinP5+LBMdJORKf66MSZMeXRkzFvcGEqtJ+8KuJ34TWWV17PYtFJa0NkhgjluWKoteaFR77BqZI1VJ+ytg/eCqWT8h0F2c5i2sSp7+Bij2bTXcy1+s1Aj6fLm1z1XOGmWATG7Q34zD7m2Xg8BsXohKab3/wL94x/gXKZbbCLIxxWu/W/QXUV3+FCSAXqx/w/vEhv8zFd77Pir/4S1UuPb3SW1+B+mQgCtV4+VfveFOh2inPCFCFqc9eqZFUfEmL5SoH7KoLeZNLhpZqyzKSWnz5upO3QkJ6XDG06hKmsSfU1yhELxWELXTgNewhKBK8Kdb39uq+fWq/Rz4DmdhB0HvFr77mg28QUrPtsuZrYTKbF4unuw2/5gLJls3McWxeK3Xy28suLf2pZ90reDmBlR+LH7Pm5Yggbd47fvct+qd77oiALubW1y86IZm6RE2ZbOLKPt1e0mFNoqPsfUaRRcWHIqDXDRRBkkAktArm0yQob1lcgt+bm4ylaqkSYrFcO0MBoVdOdlP87FYwlzQY/GIVPxsDYBS0dNcrDfkj2SrUQaEC3dua8OkjQsWg/DXFh1wHCf+HaAgswrr/Qf/VlqstxHk1v6uJ35Lj05vXPmUACsheOnsD9wQLAvNeh/yd9IaIYHXlLArX5e0MEQddsUH312mKPRbJV6PBIYsrxiVINRqTW4PM0czTvJ957C7Pa1b8ObR30rYpLAr/GOxzsWjbDU8ShYLMaZsf1Zu6/f082rJemuDbrsLwGqFq/1Hf3vLWKsE3niuJn32O2+51dAscKvXf/+m+3XFVT2NytZNBYpDp2NWEIyLzNFst9WNBhyI5SQ5Xiy6YTeW/nvbhJm9a1rY7aHVh83hx9qZvEK+/0rphXxbN95Yi9/Pq9Wi0NPakFkhtqIGuOSqaSeJKm+X9JJKi0PMPaWxcsP7qaYbdiX0xv1vRfJxFqP5OL2yXt1dzav21nfyCWpfCsHXDbqlkrpRwncW+hijIrN39Z5vbNgNs5C4YvvGBFylrpEWpV3NN1mIHejI33rY5BFeffEXDmMBG4SyYXkviSpvl7Q4SKV31+O/saraK+FTxq3dcexXkS5Mu5rX3uy/TUI+7yg+zmp5qe6uJiHfD77bpToV7zQHJbN8D9gQdDdvpmbQ7wWHzsi+Dv43A9/eNTnsXqa0dsEslzfuL5efDRlaMfPDTUPjXYZ0Qr7O6zIt/PmFWYgWOPDycWqGLBN0u/d+frYyH50sw5/zzwmuKtAke741WNPbASca3pzZLbH1mfZLAqP06crUiaRbF7pbCfdDqulygRElCQ6zs5M3Erj8EVGycEprJ6XV5OBdKKhGp0NnZEEpKrkAAADBBQq8/k5F5yimiQ0bkeArI7SimEwQBWlXeP5n8xwYW6n26Erg7ed7IpX0qBfUyW19bG+4PrndWCjQMAfXYb44GOLHDWs9T67WJeTKBYSs0kfABQAACC/wXqV8oh5Le0/rD/7HMn16ZNANeUlXfaWa++TZt+n5n16MvT83qPdvLdIzn7jWHS2mSyrTsqguYo1WazKze7sDAACAnbSS0uDg7tNkyNxR2XjhT/5gc6zhV/qInz83b1TIXU0q37rbBMumH7KwLurqtEwryPMWtgAAAGAmzcAr/YjOFBlGKr8ffPcmdzat+2d+bL1Gb9yWhFu5vf/L2WV6+ZcLHHDnjR8p1iXh/wsf2RYo+Evfbjzj0pwjrdaJzIwFAgAAgOzQvhfOofdwmGHuSZPb/O/fUnKDr/e48kuVqRAScC8sLFsTbtcj7Q1jt29dt+ItFWqZJBFHpVr6TGX+K/pMAQAAwETagVcWsC0tOaexp7W5pMItobe7bXDc1WosVAMAAACT6a92InNbGyB5SqmJ2dm65jagAAAAAMkpUgiLi2dnNm266Z38xw8T5JY/rH9fu30WrQwAAABgLL2VXT1KJaqZvksNxKvTUXswlQEAAABMFzrweguU1B4ydFtKiJszPjdXnyYAAAAAw4VqaehaWjr763L5pgW+tf0xghxR9VZr8l4CAAAAsEBfgVdw6H0Z/bz5IX277bb6JPp2AQAAwBahWxp6ST8vv8Ht7exrLi2pnejbBQAAAJtEEniln5erfnuwiC3blFL7EHYBAADANpEEXiFBaHlZ7SQsYssoZ3x2tl4nAAAAAMtEFniFhF7HQejNHme81TpRIwAAAAAL9b1obTWZ3HDNNTf9hv9YJcgAhF0AAACwW+SBVywunp3m0PtzQui1mlLOMQ67YwQAAABgsVgCr0DotZuE3dnZE6MEAAAAYLnYAq9A6LWV28aAyi4AAABkgqIEDAxUR7hiOMV/HCIwHHp2AQAAIFsSCbxi8+bqcLHoTClFwwSGQtgFAACA7Eks8AqEXmM1HUcdmJurTxAAAABAxkQ6h3cjMqe3XFbbOWdjAwND8MWHOzsZYRcAAACyKtZFa2uZnz87v7h49v9t2nSTVJcrBClSjVJJ7ZydxXbBAAAAkF2JB94uDr2Na6656Yzj0Ie5yojFbImTft3JfXIBQgAAAAAZlmgP71qkr7dUoqMcwCoEsfNbGPa1WvUGAQAAAORA6oG3a2CgOqaUc4ggRqrOFxf7ms16kwAAAABywpjAK1DtjU1TKbVvdraOxYIAAACQO6n18K6l3T7bXFw8e6xcdndnG0FvbxScI6VSYc+FC/VpAgAAAMghoyq8vaTaWy5TzXGcvQQhqAb/zzh6dQEAACDvjA28XX6bw2GuVO4m2JAsSut01Djm6gIAAAB4jA+8XYOD1Qq/OYj+3nU1+cd5RC4OsCgNAAAA4DJrAm8Xgu8VEHQBAAAArsK6wNs1MFAdKRRoLL89vqrhOHQMrQsAAAAAV2dt4O3ye3xHJfgqRcOUbVLNPcZv61iMBgAAABCM9YG3l7Q7cOiV8CsL3DI00syt5k6WyzSBtgUAAAAAPZkKvF1DQ9Wh5WWq8B+r9oZfhFwAAACAKGQy8K7mL3Sr8uNWUxe7cbidKRRUo9Ohkxxy6wi5AAAAANHIReDtJdXfdptG+I8VfuzgqCl/TroCLL24svPZGQ6601yNbszP12cIAAAAACKXu8C7lm4I5vA54i98u0H+2nGc4T4WwjX54zWVUtP8MZpcuT1TKNDM0hJNI9wCAAAAJAeBNwAJxPPzNFQs0hCH1zWrwRJuuVLrtiEg0AIAAACY498BYvhygeEUo44AAAAASUVORK5CYII=;" vertex="1" parent="1">
          <mxGeometry x="1269.1599999999999" y="208.61" width="211.68" height="48.08" as="geometry" />
        </mxCell>
      </root>
    </mxGraphModel>
  </diagram>
</mxfile>
